<svg width="214" height="345" viewBox="0 0 214 345" fill="none" xmlns="http://www.w3.org/2000/svg">
<g filter="url(#filter0_d_758_2903)">
<g clip-path="url(#clip0_758_2903)">
<rect x="207" y="5" width="315" height="184" rx="14" transform="rotate(90 207 5)" fill="#08090C"/>
<mask id="mask0_758_2903" style="mask-type:alpha" maskUnits="userSpaceOnUse" x="155" y="-21" width="74" height="63">
<ellipse cx="192.048" cy="10.2071" rx="27.5895" ry="39.2135" transform="rotate(120 192.048 10.2071)" fill="#D99946"/>
</mask>
<g mask="url(#mask0_758_2903)">
<g style="mix-blend-mode:exclusion" filter="url(#filter1_f_758_2903)">
<path d="M153.096 -5.45589C164.04 -15.8778 184.751 -13.0105 199.354 0.948395C213.957 14.9073 216.923 34.6718 205.978 45.0937C195.033 55.5156 186.355 41.1912 171.752 27.2323C157.149 13.2734 142.151 4.96602 153.096 -5.45589Z" fill="#D99946"/>
</g>
<g filter="url(#filter2_f_758_2903)">
<path d="M225.815 10.8486C226.215 1.46887 205.178 -12.6751 197.482 -15.7821C171.709 -33.7014 206.388 -24.916 209.705 -26.4426C213.022 -27.9693 216.752 -26.1561 218.559 -24.4725C220.366 -22.7889 248.425 -6.24872 256.514 1.65748C264.603 9.56368 265.313 17.7974 265.992 19.7234C266.672 21.6493 248.428 56.549 237.01 64.0095C225.591 71.47 215.491 54.3023 209.885 47.4166C204.279 40.5308 205.368 36.005 218.79 32.6278C232.213 29.2505 225.316 22.5733 225.815 10.8486Z" fill="#D99946"/>
</g>
<g filter="url(#filter3_f_758_2903)">
<path d="M186.737 -18.6955C203.844 -13.2923 215.791 -6.42513 214.598 -9.80134C206.885 -14.2546 192.556 -23.7757 190.387 -23.7796C187.676 -23.7845 172.197 -25.1792 171.048 -24.6726C170.128 -24.2673 155.959 -14.7026 148.99 -9.97097L149.508 26.7369C162.071 34.3366 187.543 49.5285 188.932 49.4981C190.668 49.4601 198.094 36.8439 187.581 34.0247C177.067 31.2054 168.12 18.4981 163.616 8.48595C159.112 -1.52615 165.354 -25.4497 186.737 -18.6955Z" fill="#D99946"/>
</g>
<g filter="url(#filter4_f_758_2903)">
<path d="M181.479 -6.99873C190.255 -10.6191 188.986 -15.8404 187.254 -17.9985C183.844 -18.4647 176.376 -19.3282 173.781 -19.0523C170.538 -18.7073 154.455 -11.4045 152.088 -8.96663C149.722 -6.52873 145.448 -3.84504 143.687 2.70756C141.926 9.26015 151.318 35.3975 153.124 40.4239C154.569 44.445 163.653 45.8941 168.015 46.116C175.738 46.2065 188.477 45.448 177.648 41.6896C164.113 36.9917 163.297 13.8979 162.402 10.7117C161.506 7.52549 170.509 -2.47322 181.479 -6.99873Z" fill="#D99946"/>
</g>
<g style="mix-blend-mode:soft-light" filter="url(#filter5_f_758_2903)">
<path d="M188.047 -19.8388C195.97 -23.9838 209.916 -15.4322 219.196 -0.73818C228.476 13.9558 229.576 29.2279 221.653 33.373C213.729 37.5181 208.494 24.4096 199.214 9.71563C189.934 -4.97839 180.124 -15.6937 188.047 -19.8388Z" fill="#D99946"/>
</g>
<g style="mix-blend-mode:overlay">
<rect x="239.716" y="-2.17438" width="255" height="318" transform="rotate(120 239.716 -2.17438)" fill="#D99946"/>
</g>
</g>
<path d="M49.4517 123.707L49.4517 100.434L57.3153 100.434C59.1411 100.434 60.6335 100.764 61.7926 101.423C62.9593 102.075 63.8229 102.957 64.3835 104.071C64.9441 105.184 65.2244 106.427 65.2244 107.798C65.2244 109.169 64.9441 110.415 64.3835 111.537C63.8305 112.658 62.9744 113.552 61.8154 114.219C60.6563 114.878 59.1714 115.207 57.3608 115.207L51.7244 115.207L51.7244 112.707L57.2699 112.707C58.5199 112.707 59.5237 112.491 60.2813 112.059C61.0388 111.628 61.5881 111.044 61.929 110.309C62.2775 109.567 62.4517 108.73 62.4517 107.798C62.4517 106.866 62.2775 106.033 61.929 105.298C61.5881 104.563 61.035 103.987 60.2699 103.571C59.5047 103.147 58.4896 102.934 57.2244 102.934L52.2699 102.934L52.2699 123.707L49.4517 123.707ZM68.6638 123.707L65.7092 123.707L74.2547 100.434L77.1638 100.434L85.7092 123.707L82.7547 123.707L75.8001 104.116L75.6183 104.116L68.6638 123.707ZM69.7547 114.616L81.6638 114.616L81.6638 117.116L69.7547 117.116L69.7547 114.616ZM107.288 107.707L104.47 107.707C104.303 106.897 104.011 106.184 103.595 105.571C103.185 104.957 102.685 104.442 102.095 104.025C101.511 103.601 100.863 103.283 100.151 103.071C99.4393 102.859 98.6968 102.753 97.9241 102.753C96.515 102.753 95.2385 103.109 94.0946 103.821C92.9582 104.533 92.0529 105.582 91.3786 106.969C90.712 108.355 90.3786 110.056 90.3786 112.071C90.3786 114.086 90.712 115.787 91.3786 117.173C92.0529 118.559 92.9582 119.609 94.0946 120.321C95.2385 121.033 96.515 121.389 97.9241 121.389C98.6968 121.389 99.4393 121.283 100.151 121.071C100.863 120.859 101.511 120.544 102.095 120.128C102.685 119.703 103.185 119.184 103.595 118.571C104.011 117.95 104.303 117.237 104.47 116.434L107.288 116.434C107.076 117.624 106.689 118.688 106.129 119.628C105.568 120.567 104.871 121.366 104.038 122.025C103.204 122.677 102.269 123.173 101.231 123.514C100.201 123.855 99.0983 124.025 97.9241 124.025C95.9393 124.025 94.1741 123.54 92.6286 122.571C91.0832 121.601 89.8673 120.222 88.9809 118.434C88.0946 116.647 87.6514 114.525 87.6514 112.071C87.6514 109.616 88.0946 107.495 88.9809 105.707C89.8673 103.919 91.0832 102.54 92.6286 101.571C94.1741 100.601 95.9393 100.116 97.9241 100.116C99.0983 100.116 100.201 100.287 101.231 100.628C102.269 100.969 103.204 101.469 104.038 102.128C104.871 102.779 105.568 103.575 106.129 104.514C106.689 105.446 107.076 106.51 107.288 107.707ZM131.798 112.071C131.798 114.525 131.355 116.647 130.469 118.434C129.582 120.222 128.366 121.601 126.821 122.571C125.275 123.54 123.51 124.025 121.525 124.025C119.541 124.025 117.775 123.54 116.23 122.571C114.684 121.601 113.469 120.222 112.582 118.434C111.696 116.647 111.253 114.525 111.253 112.071C111.253 109.616 111.696 107.495 112.582 105.707C113.469 103.919 114.684 102.54 116.23 101.571C117.775 100.601 119.541 100.116 121.525 100.116C123.51 100.116 125.275 100.601 126.821 101.571C128.366 102.54 129.582 103.919 130.469 105.707C131.355 107.495 131.798 109.616 131.798 112.071ZM129.071 112.071C129.071 110.056 128.734 108.355 128.059 106.969C127.393 105.582 126.487 104.533 125.344 103.821C124.207 103.109 122.934 102.753 121.525 102.753C120.116 102.753 118.84 103.109 117.696 103.821C116.559 104.533 115.654 105.582 114.98 106.969C114.313 108.355 113.98 110.056 113.98 112.071C113.98 114.086 114.313 115.787 114.98 117.173C115.654 118.559 116.559 119.609 117.696 120.321C118.84 121.033 120.116 121.389 121.525 121.389C122.934 121.389 124.207 121.033 125.344 120.321C126.487 119.609 127.393 118.559 128.059 117.173C128.734 115.787 129.071 114.086 129.071 112.071ZM136.857 100.434L140.22 100.434L148.129 119.753L148.402 119.753L156.311 100.434L159.675 100.434L159.675 123.707L157.039 123.707L157.039 106.025L156.811 106.025L149.539 123.707L146.993 123.707L139.72 106.025L139.493 106.025L139.493 123.707L136.857 123.707L136.857 100.434ZM165.645 123.707L165.645 100.434L179.691 100.434L179.691 102.934L168.464 102.934L168.464 110.798L178.964 110.798L178.964 113.298L168.464 113.298L168.464 121.207L179.873 121.207L179.873 123.707L165.645 123.707Z" fill="white"/>
<path d="M46.5259 180.707L46.5259 170.525L50.0856 170.525C50.7949 170.525 51.3799 170.648 51.8406 170.893C52.3013 171.135 52.6443 171.462 52.8697 171.873C53.0951 172.28 53.2077 172.733 53.2077 173.23C53.2077 173.667 53.1299 174.029 52.9741 174.314C52.8216 174.599 52.6194 174.824 52.3675 174.99C52.119 175.155 51.8488 175.278 51.5572 175.358L51.5572 175.457C51.8687 175.477 52.1819 175.586 52.4968 175.785C52.8117 175.984 53.0752 176.269 53.2873 176.64C53.4994 177.011 53.6055 177.466 53.6055 178.002C53.6055 178.513 53.4895 178.972 53.2575 179.38C53.0255 179.787 52.6592 180.11 52.1587 180.349C51.6583 180.588 51.007 180.707 50.2049 180.707L46.5259 180.707ZM47.7589 179.613L50.2049 179.613C51.0103 179.613 51.582 179.458 51.9201 179.146C52.2615 178.831 52.4322 178.45 52.4322 178.002C52.4322 177.658 52.3443 177.34 52.1687 177.048C51.993 176.753 51.7428 176.518 51.418 176.342C51.0932 176.163 50.7087 176.074 50.2646 176.074L47.7589 176.074L47.7589 179.613ZM47.7589 175L50.0458 175C50.417 175 50.7518 174.927 51.0501 174.781C51.3517 174.635 51.5903 174.43 51.766 174.164C51.945 173.899 52.0344 173.588 52.0344 173.23C52.0344 172.782 51.8787 172.403 51.5671 172.091C51.2556 171.776 50.7617 171.619 50.0856 171.619L47.7589 171.619L47.7589 175ZM56.368 183.571C56.1691 183.571 55.9918 183.554 55.836 183.521C55.6802 183.491 55.5725 183.461 55.5129 183.431L55.8112 182.397C56.0962 182.47 56.3481 182.497 56.5668 182.477C56.7856 182.457 56.9795 182.359 57.1485 182.184C57.3209 182.011 57.4783 181.731 57.6208 181.343L57.8396 180.747L55.0157 173.071L56.2884 173.071L58.3964 179.156L58.4759 179.156L60.5839 173.071L61.8566 173.071L58.6151 181.821C58.4693 182.215 58.2887 182.542 58.0732 182.8C57.8578 183.062 57.6076 183.256 57.3225 183.382C57.0408 183.508 56.7226 183.571 56.368 183.571ZM64.1248 180.775C63.9146 180.775 63.7342 180.7 63.5836 180.549C63.4331 180.399 63.3578 180.218 63.3578 180.008C63.3578 179.798 63.4331 179.618 63.5836 179.467C63.7342 179.316 63.9146 179.241 64.1248 179.241C64.335 179.241 64.5154 179.316 64.666 179.467C64.8166 179.618 64.8919 179.798 64.8919 180.008C64.8919 180.147 64.8564 180.275 64.7853 180.392C64.7171 180.508 64.6248 180.602 64.5083 180.673C64.3947 180.741 64.2669 180.775 64.1248 180.775ZM64.1248 175.917C63.9146 175.917 63.7342 175.842 63.5836 175.691C63.4331 175.541 63.3578 175.36 63.3578 175.15C63.3578 174.94 63.4331 174.76 63.5836 174.609C63.7342 174.458 63.9146 174.383 64.1248 174.383C64.335 174.383 64.5154 174.458 64.666 174.609C64.8166 174.76 64.8919 174.94 64.8919 175.15C64.8919 175.289 64.8564 175.417 64.7853 175.534C64.7171 175.65 64.6248 175.744 64.5083 175.815C64.3947 175.883 64.2669 175.917 64.1248 175.917ZM70.5665 176.497L70.5665 177.434L66.7484 177.434L66.7484 176.497L70.5665 176.497ZM79.9404 180.707L78.8324 180.707L82.037 171.98L83.1279 171.98L86.3324 180.707L85.2245 180.707L82.6165 173.36L82.5484 173.36L79.9404 180.707ZM80.3495 177.298L84.8154 177.298L84.8154 178.235L80.3495 178.235L80.3495 177.298ZM92.2074 174.162L89.787 180.707L88.7642 180.707L86.3438 174.162L87.4347 174.162L89.2415 179.377L89.3097 179.377L91.1165 174.162L92.2074 174.162ZM93.6548 180.707L93.6548 174.162L94.6605 174.162L94.6605 180.707L93.6548 180.707ZM94.1662 173.071C93.9702 173.071 93.8011 173.004 93.6591 172.87C93.5199 172.737 93.4503 172.576 93.4503 172.389C93.4503 172.201 93.5199 172.041 93.6591 171.907C93.8011 171.774 93.9702 171.707 94.1662 171.707C94.3622 171.707 94.5298 171.774 94.669 171.907C94.8111 172.041 94.8821 172.201 94.8821 172.389C94.8821 172.576 94.8111 172.737 94.669 172.87C94.5298 173.004 94.3622 173.071 94.1662 173.071ZM97.6282 176.77L97.6282 180.707L96.6225 180.707L96.6225 174.162L97.5941 174.162L97.5941 175.184L97.6793 175.184C97.8327 174.852 98.0657 174.585 98.3782 174.383C98.6907 174.179 99.0941 174.076 99.5884 174.076C100.032 174.076 100.419 174.167 100.752 174.349C101.084 174.528 101.343 174.801 101.527 175.167C101.712 175.531 101.804 175.991 101.804 176.548L101.804 180.707L100.799 180.707L100.799 176.616C100.799 176.102 100.665 175.701 100.398 175.414C100.131 175.125 99.7645 174.98 99.2986 174.98C98.9776 174.98 98.6907 175.049 98.4378 175.189C98.1878 175.328 97.9904 175.531 97.8455 175.798C97.7006 176.065 97.6282 176.389 97.6282 176.77ZM106.506 180.843C105.876 180.843 105.332 180.704 104.874 180.426C104.42 180.145 104.069 179.752 103.822 179.25C103.577 178.744 103.455 178.156 103.455 177.485C103.455 176.815 103.577 176.224 103.822 175.713C104.069 175.199 104.413 174.798 104.853 174.511C105.296 174.221 105.813 174.076 106.404 174.076C106.745 174.076 107.082 174.133 107.414 174.247C107.746 174.36 108.049 174.545 108.322 174.801C108.594 175.054 108.812 175.389 108.974 175.806C109.136 176.224 109.217 176.738 109.217 177.349L109.217 177.775L104.171 177.775L104.171 176.906L108.194 176.906C108.194 176.537 108.12 176.207 107.972 175.917C107.827 175.627 107.62 175.399 107.35 175.231C107.083 175.064 106.768 174.98 106.404 174.98C106.003 174.98 105.657 175.079 105.364 175.278C105.075 175.474 104.852 175.73 104.695 176.045C104.539 176.36 104.461 176.699 104.461 177.059L104.461 177.639C104.461 178.133 104.546 178.552 104.717 178.896C104.89 179.237 105.13 179.497 105.437 179.676C105.744 179.852 106.1 179.94 106.506 179.94C106.771 179.94 107.009 179.903 107.222 179.829C107.438 179.752 107.624 179.639 107.78 179.488C107.937 179.335 108.057 179.145 108.143 178.917L109.114 179.19C109.012 179.52 108.84 179.809 108.599 180.059C108.357 180.306 108.059 180.5 107.704 180.639C107.349 180.775 106.95 180.843 106.506 180.843ZM115.503 175.627L114.599 175.883C114.543 175.733 114.459 175.586 114.348 175.444C114.24 175.299 114.092 175.18 113.905 175.086C113.717 174.993 113.477 174.946 113.185 174.946C112.784 174.946 112.45 175.038 112.183 175.223C111.919 175.404 111.787 175.636 111.787 175.917C111.787 176.167 111.878 176.365 112.06 176.51C112.241 176.654 112.525 176.775 112.912 176.872L113.883 177.11C114.469 177.252 114.905 177.47 115.192 177.762C115.479 178.052 115.622 178.426 115.622 178.883C115.622 179.258 115.514 179.593 115.298 179.889C115.085 180.184 114.787 180.417 114.403 180.588C114.02 180.758 113.574 180.843 113.065 180.843C112.398 180.843 111.845 180.699 111.408 180.409C110.97 180.119 110.693 179.696 110.577 179.139L111.531 178.9C111.622 179.252 111.794 179.517 112.047 179.693C112.302 179.869 112.636 179.957 113.048 179.957C113.517 179.957 113.889 179.858 114.165 179.659C114.443 179.457 114.582 179.216 114.582 178.934C114.582 178.707 114.503 178.517 114.344 178.363C114.185 178.207 113.94 178.091 113.611 178.014L112.52 177.758C111.92 177.616 111.48 177.396 111.199 177.098C110.92 176.797 110.781 176.42 110.781 175.968C110.781 175.599 110.885 175.272 111.092 174.988C111.302 174.704 111.588 174.481 111.949 174.319C112.312 174.157 112.724 174.076 113.185 174.076C113.832 174.076 114.341 174.218 114.71 174.502C115.082 174.787 115.347 175.162 115.503 175.627ZM118.262 176.77L118.262 180.707L117.256 180.707L117.256 171.98L118.262 171.98L118.262 175.184L118.347 175.184C118.5 174.846 118.73 174.578 119.037 174.379C119.347 174.177 119.759 174.076 120.273 174.076C120.719 174.076 121.11 174.166 121.445 174.345C121.78 174.521 122.04 174.792 122.225 175.159C122.412 175.522 122.506 175.985 122.506 176.548L122.506 180.707L121.5 180.707L121.5 176.616C121.5 176.096 121.365 175.694 121.095 175.41C120.828 175.123 120.458 174.98 119.983 174.98C119.654 174.98 119.358 175.049 119.097 175.189C118.838 175.328 118.634 175.531 118.483 175.798C118.335 176.065 118.262 176.389 118.262 176.77ZM72.6046 196.86C72.1898 196.86 71.8134 196.782 71.4753 196.626C71.1372 196.467 70.8688 196.238 70.6699 195.94C70.471 195.639 70.3716 195.275 70.3716 194.849C70.3716 194.474 70.4455 194.17 70.5932 193.937C70.7409 193.701 70.9384 193.517 71.1855 193.383C71.4327 193.25 71.7054 193.15 72.0037 193.085C72.3048 193.017 72.6074 192.963 72.9114 192.923C73.3091 192.872 73.6316 192.833 73.8787 192.808C74.1287 192.779 74.3105 192.733 74.4242 192.667C74.5406 192.602 74.5989 192.488 74.5989 192.326L74.5989 192.292C74.5989 191.872 74.4838 191.545 74.2537 191.312C74.0264 191.079 73.6813 190.963 73.2182 190.963C72.7381 190.963 72.3617 191.068 72.0889 191.278C71.8162 191.488 71.6244 191.713 71.5137 191.951L70.5591 191.61C70.7296 191.213 70.9568 190.903 71.2409 190.681C71.5279 190.457 71.8404 190.301 72.1784 190.213C72.5193 190.122 72.8546 190.076 73.1841 190.076C73.3943 190.076 73.6358 190.102 73.9085 190.153C74.1841 190.201 74.4497 190.302 74.7054 190.456C74.9639 190.609 75.1784 190.841 75.3489 191.15C75.5193 191.46 75.6046 191.875 75.6046 192.395L75.6046 196.707L74.5989 196.707L74.5989 195.821L74.5477 195.821C74.4796 195.963 74.3659 196.115 74.2068 196.277C74.0477 196.439 73.8361 196.576 73.5719 196.69C73.3077 196.804 72.9852 196.86 72.6046 196.86ZM72.758 195.957C73.1557 195.957 73.4909 195.879 73.7637 195.723C74.0392 195.566 74.2466 195.365 74.3858 195.118C74.5279 194.87 74.5989 194.61 74.5989 194.338L74.5989 193.417C74.5563 193.468 74.4625 193.515 74.3176 193.558C74.1756 193.598 74.0108 193.633 73.8233 193.664C73.6387 193.693 73.4583 193.718 73.2821 193.741C73.1088 193.761 72.9682 193.778 72.8602 193.792C72.5989 193.826 72.3546 193.882 72.1273 193.958C71.9029 194.032 71.721 194.145 71.5818 194.295C71.4455 194.443 71.3773 194.645 71.3773 194.9C71.3773 195.25 71.5066 195.514 71.7651 195.693C72.0264 195.869 72.3574 195.957 72.758 195.957ZM78.5658 192.77L78.5658 196.707L77.5601 196.707L77.5601 190.162L78.5317 190.162L78.5317 191.184L78.617 191.184C78.7704 190.852 79.0033 190.585 79.3158 190.383C79.6283 190.179 80.0317 190.076 80.5261 190.076C80.9692 190.076 81.357 190.167 81.6894 190.349C82.0218 190.528 82.2803 190.801 82.465 191.167C82.6496 191.531 82.742 191.991 82.742 192.548L82.742 196.707L81.7363 196.707L81.7363 192.616C81.7363 192.102 81.6028 191.701 81.3357 191.414C81.0687 191.125 80.7022 190.98 80.2363 190.98C79.9153 190.98 79.6283 191.049 79.3755 191.189C79.1255 191.328 78.928 191.531 78.7832 191.798C78.6383 192.065 78.5658 192.389 78.5658 192.77ZM87.1713 196.843C86.6258 196.843 86.1443 196.706 85.7267 196.43C85.3091 196.152 84.9823 195.76 84.7466 195.254C84.5108 194.745 84.3929 194.145 84.3929 193.451C84.3929 192.764 84.5108 192.167 84.7466 191.662C84.9823 191.156 85.3105 190.765 85.7309 190.49C86.1514 190.214 86.6372 190.076 87.1883 190.076C87.6144 190.076 87.9511 190.147 88.1983 190.289C88.4483 190.429 88.6386 190.588 88.7693 190.767C88.9028 190.943 89.0065 191.088 89.0804 191.201L89.1656 191.201L89.1656 187.98L90.1713 187.98L90.1713 196.707L89.1997 196.707L89.1997 195.701L89.0804 195.701C89.0065 195.821 88.9014 195.971 88.765 196.153C88.6287 196.332 88.4341 196.493 88.1812 196.635C87.9284 196.774 87.5917 196.843 87.1713 196.843ZM87.3076 195.94C87.711 195.94 88.052 195.835 88.3304 195.625C88.6088 195.412 88.8204 195.118 88.9653 194.743C89.1102 194.365 89.1826 193.929 89.1826 193.434C89.1826 192.946 89.1116 192.518 88.9696 192.152C88.8275 191.782 88.6173 191.495 88.3389 191.291C88.0605 191.083 87.7167 190.98 87.3076 190.98C86.8815 190.98 86.5264 191.089 86.2423 191.308C85.961 191.524 85.7494 191.818 85.6073 192.19C85.4681 192.559 85.3985 192.974 85.3985 193.434C85.3985 193.9 85.4696 194.324 85.6116 194.704C85.7565 195.082 85.9696 195.383 86.2508 195.608C86.5349 195.829 86.8872 195.94 87.3076 195.94ZM98.6144 190.162L98.6144 191.014L95.2223 191.014L95.2223 190.162L98.6144 190.162ZM96.211 188.593L97.2167 188.593L97.2167 194.832C97.2167 195.116 97.2579 195.329 97.3402 195.471C97.4255 195.61 97.5334 195.704 97.6641 195.752C97.7976 195.798 97.9383 195.821 98.086 195.821C98.1968 195.821 98.2877 195.815 98.3587 195.804C98.4297 195.789 98.4866 195.778 98.5292 195.77L98.7337 196.673C98.6655 196.699 98.5704 196.724 98.4482 196.75C98.326 196.778 98.1712 196.792 97.9837 196.792C97.6996 196.792 97.4212 196.731 97.1485 196.609C96.8786 196.487 96.6542 196.301 96.4752 196.051C96.2991 195.801 96.211 195.485 96.211 195.105L96.211 188.593ZM102.921 196.843C102.29 196.843 101.746 196.704 101.289 196.426C100.835 196.145 100.484 195.752 100.237 195.25C99.9922 194.744 99.87 194.156 99.87 193.485C99.87 192.815 99.9922 192.224 100.237 191.713C100.484 191.199 100.827 190.798 101.268 190.511C101.711 190.221 102.228 190.076 102.819 190.076C103.16 190.076 103.496 190.133 103.829 190.247C104.161 190.36 104.464 190.545 104.737 190.801C105.009 191.054 105.227 191.389 105.389 191.806C105.55 192.224 105.631 192.738 105.631 193.349L105.631 193.775L100.586 193.775L100.586 192.906L104.609 192.906C104.609 192.537 104.535 192.207 104.387 191.917C104.242 191.627 104.035 191.399 103.765 191.231C103.498 191.064 103.183 190.98 102.819 190.98C102.418 190.98 102.072 191.079 101.779 191.278C101.489 191.474 101.266 191.73 101.11 192.045C100.954 192.36 100.876 192.699 100.876 193.059L100.876 193.639C100.876 194.133 100.961 194.552 101.131 194.896C101.305 195.237 101.545 195.497 101.852 195.676C102.158 195.852 102.515 195.94 102.921 195.94C103.185 195.94 103.424 195.903 103.637 195.829C103.853 195.752 104.039 195.639 104.195 195.488C104.352 195.335 104.472 195.145 104.558 194.917L105.529 195.19C105.427 195.52 105.255 195.809 105.014 196.059C104.772 196.306 104.474 196.5 104.119 196.639C103.764 196.775 103.364 196.843 102.921 196.843ZM109.207 196.86C108.793 196.86 108.416 196.782 108.078 196.626C107.74 196.467 107.472 196.238 107.273 195.94C107.074 195.639 106.974 195.275 106.974 194.849C106.974 194.474 107.048 194.17 107.196 193.937C107.344 193.701 107.541 193.517 107.788 193.383C108.036 193.25 108.308 193.15 108.607 193.085C108.908 193.017 109.21 192.963 109.514 192.923C109.912 192.872 110.234 192.833 110.482 192.808C110.732 192.779 110.913 192.733 111.027 192.667C111.143 192.602 111.202 192.488 111.202 192.326L111.202 192.292C111.202 191.872 111.087 191.545 110.857 191.312C110.629 191.079 110.284 190.963 109.821 190.963C109.341 190.963 108.964 191.068 108.692 191.278C108.419 191.488 108.227 191.713 108.116 191.951L107.162 191.61C107.332 191.213 107.56 190.903 107.844 190.681C108.131 190.457 108.443 190.301 108.781 190.213C109.122 190.122 109.457 190.076 109.787 190.076C109.997 190.076 110.239 190.102 110.511 190.153C110.787 190.201 111.053 190.302 111.308 190.456C111.567 190.609 111.781 190.841 111.952 191.15C112.122 191.46 112.207 191.875 112.207 192.395L112.207 196.707L111.202 196.707L111.202 195.821L111.151 195.821C111.082 195.963 110.969 196.115 110.81 196.277C110.651 196.439 110.439 196.576 110.175 196.69C109.911 196.804 109.588 196.86 109.207 196.86ZM109.361 195.957C109.759 195.957 110.094 195.879 110.366 195.723C110.642 195.566 110.849 195.365 110.989 195.118C111.131 194.87 111.202 194.61 111.202 194.338L111.202 193.417C111.159 193.468 111.065 193.515 110.92 193.558C110.778 193.598 110.614 193.633 110.426 193.664C110.241 193.693 110.061 193.718 109.885 193.741C109.712 193.761 109.571 193.778 109.463 193.792C109.202 193.826 108.957 193.882 108.73 193.958C108.506 194.032 108.324 194.145 108.185 194.295C108.048 194.443 107.98 194.645 107.98 194.9C107.98 195.25 108.109 195.514 108.368 195.693C108.629 195.869 108.96 195.957 109.361 195.957ZM114.163 196.707L114.163 190.162L115.135 190.162L115.135 191.184L115.22 191.184C115.356 190.835 115.576 190.564 115.88 190.37C116.184 190.174 116.549 190.076 116.975 190.076C117.407 190.076 117.767 190.174 118.054 190.37C118.343 190.564 118.569 190.835 118.731 191.184L118.799 191.184C118.967 190.846 119.218 190.578 119.554 190.379C119.889 190.177 120.291 190.076 120.76 190.076C121.345 190.076 121.823 190.26 122.196 190.626C122.568 190.99 122.754 191.556 122.754 192.326L122.754 196.707L121.748 196.707L121.748 192.326C121.748 191.843 121.616 191.498 121.352 191.291C121.088 191.083 120.777 190.98 120.419 190.98C119.958 190.98 119.602 191.119 119.349 191.397C119.096 191.673 118.97 192.022 118.97 192.446L118.97 196.707L117.947 196.707L117.947 192.224C117.947 191.852 117.826 191.552 117.585 191.325C117.343 191.095 117.032 190.98 116.652 190.98C116.39 190.98 116.146 191.049 115.919 191.189C115.694 191.328 115.512 191.521 115.373 191.768C115.237 192.012 115.169 192.295 115.169 192.616L115.169 196.707L114.163 196.707Z" fill="white"/>
<path d="M45.293 183.491L54.7525 183.491L54.7525 184.446L45.293 184.446L45.293 183.491ZM57.9741 183.491L62.4714 183.491L62.4714 184.446L57.9741 184.446L57.9741 183.491ZM62.4714 183.093L65.8961 183.093L65.8961 183.912L62.4714 183.912L62.4714 183.093Z" fill="white"/>
<path d="M70.2051 231.015C69.8613 231.015 69.5474 230.931 69.2633 230.763C68.9792 230.593 68.752 230.366 68.5815 230.082C68.4139 229.798 68.3301 229.484 68.3301 229.14C68.3301 228.793 68.4139 228.479 68.5815 228.198C68.752 227.914 68.9792 227.688 69.2633 227.521C69.5474 227.35 69.8613 227.265 70.2051 227.265C70.5517 227.265 70.8656 227.35 71.1468 227.521C71.4309 227.688 71.6568 227.914 71.8244 228.198C71.9949 228.479 72.0801 228.793 72.0801 229.14C72.0801 229.484 71.9949 229.798 71.8244 230.082C71.6568 230.366 71.4309 230.593 71.1468 230.763C70.8656 230.931 70.5517 231.015 70.2051 231.015ZM80.2619 232.617V223.89H83.2108C83.8926 223.89 84.4522 224.006 84.8897 224.239C85.3272 224.469 85.6511 224.786 85.8613 225.19C86.0716 225.593 86.1767 226.052 86.1767 226.566C86.1767 227.08 86.0716 227.536 85.8613 227.934C85.6511 228.332 85.3287 228.644 84.894 228.871C84.4593 229.096 83.9039 229.208 83.2278 229.208H80.8414V228.254H83.1937C83.6596 228.254 84.0346 228.185 84.3187 228.049C84.6056 227.913 84.813 227.719 84.9409 227.469C85.0716 227.217 85.1369 226.915 85.1369 226.566C85.1369 226.217 85.0716 225.911 84.9409 225.65C84.8102 225.388 84.6014 225.187 84.3145 225.045C84.0275 224.9 83.6483 224.827 83.1767 224.827H81.3187V232.617H80.2619ZM84.3699 228.697L86.5176 232.617H85.2903L83.1767 228.697H84.3699ZM90.5953 232.754C89.9646 232.754 89.4206 232.614 88.9632 232.336C88.5087 232.055 88.1578 231.663 87.9107 231.16C87.6663 230.654 87.5442 230.066 87.5442 229.396C87.5442 228.725 87.6663 228.134 87.9107 227.623C88.1578 227.109 88.5016 226.708 88.9419 226.421C89.3851 226.131 89.9021 225.987 90.493 225.987C90.834 225.987 91.1706 226.043 91.503 226.157C91.8354 226.271 92.1379 226.455 92.4107 226.711C92.6834 226.964 92.9007 227.299 93.0627 227.717C93.2246 228.134 93.3055 228.648 93.3055 229.259V229.685H88.2601V228.816H92.2828C92.2828 228.447 92.209 228.117 92.0612 227.827C91.9163 227.538 91.709 227.309 91.4391 227.141C91.172 226.974 90.8567 226.89 90.493 226.89C90.0925 226.89 89.7459 226.989 89.4533 227.188C89.1635 227.384 88.9405 227.64 88.7842 227.955C88.628 228.271 88.5499 228.609 88.5499 228.969V229.549C88.5499 230.043 88.6351 230.462 88.8055 230.806C88.9788 231.147 89.2189 231.407 89.5257 231.586C89.8325 231.762 90.1891 231.85 90.5953 231.85C90.8595 231.85 91.0982 231.813 91.3112 231.739C91.5271 231.663 91.7132 231.549 91.8695 231.398C92.0257 231.245 92.1465 231.055 92.2317 230.827L93.2033 231.1C93.101 231.43 92.9291 231.719 92.6877 231.969C92.4462 232.217 92.1479 232.41 91.7928 232.549C91.4377 232.685 91.0385 232.754 90.5953 232.754ZM96.8815 232.771C96.4667 232.771 96.0903 232.692 95.7523 232.536C95.4142 232.377 95.1457 232.148 94.9469 231.85C94.748 231.549 94.6486 231.185 94.6486 230.759C94.6486 230.384 94.7224 230.08 94.8702 229.847C95.0179 229.612 95.2153 229.427 95.4625 229.293C95.7096 229.16 95.9824 229.06 96.2807 228.995C96.5818 228.927 96.8844 228.873 97.1883 228.833C97.5861 228.782 97.9085 228.744 98.1557 228.718C98.4057 228.69 98.5875 228.643 98.7011 228.577C98.8176 228.512 98.8758 228.398 98.8758 228.237V228.202C98.8758 227.782 98.7608 227.455 98.5307 227.222C98.3034 226.989 97.9582 226.873 97.4952 226.873C97.015 226.873 96.6386 226.978 96.3659 227.188C96.0932 227.398 95.9014 227.623 95.7906 227.862L94.8361 227.521C95.0065 227.123 95.2338 226.813 95.5179 226.592C95.8048 226.367 96.1173 226.211 96.4554 226.123C96.7963 226.032 97.1315 225.987 97.4611 225.987C97.6713 225.987 97.9128 226.012 98.1855 226.063C98.4611 226.112 98.7267 226.212 98.9824 226.366C99.2409 226.519 99.4554 226.751 99.6258 227.06C99.7963 227.37 99.8815 227.785 99.8815 228.305V232.617H98.8758V231.731H98.8247C98.7565 231.873 98.6429 232.025 98.4838 232.187C98.3247 232.349 98.113 232.487 97.8488 232.6C97.5846 232.714 97.2622 232.771 96.8815 232.771ZM97.0349 231.867C97.4327 231.867 97.7679 231.789 98.0406 231.633C98.3162 231.477 98.5236 231.275 98.6628 231.028C98.8048 230.781 98.8758 230.521 98.8758 230.248V229.327C98.8332 229.379 98.7395 229.425 98.5946 229.468C98.4525 229.508 98.2878 229.543 98.1003 229.575C97.9156 229.603 97.7352 229.629 97.5591 229.651C97.3858 229.671 97.2452 229.688 97.1372 229.702C96.8758 229.737 96.6315 229.792 96.4042 229.869C96.1798 229.942 95.998 230.055 95.8588 230.205C95.7224 230.353 95.6542 230.555 95.6542 230.81C95.6542 231.16 95.7835 231.424 96.042 231.603C96.3034 231.779 96.6344 231.867 97.0349 231.867ZM104.496 232.754C103.883 232.754 103.354 232.609 102.911 232.319C102.468 232.029 102.127 231.63 101.888 231.121C101.65 230.613 101.53 230.032 101.53 229.379C101.53 228.714 101.652 228.127 101.897 227.619C102.144 227.107 102.488 226.708 102.928 226.421C103.371 226.131 103.888 225.987 104.479 225.987C104.939 225.987 105.354 226.072 105.723 226.242C106.093 226.413 106.395 226.651 106.631 226.958C106.867 227.265 107.013 227.623 107.07 228.032H106.064C105.988 227.734 105.817 227.469 105.553 227.239C105.292 227.006 104.939 226.89 104.496 226.89C104.104 226.89 103.76 226.992 103.465 227.197C103.172 227.398 102.944 227.684 102.779 228.053C102.617 228.42 102.536 228.85 102.536 229.344C102.536 229.85 102.616 230.29 102.775 230.665C102.937 231.04 103.164 231.332 103.456 231.539C103.752 231.746 104.098 231.85 104.496 231.85C104.758 231.85 104.995 231.805 105.208 231.714C105.421 231.623 105.601 231.492 105.749 231.322C105.897 231.151 106.002 230.947 106.064 230.708H107.07C107.013 231.094 106.873 231.442 106.648 231.752C106.427 232.059 106.133 232.303 105.766 232.485C105.402 232.664 104.979 232.754 104.496 232.754ZM111.507 226.072V226.924H108.115V226.072H111.507ZM109.103 224.504H110.109V230.742C110.109 231.026 110.15 231.239 110.233 231.381C110.318 231.521 110.426 231.614 110.557 231.663C110.69 231.708 110.831 231.731 110.978 231.731C111.089 231.731 111.18 231.725 111.251 231.714C111.322 231.7 111.379 231.688 111.422 231.68L111.626 232.583C111.558 232.609 111.463 232.634 111.341 232.66C111.218 232.688 111.064 232.702 110.876 232.702C110.592 232.702 110.314 232.641 110.041 232.519C109.771 232.397 109.547 232.211 109.368 231.961C109.191 231.711 109.103 231.396 109.103 231.015V224.504ZM123.691 223.89V232.617H122.669L117.913 225.765H117.828V232.617H116.771V223.89H117.794L122.566 230.759H122.652V223.89H123.691ZM127.716 232.771C127.301 232.771 126.925 232.692 126.587 232.536C126.249 232.377 125.98 232.148 125.781 231.85C125.582 231.549 125.483 231.185 125.483 230.759C125.483 230.384 125.557 230.08 125.705 229.847C125.852 229.612 126.05 229.427 126.297 229.293C126.544 229.16 126.817 229.06 127.115 228.995C127.416 228.927 127.719 228.873 128.023 228.833C128.42 228.782 128.743 228.744 128.99 228.718C129.24 228.69 129.422 228.643 129.535 228.577C129.652 228.512 129.71 228.398 129.71 228.237V228.202C129.71 227.782 129.595 227.455 129.365 227.222C129.138 226.989 128.793 226.873 128.33 226.873C127.849 226.873 127.473 226.978 127.2 227.188C126.928 227.398 126.736 227.623 126.625 227.862L125.67 227.521C125.841 227.123 126.068 226.813 126.352 226.592C126.639 226.367 126.952 226.211 127.29 226.123C127.631 226.032 127.966 225.987 128.295 225.987C128.506 225.987 128.747 226.012 129.02 226.063C129.295 226.112 129.561 226.212 129.817 226.366C130.075 226.519 130.29 226.751 130.46 227.06C130.631 227.37 130.716 227.785 130.716 228.305V232.617H129.71V231.731H129.659C129.591 231.873 129.477 232.025 129.318 232.187C129.159 232.349 128.947 232.487 128.683 232.6C128.419 232.714 128.097 232.771 127.716 232.771ZM127.869 231.867C128.267 231.867 128.602 231.789 128.875 231.633C129.151 231.477 129.358 231.275 129.497 231.028C129.639 230.781 129.71 230.521 129.71 230.248V229.327C129.668 229.379 129.574 229.425 129.429 229.468C129.287 229.508 129.122 229.543 128.935 229.575C128.75 229.603 128.57 229.629 128.393 229.651C128.22 229.671 128.08 229.688 127.972 229.702C127.71 229.737 127.466 229.792 127.239 229.869C127.014 229.942 126.832 230.055 126.693 230.205C126.557 230.353 126.489 230.555 126.489 230.81C126.489 231.16 126.618 231.424 126.876 231.603C127.138 231.779 127.469 231.867 127.869 231.867ZM135.518 226.072V226.924H132.126V226.072H135.518ZM133.115 224.504H134.12V230.742C134.12 231.026 134.162 231.239 134.244 231.381C134.329 231.521 134.437 231.614 134.568 231.663C134.701 231.708 134.842 231.731 134.99 231.731C135.1 231.731 135.191 231.725 135.262 231.714C135.333 231.7 135.39 231.688 135.433 231.68L135.637 232.583C135.569 232.609 135.474 232.634 135.352 232.66C135.23 232.688 135.075 232.702 134.887 232.702C134.603 232.702 134.325 232.641 134.052 232.519C133.782 232.397 133.558 232.211 133.379 231.961C133.203 231.711 133.115 231.396 133.115 231.015V224.504ZM137.151 232.617V226.072H138.157V232.617H137.151ZM137.662 224.981C137.466 224.981 137.297 224.914 137.155 224.781C137.016 224.647 136.946 224.487 136.946 224.299C136.946 224.112 137.016 223.951 137.155 223.817C137.297 223.684 137.466 223.617 137.662 223.617C137.858 223.617 138.026 223.684 138.165 223.817C138.307 223.951 138.378 224.112 138.378 224.299C138.378 224.487 138.307 224.647 138.165 224.781C138.026 224.914 137.858 224.981 137.662 224.981ZM145.471 226.072L143.05 232.617H142.028L139.607 226.072H140.698L142.505 231.288H142.573L144.38 226.072H145.471ZM149.428 232.754C148.797 232.754 148.253 232.614 147.796 232.336C147.341 232.055 146.991 231.663 146.743 231.16C146.499 230.654 146.377 230.066 146.377 229.396C146.377 228.725 146.499 228.134 146.743 227.623C146.991 227.109 147.334 226.708 147.775 226.421C148.218 226.131 148.735 225.987 149.326 225.987C149.667 225.987 150.003 226.043 150.336 226.157C150.668 226.271 150.971 226.455 151.243 226.711C151.516 226.964 151.734 227.299 151.895 227.717C152.057 228.134 152.138 228.648 152.138 229.259V229.685H147.093V228.816H151.116C151.116 228.447 151.042 228.117 150.894 227.827C150.749 227.538 150.542 227.309 150.272 227.141C150.005 226.974 149.689 226.89 149.326 226.89C148.925 226.89 148.579 226.989 148.286 227.188C147.996 227.384 147.773 227.64 147.617 227.955C147.461 228.271 147.383 228.609 147.383 228.969V229.549C147.383 230.043 147.468 230.462 147.638 230.806C147.812 231.147 148.052 231.407 148.359 231.586C148.665 231.762 149.022 231.85 149.428 231.85C149.692 231.85 149.931 231.813 150.144 231.739C150.36 231.663 150.546 231.549 150.702 231.398C150.859 231.245 150.979 231.055 151.064 230.827L152.036 231.1C151.934 231.43 151.762 231.719 151.52 231.969C151.279 232.217 150.981 232.41 150.626 232.549C150.27 232.685 149.871 232.754 149.428 232.754ZM70.2051 245.015C69.8613 245.015 69.5474 244.931 69.2633 244.763C68.9792 244.593 68.752 244.366 68.5815 244.082C68.4139 243.798 68.3301 243.484 68.3301 243.14C68.3301 242.793 68.4139 242.479 68.5815 242.198C68.752 241.914 68.9792 241.688 69.2633 241.521C69.5474 241.35 69.8613 241.265 70.2051 241.265C70.5517 241.265 70.8656 241.35 71.1468 241.521C71.4309 241.688 71.6568 241.914 71.8244 242.198C71.9949 242.479 72.0801 242.793 72.0801 243.14C72.0801 243.484 71.9949 243.798 71.8244 244.082C71.6568 244.366 71.4309 244.593 71.1468 244.763C70.8656 244.931 70.5517 245.015 70.2051 245.015ZM80.6199 246.617H79.5119L82.7164 237.89H83.8074L87.0119 246.617H85.9039L83.296 239.271H83.2278L80.6199 246.617ZM81.0289 243.208H85.4949V244.146H81.0289V243.208ZM89.3968 246.617L87.0104 237.89H88.0843L89.9082 244.998H89.9934L91.8514 237.89H93.0445L94.9025 244.998H94.9877L96.8116 237.89H97.8854L95.4991 246.617H94.4082L92.482 239.663H92.4139L90.4877 246.617H89.3968ZM104.095 240.072C104.044 239.64 103.836 239.305 103.473 239.066C103.109 238.827 102.663 238.708 102.135 238.708C101.748 238.708 101.41 238.771 101.121 238.896C100.834 239.021 100.609 239.192 100.447 239.411C100.288 239.63 100.209 239.879 100.209 240.157C100.209 240.39 100.264 240.59 100.375 240.758C100.488 240.923 100.633 241.06 100.809 241.171C100.986 241.279 101.17 241.369 101.363 241.44C101.557 241.508 101.734 241.563 101.896 241.606L102.782 241.844C103.01 241.904 103.263 241.987 103.541 242.092C103.822 242.197 104.091 242.34 104.346 242.522C104.605 242.701 104.818 242.931 104.986 243.212C105.153 243.494 105.237 243.839 105.237 244.248C105.237 244.719 105.113 245.146 104.866 245.526C104.622 245.907 104.264 246.21 103.792 246.434C103.324 246.658 102.754 246.771 102.084 246.771C101.459 246.771 100.917 246.67 100.46 246.468C100.005 246.266 99.6475 245.985 99.3861 245.624C99.1276 245.263 98.9813 244.844 98.9472 244.367H100.038C100.067 244.697 100.177 244.969 100.371 245.185C100.567 245.398 100.814 245.558 101.112 245.663C101.413 245.765 101.737 245.816 102.084 245.816C102.487 245.816 102.849 245.751 103.17 245.62C103.491 245.487 103.746 245.302 103.933 245.066C104.121 244.827 104.214 244.549 104.214 244.231C104.214 243.941 104.133 243.705 103.971 243.523C103.809 243.342 103.596 243.194 103.332 243.08C103.068 242.967 102.782 242.867 102.476 242.782L101.402 242.475C100.72 242.279 100.18 241.999 99.7824 241.636C99.3847 241.272 99.1858 240.796 99.1858 240.208C99.1858 239.719 99.3179 239.293 99.5822 238.93C99.8492 238.563 100.207 238.279 100.656 238.077C101.108 237.873 101.612 237.771 102.169 237.771C102.731 237.771 103.231 237.871 103.669 238.073C104.106 238.272 104.453 238.545 104.709 238.891C104.967 239.238 105.103 239.631 105.118 240.072H104.095ZM110.948 246.617H109.84L113.044 237.89H114.135L117.34 246.617H116.232L113.624 239.271H113.555L110.948 246.617ZM111.357 243.208H115.823V244.146H111.357V243.208ZM118.683 246.617V240.072H119.654V241.094H119.739C119.876 240.745 120.096 240.474 120.4 240.281C120.704 240.085 121.069 239.987 121.495 239.987C121.927 239.987 122.286 240.085 122.573 240.281C122.863 240.474 123.089 240.745 123.251 241.094H123.319C123.487 240.756 123.738 240.488 124.073 240.289C124.408 240.087 124.81 239.987 125.279 239.987C125.864 239.987 126.343 240.17 126.715 240.536C127.087 240.9 127.273 241.467 127.273 242.237V246.617H126.268V242.237C126.268 241.754 126.136 241.408 125.871 241.201C125.607 240.994 125.296 240.89 124.938 240.89C124.478 240.89 124.121 241.029 123.869 241.308C123.616 241.583 123.489 241.933 123.489 242.356V246.617H122.467V242.134C122.467 241.762 122.346 241.462 122.104 241.235C121.863 241.005 121.552 240.89 121.171 240.89C120.91 240.89 120.666 240.96 120.438 241.099C120.214 241.238 120.032 241.431 119.893 241.678C119.756 241.923 119.688 242.205 119.688 242.526V246.617H118.683ZM129.232 249.072V240.072H130.204V241.112H130.323C130.397 240.998 130.499 240.853 130.63 240.677C130.764 240.498 130.954 240.339 131.201 240.2C131.451 240.058 131.789 239.987 132.215 239.987C132.766 239.987 133.252 240.124 133.673 240.4C134.093 240.675 134.421 241.066 134.657 241.572C134.893 242.077 135.011 242.674 135.011 243.362C135.011 244.055 134.893 244.656 134.657 245.164C134.421 245.67 134.094 246.062 133.677 246.34C133.259 246.616 132.778 246.754 132.232 246.754C131.812 246.754 131.475 246.684 131.222 246.545C130.969 246.403 130.775 246.242 130.639 246.063C130.502 245.881 130.397 245.731 130.323 245.612H130.238V249.072H129.232ZM130.221 243.344C130.221 243.839 130.293 244.275 130.438 244.653C130.583 245.028 130.795 245.322 131.073 245.535C131.352 245.745 131.692 245.85 132.096 245.85C132.516 245.85 132.867 245.739 133.148 245.518C133.433 245.293 133.646 244.992 133.788 244.614C133.933 244.234 134.005 243.81 134.005 243.344C134.005 242.884 133.934 242.469 133.792 242.1C133.653 241.728 133.441 241.434 133.157 241.218C132.876 240.999 132.522 240.89 132.096 240.89C131.687 240.89 131.343 240.994 131.065 241.201C130.786 241.406 130.576 241.692 130.434 242.062C130.292 242.428 130.221 242.856 130.221 243.344ZM137.67 237.89V246.617H136.665V237.89H137.67ZM139.632 246.617V240.072H140.638V246.617H139.632ZM140.144 238.981C139.948 238.981 139.779 238.914 139.637 238.781C139.497 238.647 139.428 238.487 139.428 238.299C139.428 238.112 139.497 237.951 139.637 237.817C139.779 237.684 139.948 237.617 140.144 237.617C140.34 237.617 140.507 237.684 140.647 237.817C140.789 237.951 140.86 238.112 140.86 238.299C140.86 238.487 140.789 238.647 140.647 238.781C140.507 238.914 140.34 238.981 140.144 238.981ZM145.515 240.072V240.924H141.986V240.072H145.515ZM143.043 246.617V239.168C143.043 238.793 143.131 238.481 143.307 238.231C143.484 237.981 143.712 237.793 143.994 237.668C144.275 237.543 144.572 237.481 144.884 237.481C145.131 237.481 145.333 237.501 145.489 237.54C145.646 237.58 145.762 237.617 145.839 237.651L145.549 238.521C145.498 238.504 145.427 238.482 145.336 238.457C145.248 238.431 145.131 238.418 144.986 238.418C144.654 238.418 144.414 238.502 144.266 238.67C144.121 238.837 144.049 239.083 144.049 239.407V246.617H143.043ZM147.692 249.072C147.522 249.072 147.37 249.058 147.236 249.029C147.103 249.004 147.01 248.978 146.959 248.952L147.215 248.066C147.459 248.129 147.675 248.151 147.862 248.134C148.05 248.117 148.216 248.033 148.361 247.883C148.509 247.735 148.644 247.495 148.766 247.163L148.953 246.651L146.533 240.072H147.624L149.431 245.288H149.499L151.306 240.072H152.397L149.618 247.572C149.493 247.91 149.338 248.19 149.154 248.411C148.969 248.636 148.755 248.802 148.51 248.91C148.269 249.018 147.996 249.072 147.692 249.072ZM70.2051 259.015C69.8613 259.015 69.5474 258.931 69.2633 258.763C68.9792 258.593 68.752 258.366 68.5815 258.082C68.4139 257.798 68.3301 257.484 68.3301 257.14C68.3301 256.793 68.4139 256.479 68.5815 256.198C68.752 255.914 68.9792 255.688 69.2633 255.521C69.5474 255.35 69.8613 255.265 70.2051 255.265C70.5517 255.265 70.8656 255.35 71.1468 255.521C71.4309 255.688 71.6568 255.914 71.8244 256.198C71.9949 256.479 72.0801 256.793 72.0801 257.14C72.0801 257.484 71.9949 257.798 71.8244 258.082C71.6568 258.366 71.4309 258.593 71.1468 258.763C70.8656 258.931 70.5517 259.015 70.2051 259.015ZM82.9551 260.617H80.2619V251.89H83.0744C83.921 251.89 84.6454 252.065 85.2477 252.414C85.85 252.761 86.3116 253.259 86.6326 253.91C86.9537 254.558 87.1142 255.333 87.1142 256.237C87.1142 257.146 86.9522 257.928 86.6284 258.585C86.3045 259.238 85.8329 259.741 85.2136 260.093C84.5943 260.442 83.8414 260.617 82.9551 260.617ZM81.3187 259.68H82.8869C83.6085 259.68 84.2065 259.54 84.6809 259.262C85.1554 258.984 85.5091 258.587 85.742 258.073C85.975 257.559 86.0914 256.947 86.0914 256.237C86.0914 255.532 85.9764 254.925 85.7463 254.417C85.5162 253.906 85.1724 253.513 84.715 253.241C84.2576 252.965 83.688 252.827 83.0062 252.827H81.3187V259.68ZM89.5183 263.072C89.3478 263.072 89.1958 263.058 89.0623 263.029C88.9288 263.004 88.8364 262.978 88.7853 262.952L89.041 262.066C89.2853 262.129 89.5012 262.151 89.6887 262.134C89.8762 262.117 90.0424 262.033 90.1873 261.883C90.335 261.735 90.47 261.495 90.5921 261.163L90.7796 260.651L88.3592 254.072H89.4501L91.2569 259.288H91.3251L93.1319 254.072H94.2228L91.4444 261.572C91.3194 261.91 91.1646 262.19 90.9799 262.411C90.7952 262.636 90.5808 262.802 90.3364 262.91C90.095 263.018 89.8222 263.072 89.5183 263.072ZM96.6759 256.68V260.617H95.6702V254.072H96.6418V255.094H96.727C96.8804 254.762 97.1134 254.495 97.4259 254.293C97.7384 254.089 98.1418 253.987 98.6361 253.987C99.0793 253.987 99.4671 254.077 99.7995 254.259C100.132 254.438 100.39 254.711 100.575 255.077C100.76 255.441 100.852 255.901 100.852 256.458V260.617H99.8464V256.526C99.8464 256.012 99.7128 255.612 99.4458 255.325C99.1787 255.035 98.8123 254.89 98.3464 254.89C98.0253 254.89 97.7384 254.96 97.4856 255.099C97.2356 255.238 97.0381 255.441 96.8932 255.708C96.7483 255.975 96.6759 256.299 96.6759 256.68ZM104.736 260.771C104.321 260.771 103.945 260.692 103.607 260.536C103.269 260.377 103 260.148 102.801 259.85C102.602 259.549 102.503 259.185 102.503 258.759C102.503 258.384 102.577 258.08 102.725 257.847C102.872 257.612 103.07 257.427 103.317 257.293C103.564 257.16 103.837 257.06 104.135 256.995C104.436 256.927 104.739 256.873 105.043 256.833C105.44 256.782 105.763 256.744 106.01 256.718C106.26 256.69 106.442 256.643 106.555 256.577C106.672 256.512 106.73 256.398 106.73 256.237V256.202C106.73 255.782 106.615 255.455 106.385 255.222C106.158 254.989 105.813 254.873 105.35 254.873C104.869 254.873 104.493 254.978 104.22 255.188C103.948 255.398 103.756 255.623 103.645 255.862L102.69 255.521C102.861 255.123 103.088 254.813 103.372 254.592C103.659 254.367 103.972 254.211 104.31 254.123C104.651 254.032 104.986 253.987 105.315 253.987C105.526 253.987 105.767 254.012 106.04 254.063C106.315 254.112 106.581 254.212 106.837 254.366C107.095 254.519 107.31 254.751 107.48 255.06C107.651 255.37 107.736 255.785 107.736 256.305V260.617H106.73V259.731H106.679C106.611 259.873 106.497 260.025 106.338 260.187C106.179 260.349 105.967 260.487 105.703 260.6C105.439 260.714 105.117 260.771 104.736 260.771ZM104.889 259.867C105.287 259.867 105.622 259.789 105.895 259.633C106.171 259.477 106.378 259.275 106.517 259.028C106.659 258.781 106.73 258.521 106.73 258.248V257.327C106.688 257.379 106.594 257.425 106.449 257.468C106.307 257.508 106.142 257.543 105.955 257.575C105.77 257.603 105.59 257.629 105.413 257.651C105.24 257.671 105.1 257.688 104.992 257.702C104.73 257.737 104.486 257.792 104.259 257.869C104.034 257.942 103.852 258.055 103.713 258.205C103.577 258.353 103.509 258.555 103.509 258.81C103.509 259.16 103.638 259.424 103.896 259.603C104.158 259.779 104.489 259.867 104.889 259.867ZM109.691 260.617V254.072H110.663V255.094H110.748C110.885 254.745 111.105 254.474 111.409 254.281C111.713 254.085 112.078 253.987 112.504 253.987C112.936 253.987 113.295 254.085 113.582 254.281C113.872 254.474 114.098 254.745 114.26 255.094H114.328C114.495 254.756 114.747 254.488 115.082 254.289C115.417 254.087 115.819 253.987 116.288 253.987C116.873 253.987 117.352 254.17 117.724 254.536C118.096 254.9 118.282 255.467 118.282 256.237V260.617H117.277V256.237C117.277 255.754 117.145 255.408 116.88 255.201C116.616 254.994 116.305 254.89 115.947 254.89C115.487 254.89 115.13 255.029 114.878 255.308C114.625 255.583 114.498 255.933 114.498 256.356V260.617H113.476V256.134C113.476 255.762 113.355 255.462 113.113 255.235C112.872 255.005 112.561 254.89 112.18 254.89C111.919 254.89 111.674 254.96 111.447 255.099C111.223 255.238 111.041 255.431 110.902 255.678C110.765 255.923 110.697 256.205 110.697 256.526V260.617H109.691ZM122.9 260.754C122.309 260.754 121.791 260.613 121.345 260.332C120.902 260.05 120.555 259.657 120.305 259.151C120.058 258.646 119.934 258.055 119.934 257.379C119.934 256.697 120.058 256.102 120.305 255.593C120.555 255.085 120.902 254.69 121.345 254.408C121.791 254.127 122.309 253.987 122.9 253.987C123.491 253.987 124.008 254.127 124.451 254.408C124.897 254.69 125.244 255.085 125.491 255.593C125.741 256.102 125.866 256.697 125.866 257.379C125.866 258.055 125.741 258.646 125.491 259.151C125.244 259.657 124.897 260.05 124.451 260.332C124.008 260.613 123.491 260.754 122.9 260.754ZM122.9 259.85C123.349 259.85 123.718 259.735 124.008 259.505C124.298 259.275 124.512 258.972 124.652 258.597C124.791 258.222 124.86 257.816 124.86 257.379C124.86 256.941 124.791 256.533 124.652 256.156C124.512 255.778 124.298 255.472 124.008 255.239C123.718 255.006 123.349 254.89 122.9 254.89C122.451 254.89 122.082 255.006 121.792 255.239C121.503 255.472 121.288 255.778 121.149 256.156C121.01 256.533 120.94 256.941 120.94 257.379C120.94 257.816 121.01 258.222 121.149 258.597C121.288 258.972 121.503 259.275 121.792 259.505C122.082 259.735 122.451 259.85 122.9 259.85ZM133.846 260.617H131.153V251.89H133.965C134.812 251.89 135.536 252.065 136.138 252.414C136.741 252.761 137.202 253.259 137.523 253.91C137.844 254.558 138.005 255.333 138.005 256.237C138.005 257.146 137.843 257.928 137.519 258.585C137.195 259.238 136.724 259.741 136.104 260.093C135.485 260.442 134.732 260.617 133.846 260.617ZM132.209 259.68H133.778C134.499 259.68 135.097 259.54 135.572 259.262C136.046 258.984 136.4 258.587 136.633 258.073C136.866 257.559 136.982 256.947 136.982 256.237C136.982 255.532 136.867 254.925 136.637 254.417C136.407 253.906 136.063 253.513 135.606 253.241C135.148 252.965 134.579 252.827 133.897 252.827H132.209V259.68ZM139.898 260.617V251.89H142.949C143.557 251.89 144.058 251.995 144.453 252.205C144.848 252.413 145.142 252.692 145.335 253.045C145.528 253.394 145.625 253.782 145.625 254.208C145.625 254.583 145.558 254.893 145.425 255.137C145.294 255.381 145.121 255.575 144.905 255.717C144.692 255.859 144.46 255.964 144.21 256.032V256.117C144.477 256.134 144.746 256.228 145.016 256.398C145.285 256.569 145.511 256.813 145.693 257.131C145.875 257.45 145.966 257.839 145.966 258.299C145.966 258.737 145.866 259.13 145.668 259.479C145.469 259.829 145.155 260.106 144.726 260.31C144.297 260.515 143.739 260.617 143.051 260.617H139.898ZM140.954 259.68H143.051C143.741 259.68 144.231 259.546 144.521 259.279C144.814 259.009 144.96 258.683 144.96 258.299C144.96 258.004 144.885 257.731 144.734 257.481C144.584 257.228 144.369 257.026 144.091 256.876C143.812 256.722 143.483 256.646 143.102 256.646H140.954V259.68ZM140.954 255.725H142.915C143.233 255.725 143.52 255.663 143.776 255.538C144.034 255.413 144.239 255.237 144.389 255.009C144.543 254.782 144.619 254.515 144.619 254.208C144.619 253.825 144.486 253.499 144.219 253.232C143.952 252.962 143.528 252.827 142.949 252.827H140.954V255.725Z" fill="white"/>
</g>
<rect x="206.5" y="5.5" width="314" height="183" rx="13.5" transform="rotate(90 206.5 5.5)" stroke="url(#paint0_angular_758_2903)" stroke-opacity="0.5"/>
</g>
<defs>
<filter id="filter0_d_758_2903" x="0" y="0" width="214" height="345" filterUnits="userSpaceOnUse" color-interpolation-filters="sRGB">
<feFlood flood-opacity="0" result="BackgroundImageFix"/>
<feColorMatrix in="SourceAlpha" type="matrix" values="0 0 0 0 0 0 0 0 0 0 0 0 0 0 0 0 0 0 127 0" result="hardAlpha"/>
<feOffset dx="-8" dy="10"/>
<feGaussianBlur stdDeviation="7.5"/>
<feComposite in2="hardAlpha" operator="out"/>
<feColorMatrix type="matrix" values="0 0 0 0 0 0 0 0 0 0 0 0 0 0 0 0 0 0 0.15 0"/>
<feBlend mode="normal" in2="BackgroundImageFix" result="effect1_dropShadow_758_2903"/>
<feBlend mode="normal" in="SourceGraphic" in2="effect1_dropShadow_758_2903" result="shape"/>
</filter>
<filter id="filter1_f_758_2903" x="119.334" y="-41.7252" width="123.247" height="120.394" filterUnits="userSpaceOnUse" color-interpolation-filters="sRGB">
<feFlood flood-opacity="0" result="BackgroundImageFix"/>
<feBlend mode="normal" in="SourceGraphic" in2="BackgroundImageFix" result="shape"/>
<feGaussianBlur stdDeviation="15" result="effect1_foregroundBlur_758_2903"/>
</filter>
<filter id="filter2_f_758_2903" x="158.019" y="-57.2807" width="137.992" height="153.132" filterUnits="userSpaceOnUse" color-interpolation-filters="sRGB">
<feFlood flood-opacity="0" result="BackgroundImageFix"/>
<feBlend mode="normal" in="SourceGraphic" in2="BackgroundImageFix" result="shape"/>
<feGaussianBlur stdDeviation="15" result="effect1_foregroundBlur_758_2903"/>
</filter>
<filter id="filter3_f_758_2903" x="118.99" y="-54.7834" width="125.69" height="134.281" filterUnits="userSpaceOnUse" color-interpolation-filters="sRGB">
<feFlood flood-opacity="0" result="BackgroundImageFix"/>
<feBlend mode="normal" in="SourceGraphic" in2="BackgroundImageFix" result="shape"/>
<feGaussianBlur stdDeviation="15" result="effect1_foregroundBlur_758_2903"/>
</filter>
<filter id="filter4_f_758_2903" x="113.468" y="-49.1055" width="105.034" height="125.228" filterUnits="userSpaceOnUse" color-interpolation-filters="sRGB">
<feFlood flood-opacity="0" result="BackgroundImageFix"/>
<feBlend mode="normal" in="SourceGraphic" in2="BackgroundImageFix" result="shape"/>
<feGaussianBlur stdDeviation="15" result="effect1_foregroundBlur_758_2903"/>
</filter>
<filter id="filter5_f_758_2903" x="155.142" y="-50.8842" width="101.802" height="115.034" filterUnits="userSpaceOnUse" color-interpolation-filters="sRGB">
<feFlood flood-opacity="0" result="BackgroundImageFix"/>
<feBlend mode="normal" in="SourceGraphic" in2="BackgroundImageFix" result="shape"/>
<feGaussianBlur stdDeviation="15" result="effect1_foregroundBlur_758_2903"/>
</filter>
<radialGradient id="paint0_angular_758_2903" cx="0" cy="0" r="1" gradientUnits="userSpaceOnUse" gradientTransform="translate(258 34.5) rotate(19.782) scale(255.583 437.546)">
<stop offset="0.106146" stop-color="white"/>
<stop offset="0.16572" stop-color="#595959"/>
<stop offset="0.356116" stop-color="white"/>
<stop offset="0.474328" stop-color="white"/>
<stop offset="0.950754" stop-color="white" stop-opacity="0.54"/>
<stop offset="0.975714" stop-color="#E3E3E3" stop-opacity="0"/>
<stop offset="1" stop-color="#8D8D8D" stop-opacity="0"/>
</radialGradient>
<clipPath id="clip0_758_2903">
<rect x="207" y="5" width="315" height="184" rx="14" transform="rotate(90 207 5)" fill="white"/>
</clipPath>
</defs>
</svg>
