<svg width="214" height="346" viewBox="0 0 214 346" fill="none" xmlns="http://www.w3.org/2000/svg">
<g filter="url(#filter0_d_758_3009)">
<g clip-path="url(#clip0_758_3009)">
<rect x="207" y="5.8457" width="315" height="184" rx="14" transform="rotate(90 207 5.8457)" fill="#08090C"/>
<mask id="mask0_758_3009" style="mask-type:alpha" maskUnits="userSpaceOnUse" x="155" y="-20" width="74" height="62">
<ellipse cx="192.048" cy="11.0528" rx="27.5895" ry="39.2135" transform="rotate(120 192.048 11.0528)" fill="#4559D9"/>
</mask>
<g mask="url(#mask0_758_3009)">
<g style="mix-blend-mode:exclusion" filter="url(#filter1_f_758_3009)">
<path d="M153.096 -4.61021C164.04 -15.0321 184.751 -12.1648 199.354 1.79407C213.957 15.753 216.923 35.5175 205.978 45.9394C195.033 56.3613 186.355 42.0369 171.752 28.078C157.149 14.1191 142.151 5.81169 153.096 -4.61021Z" fill="#4559D9"/>
</g>
<g filter="url(#filter2_f_758_3009)">
<path d="M225.815 11.6943C226.215 2.31454 205.178 -11.8295 197.482 -14.9365C171.709 -32.8557 206.388 -24.0703 209.705 -25.597C213.022 -27.1236 216.752 -25.3105 218.559 -23.6268C220.366 -21.9432 248.425 -5.40305 256.514 2.50315C264.603 10.4094 265.313 18.6431 265.992 20.569C266.672 22.4949 248.428 57.3946 237.01 64.8551C225.591 72.3156 215.491 55.148 209.885 48.2622C204.279 41.3765 205.368 36.8507 218.79 33.4734C232.213 30.0962 225.316 23.4189 225.815 11.6943Z" fill="#4559D9"/>
</g>
<g filter="url(#filter3_f_758_3009)">
<path d="M186.737 -17.8499C203.844 -12.4466 215.791 -5.57946 214.598 -8.95567C206.885 -13.4089 192.556 -22.9301 190.387 -22.934C187.676 -22.9389 172.197 -24.3335 171.048 -23.8269C170.128 -23.4216 155.959 -13.857 148.99 -9.1253L149.508 27.5826C162.071 35.1823 187.543 50.3741 188.932 50.3437C190.668 50.3058 198.094 37.6896 187.581 34.8703C177.067 32.0511 168.12 19.3437 163.616 9.33162C159.112 -0.680481 165.354 -24.604 186.737 -17.8499Z" fill="#4559D9"/>
</g>
<g filter="url(#filter4_f_758_3009)">
<path d="M181.479 -6.15306C190.255 -9.77347 188.986 -14.9947 187.254 -17.1528C183.844 -17.619 176.376 -18.4826 173.781 -18.2066C170.538 -17.8616 154.455 -10.5589 152.088 -8.12096C149.722 -5.68306 145.448 -2.99937 143.687 3.55323C141.926 10.1058 151.318 36.2432 153.124 41.2696C154.569 45.2907 163.653 46.7398 168.015 46.9617C175.738 47.0522 188.477 46.2937 177.648 42.5353C164.113 37.8373 163.297 14.7436 162.402 11.5574C161.506 8.37116 170.509 -1.62755 181.479 -6.15306Z" fill="#4559D9"/>
</g>
<g style="mix-blend-mode:soft-light" filter="url(#filter5_f_758_3009)">
<path d="M188.047 -18.9931C195.97 -23.1381 209.916 -14.5865 219.196 0.107523C228.476 14.8015 229.576 30.0736 221.653 34.2187C213.729 38.3638 208.494 25.2553 199.214 10.5613C189.934 -4.13269 180.124 -14.848 188.047 -18.9931Z" fill="#4559D9"/>
</g>
<g style="mix-blend-mode:overlay">
<rect x="239.716" y="-1.3287" width="255" height="318" transform="rotate(120 239.716 -1.3287)" fill="#4559D9"/>
</g>
</g>
<path d="M56.3703 83.5528L56.3703 64.6437L63.1104 64.6437C64.5815 64.6437 65.8002 64.9115 66.7666 65.447C67.733 65.9825 68.4563 66.715 68.9364 67.6444C69.4165 68.5677 69.6565 69.608 69.6565 70.7652C69.6565 71.9285 69.4134 72.9749 68.9271 73.9044C68.447 74.8277 67.7207 75.5601 66.7482 76.1018C65.7818 76.6373 64.5661 76.9051 63.1011 76.9051L58.4662 76.9051L58.4662 74.486L62.8426 74.486C63.7721 74.486 64.5261 74.326 65.1047 74.0059C65.6833 73.6797 66.108 73.2365 66.3788 72.6764C66.6497 72.1162 66.7851 71.4792 66.7851 70.7652C66.7851 70.0511 66.6497 69.4171 66.3788 68.8632C66.108 68.3092 65.6802 67.8752 65.0955 67.5613C64.5169 67.2474 63.7536 67.0904 62.8057 67.0904L59.2233 67.0904L59.2233 83.5528L56.3703 83.5528ZM73.0396 83.5528L73.0396 69.371L75.7079 69.371L75.7079 71.6238L75.8556 71.6238C76.1142 70.8606 76.5697 70.2604 77.2221 69.8234C77.8807 69.3802 78.6255 69.1586 79.4565 69.1586C79.6288 69.1586 79.832 69.1648 80.0659 69.1771C80.3059 69.1894 80.4937 69.2048 80.6291 69.2232L80.6291 71.8639C80.5183 71.8331 80.3213 71.7992 80.0382 71.7623C79.755 71.7192 79.4719 71.6977 79.1887 71.6977C78.5363 71.6977 77.9546 71.8362 77.4437 72.1132C76.939 72.384 76.5389 72.7625 76.2434 73.2488C75.948 73.7289 75.8002 74.2768 75.8002 74.8923L75.8002 83.5528L73.0396 83.5528ZM88.744 83.839C87.4145 83.839 86.2542 83.5343 85.2632 82.925C84.2722 82.3156 83.5028 81.4631 82.955 80.3674C82.4071 79.2718 82.1332 77.9915 82.1332 76.5265C82.1332 75.0554 82.4071 73.7689 82.955 72.6671C83.5028 71.5653 84.2722 70.7098 85.2632 70.1004C86.2542 69.491 87.4145 69.1863 88.744 69.1863C90.0736 69.1863 91.2338 69.491 92.2248 70.1004C93.2158 70.7098 93.9853 71.5653 94.5331 72.6671C95.0809 73.7689 95.3548 75.0554 95.3548 76.5265C95.3548 77.9915 95.0809 79.2718 94.5331 80.3674C93.9853 81.4631 93.2158 82.3156 92.2248 82.925C91.2338 83.5343 90.0736 83.839 88.744 83.839ZM88.7533 81.5215C89.615 81.5215 90.329 81.2938 90.8953 80.8383C91.4616 80.3828 91.8801 79.7765 92.151 79.0194C92.428 78.2623 92.5665 77.4283 92.5665 76.5173C92.5665 75.6125 92.428 74.7815 92.151 74.0244C91.8801 73.2611 91.4616 72.6487 90.8953 72.187C90.329 71.7254 89.615 71.4946 88.7533 71.4946C87.8854 71.4946 87.1652 71.7254 86.5927 72.187C86.0265 72.6487 85.6048 73.2611 85.3278 74.0244C85.057 74.7815 84.9216 75.6125 84.9216 76.5173C84.9216 77.4283 85.057 78.2623 85.3278 79.0194C85.6048 79.7765 86.0265 80.3828 86.5927 80.8383C87.1652 81.2938 87.8854 81.5215 88.7533 81.5215ZM105.316 69.371L105.316 71.5869L97.5699 71.5869L97.5699 69.371L105.316 69.371ZM99.6473 65.9732L102.408 65.9732L102.408 79.3887C102.408 79.9242 102.488 80.3274 102.648 80.5982C102.808 80.8629 103.014 81.0445 103.267 81.143C103.525 81.2353 103.805 81.2815 104.107 81.2815C104.328 81.2815 104.522 81.2661 104.688 81.2353C104.855 81.2045 104.984 81.1799 105.076 81.1615L105.575 83.442C105.415 83.5035 105.187 83.5651 104.892 83.6267C104.596 83.6944 104.227 83.7313 103.784 83.7375C103.057 83.7498 102.38 83.6205 101.752 83.3497C101.125 83.0788 100.617 82.6603 100.229 82.094C99.8412 81.5277 99.6473 80.8168 99.6473 79.9612L99.6473 65.9732ZM114.59 83.839C113.193 83.839 111.989 83.5405 110.98 82.9434C109.977 82.3402 109.201 81.4938 108.653 80.4044C108.112 79.3087 107.841 78.0253 107.841 76.5542C107.841 75.1016 108.112 73.8213 108.653 72.7133C109.201 71.6053 109.964 70.7405 110.943 70.1188C111.928 69.4972 113.079 69.1863 114.396 69.1863C115.196 69.1863 115.972 69.3187 116.723 69.5833C117.474 69.848 118.148 70.2635 118.745 70.8298C119.342 71.3961 119.813 72.1316 120.157 73.0365C120.502 73.9351 120.675 75.0277 120.675 76.3142L120.675 77.2928L109.401 77.2928L109.401 75.2247L117.969 75.2247C117.969 74.4983 117.822 73.8551 117.526 73.295C117.231 72.7287 116.815 72.2824 116.28 71.9562C115.75 71.63 115.129 71.4669 114.415 71.4669C113.639 71.4669 112.962 71.6577 112.383 72.0393C111.811 72.4148 111.368 72.9072 111.054 73.5166C110.746 74.1198 110.592 74.7753 110.592 75.4832L110.592 77.099C110.592 78.0469 110.758 78.8532 111.091 79.518C111.429 80.1828 111.9 80.6906 112.503 81.0414C113.107 81.3861 113.811 81.5585 114.618 81.5585C115.141 81.5585 115.618 81.4846 116.049 81.3369C116.48 81.183 116.852 80.9553 117.166 80.6536C117.48 80.352 117.72 79.9796 117.886 79.5365L120.499 80.0073C120.29 80.7767 119.914 81.4508 119.373 82.0294C118.837 82.6018 118.163 83.0481 117.351 83.3681C116.544 83.6821 115.624 83.839 114.59 83.839ZM126.537 78.7424L126.518 75.3724L126.998 75.3724L132.649 69.371L135.954 69.371L129.51 76.2034L129.076 76.2034L126.537 78.7424ZM123.998 83.5528L123.998 64.6437L126.758 64.6437L126.758 83.5528L123.998 83.5528ZM132.954 83.5528L127.875 76.8127L129.777 74.883L136.342 83.5528L132.954 83.5528ZM148.946 64.6437L148.946 83.5528L146.093 83.5528L146.093 64.6437L148.946 64.6437ZM152.428 67.0997L152.428 64.6437L167.062 64.6437L167.062 67.0997L161.162 67.0997L161.162 83.5528L158.319 83.5528L158.319 67.0997L152.428 67.0997ZM68.5898 109.466C68.4762 108.458 68.0074 107.676 67.1835 107.122C66.3597 106.561 65.3227 106.281 64.0727 106.281C63.1779 106.281 62.4037 106.423 61.7503 106.707C61.0969 106.984 60.5891 107.367 60.2269 107.857C59.8717 108.34 59.6942 108.891 59.6942 109.509C59.6942 110.027 59.8149 110.475 60.0564 110.851C60.305 111.228 60.6281 111.544 61.0259 111.799C61.4307 112.048 61.8639 112.257 62.3256 112.428C62.7872 112.591 63.2311 112.726 63.6573 112.833L65.7879 113.387C66.484 113.557 67.1977 113.788 67.9293 114.079C68.6608 114.37 69.3391 114.754 69.9641 115.23C70.5891 115.705 71.0933 116.295 71.4769 116.998C71.8675 117.701 72.0628 118.543 72.0628 119.523C72.0628 120.759 71.7432 121.856 71.104 122.815C70.4719 123.774 69.5521 124.53 68.3448 125.084C67.1445 125.638 65.6921 125.915 63.9875 125.915C62.354 125.915 60.9406 125.656 59.7475 125.137C58.5543 124.619 57.6203 123.884 56.9456 122.932C56.2709 121.973 55.898 120.837 55.827 119.523L59.1296 119.523C59.1935 120.311 59.4492 120.968 59.8966 121.494C60.3512 122.012 60.93 122.399 61.6331 122.655C62.3433 122.904 63.121 123.028 63.9662 123.028C64.8966 123.028 65.724 122.882 66.4485 122.591C67.18 122.293 67.7553 121.881 68.1743 121.355C68.5933 120.823 68.8029 120.201 68.8029 119.491C68.8029 118.845 68.6182 118.316 68.2489 117.904C67.8867 117.492 67.3931 117.151 66.7681 116.881C66.1502 116.611 65.4506 116.373 64.6693 116.167L62.0912 115.464C60.344 114.988 58.9591 114.289 57.9364 113.365C56.9208 112.442 56.4129 111.22 56.4129 109.701C56.4129 108.443 56.7538 107.346 57.4357 106.409C58.1175 105.471 59.0408 104.743 60.2056 104.225C61.3703 103.699 62.6842 103.436 64.1473 103.436C65.6246 103.436 66.9279 103.696 68.0571 104.214C69.1935 104.732 70.0884 105.446 70.7418 106.355C71.3952 107.257 71.7361 108.294 71.7645 109.466L68.5898 109.466ZM82.9336 125.883C81.3996 125.883 80.0608 125.531 78.9173 124.828C77.7738 124.125 76.8861 123.142 76.254 121.877C75.6219 120.613 75.3058 119.136 75.3058 117.446C75.3058 115.748 75.6219 114.264 76.254 112.992C76.8861 111.721 77.7738 110.734 78.9173 110.031C80.0608 109.328 81.3996 108.976 82.9336 108.976C84.4677 108.976 85.8065 109.328 86.95 110.031C88.0934 110.734 88.9812 111.721 89.6133 112.992C90.2454 114.264 90.5615 115.748 90.5615 117.446C90.5615 119.136 90.2454 120.613 89.6133 121.877C88.9812 123.142 88.0934 124.125 86.95 124.828C85.8065 125.531 84.4677 125.883 82.9336 125.883ZM82.9443 123.209C83.9386 123.209 84.7625 122.946 85.4159 122.421C86.0693 121.895 86.5523 121.196 86.8648 120.322C87.1844 119.448 87.3442 118.486 87.3442 117.435C87.3442 116.391 87.1844 115.432 86.8648 114.558C86.5523 113.678 86.0693 112.971 85.4159 112.438C84.7625 111.906 83.9386 111.639 82.9443 111.639C81.9429 111.639 81.1119 111.906 80.4514 112.438C79.798 112.971 79.3115 113.678 78.9919 114.558C78.6794 115.432 78.5231 116.391 78.5231 117.435C78.5231 118.486 78.6794 119.448 78.9919 120.322C79.3115 121.196 79.798 121.895 80.4514 122.421C81.1119 122.946 81.9429 123.209 82.9443 123.209ZM97.6024 103.735L97.6024 125.553L94.4171 125.553L94.4171 103.735L97.6024 103.735ZM112.554 118.767L112.554 109.189L115.75 109.189L115.75 125.553L112.617 125.553L112.617 122.719L112.447 122.719C112.071 123.593 111.467 124.321 110.636 124.903C109.812 125.478 108.786 125.766 107.557 125.766C106.506 125.766 105.576 125.535 104.766 125.073C103.963 124.605 103.331 123.912 102.87 122.996C102.415 122.08 102.188 120.947 102.188 119.598L102.188 109.189L105.373 109.189L105.373 119.214C105.373 120.329 105.682 121.217 106.3 121.877C106.918 122.538 107.72 122.868 108.708 122.868C109.304 122.868 109.897 122.719 110.487 122.421C111.083 122.122 111.577 121.671 111.968 121.068C112.365 120.464 112.561 119.697 112.554 118.767ZM127.968 109.189L127.968 111.746L119.03 111.746L119.03 109.189L127.968 109.189ZM121.427 105.269L124.612 105.269L124.612 120.748C124.612 121.366 124.705 121.831 124.889 122.144C125.074 122.449 125.312 122.659 125.603 122.772C125.901 122.879 126.224 122.932 126.572 122.932C126.828 122.932 127.052 122.914 127.244 122.879C127.435 122.843 127.585 122.815 127.691 122.794L128.266 125.425C128.082 125.496 127.819 125.567 127.478 125.638C127.137 125.716 126.711 125.759 126.2 125.766C125.362 125.78 124.58 125.631 123.856 125.318C123.131 125.006 122.545 124.523 122.098 123.87C121.651 123.216 121.427 122.396 121.427 121.409L121.427 105.269ZM131.792 125.553L131.792 109.189L134.977 109.189L134.977 125.553L131.792 125.553ZM133.4 106.664C132.846 106.664 132.371 106.48 131.973 106.11C131.582 105.734 131.387 105.286 131.387 104.768C131.387 104.242 131.582 103.795 131.973 103.426C132.371 103.049 132.846 102.861 133.4 102.861C133.954 102.861 134.427 103.049 134.817 103.426C135.215 103.795 135.414 104.242 135.414 104.768C135.414 105.286 135.215 105.734 134.817 106.11C134.427 106.48 133.954 106.664 133.4 106.664ZM146.455 125.883C144.921 125.883 143.582 125.531 142.439 124.828C141.295 124.125 140.408 123.142 139.775 121.877C139.143 120.613 138.827 119.136 138.827 117.446C138.827 115.748 139.143 114.264 139.775 112.992C140.408 111.721 141.295 110.734 142.439 110.031C143.582 109.328 144.921 108.976 146.455 108.976C147.989 108.976 149.328 109.328 150.471 110.031C151.615 110.734 152.503 111.721 153.135 112.992C153.767 114.264 154.083 115.748 154.083 117.446C154.083 119.136 153.767 120.613 153.135 121.877C152.503 123.142 151.615 124.125 150.471 124.828C149.328 125.531 147.989 125.883 146.455 125.883ZM146.466 123.209C147.46 123.209 148.284 122.946 148.937 122.421C149.591 121.895 150.074 121.196 150.386 120.322C150.706 119.448 150.866 118.486 150.866 117.435C150.866 116.391 150.706 115.432 150.386 114.558C150.074 113.678 149.591 112.971 148.937 112.438C148.284 111.906 147.46 111.639 146.466 111.639C145.464 111.639 144.633 111.906 143.973 112.438C143.319 112.971 142.833 113.678 142.513 114.558C142.201 115.432 142.045 116.391 142.045 117.435C142.045 118.486 142.201 119.448 142.513 120.322C142.833 121.196 143.319 121.895 143.973 122.421C144.633 122.946 145.464 123.209 146.466 123.209ZM161.124 115.837L161.124 125.553L157.939 125.553L157.939 109.189L160.996 109.189L160.996 111.853L161.198 111.853C161.575 110.986 162.164 110.29 162.967 109.764C163.777 109.239 164.796 108.976 166.024 108.976C167.14 108.976 168.116 109.21 168.954 109.679C169.792 110.141 170.442 110.83 170.904 111.746C171.365 112.662 171.596 113.795 171.596 115.144L171.596 125.553L168.411 125.553L168.411 115.528C168.411 114.342 168.102 113.415 167.484 112.747C166.866 112.073 166.017 111.735 164.938 111.735C164.199 111.735 163.542 111.895 162.967 112.215C162.399 112.534 161.948 113.003 161.614 113.621C161.287 114.232 161.124 114.97 161.124 115.837Z" fill="white"/>
<path d="M39.5258 181.553L39.5258 171.371L43.0855 171.371C43.7947 171.371 44.3797 171.494 44.8404 171.739C45.3011 171.981 45.6442 172.307 45.8696 172.718C46.0949 173.126 46.2076 173.578 46.2076 174.075C46.2076 174.513 46.1297 174.874 45.974 175.159C45.8215 175.444 45.6193 175.67 45.3674 175.835C45.1188 176.001 44.8487 176.124 44.5571 176.203L44.5571 176.303C44.8686 176.323 45.1818 176.432 45.4967 176.631C45.8116 176.83 46.075 177.115 46.2872 177.486C46.4993 177.857 46.6053 178.311 46.6053 178.848C46.6053 179.359 46.4893 179.818 46.2573 180.225C46.0253 180.633 45.6591 180.956 45.1586 181.195C44.6581 181.433 44.0069 181.553 43.2048 181.553L39.5258 181.553ZM40.7588 180.459L43.2048 180.459C44.0102 180.459 44.5819 180.303 44.92 179.992C45.2614 179.677 45.4321 179.296 45.4321 178.848C45.4321 178.504 45.3442 178.185 45.1686 177.894C44.9929 177.599 44.7427 177.363 44.4178 177.188C44.093 177.009 43.7086 176.919 43.2644 176.919L40.7588 176.919L40.7588 180.459ZM40.7588 175.845L43.0457 175.845C43.4169 175.845 43.7517 175.772 44.0499 175.627C44.3516 175.481 44.5902 175.275 44.7659 175.01C44.9448 174.745 45.0343 174.433 45.0343 174.075C45.0343 173.628 44.8785 173.249 44.567 172.937C44.2554 172.622 43.7616 172.465 43.0855 172.465L40.7588 172.465L40.7588 175.845ZM49.3679 184.416C49.169 184.416 48.9917 184.4 48.8359 184.367C48.6801 184.337 48.5724 184.307 48.5127 184.277L48.811 183.243C49.0961 183.316 49.348 183.343 49.5667 183.323C49.7855 183.303 49.9794 183.205 50.1484 183.029C50.3208 182.857 50.4782 182.577 50.6207 182.189L50.8395 181.593L48.0156 173.916L49.2883 173.916L51.3963 180.002L51.4758 180.002L53.5838 173.916L54.8565 173.916L51.615 182.666C51.4692 183.061 51.2886 183.387 51.0731 183.646C50.8577 183.908 50.6074 184.102 50.3224 184.227C50.0407 184.353 49.7225 184.416 49.3679 184.416ZM57.1247 181.621C56.9145 181.621 56.7341 181.546 56.5835 181.395C56.4329 181.245 56.3576 181.064 56.3576 180.854C56.3576 180.644 56.4329 180.463 56.5835 180.313C56.7341 180.162 56.9145 180.087 57.1247 180.087C57.3349 180.087 57.5153 180.162 57.6659 180.313C57.8165 180.463 57.8917 180.644 57.8917 180.854C57.8917 180.993 57.8562 181.121 57.7852 181.237C57.717 181.354 57.6247 181.448 57.5082 181.519C57.3946 181.587 57.2667 181.621 57.1247 181.621ZM57.1247 176.763C56.9145 176.763 56.7341 176.688 56.5835 176.537C56.4329 176.387 56.3576 176.206 56.3576 175.996C56.3576 175.786 56.4329 175.605 56.5835 175.455C56.7341 175.304 56.9145 175.229 57.1247 175.229C57.3349 175.229 57.5153 175.304 57.6659 175.455C57.8165 175.605 57.8917 175.786 57.8917 175.996C57.8917 176.135 57.8562 176.263 57.7852 176.379C57.717 176.496 57.6247 176.59 57.5082 176.661C57.3946 176.729 57.2667 176.763 57.1247 176.763ZM63.5664 177.343L63.5664 178.28L59.7482 178.28L59.7482 177.343L63.5664 177.343ZM77.355 175.007C77.3039 174.575 77.0965 174.24 76.7329 174.002C76.3693 173.763 75.9232 173.644 75.3948 173.644C75.0085 173.644 74.6704 173.706 74.3806 173.831C74.0937 173.956 73.8693 174.128 73.7073 174.347C73.5482 174.566 73.4687 174.814 73.4687 175.093C73.4687 175.325 73.5241 175.526 73.6349 175.693C73.7485 175.858 73.8934 175.996 74.0695 176.107C74.2457 176.215 74.4303 176.304 74.6235 176.375C74.8167 176.443 74.9943 176.499 75.1562 176.541L76.0425 176.78C76.2698 176.84 76.5227 176.922 76.8011 177.027C77.0823 177.132 77.3508 177.276 77.6065 177.458C77.865 177.637 78.0781 177.867 78.2457 178.148C78.4133 178.429 78.4971 178.774 78.4971 179.183C78.4971 179.655 78.3735 180.081 78.1264 180.462C77.882 180.843 77.5241 181.145 77.0525 181.37C76.5837 181.594 76.0141 181.706 75.3437 181.706C74.7187 181.706 74.1775 181.605 73.7201 181.404C73.2656 181.202 72.9076 180.921 72.6462 180.56C72.3877 180.199 72.2414 179.78 72.2073 179.303L73.2982 179.303C73.3266 179.632 73.4374 179.905 73.6306 180.121C73.8266 180.334 74.0738 180.493 74.3721 180.598C74.6732 180.7 74.9971 180.752 75.3437 180.752C75.7471 180.752 76.1093 180.686 76.4303 180.556C76.7514 180.422 77.0056 180.237 77.1931 180.002C77.3806 179.763 77.4744 179.485 77.4744 179.166C77.4744 178.877 77.3934 178.641 77.2315 178.459C77.0695 178.277 76.8565 178.129 76.5923 178.016C76.3281 177.902 76.0425 177.803 75.7357 177.718L74.6619 177.411C73.98 177.215 73.4403 176.935 73.0425 176.571C72.6448 176.208 72.446 175.732 72.446 175.144C72.446 174.655 72.5781 174.229 72.8423 173.865C73.1093 173.499 73.4673 173.215 73.9161 173.013C74.3678 172.808 74.8721 172.706 75.4289 172.706C75.9914 172.706 76.4914 172.807 76.9289 173.009C77.3664 173.208 77.713 173.48 77.9687 173.827C78.2272 174.173 78.3636 174.567 78.3778 175.007L77.355 175.007ZM82.1444 181.706C81.7297 181.706 81.3532 181.628 81.0152 181.472C80.6771 181.313 80.4086 181.084 80.2098 180.786C80.0109 180.485 79.9115 180.121 79.9115 179.695C79.9115 179.32 79.9853 179.016 80.1331 178.783C80.2808 178.547 80.4782 178.362 80.7254 178.229C80.9726 178.095 81.2453 177.996 81.5436 177.931C81.8447 177.862 82.1473 177.808 82.4513 177.769C82.849 177.718 83.1714 177.679 83.4186 177.654C83.6686 177.625 83.8504 177.578 83.964 177.513C84.0805 177.448 84.1388 177.334 84.1388 177.172L84.1388 177.138C84.1388 176.718 84.0237 176.391 83.7936 176.158C83.5663 175.925 83.2211 175.808 82.7581 175.808C82.278 175.808 81.9015 175.914 81.6288 176.124C81.3561 176.334 81.1643 176.558 81.0535 176.797L80.099 176.456C80.2694 176.058 80.4967 175.749 80.7808 175.527C81.0677 175.303 81.3802 175.147 81.7183 175.058C82.0592 174.968 82.3944 174.922 82.724 174.922C82.9342 174.922 83.1757 174.948 83.4484 174.999C83.724 175.047 83.9896 175.148 84.2453 175.301C84.5038 175.455 84.7183 175.686 84.8888 175.996C85.0592 176.306 85.1444 176.72 85.1444 177.24L85.1444 181.553L84.1388 181.553L84.1388 180.666L84.0876 180.666C84.0194 180.808 83.9058 180.96 83.7467 181.122C83.5876 181.284 83.376 181.422 83.1118 181.536C82.8476 181.649 82.5251 181.706 82.1444 181.706ZM82.2978 180.803C82.6956 180.803 83.0308 180.725 83.3035 180.568C83.5791 180.412 83.7865 180.21 83.9257 179.963C84.0677 179.716 84.1388 179.456 84.1388 179.183L84.1388 178.263C84.0961 178.314 84.0024 178.361 83.8575 178.404C83.7155 178.443 83.5507 178.479 83.3632 178.51C83.1785 178.539 82.9981 178.564 82.822 178.587C82.6487 178.607 82.5081 178.624 82.4001 178.638C82.1388 178.672 81.8944 178.727 81.6672 178.804C81.4427 178.878 81.2609 178.99 81.1217 179.141C80.9853 179.289 80.9172 179.49 80.9172 179.746C80.9172 180.095 81.0464 180.36 81.305 180.539C81.5663 180.715 81.8973 180.803 82.2978 180.803ZM89.7591 181.689C89.1455 181.689 88.6171 181.544 88.1739 181.254C87.7307 180.965 87.3898 180.566 87.1512 180.057C86.9125 179.548 86.7932 178.968 86.7932 178.314C86.7932 177.649 86.9154 177.063 87.1597 176.554C87.4068 176.043 87.7506 175.644 88.1909 175.357C88.6341 175.067 89.1512 174.922 89.7421 174.922C90.2023 174.922 90.6171 175.007 90.9864 175.178C91.3557 175.348 91.6583 175.587 91.8941 175.894C92.1299 176.2 92.2762 176.558 92.333 176.968L91.3273 176.968C91.2506 176.669 91.0801 176.405 90.8159 176.175C90.5546 175.942 90.2023 175.825 89.7591 175.825C89.3671 175.825 89.0233 175.928 88.7279 176.132C88.4352 176.334 88.2066 176.62 88.0418 176.989C87.8799 177.355 87.7989 177.786 87.7989 178.28C87.7989 178.786 87.8784 179.226 88.0375 179.601C88.1995 179.976 88.4267 180.267 88.7193 180.475C89.0148 180.682 89.3614 180.786 89.7591 180.786C90.0205 180.786 90.2577 180.74 90.4708 180.649C90.6838 180.558 90.8642 180.428 91.012 180.257C91.1597 180.087 91.2648 179.882 91.3273 179.644L92.333 179.644C92.2762 180.03 92.1355 180.378 91.9111 180.688C91.6895 180.995 91.3955 181.239 91.029 181.421C90.6654 181.6 90.2421 181.689 89.7591 181.689ZM94.9288 177.615L94.9288 181.553L93.9231 181.553L93.9231 172.825L94.9288 172.825L94.9288 176.03L95.0141 176.03C95.1675 175.692 95.3976 175.423 95.7044 175.225C96.0141 175.023 96.426 174.922 96.9402 174.922C97.3862 174.922 97.7768 175.012 98.1121 175.191C98.4473 175.367 98.7072 175.638 98.8919 176.004C99.0794 176.368 99.1731 176.831 99.1731 177.394L99.1731 181.553L98.1675 181.553L98.1675 177.462C98.1675 176.942 98.0325 176.54 97.7626 176.256C97.4956 175.969 97.1248 175.825 96.6504 175.825C96.3209 175.825 96.0254 175.895 95.7641 176.034C95.5055 176.173 95.301 176.377 95.1504 176.644C95.0027 176.911 94.9288 177.235 94.9288 177.615ZM101.133 181.553L101.133 175.007L102.139 175.007L102.139 181.553L101.133 181.553ZM101.644 173.916C101.448 173.916 101.279 173.85 101.137 173.716C100.998 173.583 100.928 173.422 100.928 173.235C100.928 173.047 100.998 172.887 101.137 172.753C101.279 172.62 101.448 172.553 101.644 172.553C101.84 172.553 102.008 172.62 102.147 172.753C102.289 172.887 102.36 173.047 102.36 173.235C102.36 173.422 102.289 173.583 102.147 173.716C102.008 173.85 101.84 173.916 101.644 173.916ZM105.106 177.615L105.106 181.553L104.101 181.553L104.101 175.007L105.072 175.007L105.072 176.03L105.157 176.03C105.311 175.698 105.544 175.431 105.856 175.229C106.169 175.024 106.572 174.922 107.067 174.922C107.51 174.922 107.898 175.013 108.23 175.195C108.562 175.374 108.821 175.647 109.005 176.013C109.19 176.377 109.282 176.837 109.282 177.394L109.282 181.553L108.277 181.553L108.277 177.462C108.277 176.948 108.143 176.547 107.876 176.26C107.609 175.97 107.243 175.825 106.777 175.825C106.456 175.825 106.169 175.895 105.916 176.034C105.666 176.173 105.469 176.377 105.324 176.644C105.179 176.911 105.106 177.235 105.106 177.615ZM114.872 181.553L114.872 172.825L115.928 172.825L115.928 177.155L116.031 177.155L119.951 172.825L121.332 172.825L117.667 176.763L121.332 181.553L120.053 181.553L117.019 177.496L115.928 178.723L115.928 181.553L114.872 181.553ZM126.398 178.877L126.398 175.007L127.404 175.007L127.404 181.553L126.398 181.553L126.398 180.445L126.33 180.445C126.177 180.777 125.938 181.06 125.614 181.293C125.29 181.523 124.881 181.638 124.387 181.638C123.978 181.638 123.614 181.548 123.296 181.37C122.978 181.188 122.728 180.915 122.546 180.551C122.364 180.185 122.273 179.723 122.273 179.166L122.273 175.007L123.279 175.007L123.279 179.098C123.279 179.575 123.412 179.956 123.679 180.24C123.949 180.524 124.293 180.666 124.711 180.666C124.961 180.666 125.215 180.602 125.473 180.475C125.735 180.347 125.954 180.151 126.13 179.887C126.309 179.622 126.398 179.286 126.398 178.877ZM129.366 181.553L129.366 175.007L130.337 175.007L130.337 176.03L130.423 176.03C130.559 175.681 130.779 175.409 131.083 175.216C131.387 175.02 131.752 174.922 132.178 174.922C132.61 174.922 132.969 175.02 133.256 175.216C133.546 175.409 133.772 175.681 133.934 176.03L134.002 176.03C134.17 175.692 134.421 175.423 134.756 175.225C135.092 175.023 135.494 174.922 135.962 174.922C136.548 174.922 137.026 175.105 137.398 175.472C137.771 175.835 137.957 176.402 137.957 177.172L137.957 181.553L136.951 181.553L136.951 177.172C136.951 176.689 136.819 176.344 136.555 176.137C136.291 175.929 135.979 175.825 135.621 175.825C135.161 175.825 134.805 175.965 134.552 176.243C134.299 176.519 134.173 176.868 134.173 177.291L134.173 181.553L133.15 181.553L133.15 177.07C133.15 176.698 133.029 176.398 132.788 176.171C132.546 175.941 132.235 175.825 131.854 175.825C131.593 175.825 131.349 175.895 131.121 176.034C130.897 176.173 130.715 176.367 130.576 176.614C130.44 176.858 130.371 177.141 130.371 177.462L130.371 181.553L129.366 181.553ZM141.842 181.706C141.427 181.706 141.05 181.628 140.712 181.472C140.374 181.313 140.106 181.084 139.907 180.786C139.708 180.485 139.609 180.121 139.609 179.695C139.609 179.32 139.683 179.016 139.83 178.783C139.978 178.547 140.175 178.362 140.423 178.229C140.67 178.095 140.942 177.996 141.241 177.931C141.542 177.862 141.844 177.808 142.148 177.769C142.546 177.718 142.869 177.679 143.116 177.654C143.366 177.625 143.548 177.578 143.661 177.513C143.778 177.448 143.836 177.334 143.836 177.172L143.836 177.138C143.836 176.718 143.721 176.391 143.491 176.158C143.264 175.925 142.918 175.808 142.455 175.808C141.975 175.808 141.599 175.914 141.326 176.124C141.053 176.334 140.862 176.558 140.751 176.797L139.796 176.456C139.967 176.058 140.194 175.749 140.478 175.527C140.765 175.303 141.077 175.147 141.415 175.058C141.756 174.968 142.092 174.922 142.421 174.922C142.631 174.922 142.873 174.948 143.146 174.999C143.421 175.047 143.687 175.148 143.942 175.301C144.201 175.455 144.415 175.686 144.586 175.996C144.756 176.306 144.842 176.72 144.842 177.24L144.842 181.553L143.836 181.553L143.836 180.666L143.785 180.666C143.717 180.808 143.603 180.96 143.444 181.122C143.285 181.284 143.073 181.422 142.809 181.536C142.545 181.649 142.222 181.706 141.842 181.706ZM141.995 180.803C142.393 180.803 142.728 180.725 143.001 180.568C143.276 180.412 143.484 180.21 143.623 179.963C143.765 179.716 143.836 179.456 143.836 179.183L143.836 178.263C143.793 178.314 143.7 178.361 143.555 178.404C143.413 178.443 143.248 178.479 143.06 178.51C142.876 178.539 142.695 178.564 142.519 178.587C142.346 178.607 142.205 178.624 142.097 178.638C141.836 178.672 141.592 178.727 141.364 178.804C141.14 178.878 140.958 178.99 140.819 179.141C140.683 179.289 140.614 179.49 140.614 179.746C140.614 180.095 140.744 180.36 141.002 180.539C141.264 180.715 141.594 180.803 141.995 180.803ZM146.797 181.553L146.797 175.007L147.769 175.007L147.769 175.996L147.837 175.996C147.956 175.672 148.172 175.409 148.485 175.208C148.797 175.006 149.149 174.905 149.542 174.905C149.615 174.905 149.708 174.906 149.819 174.909C149.929 174.912 150.013 174.916 150.07 174.922L150.07 175.945C150.036 175.936 149.958 175.923 149.836 175.906C149.716 175.887 149.59 175.877 149.456 175.877C149.138 175.877 148.854 175.943 148.604 176.077C148.357 176.208 148.161 176.389 148.016 176.622C147.874 176.852 147.803 177.115 147.803 177.411L147.803 181.553L146.797 181.553ZM107.544 197.706C107.13 197.706 106.753 197.628 106.415 197.472C106.077 197.313 105.809 197.084 105.61 196.786C105.411 196.485 105.311 196.121 105.311 195.695C105.311 195.32 105.385 195.016 105.533 194.783C105.681 194.547 105.878 194.362 106.125 194.229C106.373 194.095 106.645 193.996 106.944 193.931C107.245 193.862 107.547 193.808 107.851 193.769C108.249 193.718 108.571 193.679 108.819 193.654C109.069 193.625 109.25 193.578 109.364 193.513C109.481 193.448 109.539 193.334 109.539 193.172L109.539 193.138C109.539 192.718 109.424 192.391 109.194 192.158C108.966 191.925 108.621 191.808 108.158 191.808C107.678 191.808 107.302 191.914 107.029 192.124C106.756 192.334 106.564 192.558 106.454 192.797L105.499 192.456C105.669 192.058 105.897 191.749 106.181 191.527C106.468 191.303 106.78 191.147 107.118 191.058C107.459 190.968 107.794 190.922 108.124 190.922C108.334 190.922 108.576 190.948 108.848 190.999C109.124 191.047 109.39 191.148 109.645 191.301C109.904 191.455 110.118 191.686 110.289 191.996C110.459 192.306 110.544 192.72 110.544 193.24L110.544 197.553L109.539 197.553L109.539 196.666L109.488 196.666C109.419 196.808 109.306 196.96 109.147 197.122C108.988 197.284 108.776 197.422 108.512 197.536C108.248 197.649 107.925 197.706 107.544 197.706ZM107.698 196.803C108.096 196.803 108.431 196.725 108.704 196.568C108.979 196.412 109.186 196.21 109.326 195.963C109.468 195.716 109.539 195.456 109.539 195.183L109.539 194.263C109.496 194.314 109.402 194.361 109.258 194.404C109.115 194.443 108.951 194.479 108.763 194.51C108.579 194.539 108.398 194.564 108.222 194.587C108.049 194.607 107.908 194.624 107.8 194.638C107.539 194.672 107.294 194.727 107.067 194.804C106.843 194.878 106.661 194.99 106.522 195.141C106.385 195.289 106.317 195.49 106.317 195.746C106.317 196.095 106.446 196.36 106.705 196.539C106.966 196.715 107.297 196.803 107.698 196.803ZM113.506 193.615L113.506 197.553L112.5 197.553L112.5 191.007L113.472 191.007L113.472 192.03L113.557 192.03C113.71 191.698 113.943 191.431 114.256 191.229C114.568 191.024 114.972 190.922 115.466 190.922C115.909 190.922 116.297 191.013 116.629 191.195C116.962 191.374 117.22 191.647 117.405 192.013C117.59 192.377 117.682 192.837 117.682 193.394L117.682 197.553L116.676 197.553L116.676 193.462C116.676 192.948 116.543 192.547 116.276 192.26C116.009 191.97 115.642 191.825 115.176 191.825C114.855 191.825 114.568 191.895 114.315 192.034C114.065 192.173 113.868 192.377 113.723 192.644C113.578 192.911 113.506 193.235 113.506 193.615ZM122.111 197.689C121.566 197.689 121.084 197.551 120.667 197.276C120.249 196.997 119.922 196.605 119.686 196.1C119.451 195.591 119.333 194.99 119.333 194.297C119.333 193.61 119.451 193.013 119.686 192.507C119.922 192.002 120.25 191.611 120.671 191.335C121.091 191.06 121.577 190.922 122.128 190.922C122.554 190.922 122.891 190.993 123.138 191.135C123.388 191.274 123.578 191.433 123.709 191.612C123.843 191.789 123.946 191.933 124.02 192.047L124.105 192.047L124.105 188.825L125.111 188.825L125.111 197.553L124.14 197.553L124.14 196.547L124.02 196.547C123.946 196.666 123.841 196.817 123.705 196.999C123.569 197.178 123.374 197.338 123.121 197.48C122.868 197.62 122.532 197.689 122.111 197.689ZM122.248 196.786C122.651 196.786 122.992 196.681 123.27 196.47C123.549 196.257 123.76 195.963 123.905 195.588C124.05 195.21 124.123 194.774 124.123 194.28C124.123 193.791 124.051 193.364 123.909 192.997C123.767 192.628 123.557 192.341 123.279 192.137C123 191.929 122.657 191.825 122.248 191.825C121.821 191.825 121.466 191.935 121.182 192.154C120.901 192.37 120.689 192.664 120.547 193.036C120.408 193.405 120.338 193.82 120.338 194.28C120.338 194.746 120.409 195.169 120.551 195.55C120.696 195.928 120.909 196.229 121.191 196.453C121.475 196.675 121.827 196.786 122.248 196.786ZM133.554 191.007L133.554 191.86L130.162 191.86L130.162 191.007L133.554 191.007ZM131.151 189.439L132.157 189.439L132.157 195.678C132.157 195.962 132.198 196.175 132.28 196.317C132.365 196.456 132.473 196.55 132.604 196.598C132.738 196.644 132.878 196.666 133.026 196.666C133.137 196.666 133.228 196.661 133.299 196.649C133.37 196.635 133.426 196.624 133.469 196.615L133.674 197.519C133.605 197.544 133.51 197.57 133.388 197.595C133.266 197.624 133.111 197.638 132.924 197.638C132.639 197.638 132.361 197.577 132.088 197.455C131.818 197.333 131.594 197.147 131.415 196.897C131.239 196.647 131.151 196.331 131.151 195.95L131.151 189.439ZM137.861 197.689C137.23 197.689 136.686 197.55 136.229 197.272C135.774 196.99 135.424 196.598 135.176 196.095C134.932 195.59 134.81 195.002 134.81 194.331C134.81 193.661 134.932 193.07 135.176 192.558C135.424 192.044 135.767 191.644 136.208 191.357C136.651 191.067 137.168 190.922 137.759 190.922C138.1 190.922 138.436 190.979 138.769 191.093C139.101 191.206 139.404 191.391 139.676 191.647C139.949 191.899 140.166 192.235 140.328 192.652C140.49 193.07 140.571 193.584 140.571 194.195L140.571 194.621L135.526 194.621L135.526 193.752L139.549 193.752C139.549 193.382 139.475 193.053 139.327 192.763C139.182 192.473 138.975 192.245 138.705 192.077C138.438 191.909 138.122 191.825 137.759 191.825C137.358 191.825 137.012 191.925 136.719 192.124C136.429 192.32 136.206 192.575 136.05 192.891C135.894 193.206 135.816 193.544 135.816 193.905L135.816 194.485C135.816 194.979 135.901 195.398 136.071 195.742C136.245 196.083 136.485 196.343 136.791 196.522C137.098 196.698 137.455 196.786 137.861 196.786C138.125 196.786 138.364 196.749 138.577 196.675C138.793 196.598 138.979 196.485 139.135 196.334C139.291 196.181 139.412 195.99 139.497 195.763L140.469 196.036C140.367 196.365 140.195 196.655 139.953 196.905C139.712 197.152 139.414 197.345 139.058 197.485C138.703 197.621 138.304 197.689 137.861 197.689ZM144.147 197.706C143.732 197.706 143.356 197.628 143.018 197.472C142.68 197.313 142.411 197.084 142.213 196.786C142.014 196.485 141.914 196.121 141.914 195.695C141.914 195.32 141.988 195.016 142.136 194.783C142.284 194.547 142.481 194.362 142.728 194.229C142.975 194.095 143.248 193.996 143.546 193.931C143.848 193.862 144.15 193.808 144.454 193.769C144.852 193.718 145.174 193.679 145.421 193.654C145.671 193.625 145.853 193.578 145.967 193.513C146.083 193.448 146.142 193.334 146.142 193.172L146.142 193.138C146.142 192.718 146.027 192.391 145.796 192.158C145.569 191.925 145.224 191.808 144.761 191.808C144.281 191.808 143.904 191.914 143.632 192.124C143.359 192.334 143.167 192.558 143.056 192.797L142.102 192.456C142.272 192.058 142.5 191.749 142.784 191.527C143.071 191.303 143.383 191.147 143.721 191.058C144.062 190.968 144.397 190.922 144.727 190.922C144.937 190.922 145.179 190.948 145.451 190.999C145.727 191.047 145.992 191.148 146.248 191.301C146.507 191.455 146.721 191.686 146.892 191.996C147.062 192.306 147.147 192.72 147.147 193.24L147.147 197.553L146.142 197.553L146.142 196.666L146.09 196.666C146.022 196.808 145.909 196.96 145.75 197.122C145.59 197.284 145.379 197.422 145.115 197.536C144.85 197.649 144.528 197.706 144.147 197.706ZM144.301 196.803C144.698 196.803 145.034 196.725 145.306 196.568C145.582 196.412 145.789 196.21 145.929 195.963C146.071 195.716 146.142 195.456 146.142 195.183L146.142 194.263C146.099 194.314 146.005 194.361 145.86 194.404C145.718 194.443 145.554 194.479 145.366 194.51C145.181 194.539 145.001 194.564 144.825 194.587C144.652 194.607 144.511 194.624 144.403 194.638C144.142 194.672 143.897 194.727 143.67 194.804C143.446 194.878 143.264 194.99 143.125 195.141C142.988 195.289 142.92 195.49 142.92 195.746C142.92 196.095 143.049 196.36 143.308 196.539C143.569 196.715 143.9 196.803 144.301 196.803ZM149.103 197.553L149.103 191.007L150.074 191.007L150.074 192.03L150.16 192.03C150.296 191.681 150.516 191.409 150.82 191.216C151.124 191.02 151.489 190.922 151.915 190.922C152.347 190.922 152.707 191.02 152.993 191.216C153.283 191.409 153.509 191.681 153.671 192.03L153.739 192.03C153.907 191.692 154.158 191.423 154.493 191.225C154.829 191.023 155.231 190.922 155.699 190.922C156.285 190.922 156.763 191.105 157.136 191.472C157.508 191.835 157.694 192.402 157.694 193.172L157.694 197.553L156.688 197.553L156.688 193.172C156.688 192.689 156.556 192.344 156.292 192.137C156.028 191.929 155.716 191.825 155.359 191.825C154.898 191.825 154.542 191.965 154.289 192.243C154.036 192.519 153.91 192.868 153.91 193.291L153.91 197.553L152.887 197.553L152.887 193.07C152.887 192.698 152.766 192.398 152.525 192.171C152.283 191.941 151.972 191.825 151.591 191.825C151.33 191.825 151.086 191.895 150.859 192.034C150.634 192.173 150.452 192.367 150.313 192.614C150.177 192.858 150.109 193.141 150.109 193.462L150.109 197.553L149.103 197.553Z" fill="white"/>
<path d="M38.2928 184.337L47.7524 184.337L47.7524 185.291L38.2928 185.291L38.2928 184.337ZM50.974 184.337L55.4713 184.337L55.4713 185.291L50.974 185.291L50.974 184.337ZM55.4713 183.939L58.896 183.939L58.896 184.757L55.4713 184.757L55.4713 183.939Z" fill="white"/>
<path d="M59.2051 217.938C58.8613 217.938 58.5474 217.854 58.2633 217.686C57.9792 217.516 57.752 217.289 57.5815 217.005C57.4139 216.72 57.3301 216.407 57.3301 216.063C57.3301 215.716 57.4139 215.402 57.5815 215.121C57.752 214.837 57.9792 214.611 58.2633 214.443C58.5474 214.273 58.8613 214.188 59.2051 214.188C59.5517 214.188 59.8656 214.273 60.1468 214.443C60.4309 214.611 60.6568 214.837 60.8244 215.121C60.9949 215.402 61.0801 215.716 61.0801 216.063C61.0801 216.407 60.9949 216.72 60.8244 217.005C60.6568 217.289 60.4309 217.516 60.1468 217.686C59.8656 217.854 59.5517 217.938 59.2051 217.938ZM69.2619 219.54V210.813H70.3187V214.699H74.9721V210.813H76.0289V219.54H74.9721V215.637H70.3187V219.54H69.2619ZM77.7874 211.75V210.813H84.3329V211.75H81.5886V219.54H80.5318V211.75H77.7874ZM86.0839 210.813H87.3453L90.3112 218.057H90.4135L93.3794 210.813H94.6407V219.54H93.6521V212.909H93.5669L90.8396 219.54H89.8851L87.1578 212.909H87.0726V219.54H86.0839V210.813ZM96.8797 219.54V210.813H97.9365V218.603H101.993V219.54H96.8797ZM105.113 218.347L105.045 218.807C104.997 219.131 104.923 219.478 104.824 219.847C104.727 220.216 104.626 220.564 104.521 220.891C104.416 221.218 104.329 221.478 104.261 221.671H103.494C103.531 221.489 103.579 221.249 103.639 220.951C103.699 220.652 103.758 220.318 103.818 219.949C103.88 219.583 103.932 219.208 103.971 218.824L104.022 218.347H105.113ZM117.751 213.54H116.694C116.631 213.236 116.522 212.969 116.366 212.739C116.212 212.509 116.025 212.316 115.803 212.159C115.585 212 115.342 211.881 115.075 211.801C114.808 211.722 114.529 211.682 114.239 211.682C113.711 211.682 113.232 211.816 112.803 212.083C112.377 212.35 112.038 212.743 111.785 213.263C111.535 213.783 111.41 214.421 111.41 215.176C111.41 215.932 111.535 216.57 111.785 217.09C112.038 217.61 112.377 218.003 112.803 218.27C113.232 218.537 113.711 218.671 114.239 218.671C114.529 218.671 114.808 218.631 115.075 218.551C115.342 218.472 115.585 218.354 115.803 218.198C116.025 218.039 116.212 217.844 116.366 217.614C116.522 217.381 116.631 217.114 116.694 216.813H117.751C117.671 217.259 117.526 217.658 117.316 218.01C117.106 218.362 116.844 218.662 116.532 218.909C116.219 219.154 115.869 219.34 115.479 219.468C115.093 219.595 114.68 219.659 114.239 219.659C113.495 219.659 112.833 219.478 112.254 219.114C111.674 218.75 111.218 218.233 110.886 217.563C110.553 216.892 110.387 216.097 110.387 215.176C110.387 214.256 110.553 213.46 110.886 212.79C111.218 212.12 111.674 211.603 112.254 211.239C112.833 210.875 113.495 210.693 114.239 210.693C114.68 210.693 115.093 210.757 115.479 210.885C115.869 211.013 116.219 211.201 116.532 211.448C116.844 211.692 117.106 211.99 117.316 212.343C117.526 212.692 117.671 213.091 117.751 213.54ZM124.351 212.995C124.3 212.563 124.093 212.228 123.729 211.989C123.365 211.75 122.919 211.631 122.391 211.631C122.005 211.631 121.667 211.693 121.377 211.818C121.09 211.943 120.865 212.115 120.703 212.334C120.544 212.553 120.465 212.801 120.465 213.08C120.465 213.313 120.52 213.513 120.631 213.681C120.745 213.845 120.89 213.983 121.066 214.094C121.242 214.202 121.426 214.291 121.62 214.362C121.813 214.431 121.99 214.486 122.152 214.529L123.039 214.767C123.266 214.827 123.519 214.909 123.797 215.014C124.078 215.12 124.347 215.263 124.603 215.445C124.861 215.624 125.074 215.854 125.242 216.135C125.409 216.416 125.493 216.762 125.493 217.171C125.493 217.642 125.37 218.068 125.122 218.449C124.878 218.83 124.52 219.132 124.049 219.357C123.58 219.581 123.01 219.693 122.34 219.693C121.715 219.693 121.174 219.593 120.716 219.391C120.262 219.189 119.904 218.908 119.642 218.547C119.384 218.186 119.238 217.767 119.203 217.29H120.294C120.323 217.62 120.434 217.892 120.627 218.108C120.823 218.321 121.07 218.48 121.368 218.585C121.669 218.688 121.993 218.739 122.34 218.739C122.743 218.739 123.105 218.674 123.426 218.543C123.747 218.409 124.002 218.225 124.189 217.989C124.377 217.75 124.471 217.472 124.471 217.154C124.471 216.864 124.39 216.628 124.228 216.446C124.066 216.264 123.853 216.117 123.588 216.003C123.324 215.889 123.039 215.79 122.732 215.705L121.658 215.398C120.976 215.202 120.436 214.922 120.039 214.559C119.641 214.195 119.442 213.719 119.442 213.131C119.442 212.642 119.574 212.216 119.838 211.853C120.105 211.486 120.463 211.202 120.912 211C121.364 210.796 121.868 210.693 122.425 210.693C122.988 210.693 123.488 210.794 123.925 210.996C124.363 211.195 124.709 211.468 124.965 211.814C125.223 212.161 125.36 212.554 125.374 212.995H124.351ZM132.124 212.995C132.072 212.563 131.865 212.228 131.501 211.989C131.138 211.75 130.692 211.631 130.163 211.631C129.777 211.631 129.439 211.693 129.149 211.818C128.862 211.943 128.638 212.115 128.476 212.334C128.317 212.553 128.237 212.801 128.237 213.08C128.237 213.313 128.293 213.513 128.403 213.681C128.517 213.845 128.662 213.983 128.838 214.094C129.014 214.202 129.199 214.291 129.392 214.362C129.585 214.431 129.763 214.486 129.925 214.529L130.811 214.767C131.038 214.827 131.291 214.909 131.57 215.014C131.851 215.12 132.119 215.263 132.375 215.445C132.633 215.624 132.847 215.854 133.014 216.135C133.182 216.416 133.266 216.762 133.266 217.171C133.266 217.642 133.142 218.068 132.895 218.449C132.651 218.83 132.293 219.132 131.821 219.357C131.352 219.581 130.783 219.693 130.112 219.693C129.487 219.693 128.946 219.593 128.489 219.391C128.034 219.189 127.676 218.908 127.415 218.547C127.156 218.186 127.01 217.767 126.976 217.29H128.067C128.095 217.62 128.206 217.892 128.399 218.108C128.595 218.321 128.842 218.48 129.141 218.585C129.442 218.688 129.766 218.739 130.112 218.739C130.516 218.739 130.878 218.674 131.199 218.543C131.52 218.409 131.774 218.225 131.962 217.989C132.149 217.75 132.243 217.472 132.243 217.154C132.243 216.864 132.162 216.628 132 216.446C131.838 216.264 131.625 216.117 131.361 216.003C131.097 215.889 130.811 215.79 130.504 215.705L129.43 215.398C128.749 215.202 128.209 214.922 127.811 214.559C127.413 214.195 127.214 213.719 127.214 213.131C127.214 212.642 127.347 212.216 127.611 211.853C127.878 211.486 128.236 211.202 128.685 211C129.136 210.796 129.641 210.693 130.197 210.693C130.76 210.693 131.26 210.794 131.697 210.996C132.135 211.195 132.481 211.468 132.737 211.814C132.996 212.161 133.132 212.554 133.146 212.995H132.124ZM59.2051 231.938C58.8613 231.938 58.5474 231.854 58.2633 231.686C57.9792 231.516 57.752 231.289 57.5815 231.005C57.4139 230.72 57.3301 230.407 57.3301 230.063C57.3301 229.716 57.4139 229.402 57.5815 229.121C57.752 228.837 57.9792 228.611 58.2633 228.443C58.5474 228.273 58.8613 228.188 59.2051 228.188C59.5517 228.188 59.8656 228.273 60.1468 228.443C60.4309 228.611 60.6568 228.837 60.8244 229.121C60.9949 229.402 61.0801 229.716 61.0801 230.063C61.0801 230.407 60.9949 230.72 60.8244 231.005C60.6568 231.289 60.4309 231.516 60.1468 231.686C59.8656 231.854 59.5517 231.938 59.2051 231.938ZM72.6028 224.813H73.6596V231.051C73.6596 231.608 73.5574 232.081 73.3528 232.47C73.1483 232.86 72.8599 233.155 72.4877 233.357C72.1156 233.559 71.6767 233.659 71.171 233.659C70.6937 233.659 70.269 233.573 69.8968 233.399C69.5247 233.223 69.2321 232.973 69.019 232.649C68.8059 232.326 68.6994 231.941 68.6994 231.495H69.7392C69.7392 231.742 69.8002 231.958 69.9224 232.142C70.0474 232.324 70.2179 232.466 70.4338 232.568C70.6497 232.671 70.8954 232.722 71.171 232.722C71.475 232.722 71.7335 232.658 71.9466 232.53C72.1596 232.402 72.3216 232.215 72.4324 231.968C72.546 231.718 72.6028 231.412 72.6028 231.051V224.813ZM77.6873 233.693C77.2725 233.693 76.8961 233.615 76.558 233.459C76.22 233.3 75.9515 233.071 75.7526 232.773C75.5538 232.472 75.4543 232.108 75.4543 231.682C75.4543 231.307 75.5282 231.003 75.6759 230.77C75.8237 230.534 76.0211 230.35 76.2683 230.216C76.5154 230.083 76.7881 229.983 77.0864 229.918C77.3876 229.85 77.6901 229.796 77.9941 229.756C78.3918 229.705 78.7143 229.666 78.9614 229.641C79.2114 229.612 79.3933 229.566 79.5069 229.5C79.6234 229.435 79.6816 229.321 79.6816 229.159V229.125C79.6816 228.705 79.5666 228.378 79.3364 228.145C79.1092 227.912 78.764 227.796 78.3009 227.796C77.8208 227.796 77.4444 227.901 77.1717 228.111C76.8989 228.321 76.7072 228.546 76.5964 228.784L75.6418 228.443C75.8123 228.046 76.0396 227.736 76.3237 227.514C76.6106 227.29 76.9231 227.134 77.2612 227.046C77.6021 226.955 77.9373 226.909 78.2668 226.909C78.4771 226.909 78.7185 226.935 78.9913 226.986C79.2668 227.034 79.5325 227.135 79.7881 227.289C80.0467 227.442 80.2612 227.674 80.4316 227.983C80.6021 228.293 80.6873 228.708 80.6873 229.228V233.54H79.6816V232.654H79.6305C79.5623 232.796 79.4487 232.948 79.2896 233.11C79.1305 233.272 78.9188 233.409 78.6546 233.523C78.3904 233.637 78.068 233.693 77.6873 233.693ZM77.8407 232.79C78.2384 232.79 78.5737 232.712 78.8464 232.556C79.122 232.399 79.3293 232.198 79.4685 231.951C79.6106 231.703 79.6816 231.443 79.6816 231.171V230.25C79.639 230.301 79.5452 230.348 79.4004 230.391C79.2583 230.431 79.0935 230.466 78.906 230.497C78.7214 230.526 78.541 230.551 78.3649 230.574C78.1916 230.594 78.0509 230.611 77.943 230.625C77.6816 230.659 77.4373 230.715 77.21 230.791C76.9856 230.865 76.8038 230.978 76.6646 231.128C76.5282 231.276 76.46 231.478 76.46 231.733C76.46 232.083 76.5893 232.347 76.8478 232.526C77.1092 232.702 77.4401 232.79 77.8407 232.79ZM87.7608 226.995L85.3403 233.54H84.3176L81.8971 226.995H82.988L84.7949 232.21H84.863L86.6699 226.995H87.7608ZM90.9351 233.693C90.5203 233.693 90.1439 233.615 89.8058 233.459C89.4678 233.3 89.1993 233.071 89.0004 232.773C88.8016 232.472 88.7022 232.108 88.7022 231.682C88.7022 231.307 88.776 231.003 88.9237 230.77C89.0715 230.534 89.2689 230.35 89.5161 230.216C89.7632 230.083 90.036 229.983 90.3343 229.918C90.6354 229.85 90.9379 229.796 91.2419 229.756C91.6397 229.705 91.9621 229.666 92.2093 229.641C92.4593 229.612 92.6411 229.566 92.7547 229.5C92.8712 229.435 92.9294 229.321 92.9294 229.159V229.125C92.9294 228.705 92.8144 228.378 92.5843 228.145C92.357 227.912 92.0118 227.796 91.5487 227.796C91.0686 227.796 90.6922 227.901 90.4195 228.111C90.1468 228.321 89.955 228.546 89.8442 228.784L88.8897 228.443C89.0601 228.046 89.2874 227.736 89.5715 227.514C89.8584 227.29 90.1709 227.134 90.509 227.046C90.8499 226.955 91.1851 226.909 91.5147 226.909C91.7249 226.909 91.9664 226.935 92.2391 226.986C92.5147 227.034 92.7803 227.135 93.036 227.289C93.2945 227.442 93.509 227.674 93.6794 227.983C93.8499 228.293 93.9351 228.708 93.9351 229.228V233.54H92.9294V232.654H92.8783C92.8101 232.796 92.6965 232.948 92.5374 233.11C92.3783 233.272 92.1666 233.409 91.9024 233.523C91.6382 233.637 91.3158 233.693 90.9351 233.693ZM91.0885 232.79C91.4862 232.79 91.8215 232.712 92.0942 232.556C92.3698 232.399 92.5772 232.198 92.7164 231.951C92.8584 231.703 92.9294 231.443 92.9294 231.171V230.25C92.8868 230.301 92.7931 230.348 92.6482 230.391C92.5061 230.431 92.3414 230.466 92.1539 230.497C91.9692 230.526 91.7888 230.551 91.6127 230.574C91.4394 230.594 91.2987 230.611 91.1908 230.625C90.9294 230.659 90.6851 230.715 90.4578 230.791C90.2334 230.865 90.0516 230.978 89.9124 231.128C89.776 231.276 89.7078 231.478 89.7078 231.733C89.7078 232.083 89.8371 232.347 90.0956 232.526C90.357 232.702 90.6879 232.79 91.0885 232.79ZM100.8 226.995C100.749 226.563 100.541 226.228 100.178 225.989C99.814 225.75 99.368 225.631 98.8396 225.631C98.4532 225.631 98.1151 225.693 97.8253 225.818C97.5384 225.943 97.314 226.115 97.1521 226.334C96.993 226.553 96.9134 226.801 96.9134 227.08C96.9134 227.313 96.9688 227.513 97.0796 227.681C97.1932 227.845 97.3381 227.983 97.5143 228.094C97.6904 228.202 97.8751 228.291 98.0682 228.362C98.2614 228.431 98.439 228.486 98.6009 228.529L99.4873 228.767C99.7146 228.827 99.9674 228.909 100.246 229.014C100.527 229.12 100.796 229.263 101.051 229.445C101.31 229.624 101.523 229.854 101.69 230.135C101.858 230.416 101.942 230.762 101.942 231.171C101.942 231.642 101.818 232.068 101.571 232.449C101.327 232.83 100.969 233.132 100.497 233.357C100.028 233.581 99.4589 233.693 98.7884 233.693C98.1634 233.693 97.6222 233.593 97.1648 233.391C96.7103 233.189 96.3523 232.908 96.091 232.547C95.8324 232.186 95.6861 231.767 95.6521 231.29H96.743C96.7714 231.62 96.8822 231.892 97.0753 232.108C97.2714 232.321 97.5185 232.48 97.8168 232.585C98.118 232.688 98.4418 232.739 98.7884 232.739C99.1918 232.739 99.554 232.674 99.8751 232.543C100.196 232.409 100.45 232.225 100.638 231.989C100.825 231.75 100.919 231.472 100.919 231.154C100.919 230.864 100.838 230.628 100.676 230.446C100.514 230.264 100.301 230.117 100.037 230.003C99.7728 229.889 99.4873 229.79 99.1805 229.705L98.1066 229.398C97.4248 229.202 96.885 228.922 96.4873 228.559C96.0896 228.195 95.8907 227.719 95.8907 227.131C95.8907 226.642 96.0228 226.216 96.287 225.853C96.554 225.486 96.912 225.202 97.3609 225C97.8126 224.796 98.3168 224.693 98.8736 224.693C99.4361 224.693 99.9361 224.794 100.374 224.996C100.811 225.195 101.158 225.468 101.413 225.814C101.672 226.161 101.808 226.554 101.823 226.995H100.8ZM106.322 233.676C105.708 233.676 105.18 233.532 104.737 233.242C104.294 232.952 103.953 232.553 103.714 232.044C103.476 231.536 103.356 230.955 103.356 230.301C103.356 229.637 103.478 229.05 103.723 228.541C103.97 228.03 104.314 227.631 104.754 227.344C105.197 227.054 105.714 226.909 106.305 226.909C106.765 226.909 107.18 226.995 107.549 227.165C107.919 227.335 108.221 227.574 108.457 227.881C108.693 228.188 108.839 228.546 108.896 228.955H107.89C107.814 228.657 107.643 228.392 107.379 228.162C107.118 227.929 106.765 227.813 106.322 227.813C105.93 227.813 105.586 227.915 105.291 228.12C104.998 228.321 104.77 228.607 104.605 228.976C104.443 229.343 104.362 229.773 104.362 230.267C104.362 230.773 104.441 231.213 104.601 231.588C104.762 231.963 104.99 232.255 105.282 232.462C105.578 232.669 105.924 232.773 106.322 232.773C106.583 232.773 106.821 232.728 107.034 232.637C107.247 232.546 107.427 232.415 107.575 232.245C107.723 232.074 107.828 231.87 107.89 231.631H108.896C108.839 232.017 108.699 232.365 108.474 232.675C108.253 232.982 107.958 233.226 107.592 233.408C107.228 233.587 106.805 233.676 106.322 233.676ZM110.486 233.54V226.995H111.458V227.983H111.526C111.645 227.659 111.861 227.397 112.174 227.195C112.486 226.993 112.838 226.892 113.23 226.892C113.304 226.892 113.397 226.894 113.507 226.897C113.618 226.899 113.702 226.904 113.759 226.909V227.932C113.725 227.924 113.647 227.911 113.525 227.894C113.405 227.874 113.279 227.864 113.145 227.864C112.827 227.864 112.543 227.931 112.293 228.064C112.046 228.195 111.85 228.377 111.705 228.61C111.563 228.84 111.492 229.103 111.492 229.398V233.54H110.486ZM115.071 233.54V226.995H116.077V233.54H115.071ZM115.582 225.904C115.386 225.904 115.217 225.837 115.075 225.703C114.936 225.57 114.866 225.409 114.866 225.222C114.866 225.034 114.936 224.874 115.075 224.74C115.217 224.607 115.386 224.54 115.582 224.54C115.778 224.54 115.946 224.607 116.085 224.74C116.227 224.874 116.298 225.034 116.298 225.222C116.298 225.409 116.227 225.57 116.085 225.703C115.946 225.837 115.778 225.904 115.582 225.904ZM118.039 235.995V226.995H119.01V228.034H119.13C119.203 227.921 119.306 227.776 119.436 227.6C119.57 227.421 119.76 227.262 120.007 227.122C120.257 226.98 120.595 226.909 121.022 226.909C121.573 226.909 122.059 227.047 122.479 227.323C122.899 227.598 123.228 227.989 123.463 228.495C123.699 229 123.817 229.597 123.817 230.284C123.817 230.978 123.699 231.578 123.463 232.087C123.228 232.593 122.901 232.985 122.483 233.263C122.066 233.539 121.584 233.676 121.039 233.676C120.618 233.676 120.282 233.607 120.029 233.468C119.776 233.326 119.581 233.165 119.445 232.986C119.309 232.804 119.203 232.654 119.13 232.534H119.044V235.995H118.039ZM119.027 230.267C119.027 230.762 119.1 231.198 119.245 231.576C119.39 231.951 119.601 232.245 119.88 232.458C120.158 232.668 120.499 232.773 120.902 232.773C121.323 232.773 121.674 232.662 121.955 232.441C122.239 232.216 122.452 231.915 122.594 231.537C122.739 231.157 122.811 230.733 122.811 230.267C122.811 229.807 122.74 229.392 122.598 229.023C122.459 228.651 122.247 228.357 121.963 228.141C121.682 227.922 121.328 227.813 120.902 227.813C120.493 227.813 120.149 227.916 119.871 228.124C119.593 228.328 119.382 228.615 119.24 228.985C119.098 229.351 119.027 229.779 119.027 230.267ZM128.318 226.995V227.847H124.926V226.995H128.318ZM125.914 225.426H126.92V231.665C126.92 231.949 126.961 232.162 127.044 232.304C127.129 232.443 127.237 232.537 127.367 232.585C127.501 232.631 127.642 232.654 127.789 232.654C127.9 232.654 127.991 232.648 128.062 232.637C128.133 232.622 128.19 232.611 128.233 232.603L128.437 233.506C128.369 233.532 128.274 233.557 128.152 233.583C128.029 233.611 127.875 233.625 127.687 233.625C127.403 233.625 127.125 233.564 126.852 233.442C126.582 233.32 126.358 233.134 126.179 232.884C126.002 232.634 125.914 232.318 125.914 231.938V225.426ZM59.2051 245.938C58.8613 245.938 58.5474 245.854 58.2633 245.686C57.9792 245.516 57.752 245.289 57.5815 245.005C57.4139 244.72 57.3301 244.407 57.3301 244.063C57.3301 243.716 57.4139 243.402 57.5815 243.121C57.752 242.837 57.9792 242.611 58.2633 242.443C58.5474 242.273 58.8613 242.188 59.2051 242.188C59.5517 242.188 59.8656 242.273 60.1468 242.443C60.4309 242.611 60.6568 242.837 60.8244 243.121C60.9949 243.402 61.0801 243.716 61.0801 244.063C61.0801 244.407 60.9949 244.72 60.8244 245.005C60.6568 245.289 60.4309 245.516 60.1468 245.686C59.8656 245.854 59.5517 245.938 59.2051 245.938ZM69.2619 247.54V238.813H72.313C72.921 238.813 73.4224 238.918 73.8173 239.128C74.2122 239.335 74.5062 239.615 74.6994 239.968C74.8926 240.317 74.9892 240.705 74.9892 241.131C74.9892 241.506 74.9224 241.816 74.7889 242.06C74.6582 242.304 74.4849 242.497 74.269 242.639C74.0559 242.782 73.8244 242.887 73.5744 242.955V243.04C73.8414 243.057 74.1099 243.151 74.3798 243.321C74.6497 243.492 74.8755 243.736 75.0574 244.054C75.2392 244.372 75.3301 244.762 75.3301 245.222C75.3301 245.659 75.2306 246.053 75.0318 246.402C74.8329 246.752 74.519 247.029 74.09 247.233C73.661 247.438 73.1028 247.54 72.4153 247.54H69.2619ZM70.3187 246.603H72.4153C73.1056 246.603 73.5957 246.469 73.8855 246.202C74.1781 245.932 74.3244 245.605 74.3244 245.222C74.3244 244.926 74.2491 244.654 74.0985 244.404C73.948 244.151 73.7335 243.949 73.4551 243.799C73.1767 243.645 72.8471 243.568 72.4664 243.568H70.3187V246.603ZM70.3187 242.648H72.2789C72.5971 242.648 72.8841 242.585 73.1397 242.46C73.3983 242.335 73.6028 242.159 73.7534 241.932C73.9068 241.705 73.9835 241.438 73.9835 241.131C73.9835 240.747 73.85 240.422 73.5829 240.155C73.3159 239.885 72.8926 239.75 72.313 239.75H70.3187V242.648ZM79.7093 247.676C79.1184 247.676 78.5999 247.536 78.1539 247.255C77.7107 246.973 77.3641 246.58 77.1141 246.074C76.867 245.568 76.7434 244.978 76.7434 244.301C76.7434 243.62 76.867 243.024 77.1141 242.516C77.3641 242.007 77.7107 241.612 78.1539 241.331C78.5999 241.05 79.1184 240.909 79.7093 240.909C80.3002 240.909 80.8173 241.05 81.2604 241.331C81.7065 241.612 82.0531 242.007 82.3002 242.516C82.5502 243.024 82.6752 243.62 82.6752 244.301C82.6752 244.978 82.5502 245.568 82.3002 246.074C82.0531 246.58 81.7065 246.973 81.2604 247.255C80.8173 247.536 80.3002 247.676 79.7093 247.676ZM79.7093 246.773C80.1582 246.773 80.5275 246.658 80.8173 246.428C81.107 246.198 81.3215 245.895 81.4607 245.52C81.5999 245.145 81.6695 244.739 81.6695 244.301C81.6695 243.864 81.5999 243.456 81.4607 243.078C81.3215 242.701 81.107 242.395 80.8173 242.162C80.5275 241.929 80.1582 241.813 79.7093 241.813C79.2604 241.813 78.8911 241.929 78.6014 242.162C78.3116 242.395 78.0971 242.701 77.9579 243.078C77.8187 243.456 77.7491 243.864 77.7491 244.301C77.7491 244.739 77.8187 245.145 77.9579 245.52C78.0971 245.895 78.3116 246.198 78.6014 246.428C78.8911 246.658 79.2604 246.773 79.7093 246.773ZM86.9895 247.676C86.3986 247.676 85.8801 247.536 85.4341 247.255C84.9909 246.973 84.6443 246.58 84.3943 246.074C84.1471 245.568 84.0236 244.978 84.0236 244.301C84.0236 243.62 84.1471 243.024 84.3943 242.516C84.6443 242.007 84.9909 241.612 85.4341 241.331C85.8801 241.05 86.3986 240.909 86.9895 240.909C87.5804 240.909 88.0974 241.05 88.5406 241.331C88.9866 241.612 89.3332 242.007 89.5804 242.516C89.8304 243.024 89.9554 243.62 89.9554 244.301C89.9554 244.978 89.8304 245.568 89.5804 246.074C89.3332 246.58 88.9866 246.973 88.5406 247.255C88.0974 247.536 87.5804 247.676 86.9895 247.676ZM86.9895 246.773C87.4383 246.773 87.8077 246.658 88.0974 246.428C88.3872 246.198 88.6017 245.895 88.7409 245.52C88.8801 245.145 88.9497 244.739 88.9497 244.301C88.9497 243.864 88.8801 243.456 88.7409 243.078C88.6017 242.701 88.3872 242.395 88.0974 242.162C87.8077 241.929 87.4383 241.813 86.9895 241.813C86.5406 241.813 86.1713 241.929 85.8815 242.162C85.5917 242.395 85.3773 242.701 85.238 243.078C85.0988 243.456 85.0292 243.864 85.0292 244.301C85.0292 244.739 85.0988 245.145 85.238 245.52C85.3773 245.895 85.5917 246.198 85.8815 246.428C86.1713 246.658 86.5406 246.773 86.9895 246.773ZM94.4571 240.995V241.847H91.0651V240.995H94.4571ZM92.0537 239.426H93.0594V245.665C93.0594 245.949 93.1006 246.162 93.183 246.304C93.2682 246.443 93.3762 246.537 93.5068 246.585C93.6404 246.631 93.781 246.654 93.9287 246.654C94.0395 246.654 94.1304 246.648 94.2014 246.637C94.2725 246.622 94.3293 246.611 94.3719 246.603L94.5764 247.506C94.5083 247.532 94.4131 247.557 94.2909 247.583C94.1688 247.611 94.0139 247.625 93.8264 247.625C93.5424 247.625 93.2639 247.564 92.9912 247.442C92.7213 247.32 92.4969 247.134 92.3179 246.884C92.1418 246.634 92.0537 246.318 92.0537 245.938V239.426ZM100.609 242.46L99.7057 242.716C99.6489 242.566 99.565 242.419 99.4543 242.277C99.3463 242.132 99.1986 242.013 99.0111 241.919C98.8236 241.826 98.5835 241.779 98.2909 241.779C97.8903 241.779 97.5565 241.871 97.2895 242.056C97.0253 242.237 96.8932 242.469 96.8932 242.75C96.8932 243 96.9841 243.198 97.1659 243.343C97.3477 243.487 97.6318 243.608 98.0182 243.705L98.9898 243.943C99.575 244.085 100.011 244.303 100.298 244.595C100.585 244.885 100.728 245.259 100.728 245.716C100.728 246.091 100.62 246.426 100.405 246.722C100.191 247.017 99.8932 247.25 99.5097 247.421C99.1261 247.591 98.6801 247.676 98.1716 247.676C97.504 247.676 96.9514 247.532 96.5139 247.242C96.0764 246.952 95.7994 246.529 95.6829 245.972L96.6375 245.733C96.7284 246.085 96.9003 246.35 97.1531 246.526C97.4088 246.702 97.7426 246.79 98.1545 246.79C98.6233 246.79 98.9954 246.691 99.271 246.492C99.5494 246.29 99.6886 246.049 99.6886 245.767C99.6886 245.54 99.6091 245.35 99.45 245.196C99.2909 245.04 99.0466 244.924 98.717 244.847L97.6261 244.591C97.0267 244.449 96.5864 244.229 96.3051 243.931C96.0267 243.63 95.8875 243.253 95.8875 242.801C95.8875 242.432 95.9912 242.105 96.1986 241.821C96.4088 241.537 96.6943 241.314 97.0551 241.152C97.4187 240.99 97.8307 240.909 98.2909 240.909C98.9386 240.909 99.4472 241.051 99.8165 241.335C100.189 241.62 100.453 241.995 100.609 242.46ZM105.209 240.995V241.847H101.817V240.995H105.209ZM102.805 239.426H103.811V245.665C103.811 245.949 103.852 246.162 103.935 246.304C104.02 246.443 104.128 246.537 104.259 246.585C104.392 246.631 104.533 246.654 104.68 246.654C104.791 246.654 104.882 246.648 104.953 246.637C105.024 246.622 105.081 246.611 105.124 246.603L105.328 247.506C105.26 247.532 105.165 247.557 105.043 247.583C104.92 247.611 104.766 247.625 104.578 247.625C104.294 247.625 104.016 247.564 103.743 247.442C103.473 247.32 103.249 247.134 103.07 246.884C102.893 246.634 102.805 246.318 102.805 245.938V239.426ZM106.842 247.54V240.995H107.813V241.983H107.881C108.001 241.659 108.217 241.397 108.529 241.195C108.842 240.993 109.194 240.892 109.586 240.892C109.66 240.892 109.752 240.894 109.863 240.897C109.974 240.899 110.058 240.904 110.114 240.909V241.932C110.08 241.924 110.002 241.911 109.88 241.894C109.761 241.874 109.634 241.864 109.501 241.864C109.183 241.864 108.898 241.931 108.648 242.064C108.401 242.195 108.205 242.377 108.06 242.61C107.918 242.84 107.847 243.103 107.847 243.398V247.54H106.842ZM113.353 247.693C112.938 247.693 112.561 247.615 112.223 247.459C111.885 247.3 111.617 247.071 111.418 246.773C111.219 246.472 111.12 246.108 111.12 245.682C111.12 245.307 111.194 245.003 111.341 244.77C111.489 244.534 111.686 244.35 111.934 244.216C112.181 244.083 112.453 243.983 112.752 243.918C113.053 243.85 113.355 243.796 113.659 243.756C114.057 243.705 114.38 243.666 114.627 243.641C114.877 243.612 115.059 243.566 115.172 243.5C115.289 243.435 115.347 243.321 115.347 243.159V243.125C115.347 242.705 115.232 242.378 115.002 242.145C114.774 241.912 114.429 241.796 113.966 241.796C113.486 241.796 113.11 241.901 112.837 242.111C112.564 242.321 112.372 242.546 112.262 242.784L111.307 242.443C111.478 242.046 111.705 241.736 111.989 241.514C112.276 241.29 112.588 241.134 112.926 241.046C113.267 240.955 113.603 240.909 113.932 240.909C114.142 240.909 114.384 240.935 114.657 240.986C114.932 241.034 115.198 241.135 115.453 241.289C115.712 241.442 115.926 241.674 116.097 241.983C116.267 242.293 116.353 242.708 116.353 243.228V247.54H115.347V246.654H115.296C115.228 246.796 115.114 246.948 114.955 247.11C114.796 247.272 114.584 247.409 114.32 247.523C114.056 247.637 113.733 247.693 113.353 247.693ZM113.506 246.79C113.904 246.79 114.239 246.712 114.512 246.556C114.787 246.399 114.995 246.198 115.134 245.951C115.276 245.703 115.347 245.443 115.347 245.171V244.25C115.304 244.301 115.211 244.348 115.066 244.391C114.924 244.431 114.759 244.466 114.571 244.497C114.387 244.526 114.206 244.551 114.03 244.574C113.857 244.594 113.716 244.611 113.608 244.625C113.347 244.659 113.103 244.715 112.875 244.791C112.651 244.865 112.469 244.978 112.33 245.128C112.194 245.276 112.125 245.478 112.125 245.733C112.125 246.083 112.255 246.347 112.513 246.526C112.774 246.702 113.105 246.79 113.506 246.79ZM118.308 249.995V240.995H119.28V242.034H119.399C119.473 241.921 119.575 241.776 119.706 241.6C119.839 241.421 120.03 241.262 120.277 241.122C120.527 240.98 120.865 240.909 121.291 240.909C121.842 240.909 122.328 241.047 122.749 241.323C123.169 241.598 123.497 241.989 123.733 242.495C123.969 243 124.087 243.597 124.087 244.284C124.087 244.978 123.969 245.578 123.733 246.087C123.497 246.593 123.17 246.985 122.753 247.263C122.335 247.539 121.854 247.676 121.308 247.676C120.888 247.676 120.551 247.607 120.298 247.468C120.045 247.326 119.851 247.165 119.714 246.986C119.578 246.804 119.473 246.654 119.399 246.534H119.314V249.995H118.308ZM119.297 244.267C119.297 244.762 119.369 245.198 119.514 245.576C119.659 245.951 119.871 246.245 120.149 246.458C120.428 246.668 120.768 246.773 121.172 246.773C121.592 246.773 121.943 246.662 122.224 246.441C122.508 246.216 122.722 245.915 122.864 245.537C123.008 245.157 123.081 244.733 123.081 244.267C123.081 243.807 123.01 243.392 122.868 243.023C122.729 242.651 122.517 242.357 122.233 242.141C121.952 241.922 121.598 241.813 121.172 241.813C120.763 241.813 120.419 241.916 120.141 242.124C119.862 242.328 119.652 242.615 119.51 242.985C119.368 243.351 119.297 243.779 119.297 244.267ZM59.2051 259.938C58.8613 259.938 58.5474 259.854 58.2633 259.686C57.9792 259.516 57.752 259.289 57.5815 259.005C57.4139 258.72 57.3301 258.407 57.3301 258.063C57.3301 257.716 57.4139 257.402 57.5815 257.121C57.752 256.837 57.9792 256.611 58.2633 256.443C58.5474 256.273 58.8613 256.188 59.2051 256.188C59.5517 256.188 59.8656 256.273 60.1468 256.443C60.4309 256.611 60.6568 256.837 60.8244 257.121C60.9949 257.402 61.0801 257.716 61.0801 258.063C61.0801 258.407 60.9949 258.72 60.8244 259.005C60.6568 259.289 60.4309 259.516 60.1468 259.686C59.8656 259.854 59.5517 259.938 59.2051 259.938ZM68.7846 253.75V252.813H75.3301V253.75H72.5858V261.54H71.5289V253.75H68.7846ZM77.9803 261.693C77.5655 261.693 77.1891 261.615 76.851 261.459C76.5129 261.3 76.2445 261.071 76.0456 260.773C75.8467 260.472 75.7473 260.108 75.7473 259.682C75.7473 259.307 75.8212 259.003 75.9689 258.77C76.1166 258.534 76.3141 258.35 76.5612 258.216C76.8084 258.083 77.0811 257.983 77.3794 257.918C77.6805 257.85 77.9831 257.796 78.2871 257.756C78.6848 257.705 79.0073 257.666 79.2544 257.641C79.5044 257.612 79.6862 257.566 79.7999 257.5C79.9163 257.435 79.9746 257.321 79.9746 257.159V257.125C79.9746 256.705 79.8595 256.378 79.6294 256.145C79.4021 255.912 79.057 255.796 78.5939 255.796C78.1138 255.796 77.7374 255.901 77.4646 256.111C77.1919 256.321 77.0002 256.546 76.8894 256.784L75.9348 256.443C76.1053 256.046 76.3325 255.736 76.6166 255.514C76.9036 255.29 77.2161 255.134 77.5541 255.046C77.895 254.955 78.2303 254.909 78.5598 254.909C78.77 254.909 79.0115 254.935 79.2842 254.986C79.5598 255.034 79.8254 255.135 80.0811 255.289C80.3396 255.442 80.5541 255.674 80.7246 255.983C80.895 256.293 80.9803 256.708 80.9803 257.228V261.54H79.9746V260.654H79.9234C79.8553 260.796 79.7416 260.948 79.5825 261.11C79.4234 261.272 79.2118 261.409 78.9476 261.523C78.6834 261.637 78.3609 261.693 77.9803 261.693ZM78.1337 260.79C78.5314 260.79 78.8666 260.712 79.1394 260.556C79.4149 260.399 79.6223 260.198 79.7615 259.951C79.9036 259.703 79.9746 259.443 79.9746 259.171V258.25C79.932 258.301 79.8382 258.348 79.6933 258.391C79.5513 258.431 79.3865 258.466 79.199 258.497C79.0144 258.526 78.834 258.551 78.6578 258.574C78.4845 258.594 78.3439 258.611 78.2359 258.625C77.9746 258.659 77.7303 258.715 77.503 258.791C77.2786 258.865 77.0967 258.978 76.9575 259.128C76.8212 259.276 76.753 259.478 76.753 259.733C76.753 260.083 76.8823 260.347 77.1408 260.526C77.4021 260.702 77.7331 260.79 78.1337 260.79ZM82.9358 261.54V254.995H83.9415V261.54H82.9358ZM83.4472 253.904C83.2512 253.904 83.0822 253.837 82.9401 253.703C82.8009 253.57 82.7313 253.409 82.7313 253.222C82.7313 253.034 82.8009 252.874 82.9401 252.74C83.0822 252.607 83.2512 252.54 83.4472 252.54C83.6432 252.54 83.8108 252.607 83.95 252.74C84.0921 252.874 84.1631 253.034 84.1631 253.222C84.1631 253.409 84.0921 253.57 83.95 253.703C83.8108 253.837 83.6432 253.904 83.4472 253.904ZM86.9092 252.813V261.54H85.9035V252.813H86.9092ZM90.3541 261.54L88.3598 254.995H89.4166L90.8314 260.006H90.8996L92.2973 254.995H93.3712L94.7518 259.989H94.82L96.2348 254.995H97.2916L95.2973 261.54H94.3087L92.8768 256.512H92.7746L91.3427 261.54H90.3541ZM98.7412 261.54V254.995H99.7468V261.54H98.7412ZM99.2525 253.904C99.0565 253.904 98.8875 253.837 98.7454 253.703C98.6062 253.57 98.5366 253.409 98.5366 253.222C98.5366 253.034 98.6062 252.874 98.7454 252.74C98.8875 252.607 99.0565 252.54 99.2525 252.54C99.4485 252.54 99.6162 252.607 99.7554 252.74C99.8974 252.874 99.9684 253.034 99.9684 253.222C99.9684 253.409 99.8974 253.57 99.7554 253.703C99.6162 253.837 99.4485 253.904 99.2525 253.904ZM102.714 257.603V261.54H101.709V254.995H102.68V256.017H102.766C102.919 255.685 103.152 255.418 103.464 255.216C103.777 255.012 104.18 254.909 104.675 254.909C105.118 254.909 105.506 255 105.838 255.182C106.17 255.361 106.429 255.634 106.614 256C106.798 256.364 106.891 256.824 106.891 257.381V261.54H105.885V257.449C105.885 256.935 105.751 256.534 105.484 256.247C105.217 255.958 104.851 255.813 104.385 255.813C104.064 255.813 103.777 255.882 103.524 256.022C103.274 256.161 103.077 256.364 102.932 256.631C102.787 256.898 102.714 257.222 102.714 257.603ZM111.32 261.676C110.774 261.676 110.293 261.539 109.875 261.263C109.458 260.985 109.131 260.593 108.895 260.087C108.659 259.578 108.542 258.978 108.542 258.284C108.542 257.597 108.659 257 108.895 256.495C109.131 255.989 109.459 255.598 109.88 255.323C110.3 255.047 110.786 254.909 111.337 254.909C111.763 254.909 112.1 254.98 112.347 255.122C112.597 255.262 112.787 255.421 112.918 255.6C113.051 255.776 113.155 255.921 113.229 256.034H113.314V252.813H114.32V261.54H113.348V260.534H113.229C113.155 260.654 113.05 260.804 112.914 260.986C112.777 261.165 112.583 261.326 112.33 261.468C112.077 261.607 111.74 261.676 111.32 261.676ZM111.456 260.773C111.86 260.773 112.201 260.668 112.479 260.458C112.757 260.245 112.969 259.951 113.114 259.576C113.259 259.198 113.331 258.762 113.331 258.267C113.331 257.779 113.26 257.351 113.118 256.985C112.976 256.615 112.766 256.328 112.488 256.124C112.209 255.916 111.865 255.813 111.456 255.813C111.03 255.813 110.675 255.922 110.391 256.141C110.11 256.357 109.898 256.651 109.756 257.023C109.617 257.392 109.547 257.807 109.547 258.267C109.547 258.733 109.618 259.157 109.76 259.537C109.905 259.915 110.118 260.216 110.399 260.441C110.684 260.662 111.036 260.773 111.456 260.773ZM127.076 255.54H126.019C125.956 255.236 125.847 254.969 125.691 254.739C125.537 254.509 125.35 254.316 125.128 254.159C124.909 254 124.666 253.881 124.399 253.801C124.132 253.722 123.854 253.682 123.564 253.682C123.036 253.682 122.557 253.816 122.128 254.083C121.702 254.35 121.362 254.743 121.11 255.263C120.86 255.783 120.735 256.421 120.735 257.176C120.735 257.932 120.86 258.57 121.11 259.09C121.362 259.61 121.702 260.003 122.128 260.27C122.557 260.537 123.036 260.671 123.564 260.671C123.854 260.671 124.132 260.631 124.399 260.551C124.666 260.472 124.909 260.354 125.128 260.198C125.35 260.039 125.537 259.844 125.691 259.614C125.847 259.381 125.956 259.114 126.019 258.813H127.076C126.996 259.259 126.851 259.658 126.641 260.01C126.431 260.362 126.169 260.662 125.857 260.909C125.544 261.154 125.193 261.34 124.804 261.468C124.418 261.595 124.005 261.659 123.564 261.659C122.82 261.659 122.158 261.478 121.578 261.114C120.999 260.75 120.543 260.233 120.211 259.563C119.878 258.892 119.712 258.097 119.712 257.176C119.712 256.256 119.878 255.46 120.211 254.79C120.543 254.12 120.999 253.603 121.578 253.239C122.158 252.875 122.82 252.693 123.564 252.693C124.005 252.693 124.418 252.757 124.804 252.885C125.193 253.013 125.544 253.201 125.857 253.448C126.169 253.692 126.431 253.99 126.641 254.343C126.851 254.692 126.996 255.091 127.076 255.54ZM133.676 254.995C133.625 254.563 133.418 254.228 133.054 253.989C132.69 253.75 132.244 253.631 131.716 253.631C131.329 253.631 130.991 253.693 130.702 253.818C130.415 253.943 130.19 254.115 130.028 254.334C129.869 254.553 129.79 254.801 129.79 255.08C129.79 255.313 129.845 255.513 129.956 255.681C130.069 255.845 130.214 255.983 130.391 256.094C130.567 256.202 130.751 256.291 130.944 256.362C131.138 256.431 131.315 256.486 131.477 256.529L132.364 256.767C132.591 256.827 132.844 256.909 133.122 257.014C133.403 257.12 133.672 257.263 133.927 257.445C134.186 257.624 134.399 257.854 134.567 258.135C134.734 258.416 134.818 258.762 134.818 259.171C134.818 259.642 134.694 260.068 134.447 260.449C134.203 260.83 133.845 261.132 133.373 261.357C132.905 261.581 132.335 261.693 131.665 261.693C131.04 261.693 130.498 261.593 130.041 261.391C129.587 261.189 129.229 260.908 128.967 260.547C128.709 260.186 128.562 259.767 128.528 259.29H129.619C129.648 259.62 129.758 259.892 129.952 260.108C130.148 260.321 130.395 260.48 130.693 260.585C130.994 260.688 131.318 260.739 131.665 260.739C132.068 260.739 132.43 260.674 132.751 260.543C133.072 260.409 133.327 260.225 133.514 259.989C133.702 259.75 133.795 259.472 133.795 259.154C133.795 258.864 133.714 258.628 133.552 258.446C133.391 258.264 133.177 258.117 132.913 258.003C132.649 257.889 132.364 257.79 132.057 257.705L130.983 257.398C130.301 257.202 129.761 256.922 129.364 256.559C128.966 256.195 128.767 255.719 128.767 255.131C128.767 254.642 128.899 254.216 129.163 253.853C129.43 253.486 129.788 253.202 130.237 253C130.689 252.796 131.193 252.693 131.75 252.693C132.312 252.693 132.812 252.794 133.25 252.996C133.687 253.195 134.034 253.468 134.29 253.814C134.548 254.161 134.685 254.554 134.699 254.995H133.676ZM141.448 254.995C141.397 254.563 141.19 254.228 140.826 253.989C140.463 253.75 140.017 253.631 139.488 253.631C139.102 253.631 138.764 253.693 138.474 253.818C138.187 253.943 137.963 254.115 137.801 254.334C137.642 254.553 137.562 254.801 137.562 255.08C137.562 255.313 137.617 255.513 137.728 255.681C137.842 255.845 137.987 255.983 138.163 256.094C138.339 256.202 138.524 256.291 138.717 256.362C138.91 256.431 139.088 256.486 139.25 256.529L140.136 256.767C140.363 256.827 140.616 256.909 140.894 257.014C141.176 257.12 141.444 257.263 141.7 257.445C141.958 257.624 142.171 257.854 142.339 258.135C142.507 258.416 142.59 258.762 142.59 259.171C142.59 259.642 142.467 260.068 142.22 260.449C141.975 260.83 141.617 261.132 141.146 261.357C140.677 261.581 140.107 261.693 139.437 261.693C138.812 261.693 138.271 261.593 137.813 261.391C137.359 261.189 137.001 260.908 136.74 260.547C136.481 260.186 136.335 259.767 136.301 259.29H137.392C137.42 259.62 137.531 259.892 137.724 260.108C137.92 260.321 138.167 260.48 138.465 260.585C138.767 260.688 139.09 260.739 139.437 260.739C139.84 260.739 140.203 260.674 140.524 260.543C140.845 260.409 141.099 260.225 141.286 259.989C141.474 259.75 141.568 259.472 141.568 259.154C141.568 258.864 141.487 258.628 141.325 258.446C141.163 258.264 140.95 258.117 140.686 258.003C140.421 257.889 140.136 257.79 139.829 257.705L138.755 257.398C138.073 257.202 137.534 256.922 137.136 256.559C136.738 256.195 136.539 255.719 136.539 255.131C136.539 254.642 136.671 254.216 136.936 253.853C137.203 253.486 137.561 253.202 138.009 253C138.461 252.796 138.965 252.693 139.522 252.693C140.085 252.693 140.585 252.794 141.022 252.996C141.46 253.195 141.806 253.468 142.062 253.814C142.321 254.161 142.457 254.554 142.471 254.995H141.448ZM59.2051 273.938C58.8613 273.938 58.5474 273.854 58.2633 273.686C57.9792 273.516 57.752 273.289 57.5815 273.005C57.4139 272.72 57.3301 272.407 57.3301 272.063C57.3301 271.716 57.4139 271.402 57.5815 271.121C57.752 270.837 57.9792 270.611 58.2633 270.443C58.5474 270.273 58.8613 270.188 59.2051 270.188C59.5517 270.188 59.8656 270.273 60.1468 270.443C60.4309 270.611 60.6568 270.837 60.8244 271.121C60.9949 271.402 61.0801 271.716 61.0801 272.063C61.0801 272.407 60.9949 272.72 60.8244 273.005C60.6568 273.289 60.4309 273.516 60.1468 273.686C59.8656 273.854 59.5517 273.938 59.2051 273.938ZM69.2619 275.54V266.813H74.4949V267.75H70.3187V270.699H74.1028V271.637H70.3187V275.54H69.2619ZM76.2885 275.54V268.995H77.2942V275.54H76.2885ZM76.7999 267.904C76.6038 267.904 76.4348 267.837 76.2928 267.703C76.1536 267.57 76.084 267.409 76.084 267.222C76.084 267.034 76.1536 266.874 76.2928 266.74C76.4348 266.607 76.6038 266.54 76.7999 266.54C76.9959 266.54 77.1635 266.607 77.3027 266.74C77.4448 266.874 77.5158 267.034 77.5158 267.222C77.5158 267.409 77.4448 267.57 77.3027 267.703C77.1635 267.837 76.9959 267.904 76.7999 267.904ZM79.2562 275.54V268.995H80.2277V269.983H80.2959C80.4152 269.659 80.6312 269.397 80.9437 269.195C81.2562 268.993 81.6084 268.892 82.0005 268.892C82.0743 268.892 82.1667 268.894 82.2775 268.897C82.3883 268.899 82.4721 268.904 82.5289 268.909V269.932C82.4948 269.924 82.4167 269.911 82.2945 269.894C82.1752 269.874 82.0488 269.864 81.9152 269.864C81.5971 269.864 81.313 269.931 81.063 270.064C80.8158 270.195 80.6198 270.377 80.4749 270.61C80.3329 270.84 80.2618 271.103 80.2618 271.398V275.54H79.2562ZM86.3861 275.676C85.7554 275.676 85.2114 275.537 84.754 275.259C84.2995 274.978 83.9486 274.585 83.7014 274.083C83.4571 273.577 83.335 272.989 83.335 272.318C83.335 271.648 83.4571 271.057 83.7014 270.546C83.9486 270.032 84.2924 269.631 84.7327 269.344C85.1759 269.054 85.6929 268.909 86.2838 268.909C86.6247 268.909 86.9614 268.966 87.2938 269.08C87.6262 269.193 87.9287 269.378 88.2014 269.634C88.4742 269.887 88.6915 270.222 88.8534 270.639C89.0154 271.057 89.0963 271.571 89.0963 272.182V272.608H84.0509V271.739H88.0736C88.0736 271.37 87.9997 271.04 87.852 270.75C87.7071 270.46 87.4997 270.232 87.2299 270.064C86.9628 269.897 86.6475 269.813 86.2838 269.813C85.8833 269.813 85.5367 269.912 85.2441 270.111C84.9543 270.307 84.7313 270.563 84.575 270.878C84.4188 271.193 84.3406 271.532 84.3406 271.892V272.472C84.3406 272.966 84.4259 273.385 84.5963 273.729C84.7696 274.07 85.0097 274.33 85.3165 274.509C85.6233 274.685 85.9799 274.773 86.3861 274.773C86.6503 274.773 86.8889 274.736 87.102 274.662C87.3179 274.585 87.504 274.472 87.6602 274.321C87.8165 274.168 87.9372 273.978 88.0225 273.75L88.9941 274.023C88.8918 274.353 88.7199 274.642 88.4784 274.892C88.237 275.139 87.9387 275.333 87.5835 275.472C87.2284 275.608 86.8293 275.676 86.3861 275.676ZM90.8825 275.54V266.813H91.8882V270.034H91.9734C92.0473 269.921 92.1496 269.776 92.2802 269.6C92.4138 269.421 92.6041 269.262 92.8513 269.122C93.1013 268.98 93.4393 268.909 93.8655 268.909C94.4166 268.909 94.9024 269.047 95.3229 269.323C95.7433 269.598 96.0714 269.989 96.3072 270.495C96.543 271 96.6609 271.597 96.6609 272.284C96.6609 272.978 96.543 273.578 96.3072 274.087C96.0714 274.593 95.7447 274.985 95.3271 275.263C94.9095 275.539 94.428 275.676 93.8825 275.676C93.4621 275.676 93.1254 275.607 92.8726 275.468C92.6197 275.326 92.4251 275.165 92.2888 274.986C92.1524 274.804 92.0473 274.654 91.9734 274.534H91.8541V275.54H90.8825ZM91.8712 272.267C91.8712 272.762 91.9436 273.198 92.0885 273.576C92.2334 273.951 92.445 274.245 92.7234 274.458C93.0018 274.668 93.3427 274.773 93.7462 274.773C94.1666 274.773 94.5175 274.662 94.7987 274.441C95.0828 274.216 95.2959 273.915 95.4379 273.537C95.5828 273.157 95.6552 272.733 95.6552 272.267C95.6552 271.807 95.5842 271.392 95.4422 271.023C95.303 270.651 95.0913 270.357 94.8072 270.141C94.526 269.922 94.1723 269.813 93.7462 269.813C93.3371 269.813 92.9933 269.916 92.7149 270.124C92.4365 270.328 92.2263 270.615 92.0842 270.985C91.9422 271.351 91.8712 271.779 91.8712 272.267ZM100.245 275.693C99.8306 275.693 99.4542 275.615 99.1162 275.459C98.7781 275.3 98.5096 275.071 98.3108 274.773C98.1119 274.472 98.0125 274.108 98.0125 273.682C98.0125 273.307 98.0863 273.003 98.2341 272.77C98.3818 272.534 98.5792 272.35 98.8264 272.216C99.0735 272.083 99.3463 271.983 99.6446 271.918C99.9457 271.85 100.248 271.796 100.552 271.756C100.95 271.705 101.272 271.666 101.52 271.641C101.77 271.612 101.951 271.566 102.065 271.5C102.181 271.435 102.24 271.321 102.24 271.159V271.125C102.24 270.705 102.125 270.378 101.895 270.145C101.667 269.912 101.322 269.796 100.859 269.796C100.379 269.796 100.003 269.901 99.7298 270.111C99.4571 270.321 99.2653 270.546 99.1545 270.784L98.2 270.443C98.3704 270.046 98.5977 269.736 98.8818 269.514C99.1687 269.29 99.4812 269.134 99.8193 269.046C100.16 268.955 100.495 268.909 100.825 268.909C101.035 268.909 101.277 268.935 101.549 268.986C101.825 269.034 102.091 269.135 102.346 269.289C102.605 269.442 102.819 269.674 102.99 269.983C103.16 270.293 103.245 270.708 103.245 271.228V275.54H102.24V274.654H102.189C102.12 274.796 102.007 274.948 101.848 275.11C101.689 275.272 101.477 275.409 101.213 275.523C100.949 275.637 100.626 275.693 100.245 275.693ZM100.399 274.79C100.797 274.79 101.132 274.712 101.405 274.556C101.68 274.399 101.887 274.198 102.027 273.951C102.169 273.703 102.24 273.443 102.24 273.171V272.25C102.197 272.301 102.103 272.348 101.958 272.391C101.816 272.431 101.652 272.466 101.464 272.497C101.28 272.526 101.099 272.551 100.923 272.574C100.75 272.594 100.609 272.611 100.501 272.625C100.24 272.659 99.9954 272.715 99.7681 272.791C99.5437 272.865 99.3619 272.978 99.2227 273.128C99.0863 273.276 99.0181 273.478 99.0181 273.733C99.0181 274.083 99.1474 274.347 99.4059 274.526C99.6673 274.702 99.9983 274.79 100.399 274.79ZM109.837 270.46L108.934 270.716C108.877 270.566 108.793 270.419 108.683 270.277C108.575 270.132 108.427 270.013 108.239 269.919C108.052 269.826 107.812 269.779 107.519 269.779C107.119 269.779 106.785 269.871 106.518 270.056C106.254 270.237 106.121 270.469 106.121 270.75C106.121 271 106.212 271.198 106.394 271.343C106.576 271.487 106.86 271.608 107.246 271.705L108.218 271.943C108.803 272.085 109.239 272.303 109.526 272.595C109.813 272.885 109.957 273.259 109.957 273.716C109.957 274.091 109.849 274.426 109.633 274.722C109.42 275.017 109.121 275.25 108.738 275.421C108.354 275.591 107.908 275.676 107.4 275.676C106.732 275.676 106.18 275.532 105.742 275.242C105.305 274.952 105.028 274.529 104.911 273.972L105.866 273.733C105.957 274.085 106.129 274.35 106.381 274.526C106.637 274.702 106.971 274.79 107.383 274.79C107.852 274.79 108.224 274.691 108.499 274.492C108.778 274.29 108.917 274.049 108.917 273.767C108.917 273.54 108.837 273.35 108.678 273.196C108.519 273.04 108.275 272.924 107.945 272.847L106.854 272.591C106.255 272.449 105.815 272.229 105.533 271.931C105.255 271.63 105.116 271.253 105.116 270.801C105.116 270.432 105.219 270.105 105.427 269.821C105.637 269.537 105.923 269.314 106.283 269.152C106.647 268.99 107.059 268.909 107.519 268.909C108.167 268.909 108.675 269.051 109.045 269.335C109.417 269.62 109.681 269.995 109.837 270.46ZM116.227 270.46L115.323 270.716C115.267 270.566 115.183 270.419 115.072 270.277C114.964 270.132 114.816 270.013 114.629 269.919C114.441 269.826 114.201 269.779 113.909 269.779C113.508 269.779 113.174 269.871 112.907 270.056C112.643 270.237 112.511 270.469 112.511 270.75C112.511 271 112.602 271.198 112.784 271.343C112.966 271.487 113.25 271.608 113.636 271.705L114.608 271.943C115.193 272.085 115.629 272.303 115.916 272.595C116.203 272.885 116.346 273.259 116.346 273.716C116.346 274.091 116.238 274.426 116.022 274.722C115.809 275.017 115.511 275.25 115.127 275.421C114.744 275.591 114.298 275.676 113.789 275.676C113.122 275.676 112.569 275.532 112.132 275.242C111.694 274.952 111.417 274.529 111.301 273.972L112.255 273.733C112.346 274.085 112.518 274.35 112.771 274.526C113.027 274.702 113.36 274.79 113.772 274.79C114.241 274.79 114.613 274.691 114.889 274.492C115.167 274.29 115.306 274.049 115.306 273.767C115.306 273.54 115.227 273.35 115.068 273.196C114.909 273.04 114.664 272.924 114.335 272.847L113.244 272.591C112.645 272.449 112.204 272.229 111.923 271.931C111.645 271.63 111.505 271.253 111.505 270.801C111.505 270.432 111.609 270.105 111.816 269.821C112.027 269.537 112.312 269.314 112.673 269.152C113.037 268.99 113.448 268.909 113.909 268.909C114.556 268.909 115.065 269.051 115.434 269.335C115.806 269.62 116.071 269.995 116.227 270.46ZM59.2051 287.938C58.8613 287.938 58.5474 287.854 58.2633 287.686C57.9792 287.516 57.752 287.289 57.5815 287.005C57.4139 286.72 57.3301 286.407 57.3301 286.063C57.3301 285.716 57.4139 285.402 57.5815 285.121C57.752 284.837 57.9792 284.611 58.2633 284.443C58.5474 284.273 58.8613 284.188 59.2051 284.188C59.5517 284.188 59.8656 284.273 60.1468 284.443C60.4309 284.611 60.6568 284.837 60.8244 285.121C60.9949 285.402 61.0801 285.716 61.0801 286.063C61.0801 286.407 60.9949 286.72 60.8244 287.005C60.6568 287.289 60.4309 287.516 60.1468 287.686C59.8656 287.854 59.5517 287.938 59.2051 287.938ZM69.2619 289.54V280.813H74.4949V281.75H70.3187V284.699H74.1028V285.637H70.3187V289.54H69.2619ZM76.2885 289.54V282.995H77.2942V289.54H76.2885ZM76.7999 281.904C76.6038 281.904 76.4348 281.837 76.2928 281.703C76.1536 281.57 76.084 281.409 76.084 281.222C76.084 281.034 76.1536 280.874 76.2928 280.74C76.4348 280.607 76.6038 280.54 76.7999 280.54C76.9959 280.54 77.1635 280.607 77.3027 280.74C77.4448 280.874 77.5158 281.034 77.5158 281.222C77.5158 281.409 77.4448 281.57 77.3027 281.703C77.1635 281.837 76.9959 281.904 76.7999 281.904ZM81.8982 292.131C81.4124 292.131 80.9948 292.068 80.6454 291.943C80.2959 291.821 80.0047 291.659 79.7718 291.458C79.5417 291.259 79.3584 291.046 79.2221 290.818L80.0232 290.256C80.1141 290.375 80.2292 290.512 80.3684 290.665C80.5076 290.821 80.6979 290.956 80.9394 291.07C81.1837 291.186 81.5033 291.245 81.8982 291.245C82.4266 291.245 82.8627 291.117 83.2064 290.861C83.5502 290.605 83.7221 290.205 83.7221 289.659V288.33H83.6368C83.563 288.449 83.4579 288.597 83.3215 288.773C83.188 288.946 82.9948 289.101 82.742 289.237C82.492 289.371 82.1539 289.438 81.7277 289.438C81.1993 289.438 80.7249 289.313 80.3045 289.063C79.8868 288.813 79.5559 288.449 79.3116 287.972C79.0701 287.495 78.9493 286.915 78.9493 286.233C78.9493 285.563 79.0672 284.979 79.303 284.482C79.5388 283.982 79.867 283.595 80.2874 283.323C80.7079 283.047 81.1937 282.909 81.7448 282.909C82.1709 282.909 82.509 282.98 82.759 283.122C83.0118 283.262 83.205 283.421 83.3385 283.6C83.4749 283.776 83.58 283.921 83.6539 284.034H83.7562V282.995H84.7277V289.728C84.7277 290.29 84.5999 290.747 84.3442 291.1C84.0914 291.455 83.7505 291.715 83.3215 291.88C82.8954 292.047 82.4209 292.131 81.8982 292.131ZM81.8641 288.534C82.2675 288.534 82.6084 288.442 82.8868 288.257C83.1652 288.073 83.3769 287.807 83.5218 287.46C83.6667 287.114 83.7391 286.699 83.7391 286.216C83.7391 285.745 83.6681 285.328 83.526 284.968C83.384 284.607 83.1738 284.324 82.8954 284.12C82.617 283.915 82.2732 283.813 81.8641 283.813C81.438 283.813 81.0829 283.921 80.7988 284.137C80.5175 284.353 80.3059 284.642 80.1638 285.006C80.0246 285.37 79.955 285.773 79.955 286.216C79.955 286.671 80.026 287.073 80.1681 287.422C80.313 287.769 80.526 288.041 80.8073 288.24C81.0914 288.436 81.4437 288.534 81.8641 288.534ZM86.6887 289.54V282.995H87.6602V284.017H87.7455C87.8818 283.668 88.102 283.397 88.406 283.203C88.71 283.007 89.075 282.909 89.5012 282.909C89.933 282.909 90.2924 283.007 90.5793 283.203C90.8691 283.397 91.0949 283.668 91.2568 284.017H91.325C91.4926 283.679 91.7441 283.411 92.0793 283.212C92.4145 283.01 92.8165 282.909 93.2852 282.909C93.8705 282.909 94.3492 283.093 94.7213 283.459C95.0935 283.823 95.2796 284.389 95.2796 285.159V289.54H94.2739V285.159C94.2739 284.676 94.1418 284.331 93.8776 284.124C93.6134 283.916 93.3023 283.813 92.9443 283.813C92.4841 283.813 92.1276 283.952 91.8747 284.23C91.6219 284.506 91.4955 284.855 91.4955 285.279V289.54H90.4727V285.057C90.4727 284.685 90.352 284.385 90.1105 284.158C89.8691 283.928 89.558 283.813 89.1773 283.813C88.9159 283.813 88.6716 283.882 88.4443 284.022C88.2199 284.161 88.0381 284.354 87.8989 284.601C87.7625 284.845 87.6943 285.128 87.6943 285.449V289.54H86.6887ZM99.1645 289.693C98.7497 289.693 98.3733 289.615 98.0352 289.459C97.6972 289.3 97.4287 289.071 97.2298 288.773C97.031 288.472 96.9315 288.108 96.9315 287.682C96.9315 287.307 97.0054 287.003 97.1531 286.77C97.3008 286.534 97.4983 286.35 97.7454 286.216C97.9926 286.083 98.2653 285.983 98.5636 285.918C98.8648 285.85 99.1673 285.796 99.4713 285.756C99.869 285.705 100.191 285.666 100.439 285.641C100.689 285.612 100.87 285.566 100.984 285.5C101.101 285.435 101.159 285.321 101.159 285.159V285.125C101.159 284.705 101.044 284.378 100.814 284.145C100.586 283.912 100.241 283.796 99.7781 283.796C99.298 283.796 98.9216 283.901 98.6489 284.111C98.3761 284.321 98.1844 284.546 98.0736 284.784L97.119 284.443C97.2895 284.046 97.5168 283.736 97.8008 283.514C98.0878 283.29 98.4003 283.134 98.7383 283.046C99.0793 282.955 99.4145 282.909 99.744 282.909C99.9543 282.909 100.196 282.935 100.468 282.986C100.744 283.034 101.01 283.135 101.265 283.289C101.524 283.442 101.738 283.674 101.909 283.983C102.079 284.293 102.164 284.708 102.164 285.228V289.54H101.159V288.654H101.108C101.039 288.796 100.926 288.948 100.767 289.11C100.608 289.272 100.396 289.409 100.132 289.523C99.8676 289.637 99.5452 289.693 99.1645 289.693ZM99.3179 288.79C99.7156 288.79 100.051 288.712 100.324 288.556C100.599 288.399 100.807 288.198 100.946 287.951C101.088 287.703 101.159 287.443 101.159 287.171V286.25C101.116 286.301 101.022 286.348 100.878 286.391C100.736 286.431 100.571 286.466 100.383 286.497C100.199 286.526 100.018 286.551 99.842 286.574C99.6687 286.594 99.5281 286.611 99.4202 286.625C99.1588 286.659 98.9145 286.715 98.6872 286.791C98.4628 286.865 98.281 286.978 98.1418 287.128C98.0054 287.276 97.9372 287.478 97.9372 287.733C97.9372 288.083 98.0665 288.347 98.325 288.526C98.5864 288.702 98.9173 288.79 99.3179 288.79Z" fill="white"/>
</g>
<rect x="206.5" y="6.3457" width="314" height="183" rx="13.5" transform="rotate(90 206.5 6.3457)" stroke="url(#paint0_angular_758_3009)" stroke-opacity="0.5"/>
</g>
<defs>
<filter id="filter0_d_758_3009" x="0" y="0.845703" width="214" height="345" filterUnits="userSpaceOnUse" color-interpolation-filters="sRGB">
<feFlood flood-opacity="0" result="BackgroundImageFix"/>
<feColorMatrix in="SourceAlpha" type="matrix" values="0 0 0 0 0 0 0 0 0 0 0 0 0 0 0 0 0 0 127 0" result="hardAlpha"/>
<feOffset dx="-8" dy="10"/>
<feGaussianBlur stdDeviation="7.5"/>
<feComposite in2="hardAlpha" operator="out"/>
<feColorMatrix type="matrix" values="0 0 0 0 0 0 0 0 0 0 0 0 0 0 0 0 0 0 0.15 0"/>
<feBlend mode="normal" in2="BackgroundImageFix" result="effect1_dropShadow_758_3009"/>
<feBlend mode="normal" in="SourceGraphic" in2="effect1_dropShadow_758_3009" result="shape"/>
</filter>
<filter id="filter1_f_758_3009" x="119.334" y="-40.8795" width="123.247" height="120.394" filterUnits="userSpaceOnUse" color-interpolation-filters="sRGB">
<feFlood flood-opacity="0" result="BackgroundImageFix"/>
<feBlend mode="normal" in="SourceGraphic" in2="BackgroundImageFix" result="shape"/>
<feGaussianBlur stdDeviation="15" result="effect1_foregroundBlur_758_3009"/>
</filter>
<filter id="filter2_f_758_3009" x="158.019" y="-56.435" width="137.992" height="153.132" filterUnits="userSpaceOnUse" color-interpolation-filters="sRGB">
<feFlood flood-opacity="0" result="BackgroundImageFix"/>
<feBlend mode="normal" in="SourceGraphic" in2="BackgroundImageFix" result="shape"/>
<feGaussianBlur stdDeviation="15" result="effect1_foregroundBlur_758_3009"/>
</filter>
<filter id="filter3_f_758_3009" x="118.99" y="-53.9377" width="125.69" height="134.281" filterUnits="userSpaceOnUse" color-interpolation-filters="sRGB">
<feFlood flood-opacity="0" result="BackgroundImageFix"/>
<feBlend mode="normal" in="SourceGraphic" in2="BackgroundImageFix" result="shape"/>
<feGaussianBlur stdDeviation="15" result="effect1_foregroundBlur_758_3009"/>
</filter>
<filter id="filter4_f_758_3009" x="113.468" y="-48.2599" width="105.034" height="125.228" filterUnits="userSpaceOnUse" color-interpolation-filters="sRGB">
<feFlood flood-opacity="0" result="BackgroundImageFix"/>
<feBlend mode="normal" in="SourceGraphic" in2="BackgroundImageFix" result="shape"/>
<feGaussianBlur stdDeviation="15" result="effect1_foregroundBlur_758_3009"/>
</filter>
<filter id="filter5_f_758_3009" x="155.142" y="-50.0385" width="101.802" height="115.034" filterUnits="userSpaceOnUse" color-interpolation-filters="sRGB">
<feFlood flood-opacity="0" result="BackgroundImageFix"/>
<feBlend mode="normal" in="SourceGraphic" in2="BackgroundImageFix" result="shape"/>
<feGaussianBlur stdDeviation="15" result="effect1_foregroundBlur_758_3009"/>
</filter>
<radialGradient id="paint0_angular_758_3009" cx="0" cy="0" r="1" gradientUnits="userSpaceOnUse" gradientTransform="translate(258 35.3457) rotate(19.782) scale(255.583 437.546)">
<stop offset="0.106146" stop-color="white"/>
<stop offset="0.16572" stop-color="#595959"/>
<stop offset="0.356116" stop-color="white"/>
<stop offset="0.474328" stop-color="white"/>
<stop offset="0.950754" stop-color="white" stop-opacity="0.54"/>
<stop offset="0.975714" stop-color="#E3E3E3" stop-opacity="0"/>
<stop offset="1" stop-color="#8D8D8D" stop-opacity="0"/>
</radialGradient>
<clipPath id="clip0_758_3009">
<rect x="207" y="5.8457" width="315" height="184" rx="14" transform="rotate(90 207 5.8457)" fill="white"/>
</clipPath>
</defs>
</svg>
