<svg width="214" height="346" viewBox="0 0 214 346" fill="none" xmlns="http://www.w3.org/2000/svg">
<g filter="url(#filter0_d_758_3115)">
<g clip-path="url(#clip0_758_3115)">
<rect x="207" y="5.7688" width="315" height="184" rx="14" transform="rotate(90 207 5.7688)" fill="#08090C"/>
<mask id="mask0_758_3115" style="mask-type:alpha" maskUnits="userSpaceOnUse" x="155" y="-20" width="74" height="62">
<ellipse cx="192.048" cy="10.9759" rx="27.5895" ry="39.2135" transform="rotate(120 192.048 10.9759)" fill="white"/>
</mask>
<g mask="url(#mask0_758_3115)">
<g style="mix-blend-mode:exclusion" filter="url(#filter1_f_758_3115)">
<path d="M153.096 -4.68712C164.04 -15.109 184.751 -12.2417 199.354 1.71716C213.957 15.6761 216.923 35.4406 205.978 45.8625C195.033 56.2844 186.355 41.96 171.752 28.0011C157.149 14.0422 142.151 5.73479 153.096 -4.68712Z" fill="white"/>
</g>
<g filter="url(#filter2_f_758_3115)">
<path d="M225.815 11.6174C226.215 2.23763 205.178 -11.9064 197.482 -15.0134C171.709 -32.9326 206.388 -24.1472 209.705 -25.6739C213.022 -27.2005 216.752 -25.3874 218.559 -23.7037C220.366 -22.0201 248.425 -5.47995 256.514 2.42625C264.603 10.3325 265.313 18.5662 265.992 20.4921C266.672 22.418 248.428 57.3177 237.01 64.7782C225.591 72.2387 215.491 55.0711 209.885 48.1853C204.279 41.2996 205.368 36.7738 218.79 33.3965C232.213 30.0193 225.316 23.342 225.815 11.6174Z" fill="white"/>
</g>
<g filter="url(#filter3_f_758_3115)">
<path d="M186.737 -17.9268C203.844 -12.5235 215.791 -5.65636 214.598 -9.03257C206.885 -13.4858 192.556 -23.007 190.387 -23.0109C187.676 -23.0158 172.197 -24.4104 171.048 -23.9038C170.128 -23.4985 155.959 -13.9339 148.99 -9.2022L149.508 27.5057C162.071 35.1054 187.543 50.2972 188.932 50.2668C190.668 50.2289 198.094 37.6127 187.581 34.7934C177.067 31.9742 168.12 19.2668 163.616 9.25472C159.112 -0.757385 165.354 -24.6809 186.737 -17.9268Z" fill="white"/>
</g>
<g filter="url(#filter4_f_758_3115)">
<path d="M181.479 -6.22995C190.255 -9.85036 188.986 -15.0716 187.254 -17.2297C183.844 -17.6959 176.376 -18.5594 173.781 -18.2835C170.538 -17.9385 154.455 -10.6357 152.088 -8.19785C149.722 -5.75995 145.448 -3.07626 143.687 3.47634C141.926 10.0289 151.318 36.1663 153.124 41.1927C154.569 45.2138 163.653 46.6629 168.015 46.8848C175.738 46.9753 188.477 46.2168 177.648 42.4584C164.113 37.7604 163.297 14.6667 162.402 11.4805C161.506 8.29427 170.509 -1.70444 181.479 -6.22995Z" fill="white"/>
</g>
<g style="mix-blend-mode:soft-light" filter="url(#filter5_f_758_3115)">
<path d="M188.047 -19.07C195.97 -23.215 209.916 -14.6634 219.196 0.0306189C228.476 14.7246 229.576 29.9967 221.653 34.1418C213.729 38.2869 208.494 25.1784 199.214 10.4844C189.934 -4.20959 180.124 -14.9249 188.047 -19.07Z" fill="white"/>
</g>
<g style="mix-blend-mode:overlay">
<rect x="239.716" y="-1.40561" width="255" height="318" transform="rotate(120 239.716 -1.40561)" fill="white"/>
</g>
</g>
<path d="M76.4917 121.476L70.3703 121.476L70.3703 102.567L76.6856 102.567C78.5383 102.567 80.1295 102.945 81.459 103.702C82.7886 104.453 83.8073 105.534 84.5151 106.943C85.2292 108.347 85.5862 110.03 85.5862 111.994C85.5862 113.963 85.2261 115.656 84.5059 117.072C83.7919 118.487 82.7578 119.577 81.4036 120.34C80.0495 121.097 78.4122 121.476 76.4917 121.476ZM73.2232 118.983L76.3348 118.983C77.7751 118.983 78.9723 118.712 79.9264 118.17C80.8804 117.623 81.5945 116.832 82.0684 115.798C82.5424 114.757 82.7794 113.489 82.7794 111.994C82.7794 110.51 82.5424 109.251 82.0684 108.217C81.6006 107.183 80.902 106.398 79.9725 105.863C79.0431 105.327 77.889 105.06 76.5102 105.06L73.2232 105.06L73.2232 118.983ZM95.1461 121.762C93.8165 121.762 92.6562 121.457 91.6652 120.848C90.6742 120.239 89.9048 119.386 89.357 118.291C88.8092 117.195 88.5353 115.915 88.5353 114.45C88.5353 112.978 88.8092 111.692 89.357 110.59C89.9048 109.488 90.6742 108.633 91.6652 108.023C92.6562 107.414 93.8165 107.109 95.1461 107.109C96.4756 107.109 97.6359 107.414 98.6269 108.023C99.6179 108.633 100.387 109.488 100.935 110.59C101.483 111.692 101.757 112.978 101.757 114.45C101.757 115.915 101.483 117.195 100.935 118.291C100.387 119.386 99.6179 120.239 98.6269 120.848C97.6359 121.457 96.4756 121.762 95.1461 121.762ZM95.1553 119.445C96.017 119.445 96.7311 119.217 97.2973 118.761C97.8636 118.306 98.2822 117.7 98.553 116.943C98.83 116.185 98.9685 115.351 98.9685 114.44C98.9685 113.536 98.83 112.705 98.553 111.947C98.2822 111.184 97.8636 110.572 97.2973 110.11C96.7311 109.648 96.017 109.418 95.1553 109.418C94.2874 109.418 93.5672 109.648 92.9948 110.11C92.4285 110.572 92.0069 111.184 91.7299 111.947C91.459 112.705 91.3236 113.536 91.3236 114.44C91.3236 115.351 91.459 116.185 91.7299 116.943C92.0069 117.7 92.4285 118.306 92.9948 118.761C93.5672 119.217 94.2874 119.445 95.1553 119.445ZM111.072 121.762C109.699 121.762 108.518 121.451 107.527 120.83C106.542 120.202 105.785 119.337 105.255 118.235C104.726 117.133 104.461 115.871 104.461 114.45C104.461 113.009 104.732 111.738 105.274 110.636C105.815 109.528 106.579 108.664 107.564 108.042C108.548 107.42 109.709 107.109 111.044 107.109C112.122 107.109 113.082 107.309 113.925 107.71C114.768 108.103 115.449 108.657 115.966 109.371C116.489 110.085 116.8 110.92 116.898 111.874L114.211 111.874C114.064 111.209 113.725 110.636 113.196 110.156C112.672 109.676 111.971 109.436 111.091 109.436C110.321 109.436 109.647 109.639 109.069 110.045C108.496 110.446 108.05 111.018 107.73 111.763C107.41 112.501 107.25 113.376 107.25 114.385C107.25 115.419 107.407 116.312 107.721 117.063C108.034 117.813 108.478 118.395 109.05 118.808C109.629 119.22 110.309 119.426 111.091 119.426C111.614 119.426 112.088 119.331 112.512 119.14C112.943 118.943 113.303 118.663 113.593 118.3C113.888 117.937 114.094 117.5 114.211 116.989L116.898 116.989C116.8 117.906 116.501 118.724 116.002 119.445C115.504 120.165 114.836 120.731 113.999 121.144C113.168 121.556 112.192 121.762 111.072 121.762ZM120.11 121.476L120.11 107.294L122.779 107.294L122.779 109.547L122.926 109.547C123.185 108.784 123.64 108.184 124.293 107.746C124.951 107.303 125.696 107.082 126.527 107.082C126.7 107.082 126.903 107.088 127.137 107.1C127.377 107.112 127.564 107.128 127.7 107.146L127.7 109.787C127.589 109.756 127.392 109.722 127.109 109.685C126.826 109.642 126.543 109.621 126.259 109.621C125.607 109.621 125.025 109.759 124.514 110.036C124.01 110.307 123.61 110.686 123.314 111.172C123.019 111.652 122.871 112.2 122.871 112.815L122.871 121.476L120.11 121.476ZM134.349 121.79C133.45 121.79 132.638 121.624 131.912 121.291C131.185 120.953 130.61 120.463 130.185 119.823C129.766 119.183 129.557 118.398 129.557 117.469C129.557 116.669 129.711 116.01 130.019 115.493C130.327 114.976 130.742 114.567 131.265 114.265C131.788 113.963 132.373 113.736 133.019 113.582C133.666 113.428 134.324 113.311 134.995 113.231C135.845 113.132 136.534 113.052 137.063 112.991C137.593 112.923 137.978 112.815 138.218 112.668C138.458 112.52 138.578 112.28 138.578 111.947L138.578 111.883C138.578 111.077 138.35 110.452 137.894 110.009C137.445 109.565 136.774 109.344 135.882 109.344C134.952 109.344 134.22 109.55 133.684 109.962C133.155 110.369 132.789 110.821 132.586 111.32L129.991 110.729C130.299 109.867 130.748 109.171 131.339 108.642C131.936 108.107 132.622 107.719 133.398 107.479C134.174 107.233 134.989 107.109 135.845 107.109C136.411 107.109 137.011 107.177 137.645 107.313C138.285 107.442 138.882 107.682 139.436 108.033C139.996 108.384 140.455 108.885 140.812 109.538C141.169 110.184 141.348 111.024 141.348 112.058L141.348 121.476L138.652 121.476L138.652 119.537L138.541 119.537C138.362 119.894 138.095 120.245 137.738 120.59C137.38 120.934 136.922 121.22 136.362 121.448C135.802 121.676 135.131 121.79 134.349 121.79ZM134.949 119.574C135.712 119.574 136.365 119.423 136.907 119.121C137.454 118.82 137.87 118.426 138.153 117.94C138.442 117.447 138.587 116.921 138.587 116.361L138.587 114.533C138.488 114.631 138.298 114.724 138.014 114.81C137.738 114.89 137.421 114.96 137.063 115.022C136.706 115.077 136.359 115.13 136.02 115.179C135.682 115.222 135.398 115.259 135.171 115.29C134.635 115.358 134.146 115.471 133.703 115.631C133.266 115.791 132.915 116.022 132.65 116.324C132.392 116.619 132.262 117.013 132.262 117.506C132.262 118.189 132.515 118.706 133.019 119.057C133.524 119.402 134.167 119.574 134.949 119.574ZM152.034 107.294L152.034 109.51L144.02 109.51L144.02 107.294L152.034 107.294ZM146.217 121.476L146.217 105.651C146.217 104.764 146.411 104.029 146.799 103.444C147.187 102.853 147.701 102.413 148.341 102.124C148.981 101.828 149.676 101.68 150.427 101.68C150.981 101.68 151.455 101.727 151.849 101.819C152.243 101.905 152.536 101.985 152.726 102.059L152.08 104.293C151.951 104.256 151.785 104.213 151.581 104.164C151.378 104.109 151.132 104.081 150.843 104.081C150.172 104.081 149.692 104.247 149.403 104.58C149.119 104.912 148.978 105.392 148.978 106.02L148.978 121.476L146.217 121.476ZM155.142 121.476L155.142 107.294L157.903 107.294L157.903 121.476L155.142 121.476ZM156.536 105.106C156.056 105.106 155.644 104.946 155.299 104.626C154.961 104.3 154.791 103.912 154.791 103.462C154.791 103.007 154.961 102.619 155.299 102.299C155.644 101.973 156.056 101.81 156.536 101.81C157.017 101.81 157.426 101.973 157.764 102.299C158.109 102.619 158.281 103.007 158.281 103.462C158.281 103.912 158.109 104.3 157.764 104.626C157.426 104.946 157.017 105.106 156.536 105.106Z" fill="white"/>
<path d="M39.5258 181.476L39.5258 171.294L43.0855 171.294C43.7947 171.294 44.3797 171.417 44.8404 171.662C45.3011 171.904 45.6442 172.23 45.8696 172.641C46.0949 173.049 46.2076 173.501 46.2076 173.999C46.2076 174.436 46.1297 174.797 45.974 175.082C45.8215 175.367 45.6193 175.593 45.3674 175.759C45.1188 175.924 44.8487 176.047 44.5571 176.126L44.5571 176.226C44.8686 176.246 45.1818 176.355 45.4967 176.554C45.8116 176.753 46.075 177.038 46.2872 177.409C46.4993 177.78 46.6053 178.234 46.6053 178.771C46.6053 179.282 46.4893 179.741 46.2573 180.148C46.0253 180.556 45.6591 180.879 45.1586 181.118C44.6581 181.357 44.0069 181.476 43.2048 181.476L39.5258 181.476ZM40.7588 180.382L43.2048 180.382C44.0102 180.382 44.5819 180.226 44.92 179.915C45.2614 179.6 45.4321 179.219 45.4321 178.771C45.4321 178.427 45.3442 178.108 45.1686 177.817C44.9929 177.522 44.7427 177.286 44.4178 177.111C44.093 176.932 43.7086 176.842 43.2644 176.842L40.7588 176.842L40.7588 180.382ZM40.7588 175.768L43.0457 175.768C43.4169 175.768 43.7517 175.696 44.0499 175.55C44.3516 175.404 44.5902 175.198 44.7659 174.933C44.9448 174.668 45.0343 174.357 45.0343 173.999C45.0343 173.551 44.8785 173.172 44.567 172.86C44.2554 172.545 43.7616 172.388 43.0855 172.388L40.7588 172.388L40.7588 175.768ZM49.3679 184.339C49.169 184.339 48.9917 184.323 48.8359 184.29C48.6801 184.26 48.5724 184.23 48.5127 184.2L48.811 183.166C49.0961 183.239 49.348 183.266 49.5667 183.246C49.7855 183.226 49.9794 183.128 50.1484 182.952C50.3208 182.78 50.4782 182.5 50.6207 182.112L50.8395 181.516L48.0156 173.839L49.2883 173.839L51.3963 179.925L51.4758 179.925L53.5838 173.839L54.8565 173.839L51.615 182.589C51.4692 182.984 51.2886 183.31 51.0731 183.569C50.8577 183.831 50.6074 184.025 50.3224 184.151C50.0407 184.277 49.7225 184.339 49.3679 184.339ZM57.1247 181.544C56.9145 181.544 56.7341 181.469 56.5835 181.318C56.4329 181.168 56.3576 180.987 56.3576 180.777C56.3576 180.567 56.4329 180.386 56.5835 180.236C56.7341 180.085 56.9145 180.01 57.1247 180.01C57.3349 180.01 57.5153 180.085 57.6659 180.236C57.8165 180.386 57.8917 180.567 57.8917 180.777C57.8917 180.916 57.8562 181.044 57.7852 181.161C57.717 181.277 57.6247 181.371 57.5082 181.442C57.3946 181.51 57.2667 181.544 57.1247 181.544ZM57.1247 176.686C56.9145 176.686 56.7341 176.611 56.5835 176.46C56.4329 176.31 56.3576 176.129 56.3576 175.919C56.3576 175.709 56.4329 175.528 56.5835 175.378C56.7341 175.227 56.9145 175.152 57.1247 175.152C57.3349 175.152 57.5153 175.227 57.6659 175.378C57.8165 175.528 57.8917 175.709 57.8917 175.919C57.8917 176.058 57.8562 176.186 57.7852 176.303C57.717 176.419 57.6247 176.513 57.5082 176.584C57.3946 176.652 57.2667 176.686 57.1247 176.686ZM63.5664 177.266L63.5664 178.203L59.7482 178.203L59.7482 177.266L63.5664 177.266ZM72.5823 172.749L73.8437 172.749L76.8096 179.993L76.9119 179.993L79.8778 172.749L81.1391 172.749L81.1391 181.476L80.1505 181.476L80.1505 174.845L80.0653 174.845L77.338 181.476L76.3835 181.476L73.6562 174.845L73.571 174.845L73.571 181.476L72.5823 181.476L72.5823 172.749ZM83.2417 181.476L83.2417 174.93L84.2133 174.93L84.2133 175.919L84.2815 175.919C84.4008 175.595 84.6167 175.332 84.9292 175.131C85.2417 174.929 85.594 174.828 85.9861 174.828C86.0599 174.828 86.1523 174.83 86.263 174.832C86.3738 174.835 86.4576 174.839 86.5145 174.845L86.5145 175.868C86.4804 175.859 86.4023 175.847 86.2801 175.83C86.1608 175.81 86.0344 175.8 85.9008 175.8C85.5826 175.8 85.2986 175.866 85.0486 176C84.8014 176.131 84.6054 176.313 84.4605 176.545C84.3184 176.776 84.2474 177.038 84.2474 177.334L84.2474 181.476L83.2417 181.476ZM87.8266 181.476L87.8266 174.93L88.8323 174.93L88.8323 181.476L87.8266 181.476ZM88.3379 173.839C88.1419 173.839 87.9729 173.773 87.8308 173.639C87.6916 173.506 87.622 173.345 87.622 173.158C87.622 172.97 87.6916 172.81 87.8308 172.676C87.9729 172.543 88.1419 172.476 88.3379 172.476C88.534 172.476 88.7016 172.543 88.8408 172.676C88.9828 172.81 89.0539 172.97 89.0539 173.158C89.0539 173.345 88.9828 173.506 88.8408 173.639C88.7016 173.773 88.534 173.839 88.3379 173.839ZM93.6408 174.93L93.6408 175.783L90.2488 175.783L90.2488 174.93L93.6408 174.93ZM91.2374 173.362L92.2431 173.362L92.2431 179.601C92.2431 179.885 92.2843 180.098 92.3667 180.24C92.4519 180.379 92.5599 180.473 92.6905 180.521C92.8241 180.567 92.9647 180.589 93.1124 180.589C93.2232 180.589 93.3141 180.584 93.3851 180.572C93.4562 180.558 93.513 180.547 93.5556 180.538L93.7601 181.442C93.692 181.467 93.5968 181.493 93.4746 181.518C93.3525 181.547 93.1976 181.561 93.0101 181.561C92.7261 181.561 92.4476 181.5 92.1749 181.378C91.905 181.256 91.6806 181.07 91.5016 180.82C91.3255 180.57 91.2374 180.254 91.2374 179.874L91.2374 173.362ZM96.4199 177.538L96.4199 181.476L95.4142 181.476L95.4142 172.749L96.4199 172.749L96.4199 175.953L96.5052 175.953C96.6586 175.615 96.8887 175.347 97.1955 175.148C97.5052 174.946 97.9171 174.845 98.4313 174.845C98.8773 174.845 99.2679 174.935 99.6032 175.114C99.9384 175.29 100.198 175.561 100.383 175.928C100.57 176.291 100.664 176.754 100.664 177.317L100.664 181.476L99.6586 181.476L99.6586 177.385C99.6586 176.865 99.5236 176.463 99.2537 176.179C98.9867 175.892 98.6159 175.749 98.1415 175.749C97.812 175.749 97.5165 175.818 97.2552 175.957C96.9966 176.097 96.7921 176.3 96.6415 176.567C96.4938 176.834 96.4199 177.158 96.4199 177.538ZM106.749 178.8L106.749 174.93L107.755 174.93L107.755 181.476L106.749 181.476L106.749 180.368L106.681 180.368C106.527 180.7 106.289 180.983 105.965 181.216C105.641 181.446 105.232 181.561 104.738 181.561C104.329 181.561 103.965 181.472 103.647 181.293C103.329 181.111 103.079 180.838 102.897 180.474C102.715 180.108 102.624 179.646 102.624 179.089L102.624 174.93L103.63 174.93L103.63 179.021C103.63 179.499 103.763 179.879 104.03 180.163C104.3 180.447 104.644 180.589 105.062 180.589C105.312 180.589 105.566 180.526 105.824 180.398C106.086 180.27 106.304 180.074 106.481 179.81C106.66 179.545 106.749 179.209 106.749 178.8ZM110.722 177.538L110.722 181.476L109.717 181.476L109.717 174.93L110.688 174.93L110.688 175.953L110.774 175.953C110.927 175.621 111.16 175.354 111.472 175.152C111.785 174.947 112.188 174.845 112.683 174.845C113.126 174.845 113.514 174.936 113.846 175.118C114.178 175.297 114.437 175.57 114.622 175.936C114.806 176.3 114.899 176.76 114.899 177.317L114.899 181.476L113.893 181.476L113.893 177.385C113.893 176.871 113.759 176.47 113.492 176.183C113.225 175.893 112.859 175.749 112.393 175.749C112.072 175.749 111.785 175.818 111.532 175.957C111.282 176.097 111.085 176.3 110.94 176.567C110.795 176.834 110.722 177.158 110.722 177.538ZM116.856 174.93L117.862 174.93L117.862 181.953C117.862 182.357 117.792 182.706 117.653 183.001C117.517 183.297 117.309 183.526 117.031 183.688C116.755 183.849 116.407 183.93 115.987 183.93C115.953 183.93 115.919 183.93 115.885 183.93C115.851 183.93 115.816 183.93 115.782 183.93L115.782 182.993C115.816 182.993 115.848 182.993 115.876 182.993C115.905 182.993 115.936 182.993 115.97 182.993C116.277 182.993 116.501 182.902 116.643 182.72C116.785 182.541 116.856 182.286 116.856 181.953L116.856 174.93ZM117.351 173.839C117.155 173.839 116.986 173.773 116.843 173.639C116.704 173.506 116.635 173.345 116.635 173.158C116.635 172.97 116.704 172.81 116.843 172.676C116.986 172.543 117.155 172.476 117.351 172.476C117.547 172.476 117.714 172.543 117.853 172.676C117.995 172.81 118.066 172.97 118.066 173.158C118.066 173.345 117.995 173.506 117.853 173.639C117.714 173.773 117.547 173.839 117.351 173.839ZM121.75 181.629C121.335 181.629 120.959 181.551 120.621 181.395C120.283 181.236 120.014 181.007 119.815 180.709C119.617 180.408 119.517 180.044 119.517 179.618C119.517 179.243 119.591 178.939 119.739 178.706C119.886 178.47 120.084 178.286 120.331 178.152C120.578 178.018 120.851 177.919 121.149 177.854C121.45 177.786 121.753 177.732 122.057 177.692C122.455 177.641 122.777 177.602 123.024 177.577C123.274 177.548 123.456 177.501 123.57 177.436C123.686 177.371 123.744 177.257 123.744 177.095L123.744 177.061C123.744 176.641 123.629 176.314 123.399 176.081C123.172 175.848 122.827 175.732 122.364 175.732C121.884 175.732 121.507 175.837 121.234 176.047C120.962 176.257 120.77 176.482 120.659 176.72L119.705 176.379C119.875 175.982 120.102 175.672 120.386 175.45C120.673 175.226 120.986 175.07 121.324 174.982C121.665 174.891 122 174.845 122.33 174.845C122.54 174.845 122.781 174.871 123.054 174.922C123.33 174.97 123.595 175.071 123.851 175.224C124.109 175.378 124.324 175.609 124.494 175.919C124.665 176.229 124.75 176.643 124.75 177.163L124.75 181.476L123.744 181.476L123.744 180.589L123.693 180.589C123.625 180.732 123.511 180.884 123.352 181.045C123.193 181.207 122.982 181.345 122.717 181.459C122.453 181.572 122.131 181.629 121.75 181.629ZM121.903 180.726C122.301 180.726 122.636 180.648 122.909 180.491C123.185 180.335 123.392 180.134 123.531 179.886C123.673 179.639 123.744 179.379 123.744 179.107L123.744 178.186C123.702 178.237 123.608 178.284 123.463 178.327C123.321 178.366 123.156 178.402 122.969 178.433C122.784 178.462 122.604 178.487 122.428 178.51C122.254 178.53 122.114 178.547 122.006 178.561C121.744 178.595 121.5 178.651 121.273 178.727C121.048 178.801 120.867 178.913 120.727 179.064C120.591 179.212 120.523 179.413 120.523 179.669C120.523 180.018 120.652 180.283 120.911 180.462C121.172 180.638 121.503 180.726 121.903 180.726ZM127.119 183.93C126.949 183.93 126.797 183.916 126.663 183.888C126.53 183.862 126.437 183.837 126.386 183.811L126.642 182.925C126.886 182.987 127.102 183.01 127.289 182.993C127.477 182.976 127.643 182.892 127.788 182.741C127.936 182.594 128.071 182.354 128.193 182.021L128.38 181.51L125.96 174.93L127.051 174.93L128.858 180.146L128.926 180.146L130.733 174.93L131.824 174.93L129.045 182.43C128.92 182.768 128.765 183.048 128.581 183.27C128.396 183.494 128.181 183.661 127.937 183.768C127.696 183.876 127.423 183.93 127.119 183.93ZM143.823 172.749L143.823 181.476L142.8 181.476L138.044 174.624L137.959 174.624L137.959 181.476L136.902 181.476L136.902 172.749L137.925 172.749L142.698 179.618L142.783 179.618L142.783 172.749L143.823 172.749ZM146.654 181.544C146.444 181.544 146.263 181.469 146.113 181.318C145.962 181.168 145.887 180.987 145.887 180.777C145.887 180.567 145.962 180.386 146.113 180.236C146.263 180.085 146.444 180.01 146.654 180.01C146.864 180.01 147.045 180.085 147.195 180.236C147.346 180.386 147.421 180.567 147.421 180.777C147.421 180.916 147.386 181.044 147.315 181.161C147.246 181.277 147.154 181.371 147.038 181.442C146.924 181.51 146.796 181.544 146.654 181.544ZM152.977 181.476L152.977 172.749L155.926 172.749C156.611 172.749 157.17 172.872 157.605 173.119C158.043 173.364 158.366 173.695 158.577 174.112C158.787 174.53 158.892 174.996 158.892 175.51C158.892 176.024 158.787 176.491 158.577 176.912C158.369 177.332 158.048 177.668 157.614 177.918C157.179 178.165 156.622 178.288 155.943 178.288L153.829 178.288L153.829 177.351L155.909 177.351C156.378 177.351 156.754 177.27 157.038 177.108C157.322 176.946 157.528 176.727 157.656 176.452C157.787 176.173 157.852 175.859 157.852 175.51C157.852 175.161 157.787 174.848 157.656 174.572C157.528 174.297 157.321 174.081 157.034 173.925C156.747 173.766 156.366 173.686 155.892 173.686L154.034 173.686L154.034 181.476L152.977 181.476ZM162.504 181.629C162.089 181.629 161.713 181.551 161.375 181.395C161.037 181.236 160.768 181.007 160.569 180.709C160.371 180.408 160.271 180.044 160.271 179.618C160.271 179.243 160.345 178.939 160.493 178.706C160.64 178.47 160.838 178.286 161.085 178.152C161.332 178.018 161.605 177.919 161.903 177.854C162.204 177.786 162.507 177.732 162.811 177.692C163.209 177.641 163.531 177.602 163.778 177.577C164.028 177.548 164.21 177.501 164.324 177.436C164.44 177.371 164.498 177.257 164.498 177.095L164.498 177.061C164.498 176.641 164.383 176.314 164.153 176.081C163.926 175.848 163.581 175.732 163.118 175.732C162.638 175.732 162.261 175.837 161.988 176.047C161.716 176.257 161.524 176.482 161.413 176.72L160.459 176.379C160.629 175.982 160.856 175.672 161.14 175.45C161.427 175.226 161.74 175.07 162.078 174.982C162.419 174.891 162.754 174.845 163.084 174.845C163.294 174.845 163.535 174.871 163.808 174.922C164.084 174.97 164.349 175.071 164.605 175.224C164.863 175.378 165.078 175.609 165.248 175.919C165.419 176.229 165.504 176.643 165.504 177.163L165.504 181.476L164.498 181.476L164.498 180.589L164.447 180.589C164.379 180.732 164.265 180.884 164.106 181.045C163.947 181.207 163.736 181.345 163.471 181.459C163.207 181.572 162.885 181.629 162.504 181.629ZM162.658 180.726C163.055 180.726 163.39 180.648 163.663 180.491C163.939 180.335 164.146 180.134 164.285 179.886C164.427 179.639 164.498 179.379 164.498 179.107L164.498 178.186C164.456 178.237 164.362 178.284 164.217 178.327C164.075 178.366 163.91 178.402 163.723 178.433C163.538 178.462 163.358 178.487 163.182 178.51C163.008 178.53 162.868 178.547 162.76 178.561C162.498 178.595 162.254 178.651 162.027 178.727C161.802 178.801 161.621 178.913 161.481 179.064C161.345 179.212 161.277 179.413 161.277 179.669C161.277 180.018 161.406 180.283 161.665 180.462C161.926 180.638 162.257 180.726 162.658 180.726ZM168.465 177.538L168.465 181.476L167.46 181.476L167.46 174.93L168.431 174.93L168.431 175.953L168.517 175.953C168.67 175.621 168.903 175.354 169.215 175.152C169.528 174.947 169.931 174.845 170.426 174.845C170.869 174.845 171.257 174.936 171.589 175.118C171.921 175.297 172.18 175.57 172.365 175.936C172.549 176.3 172.642 176.76 172.642 177.317L172.642 181.476L171.636 181.476L171.636 177.385C171.636 176.871 171.502 176.47 171.235 176.183C170.968 175.893 170.602 175.749 170.136 175.749C169.815 175.749 169.528 175.818 169.275 175.957C169.025 176.097 168.828 176.3 168.683 176.567C168.538 176.834 168.465 177.158 168.465 177.538ZM177.071 181.612C176.525 181.612 176.044 181.474 175.626 181.199C175.209 180.92 174.882 180.528 174.646 180.023C174.41 179.514 174.292 178.913 174.292 178.22C174.292 177.533 174.41 176.936 174.646 176.43C174.882 175.925 175.21 175.534 175.63 175.259C176.051 174.983 176.537 174.845 177.088 174.845C177.514 174.845 177.851 174.916 178.098 175.058C178.348 175.197 178.538 175.357 178.669 175.536C178.802 175.712 178.906 175.857 178.98 175.97L179.065 175.97L179.065 172.749L180.071 172.749L180.071 181.476L179.099 181.476L179.099 180.47L178.98 180.47C178.906 180.589 178.801 180.74 178.665 180.922C178.528 181.101 178.334 181.261 178.081 181.403C177.828 181.543 177.491 181.612 177.071 181.612ZM177.207 180.709C177.611 180.709 177.952 180.604 178.23 180.393C178.508 180.18 178.72 179.886 178.865 179.511C179.01 179.134 179.082 178.697 179.082 178.203C179.082 177.714 179.011 177.287 178.869 176.92C178.727 176.551 178.517 176.264 178.238 176.06C177.96 175.852 177.616 175.749 177.207 175.749C176.781 175.749 176.426 175.858 176.142 176.077C175.861 176.293 175.649 176.587 175.507 176.959C175.368 177.328 175.298 177.743 175.298 178.203C175.298 178.669 175.369 179.092 175.511 179.473C175.656 179.851 175.869 180.152 176.15 180.376C176.434 180.598 176.787 180.709 177.207 180.709ZM184.917 181.612C184.286 181.612 183.742 181.473 183.285 181.195C182.83 180.913 182.479 180.521 182.232 180.018C181.988 179.513 181.866 178.925 181.866 178.254C181.866 177.584 181.988 176.993 182.232 176.482C182.479 175.967 182.823 175.567 183.263 175.28C183.706 174.99 184.223 174.845 184.814 174.845C185.155 174.845 185.492 174.902 185.824 175.016C186.157 175.129 186.459 175.314 186.732 175.57C187.005 175.822 187.222 176.158 187.384 176.575C187.546 176.993 187.627 177.507 187.627 178.118L187.627 178.544L182.581 178.544L182.581 177.675L186.604 177.675C186.604 177.305 186.53 176.976 186.383 176.686C186.238 176.396 186.03 176.168 185.76 176C185.493 175.832 185.178 175.749 184.814 175.749C184.414 175.749 184.067 175.848 183.775 176.047C183.485 176.243 183.262 176.499 183.106 176.814C182.949 177.129 182.871 177.467 182.871 177.828L182.871 178.408C182.871 178.902 182.956 179.321 183.127 179.665C183.3 180.006 183.54 180.266 183.847 180.445C184.154 180.621 184.51 180.709 184.917 180.709C185.181 180.709 185.42 180.672 185.633 180.598C185.848 180.521 186.035 180.408 186.191 180.257C186.347 180.104 186.468 179.913 186.553 179.686L187.525 179.959C187.422 180.288 187.25 180.578 187.009 180.828C186.768 181.075 186.469 181.268 186.114 181.408C185.759 181.544 185.36 181.612 184.917 181.612ZM189.725 183.93C189.555 183.93 189.403 183.916 189.269 183.888C189.136 183.862 189.043 183.837 188.992 183.811L189.248 182.925C189.492 182.987 189.708 183.01 189.896 182.993C190.083 182.976 190.249 182.892 190.394 182.741C190.542 182.594 190.677 182.354 190.799 182.021L190.987 181.51L188.566 174.93L189.657 174.93L191.464 180.146L191.532 180.146L193.339 174.93L194.43 174.93L191.651 182.43C191.526 182.768 191.372 183.048 191.187 183.27C191.002 183.494 190.788 183.661 190.543 183.768C190.302 183.876 190.029 183.93 189.725 183.93ZM107.544 197.629C107.13 197.629 106.753 197.551 106.415 197.395C106.077 197.236 105.809 197.007 105.61 196.709C105.411 196.408 105.311 196.044 105.311 195.618C105.311 195.243 105.385 194.939 105.533 194.706C105.681 194.47 105.878 194.286 106.125 194.152C106.373 194.018 106.645 193.919 106.944 193.854C107.245 193.786 107.547 193.732 107.851 193.692C108.249 193.641 108.571 193.602 108.819 193.577C109.069 193.548 109.25 193.501 109.364 193.436C109.481 193.371 109.539 193.257 109.539 193.095L109.539 193.061C109.539 192.641 109.424 192.314 109.194 192.081C108.966 191.848 108.621 191.732 108.158 191.732C107.678 191.732 107.302 191.837 107.029 192.047C106.756 192.257 106.564 192.482 106.454 192.72L105.499 192.379C105.669 191.982 105.897 191.672 106.181 191.45C106.468 191.226 106.78 191.07 107.118 190.982C107.459 190.891 107.794 190.845 108.124 190.845C108.334 190.845 108.576 190.871 108.848 190.922C109.124 190.97 109.39 191.071 109.645 191.224C109.904 191.378 110.118 191.609 110.289 191.919C110.459 192.229 110.544 192.643 110.544 193.163L110.544 197.476L109.539 197.476L109.539 196.589L109.488 196.589C109.419 196.732 109.306 196.884 109.147 197.045C108.988 197.207 108.776 197.345 108.512 197.459C108.248 197.572 107.925 197.629 107.544 197.629ZM107.698 196.726C108.096 196.726 108.431 196.648 108.704 196.491C108.979 196.335 109.186 196.134 109.326 195.886C109.468 195.639 109.539 195.379 109.539 195.107L109.539 194.186C109.496 194.237 109.402 194.284 109.258 194.327C109.115 194.366 108.951 194.402 108.763 194.433C108.579 194.462 108.398 194.487 108.222 194.51C108.049 194.53 107.908 194.547 107.8 194.561C107.539 194.595 107.294 194.651 107.067 194.727C106.843 194.801 106.661 194.913 106.522 195.064C106.385 195.212 106.317 195.413 106.317 195.669C106.317 196.018 106.446 196.283 106.705 196.462C106.966 196.638 107.297 196.726 107.698 196.726ZM113.506 193.538L113.506 197.476L112.5 197.476L112.5 190.93L113.472 190.93L113.472 191.953L113.557 191.953C113.71 191.621 113.943 191.354 114.256 191.152C114.568 190.947 114.972 190.845 115.466 190.845C115.909 190.845 116.297 190.936 116.629 191.118C116.962 191.297 117.22 191.57 117.405 191.936C117.59 192.3 117.682 192.76 117.682 193.317L117.682 197.476L116.676 197.476L116.676 193.385C116.676 192.871 116.543 192.47 116.276 192.183C116.009 191.893 115.642 191.749 115.176 191.749C114.855 191.749 114.568 191.818 114.315 191.957C114.065 192.097 113.868 192.3 113.723 192.567C113.578 192.834 113.506 193.158 113.506 193.538ZM122.111 197.612C121.566 197.612 121.084 197.474 120.667 197.199C120.249 196.92 119.922 196.528 119.686 196.023C119.451 195.514 119.333 194.913 119.333 194.22C119.333 193.533 119.451 192.936 119.686 192.43C119.922 191.925 120.25 191.534 120.671 191.259C121.091 190.983 121.577 190.845 122.128 190.845C122.554 190.845 122.891 190.916 123.138 191.058C123.388 191.197 123.578 191.357 123.709 191.536C123.843 191.712 123.946 191.857 124.02 191.97L124.105 191.97L124.105 188.749L125.111 188.749L125.111 197.476L124.14 197.476L124.14 196.47L124.02 196.47C123.946 196.589 123.841 196.74 123.705 196.922C123.569 197.101 123.374 197.261 123.121 197.403C122.868 197.543 122.532 197.612 122.111 197.612ZM122.248 196.709C122.651 196.709 122.992 196.604 123.27 196.393C123.549 196.18 123.76 195.886 123.905 195.511C124.05 195.134 124.123 194.697 124.123 194.203C124.123 193.714 124.051 193.287 123.909 192.92C123.767 192.551 123.557 192.264 123.279 192.06C123 191.852 122.657 191.749 122.248 191.749C121.821 191.749 121.466 191.858 121.182 192.077C120.901 192.293 120.689 192.587 120.547 192.959C120.408 193.328 120.338 193.743 120.338 194.203C120.338 194.669 120.409 195.092 120.551 195.473C120.696 195.851 120.909 196.152 121.191 196.376C121.475 196.598 121.827 196.709 122.248 196.709ZM133.554 190.93L133.554 191.783L130.162 191.783L130.162 190.93L133.554 190.93ZM131.151 189.362L132.157 189.362L132.157 195.601C132.157 195.885 132.198 196.098 132.28 196.24C132.365 196.379 132.473 196.473 132.604 196.521C132.738 196.567 132.878 196.589 133.026 196.589C133.137 196.589 133.228 196.584 133.299 196.572C133.37 196.558 133.426 196.547 133.469 196.538L133.674 197.442C133.605 197.467 133.51 197.493 133.388 197.518C133.266 197.547 133.111 197.561 132.924 197.561C132.639 197.561 132.361 197.5 132.088 197.378C131.818 197.256 131.594 197.07 131.415 196.82C131.239 196.57 131.151 196.254 131.151 195.874L131.151 189.362ZM137.861 197.612C137.23 197.612 136.686 197.473 136.229 197.195C135.774 196.913 135.424 196.521 135.176 196.018C134.932 195.513 134.81 194.925 134.81 194.254C134.81 193.584 134.932 192.993 135.176 192.482C135.424 191.967 135.767 191.567 136.208 191.28C136.651 190.99 137.168 190.845 137.759 190.845C138.1 190.845 138.436 190.902 138.769 191.016C139.101 191.129 139.404 191.314 139.676 191.57C139.949 191.822 140.166 192.158 140.328 192.575C140.49 192.993 140.571 193.507 140.571 194.118L140.571 194.544L135.526 194.544L135.526 193.675L139.549 193.675C139.549 193.305 139.475 192.976 139.327 192.686C139.182 192.396 138.975 192.168 138.705 192C138.438 191.832 138.122 191.749 137.759 191.749C137.358 191.749 137.012 191.848 136.719 192.047C136.429 192.243 136.206 192.499 136.05 192.814C135.894 193.129 135.816 193.467 135.816 193.828L135.816 194.408C135.816 194.902 135.901 195.321 136.071 195.665C136.245 196.006 136.485 196.266 136.791 196.445C137.098 196.621 137.455 196.709 137.861 196.709C138.125 196.709 138.364 196.672 138.577 196.598C138.793 196.521 138.979 196.408 139.135 196.257C139.291 196.104 139.412 195.913 139.497 195.686L140.469 195.959C140.367 196.288 140.195 196.578 139.953 196.828C139.712 197.075 139.414 197.268 139.058 197.408C138.703 197.544 138.304 197.612 137.861 197.612ZM144.147 197.629C143.732 197.629 143.356 197.551 143.018 197.395C142.68 197.236 142.411 197.007 142.213 196.709C142.014 196.408 141.914 196.044 141.914 195.618C141.914 195.243 141.988 194.939 142.136 194.706C142.284 194.47 142.481 194.286 142.728 194.152C142.975 194.018 143.248 193.919 143.546 193.854C143.848 193.786 144.15 193.732 144.454 193.692C144.852 193.641 145.174 193.602 145.421 193.577C145.671 193.548 145.853 193.501 145.967 193.436C146.083 193.371 146.142 193.257 146.142 193.095L146.142 193.061C146.142 192.641 146.027 192.314 145.796 192.081C145.569 191.848 145.224 191.732 144.761 191.732C144.281 191.732 143.904 191.837 143.632 192.047C143.359 192.257 143.167 192.482 143.056 192.72L142.102 192.379C142.272 191.982 142.5 191.672 142.784 191.45C143.071 191.226 143.383 191.07 143.721 190.982C144.062 190.891 144.397 190.845 144.727 190.845C144.937 190.845 145.179 190.871 145.451 190.922C145.727 190.97 145.992 191.071 146.248 191.224C146.507 191.378 146.721 191.609 146.892 191.919C147.062 192.229 147.147 192.643 147.147 193.163L147.147 197.476L146.142 197.476L146.142 196.589L146.09 196.589C146.022 196.732 145.909 196.884 145.75 197.045C145.59 197.207 145.379 197.345 145.115 197.459C144.85 197.572 144.528 197.629 144.147 197.629ZM144.301 196.726C144.698 196.726 145.034 196.648 145.306 196.491C145.582 196.335 145.789 196.134 145.929 195.886C146.071 195.639 146.142 195.379 146.142 195.107L146.142 194.186C146.099 194.237 146.005 194.284 145.86 194.327C145.718 194.366 145.554 194.402 145.366 194.433C145.181 194.462 145.001 194.487 144.825 194.51C144.652 194.53 144.511 194.547 144.403 194.561C144.142 194.595 143.897 194.651 143.67 194.727C143.446 194.801 143.264 194.913 143.125 195.064C142.988 195.212 142.92 195.413 142.92 195.669C142.92 196.018 143.049 196.283 143.308 196.462C143.569 196.638 143.9 196.726 144.301 196.726ZM149.103 197.476L149.103 190.93L150.074 190.93L150.074 191.953L150.16 191.953C150.296 191.604 150.516 191.332 150.82 191.139C151.124 190.943 151.489 190.845 151.915 190.845C152.347 190.845 152.707 190.943 152.993 191.139C153.283 191.332 153.509 191.604 153.671 191.953L153.739 191.953C153.907 191.615 154.158 191.347 154.493 191.148C154.829 190.946 155.231 190.845 155.699 190.845C156.285 190.845 156.763 191.028 157.136 191.395C157.508 191.759 157.694 192.325 157.694 193.095L157.694 197.476L156.688 197.476L156.688 193.095C156.688 192.612 156.556 192.267 156.292 192.06C156.028 191.852 155.716 191.749 155.359 191.749C154.898 191.749 154.542 191.888 154.289 192.166C154.036 192.442 153.91 192.791 153.91 193.214L153.91 197.476L152.887 197.476L152.887 192.993C152.887 192.621 152.766 192.321 152.525 192.094C152.283 191.864 151.972 191.749 151.591 191.749C151.33 191.749 151.086 191.818 150.859 191.957C150.634 192.097 150.452 192.29 150.313 192.537C150.177 192.781 150.109 193.064 150.109 193.385L150.109 197.476L149.103 197.476Z" fill="white"/>
<path d="M38.2928 184.26L47.7524 184.26L47.7524 185.214L38.2928 185.214L38.2928 184.26ZM50.974 184.26L55.4713 184.26L55.4713 185.214L50.974 185.214L50.974 184.26ZM55.4713 183.862L58.896 183.862L58.896 184.68L55.4713 184.68L55.4713 183.862Z" fill="white"/>
<path d="M66.2051 224.938C65.8613 224.938 65.5474 224.854 65.2633 224.686C64.9792 224.516 64.752 224.289 64.5815 224.005C64.4139 223.72 64.3301 223.407 64.3301 223.063C64.3301 222.716 64.4139 222.402 64.5815 222.121C64.752 221.837 64.9792 221.611 65.2633 221.443C65.5474 221.273 65.8613 221.188 66.2051 221.188C66.5517 221.188 66.8656 221.273 67.1468 221.443C67.4309 221.611 67.6568 221.837 67.8244 222.121C67.9949 222.402 68.0801 222.716 68.0801 223.063C68.0801 223.407 67.9949 223.72 67.8244 224.005C67.6568 224.289 67.4309 224.516 67.1468 224.686C66.8656 224.854 66.5517 224.938 66.2051 224.938ZM76.2619 226.54V217.813H77.3187V221.699H81.9721V217.813H83.0289V226.54H81.9721V222.637H77.3187V226.54H76.2619ZM84.7874 218.75V217.813H91.3329V218.75H88.5886V226.54H87.5318V218.75H84.7874ZM93.0839 217.813H94.3453L97.3112 225.057H97.4135L100.379 217.813H101.641V226.54H100.652V219.909H100.567L97.8396 226.54H96.8851L94.1578 219.909H94.0726V226.54H93.0839V217.813ZM103.88 226.54V217.813H104.937V225.603H108.993V226.54H103.88ZM112.113 225.347L112.045 225.807C111.997 226.131 111.923 226.478 111.824 226.847C111.727 227.216 111.626 227.564 111.521 227.891C111.416 228.218 111.329 228.478 111.261 228.671H110.494C110.531 228.489 110.579 228.249 110.639 227.951C110.699 227.652 110.758 227.318 110.818 226.949C110.88 226.583 110.932 226.208 110.971 225.824L111.022 225.347H112.113ZM124.751 220.54H123.694C123.631 220.236 123.522 219.969 123.366 219.739C123.212 219.509 123.025 219.316 122.803 219.159C122.585 219 122.342 218.881 122.075 218.801C121.808 218.722 121.529 218.682 121.239 218.682C120.711 218.682 120.232 218.816 119.803 219.083C119.377 219.35 119.038 219.743 118.785 220.263C118.535 220.783 118.41 221.421 118.41 222.176C118.41 222.932 118.535 223.57 118.785 224.09C119.038 224.61 119.377 225.003 119.803 225.27C120.232 225.537 120.711 225.671 121.239 225.671C121.529 225.671 121.808 225.631 122.075 225.551C122.342 225.472 122.585 225.354 122.803 225.198C123.025 225.039 123.212 224.844 123.366 224.614C123.522 224.381 123.631 224.114 123.694 223.813H124.751C124.671 224.259 124.526 224.658 124.316 225.01C124.106 225.362 123.844 225.662 123.532 225.909C123.219 226.154 122.869 226.34 122.479 226.468C122.093 226.595 121.68 226.659 121.239 226.659C120.495 226.659 119.833 226.478 119.254 226.114C118.674 225.75 118.218 225.233 117.886 224.563C117.553 223.892 117.387 223.097 117.387 222.176C117.387 221.256 117.553 220.46 117.886 219.79C118.218 219.12 118.674 218.603 119.254 218.239C119.833 217.875 120.495 217.693 121.239 217.693C121.68 217.693 122.093 217.757 122.479 217.885C122.869 218.013 123.219 218.201 123.532 218.448C123.844 218.692 124.106 218.99 124.316 219.343C124.526 219.692 124.671 220.091 124.751 220.54ZM131.351 219.995C131.3 219.563 131.093 219.228 130.729 218.989C130.365 218.75 129.919 218.631 129.391 218.631C129.005 218.631 128.667 218.693 128.377 218.818C128.09 218.943 127.865 219.115 127.703 219.334C127.544 219.553 127.465 219.801 127.465 220.08C127.465 220.313 127.52 220.513 127.631 220.681C127.745 220.845 127.89 220.983 128.066 221.094C128.242 221.202 128.426 221.291 128.62 221.362C128.813 221.431 128.99 221.486 129.152 221.529L130.039 221.767C130.266 221.827 130.519 221.909 130.797 222.014C131.078 222.12 131.347 222.263 131.603 222.445C131.861 222.624 132.074 222.854 132.242 223.135C132.409 223.416 132.493 223.762 132.493 224.171C132.493 224.642 132.37 225.068 132.122 225.449C131.878 225.83 131.52 226.132 131.049 226.357C130.58 226.581 130.01 226.693 129.34 226.693C128.715 226.693 128.174 226.593 127.716 226.391C127.262 226.189 126.904 225.908 126.642 225.547C126.384 225.186 126.238 224.767 126.203 224.29H127.294C127.323 224.62 127.434 224.892 127.627 225.108C127.823 225.321 128.07 225.48 128.368 225.585C128.669 225.688 128.993 225.739 129.34 225.739C129.743 225.739 130.105 225.674 130.426 225.543C130.747 225.409 131.002 225.225 131.189 224.989C131.377 224.75 131.471 224.472 131.471 224.154C131.471 223.864 131.39 223.628 131.228 223.446C131.066 223.264 130.853 223.117 130.588 223.003C130.324 222.889 130.039 222.79 129.732 222.705L128.658 222.398C127.976 222.202 127.436 221.922 127.039 221.559C126.641 221.195 126.442 220.719 126.442 220.131C126.442 219.642 126.574 219.216 126.838 218.853C127.105 218.486 127.463 218.202 127.912 218C128.364 217.796 128.868 217.693 129.425 217.693C129.988 217.693 130.488 217.794 130.925 217.996C131.363 218.195 131.709 218.468 131.965 218.814C132.223 219.161 132.36 219.554 132.374 219.995H131.351ZM139.124 219.995C139.072 219.563 138.865 219.228 138.501 218.989C138.138 218.75 137.692 218.631 137.163 218.631C136.777 218.631 136.439 218.693 136.149 218.818C135.862 218.943 135.638 219.115 135.476 219.334C135.317 219.553 135.237 219.801 135.237 220.08C135.237 220.313 135.293 220.513 135.403 220.681C135.517 220.845 135.662 220.983 135.838 221.094C136.014 221.202 136.199 221.291 136.392 221.362C136.585 221.431 136.763 221.486 136.925 221.529L137.811 221.767C138.038 221.827 138.291 221.909 138.57 222.014C138.851 222.12 139.119 222.263 139.375 222.445C139.633 222.624 139.847 222.854 140.014 223.135C140.182 223.416 140.266 223.762 140.266 224.171C140.266 224.642 140.142 225.068 139.895 225.449C139.651 225.83 139.293 226.132 138.821 226.357C138.352 226.581 137.783 226.693 137.112 226.693C136.487 226.693 135.946 226.593 135.489 226.391C135.034 226.189 134.676 225.908 134.415 225.547C134.156 225.186 134.01 224.767 133.976 224.29H135.067C135.095 224.62 135.206 224.892 135.399 225.108C135.595 225.321 135.842 225.48 136.141 225.585C136.442 225.688 136.766 225.739 137.112 225.739C137.516 225.739 137.878 225.674 138.199 225.543C138.52 225.409 138.774 225.225 138.962 224.989C139.149 224.75 139.243 224.472 139.243 224.154C139.243 223.864 139.162 223.628 139 223.446C138.838 223.264 138.625 223.117 138.361 223.003C138.097 222.889 137.811 222.79 137.504 222.705L136.43 222.398C135.749 222.202 135.209 221.922 134.811 221.559C134.413 221.195 134.214 220.719 134.214 220.131C134.214 219.642 134.347 219.216 134.611 218.853C134.878 218.486 135.236 218.202 135.685 218C136.136 217.796 136.641 217.693 137.197 217.693C137.76 217.693 138.26 217.794 138.697 217.996C139.135 218.195 139.481 218.468 139.737 218.814C139.996 219.161 140.132 219.554 140.146 219.995H139.124ZM66.2051 238.938C65.8613 238.938 65.5474 238.854 65.2633 238.686C64.9792 238.516 64.752 238.289 64.5815 238.005C64.4139 237.72 64.3301 237.407 64.3301 237.063C64.3301 236.716 64.4139 236.402 64.5815 236.121C64.752 235.837 64.9792 235.611 65.2633 235.443C65.5474 235.273 65.8613 235.188 66.2051 235.188C66.5517 235.188 66.8656 235.273 67.1468 235.443C67.4309 235.611 67.6568 235.837 67.8244 236.121C67.9949 236.402 68.0801 236.716 68.0801 237.063C68.0801 237.407 67.9949 237.72 67.8244 238.005C67.6568 238.289 67.4309 238.516 67.1468 238.686C66.8656 238.854 66.5517 238.938 66.2051 238.938ZM79.6028 231.813H80.6596V238.051C80.6596 238.608 80.5574 239.081 80.3528 239.47C80.1483 239.86 79.8599 240.155 79.4877 240.357C79.1156 240.559 78.6767 240.659 78.171 240.659C77.6937 240.659 77.269 240.573 76.8968 240.399C76.5247 240.223 76.2321 239.973 76.019 239.649C75.8059 239.326 75.6994 238.941 75.6994 238.495H76.7392C76.7392 238.742 76.8002 238.958 76.9224 239.142C77.0474 239.324 77.2179 239.466 77.4338 239.568C77.6497 239.671 77.8954 239.722 78.171 239.722C78.475 239.722 78.7335 239.658 78.9466 239.53C79.1596 239.402 79.3216 239.215 79.4324 238.968C79.546 238.718 79.6028 238.412 79.6028 238.051V231.813ZM84.6873 240.693C84.2725 240.693 83.8961 240.615 83.558 240.459C83.22 240.3 82.9515 240.071 82.7526 239.773C82.5538 239.472 82.4543 239.108 82.4543 238.682C82.4543 238.307 82.5282 238.003 82.6759 237.77C82.8237 237.534 83.0211 237.35 83.2683 237.216C83.5154 237.083 83.7881 236.983 84.0864 236.918C84.3876 236.85 84.6901 236.796 84.9941 236.756C85.3918 236.705 85.7143 236.666 85.9614 236.641C86.2114 236.612 86.3933 236.566 86.5069 236.5C86.6234 236.435 86.6816 236.321 86.6816 236.159V236.125C86.6816 235.705 86.5666 235.378 86.3364 235.145C86.1092 234.912 85.764 234.796 85.3009 234.796C84.8208 234.796 84.4444 234.901 84.1717 235.111C83.8989 235.321 83.7072 235.546 83.5964 235.784L82.6418 235.443C82.8123 235.046 83.0396 234.736 83.3237 234.514C83.6106 234.29 83.9231 234.134 84.2612 234.046C84.6021 233.955 84.9373 233.909 85.2668 233.909C85.4771 233.909 85.7185 233.935 85.9913 233.986C86.2668 234.034 86.5325 234.135 86.7881 234.289C87.0467 234.442 87.2612 234.674 87.4316 234.983C87.6021 235.293 87.6873 235.708 87.6873 236.228V240.54H86.6816V239.654H86.6305C86.5623 239.796 86.4487 239.948 86.2896 240.11C86.1305 240.272 85.9188 240.409 85.6546 240.523C85.3904 240.637 85.068 240.693 84.6873 240.693ZM84.8407 239.79C85.2384 239.79 85.5737 239.712 85.8464 239.556C86.122 239.399 86.3293 239.198 86.4685 238.951C86.6106 238.703 86.6816 238.443 86.6816 238.171V237.25C86.639 237.301 86.5452 237.348 86.4004 237.391C86.2583 237.431 86.0935 237.466 85.906 237.497C85.7214 237.526 85.541 237.551 85.3649 237.574C85.1916 237.594 85.0509 237.611 84.943 237.625C84.6816 237.659 84.4373 237.715 84.21 237.791C83.9856 237.865 83.8038 237.978 83.6646 238.128C83.5282 238.276 83.46 238.478 83.46 238.733C83.46 239.083 83.5893 239.347 83.8478 239.526C84.1092 239.702 84.4401 239.79 84.8407 239.79ZM94.7608 233.995L92.3403 240.54H91.3176L88.8971 233.995H89.988L91.7949 239.21H91.863L93.6699 233.995H94.7608ZM97.9351 240.693C97.5203 240.693 97.1439 240.615 96.8058 240.459C96.4678 240.3 96.1993 240.071 96.0004 239.773C95.8016 239.472 95.7022 239.108 95.7022 238.682C95.7022 238.307 95.776 238.003 95.9237 237.77C96.0715 237.534 96.2689 237.35 96.5161 237.216C96.7632 237.083 97.036 236.983 97.3343 236.918C97.6354 236.85 97.9379 236.796 98.2419 236.756C98.6397 236.705 98.9621 236.666 99.2093 236.641C99.4593 236.612 99.6411 236.566 99.7547 236.5C99.8712 236.435 99.9294 236.321 99.9294 236.159V236.125C99.9294 235.705 99.8144 235.378 99.5843 235.145C99.357 234.912 99.0118 234.796 98.5487 234.796C98.0686 234.796 97.6922 234.901 97.4195 235.111C97.1468 235.321 96.955 235.546 96.8442 235.784L95.8897 235.443C96.0601 235.046 96.2874 234.736 96.5715 234.514C96.8584 234.29 97.1709 234.134 97.509 234.046C97.8499 233.955 98.1851 233.909 98.5147 233.909C98.7249 233.909 98.9664 233.935 99.2391 233.986C99.5147 234.034 99.7803 234.135 100.036 234.289C100.294 234.442 100.509 234.674 100.679 234.983C100.85 235.293 100.935 235.708 100.935 236.228V240.54H99.9294V239.654H99.8783C99.8101 239.796 99.6965 239.948 99.5374 240.11C99.3783 240.272 99.1666 240.409 98.9024 240.523C98.6382 240.637 98.3158 240.693 97.9351 240.693ZM98.0885 239.79C98.4862 239.79 98.8215 239.712 99.0942 239.556C99.3698 239.399 99.5772 239.198 99.7164 238.951C99.8584 238.703 99.9294 238.443 99.9294 238.171V237.25C99.8868 237.301 99.7931 237.348 99.6482 237.391C99.5061 237.431 99.3414 237.466 99.1539 237.497C98.9692 237.526 98.7888 237.551 98.6127 237.574C98.4394 237.594 98.2987 237.611 98.1908 237.625C97.9294 237.659 97.6851 237.715 97.4578 237.791C97.2334 237.865 97.0516 237.978 96.9124 238.128C96.776 238.276 96.7078 238.478 96.7078 238.733C96.7078 239.083 96.8371 239.347 97.0956 239.526C97.357 239.702 97.6879 239.79 98.0885 239.79ZM107.8 233.995C107.749 233.563 107.541 233.228 107.178 232.989C106.814 232.75 106.368 232.631 105.84 232.631C105.453 232.631 105.115 232.693 104.825 232.818C104.538 232.943 104.314 233.115 104.152 233.334C103.993 233.553 103.913 233.801 103.913 234.08C103.913 234.313 103.969 234.513 104.08 234.681C104.193 234.845 104.338 234.983 104.514 235.094C104.69 235.202 104.875 235.291 105.068 235.362C105.261 235.431 105.439 235.486 105.601 235.529L106.487 235.767C106.715 235.827 106.967 235.909 107.246 236.014C107.527 236.12 107.796 236.263 108.051 236.445C108.31 236.624 108.523 236.854 108.69 237.135C108.858 237.416 108.942 237.762 108.942 238.171C108.942 238.642 108.818 239.068 108.571 239.449C108.327 239.83 107.969 240.132 107.497 240.357C107.028 240.581 106.459 240.693 105.788 240.693C105.163 240.693 104.622 240.593 104.165 240.391C103.71 240.189 103.352 239.908 103.091 239.547C102.832 239.186 102.686 238.767 102.652 238.29H103.743C103.771 238.62 103.882 238.892 104.075 239.108C104.271 239.321 104.519 239.48 104.817 239.585C105.118 239.688 105.442 239.739 105.788 239.739C106.192 239.739 106.554 239.674 106.875 239.543C107.196 239.409 107.45 239.225 107.638 238.989C107.825 238.75 107.919 238.472 107.919 238.154C107.919 237.864 107.838 237.628 107.676 237.446C107.514 237.264 107.301 237.117 107.037 237.003C106.773 236.889 106.487 236.79 106.18 236.705L105.107 236.398C104.425 236.202 103.885 235.922 103.487 235.559C103.09 235.195 102.891 234.719 102.891 234.131C102.891 233.642 103.023 233.216 103.287 232.853C103.554 232.486 103.912 232.202 104.361 232C104.813 231.796 105.317 231.693 105.874 231.693C106.436 231.693 106.936 231.794 107.374 231.996C107.811 232.195 108.158 232.468 108.413 232.814C108.672 233.161 108.808 233.554 108.823 233.995H107.8ZM113.322 240.676C112.708 240.676 112.18 240.532 111.737 240.242C111.294 239.952 110.953 239.553 110.714 239.044C110.476 238.536 110.356 237.955 110.356 237.301C110.356 236.637 110.478 236.05 110.723 235.541C110.97 235.03 111.314 234.631 111.754 234.344C112.197 234.054 112.714 233.909 113.305 233.909C113.765 233.909 114.18 233.995 114.549 234.165C114.919 234.335 115.221 234.574 115.457 234.881C115.693 235.188 115.839 235.546 115.896 235.955H114.89C114.814 235.657 114.643 235.392 114.379 235.162C114.118 234.929 113.765 234.813 113.322 234.813C112.93 234.813 112.586 234.915 112.291 235.12C111.998 235.321 111.77 235.607 111.605 235.976C111.443 236.343 111.362 236.773 111.362 237.267C111.362 237.773 111.441 238.213 111.601 238.588C111.762 238.963 111.99 239.255 112.282 239.462C112.578 239.669 112.924 239.773 113.322 239.773C113.583 239.773 113.821 239.728 114.034 239.637C114.247 239.546 114.427 239.415 114.575 239.245C114.723 239.074 114.828 238.87 114.89 238.631H115.896C115.839 239.017 115.699 239.365 115.474 239.675C115.253 239.982 114.958 240.226 114.592 240.408C114.228 240.587 113.805 240.676 113.322 240.676ZM117.486 240.54V233.995H118.458V234.983H118.526C118.645 234.659 118.861 234.397 119.174 234.195C119.486 233.993 119.838 233.892 120.23 233.892C120.304 233.892 120.397 233.894 120.507 233.897C120.618 233.899 120.702 233.904 120.759 233.909V234.932C120.725 234.924 120.647 234.911 120.525 234.894C120.405 234.874 120.279 234.864 120.145 234.864C119.827 234.864 119.543 234.931 119.293 235.064C119.046 235.195 118.85 235.377 118.705 235.61C118.563 235.84 118.492 236.103 118.492 236.398V240.54H117.486ZM122.071 240.54V233.995H123.077V240.54H122.071ZM122.582 232.904C122.386 232.904 122.217 232.837 122.075 232.703C121.936 232.57 121.866 232.409 121.866 232.222C121.866 232.034 121.936 231.874 122.075 231.74C122.217 231.607 122.386 231.54 122.582 231.54C122.778 231.54 122.946 231.607 123.085 231.74C123.227 231.874 123.298 232.034 123.298 232.222C123.298 232.409 123.227 232.57 123.085 232.703C122.946 232.837 122.778 232.904 122.582 232.904ZM125.039 242.995V233.995H126.01V235.034H126.13C126.203 234.921 126.306 234.776 126.436 234.6C126.57 234.421 126.76 234.262 127.007 234.122C127.257 233.98 127.595 233.909 128.022 233.909C128.573 233.909 129.059 234.047 129.479 234.323C129.899 234.598 130.228 234.989 130.463 235.495C130.699 236 130.817 236.597 130.817 237.284C130.817 237.978 130.699 238.578 130.463 239.087C130.228 239.593 129.901 239.985 129.483 240.263C129.066 240.539 128.584 240.676 128.039 240.676C127.618 240.676 127.282 240.607 127.029 240.468C126.776 240.326 126.581 240.165 126.445 239.986C126.309 239.804 126.203 239.654 126.13 239.534H126.044V242.995H125.039ZM126.027 237.267C126.027 237.762 126.1 238.198 126.245 238.576C126.39 238.951 126.601 239.245 126.88 239.458C127.158 239.668 127.499 239.773 127.902 239.773C128.323 239.773 128.674 239.662 128.955 239.441C129.239 239.216 129.452 238.915 129.594 238.537C129.739 238.157 129.811 237.733 129.811 237.267C129.811 236.807 129.74 236.392 129.598 236.023C129.459 235.651 129.247 235.357 128.963 235.141C128.682 234.922 128.328 234.813 127.902 234.813C127.493 234.813 127.149 234.916 126.871 235.124C126.593 235.328 126.382 235.615 126.24 235.985C126.098 236.351 126.027 236.779 126.027 237.267ZM135.318 233.995V234.847H131.926V233.995H135.318ZM132.914 232.426H133.92V238.665C133.92 238.949 133.961 239.162 134.044 239.304C134.129 239.443 134.237 239.537 134.367 239.585C134.501 239.631 134.642 239.654 134.789 239.654C134.9 239.654 134.991 239.648 135.062 239.637C135.133 239.622 135.19 239.611 135.233 239.603L135.437 240.506C135.369 240.532 135.274 240.557 135.152 240.583C135.029 240.611 134.875 240.625 134.687 240.625C134.403 240.625 134.125 240.564 133.852 240.442C133.582 240.32 133.358 240.134 133.179 239.884C133.002 239.634 132.914 239.318 132.914 238.938V232.426ZM66.2051 252.938C65.8613 252.938 65.5474 252.854 65.2633 252.686C64.9792 252.516 64.752 252.289 64.5815 252.005C64.4139 251.72 64.3301 251.407 64.3301 251.063C64.3301 250.716 64.4139 250.402 64.5815 250.121C64.752 249.837 64.9792 249.611 65.2633 249.443C65.5474 249.273 65.8613 249.188 66.2051 249.188C66.5517 249.188 66.8656 249.273 67.1468 249.443C67.4309 249.611 67.6568 249.837 67.8244 250.121C67.9949 250.402 68.0801 250.716 68.0801 251.063C68.0801 251.407 67.9949 251.72 67.8244 252.005C67.6568 252.289 67.4309 252.516 67.1468 252.686C66.8656 252.854 66.5517 252.938 66.2051 252.938ZM76.6199 254.54H75.5119L78.7164 245.813H79.8074L83.0119 254.54H81.9039L79.296 247.193H79.2278L76.6199 254.54ZM77.0289 251.131H81.4949V252.068H77.0289V251.131ZM85.3968 254.54L83.0104 245.813H84.0843L85.9082 252.921H85.9934L87.8514 245.813H89.0445L90.9025 252.921H90.9877L92.8116 245.813H93.8854L91.4991 254.54H90.4082L88.482 247.585H88.4139L86.4877 254.54H85.3968ZM100.095 247.995C100.044 247.563 99.8364 247.228 99.4728 246.989C99.1091 246.75 98.6631 246.631 98.1347 246.631C97.7483 246.631 97.4103 246.693 97.1205 246.818C96.8336 246.943 96.6091 247.115 96.4472 247.334C96.2881 247.553 96.2086 247.801 96.2086 248.08C96.2086 248.313 96.264 248.513 96.3748 248.681C96.4884 248.845 96.6333 248.983 96.8094 249.094C96.9856 249.202 97.1702 249.291 97.3634 249.362C97.5566 249.431 97.7341 249.486 97.8961 249.529L98.7824 249.767C99.0097 249.827 99.2626 249.909 99.541 250.014C99.8222 250.12 100.091 250.263 100.346 250.445C100.605 250.624 100.818 250.854 100.986 251.135C101.153 251.416 101.237 251.762 101.237 252.171C101.237 252.642 101.113 253.068 100.866 253.449C100.622 253.83 100.264 254.132 99.7924 254.357C99.3236 254.581 98.754 254.693 98.0836 254.693C97.4586 254.693 96.9174 254.593 96.46 254.391C96.0054 254.189 95.6475 253.908 95.3861 253.547C95.1276 253.186 94.9813 252.767 94.9472 252.29H96.0381C96.0665 252.62 96.1773 252.892 96.3705 253.108C96.5665 253.321 96.8137 253.48 97.112 253.585C97.4131 253.688 97.737 253.739 98.0836 253.739C98.487 253.739 98.8492 253.674 99.1702 253.543C99.4912 253.409 99.7455 253.225 99.933 252.989C100.121 252.75 100.214 252.472 100.214 252.154C100.214 251.864 100.133 251.628 99.9714 251.446C99.8094 251.264 99.5964 251.117 99.3322 251.003C99.0679 250.889 98.7824 250.79 98.4756 250.705L97.4018 250.398C96.7199 250.202 96.1802 249.922 95.7824 249.559C95.3847 249.195 95.1858 248.719 95.1858 248.131C95.1858 247.642 95.3179 247.216 95.5822 246.853C95.8492 246.486 96.2072 246.202 96.656 246C97.1077 245.796 97.612 245.693 98.1688 245.693C98.7313 245.693 99.2313 245.794 99.6688 245.996C100.106 246.195 100.453 246.468 100.709 246.814C100.967 247.161 101.103 247.554 101.118 247.995H100.095ZM66.2051 266.938C65.8613 266.938 65.5474 266.854 65.2633 266.686C64.9792 266.516 64.752 266.289 64.5815 266.005C64.4139 265.72 64.3301 265.407 64.3301 265.063C64.3301 264.716 64.4139 264.402 64.5815 264.121C64.752 263.837 64.9792 263.611 65.2633 263.443C65.5474 263.273 65.8613 263.188 66.2051 263.188C66.5517 263.188 66.8656 263.273 67.1468 263.443C67.4309 263.611 67.6568 263.837 67.8244 264.121C67.9949 264.402 68.0801 264.716 68.0801 265.063C68.0801 265.407 67.9949 265.72 67.8244 266.005C67.6568 266.289 67.4309 266.516 67.1468 266.686C66.8656 266.854 66.5517 266.938 66.2051 266.938ZM76.2619 268.54V259.813H77.3187V267.603H81.3755V268.54H76.2619ZM84.9217 268.693C84.5069 268.693 84.1305 268.615 83.7924 268.459C83.4543 268.3 83.1859 268.071 82.987 267.773C82.7881 267.472 82.6887 267.108 82.6887 266.682C82.6887 266.307 82.7626 266.003 82.9103 265.77C83.058 265.534 83.2555 265.35 83.5026 265.216C83.7498 265.083 84.0225 264.983 84.3208 264.918C84.622 264.85 84.9245 264.796 85.2285 264.756C85.6262 264.705 85.9487 264.666 86.1958 264.641C86.4458 264.612 86.6276 264.566 86.7413 264.5C86.8577 264.435 86.916 264.321 86.916 264.159V264.125C86.916 263.705 86.8009 263.378 86.5708 263.145C86.3435 262.912 85.9984 262.796 85.5353 262.796C85.0552 262.796 84.6788 262.901 84.406 263.111C84.1333 263.321 83.9416 263.546 83.8308 263.784L82.8762 263.443C83.0467 263.046 83.2739 262.736 83.558 262.514C83.845 262.29 84.1575 262.134 84.4955 262.046C84.8364 261.955 85.1717 261.909 85.5012 261.909C85.7114 261.909 85.9529 261.935 86.2256 261.986C86.5012 262.034 86.7668 262.135 87.0225 262.289C87.281 262.442 87.4955 262.674 87.666 262.983C87.8364 263.293 87.9217 263.708 87.9217 264.228V268.54H86.916V267.654H86.8649C86.7967 267.796 86.683 267.948 86.5239 268.11C86.3649 268.272 86.1532 268.409 85.889 268.523C85.6248 268.637 85.3024 268.693 84.9217 268.693ZM85.0751 267.79C85.4728 267.79 85.808 267.712 86.0808 267.556C86.3563 267.399 86.5637 267.198 86.7029 266.951C86.845 266.703 86.916 266.443 86.916 266.171V265.25C86.8734 265.301 86.7796 265.348 86.6347 265.391C86.4927 265.431 86.3279 265.466 86.1404 265.497C85.9558 265.526 85.7754 265.551 85.5992 265.574C85.4259 265.594 85.2853 265.611 85.1774 265.625C84.916 265.659 84.6717 265.715 84.4444 265.791C84.22 265.865 84.0381 265.978 83.8989 266.128C83.7626 266.276 83.6944 266.478 83.6944 266.733C83.6944 267.083 83.8237 267.347 84.0822 267.526C84.3435 267.702 84.6745 267.79 85.0751 267.79ZM89.8773 268.54V261.995H90.8488V263.017H90.9341C91.0704 262.668 91.2906 262.397 91.5946 262.203C91.8986 262.007 92.2636 261.909 92.6898 261.909C93.1216 261.909 93.4809 262.007 93.7679 262.203C94.0576 262.397 94.2835 262.668 94.4454 263.017H94.5136C94.6812 262.679 94.9326 262.411 95.2679 262.212C95.6031 262.01 96.0051 261.909 96.4738 261.909C97.0591 261.909 97.5378 262.093 97.9099 262.459C98.2821 262.823 98.4682 263.389 98.4682 264.159V268.54H97.4625V264.159C97.4625 263.676 97.3304 263.331 97.0662 263.124C96.802 262.916 96.4909 262.813 96.1329 262.813C95.6727 262.813 95.3162 262.952 95.0633 263.23C94.8105 263.506 94.6841 263.855 94.6841 264.279V268.54H93.6613V264.057C93.6613 263.685 93.5406 263.385 93.2991 263.158C93.0576 262.928 92.7466 262.813 92.3659 262.813C92.1045 262.813 91.8602 262.882 91.6329 263.022C91.4085 263.161 91.2267 263.354 91.0875 263.601C90.9511 263.845 90.8829 264.128 90.8829 264.449V268.54H89.8773ZM100.563 268.54V259.813H101.569V263.034H101.654C101.728 262.921 101.83 262.776 101.961 262.6C102.095 262.421 102.285 262.262 102.532 262.122C102.782 261.98 103.12 261.909 103.546 261.909C104.097 261.909 104.583 262.047 105.004 262.323C105.424 262.598 105.752 262.989 105.988 263.495C106.224 264 106.342 264.597 106.342 265.284C106.342 265.978 106.224 266.578 105.988 267.087C105.752 267.593 105.426 267.985 105.008 268.263C104.59 268.539 104.109 268.676 103.563 268.676C103.143 268.676 102.806 268.607 102.553 268.468C102.301 268.326 102.106 268.165 101.97 267.986C101.833 267.804 101.728 267.654 101.654 267.534H101.535V268.54H100.563ZM101.552 265.267C101.552 265.762 101.624 266.198 101.769 266.576C101.914 266.951 102.126 267.245 102.404 267.458C102.683 267.668 103.024 267.773 103.427 267.773C103.847 267.773 104.198 267.662 104.479 267.441C104.764 267.216 104.977 266.915 105.119 266.537C105.264 266.157 105.336 265.733 105.336 265.267C105.336 264.807 105.265 264.392 105.123 264.023C104.984 263.651 104.772 263.357 104.488 263.141C104.207 262.922 103.853 262.813 103.427 262.813C103.018 262.813 102.674 262.916 102.396 263.124C102.117 263.328 101.907 263.615 101.765 263.985C101.623 264.351 101.552 264.779 101.552 265.267ZM110.472 268.676C109.926 268.676 109.445 268.539 109.027 268.263C108.609 267.985 108.283 267.593 108.047 267.087C107.811 266.578 107.693 265.978 107.693 265.284C107.693 264.597 107.811 264 108.047 263.495C108.283 262.989 108.611 262.598 109.031 262.323C109.452 262.047 109.938 261.909 110.489 261.909C110.915 261.909 111.251 261.98 111.499 262.122C111.749 262.262 111.939 262.421 112.07 262.6C112.203 262.776 112.307 262.921 112.381 263.034H112.466V259.813H113.472V268.54H112.5V267.534H112.381C112.307 267.654 112.202 267.804 112.065 267.986C111.929 268.165 111.734 268.326 111.482 268.468C111.229 268.607 110.892 268.676 110.472 268.676ZM110.608 267.773C111.011 267.773 111.352 267.668 111.631 267.458C111.909 267.245 112.121 266.951 112.266 266.576C112.411 266.198 112.483 265.762 112.483 265.267C112.483 264.779 112.412 264.351 112.27 263.985C112.128 263.615 111.918 263.328 111.639 263.124C111.361 262.916 111.017 262.813 110.608 262.813C110.182 262.813 109.827 262.922 109.543 263.141C109.261 263.357 109.05 263.651 108.908 264.023C108.769 264.392 108.699 264.807 108.699 265.267C108.699 265.733 108.77 266.157 108.912 266.537C109.057 266.915 109.27 267.216 109.551 267.441C109.835 267.662 110.188 267.773 110.608 267.773ZM117.499 268.693C117.085 268.693 116.708 268.615 116.37 268.459C116.032 268.3 115.764 268.071 115.565 267.773C115.366 267.472 115.266 267.108 115.266 266.682C115.266 266.307 115.34 266.003 115.488 265.77C115.636 265.534 115.833 265.35 116.08 265.216C116.327 265.083 116.6 264.983 116.898 264.918C117.2 264.85 117.502 264.796 117.806 264.756C118.204 264.705 118.526 264.666 118.773 264.641C119.023 264.612 119.205 264.566 119.319 264.5C119.435 264.435 119.494 264.321 119.494 264.159V264.125C119.494 263.705 119.379 263.378 119.148 263.145C118.921 262.912 118.576 262.796 118.113 262.796C117.633 262.796 117.256 262.901 116.984 263.111C116.711 263.321 116.519 263.546 116.408 263.784L115.454 263.443C115.624 263.046 115.852 262.736 116.136 262.514C116.423 262.29 116.735 262.134 117.073 262.046C117.414 261.955 117.749 261.909 118.079 261.909C118.289 261.909 118.531 261.935 118.803 261.986C119.079 262.034 119.344 262.135 119.6 262.289C119.859 262.442 120.073 262.674 120.244 262.983C120.414 263.293 120.499 263.708 120.499 264.228V268.54H119.494V267.654H119.443C119.374 267.796 119.261 267.948 119.102 268.11C118.943 268.272 118.731 268.409 118.467 268.523C118.202 268.637 117.88 268.693 117.499 268.693ZM117.653 267.79C118.05 267.79 118.386 267.712 118.658 267.556C118.934 267.399 119.141 267.198 119.281 266.951C119.423 266.703 119.494 266.443 119.494 266.171V265.25C119.451 265.301 119.357 265.348 119.212 265.391C119.07 265.431 118.906 265.466 118.718 265.497C118.533 265.526 118.353 265.551 118.177 265.574C118.004 265.594 117.863 265.611 117.755 265.625C117.494 265.659 117.249 265.715 117.022 265.791C116.798 265.865 116.616 265.978 116.477 266.128C116.34 266.276 116.272 266.478 116.272 266.733C116.272 267.083 116.401 267.347 116.66 267.526C116.921 267.702 117.252 267.79 117.653 267.79ZM66.2051 280.938C65.8613 280.938 65.5474 280.854 65.2633 280.686C64.9792 280.516 64.752 280.289 64.5815 280.005C64.4139 279.72 64.3301 279.407 64.3301 279.063C64.3301 278.716 64.4139 278.402 64.5815 278.121C64.752 277.837 64.9792 277.611 65.2633 277.443C65.5474 277.273 65.8613 277.188 66.2051 277.188C66.5517 277.188 66.8656 277.273 67.1468 277.443C67.4309 277.611 67.6568 277.837 67.8244 278.121C67.9949 278.402 68.0801 278.716 68.0801 279.063C68.0801 279.407 67.9949 279.72 67.8244 280.005C67.6568 280.289 67.4309 280.516 67.1468 280.686C66.8656 280.854 66.5517 280.938 66.2051 280.938ZM76.6199 282.54H75.5119L78.7164 273.813H79.8074L83.0119 282.54H81.9039L79.296 275.193H79.2278L76.6199 282.54ZM77.0289 279.131H81.4949V280.068H77.0289V279.131ZM84.4913 282.54V273.813H87.4401C88.1248 273.813 88.6845 273.936 89.1191 274.184C89.5566 274.428 89.8805 274.759 90.0907 275.176C90.3009 275.594 90.406 276.06 90.406 276.574C90.406 277.088 90.3009 277.556 90.0907 277.976C89.8833 278.397 89.5623 278.732 89.1276 278.982C88.693 279.229 88.1362 279.353 87.4572 279.353H85.3435V278.415H87.4231C87.8918 278.415 88.2683 278.334 88.5524 278.172C88.8364 278.01 89.0424 277.791 89.1702 277.516C89.3009 277.237 89.3663 276.924 89.3663 276.574C89.3663 276.225 89.3009 275.912 89.1702 275.637C89.0424 275.361 88.835 275.145 88.5481 274.989C88.2612 274.83 87.8805 274.75 87.406 274.75H85.5481V282.54H84.4913ZM93.2853 273.813V282.54H92.2285V273.813H93.2853ZM104.985 276.54C104.891 276.253 104.768 275.996 104.614 275.769C104.464 275.539 104.283 275.343 104.073 275.181C103.866 275.019 103.63 274.895 103.366 274.81C103.102 274.725 102.812 274.682 102.497 274.682C101.979 274.682 101.509 274.816 101.086 275.083C100.663 275.35 100.326 275.743 100.076 276.263C99.8261 276.783 99.7011 277.421 99.7011 278.176C99.7011 278.932 99.8275 279.57 100.08 280.09C100.333 280.61 100.675 281.003 101.107 281.27C101.539 281.537 102.025 281.671 102.565 281.671C103.065 281.671 103.505 281.564 103.886 281.351C104.269 281.135 104.568 280.831 104.781 280.439C104.997 280.044 105.104 279.58 105.104 279.046L105.428 279.114H102.803V278.176H106.127V279.114C106.127 279.833 105.974 280.458 105.667 280.989C105.363 281.52 104.943 281.932 104.406 282.225C103.872 282.514 103.258 282.659 102.565 282.659C101.792 282.659 101.113 282.478 100.528 282.114C99.9454 281.75 99.4908 281.233 99.1641 280.563C98.8403 279.892 98.6783 279.097 98.6783 278.176C98.6783 277.486 98.7707 276.865 98.9553 276.314C99.1428 275.76 99.407 275.289 99.7479 274.899C100.089 274.51 100.492 274.212 100.958 274.005C101.424 273.797 101.937 273.693 102.497 273.693C102.957 273.693 103.386 273.763 103.783 273.902C104.184 274.039 104.541 274.233 104.853 274.486C105.168 274.736 105.431 275.036 105.641 275.385C105.852 275.732 105.997 276.117 106.076 276.54H104.985ZM109.847 282.693C109.432 282.693 109.056 282.615 108.718 282.459C108.38 282.3 108.111 282.071 107.912 281.773C107.713 281.472 107.614 281.108 107.614 280.682C107.614 280.307 107.688 280.003 107.836 279.77C107.983 279.534 108.181 279.35 108.428 279.216C108.675 279.083 108.948 278.983 109.246 278.918C109.547 278.85 109.85 278.796 110.154 278.756C110.552 278.705 110.874 278.666 111.121 278.641C111.371 278.612 111.553 278.566 111.667 278.5C111.783 278.435 111.841 278.321 111.841 278.159V278.125C111.841 277.705 111.726 277.378 111.496 277.145C111.269 276.912 110.924 276.796 110.461 276.796C109.981 276.796 109.604 276.901 109.331 277.111C109.059 277.321 108.867 277.546 108.756 277.784L107.802 277.443C107.972 277.046 108.199 276.736 108.483 276.514C108.77 276.29 109.083 276.134 109.421 276.046C109.762 275.955 110.097 275.909 110.427 275.909C110.637 275.909 110.878 275.935 111.151 275.986C111.427 276.034 111.692 276.135 111.948 276.289C112.206 276.442 112.421 276.674 112.591 276.983C112.762 277.293 112.847 277.708 112.847 278.228V282.54H111.841V281.654H111.79C111.722 281.796 111.608 281.948 111.449 282.11C111.29 282.272 111.079 282.409 110.814 282.523C110.55 282.637 110.228 282.693 109.847 282.693ZM110 281.79C110.398 281.79 110.733 281.712 111.006 281.556C111.282 281.399 111.489 281.198 111.628 280.951C111.77 280.703 111.841 280.443 111.841 280.171V279.25C111.799 279.301 111.705 279.348 111.56 279.391C111.418 279.431 111.253 279.466 111.066 279.497C110.881 279.526 110.701 279.551 110.525 279.574C110.351 279.594 110.211 279.611 110.103 279.625C109.841 279.659 109.597 279.715 109.37 279.791C109.145 279.865 108.963 279.978 108.824 280.128C108.688 280.276 108.62 280.478 108.62 280.733C108.62 281.083 108.749 281.347 109.007 281.526C109.269 281.702 109.6 281.79 110 281.79ZM117.649 275.995V276.847H114.257V275.995H117.649ZM115.246 274.426H116.251V280.665C116.251 280.949 116.293 281.162 116.375 281.304C116.46 281.443 116.568 281.537 116.699 281.585C116.832 281.631 116.973 281.654 117.121 281.654C117.232 281.654 117.322 281.648 117.393 281.637C117.464 281.622 117.521 281.611 117.564 281.603L117.768 282.506C117.7 282.532 117.605 282.557 117.483 282.583C117.361 282.611 117.206 282.625 117.018 282.625C116.734 282.625 116.456 282.564 116.183 282.442C115.913 282.32 115.689 282.134 115.51 281.884C115.334 281.634 115.246 281.318 115.246 280.938V274.426ZM121.956 282.676C121.325 282.676 120.781 282.537 120.324 282.259C119.869 281.978 119.518 281.585 119.271 281.083C119.027 280.577 118.905 279.989 118.905 279.318C118.905 278.648 119.027 278.057 119.271 277.546C119.518 277.032 119.862 276.631 120.303 276.344C120.746 276.054 121.263 275.909 121.854 275.909C122.195 275.909 122.531 275.966 122.864 276.08C123.196 276.193 123.499 276.378 123.771 276.634C124.044 276.887 124.261 277.222 124.423 277.639C124.585 278.057 124.666 278.571 124.666 279.182V279.608H119.621V278.739H123.643C123.643 278.37 123.57 278.04 123.422 277.75C123.277 277.46 123.07 277.232 122.8 277.064C122.533 276.897 122.217 276.813 121.854 276.813C121.453 276.813 121.107 276.912 120.814 277.111C120.524 277.307 120.301 277.563 120.145 277.878C119.989 278.193 119.91 278.532 119.91 278.892V279.472C119.91 279.966 119.996 280.385 120.166 280.729C120.339 281.07 120.58 281.33 120.886 281.509C121.193 281.685 121.55 281.773 121.956 281.773C122.22 281.773 122.459 281.736 122.672 281.662C122.888 281.585 123.074 281.472 123.23 281.321C123.386 281.168 123.507 280.978 123.592 280.75L124.564 281.023C124.462 281.353 124.29 281.642 124.048 281.892C123.807 282.139 123.509 282.333 123.153 282.472C122.798 282.608 122.399 282.676 121.956 282.676ZM127.799 282.54L125.805 275.995H126.861L128.276 281.006H128.344L129.742 275.995H130.816L132.197 280.989H132.265L133.68 275.995H134.736L132.742 282.54H131.754L130.322 277.512H130.219L128.788 282.54H127.799ZM138.112 282.693C137.697 282.693 137.321 282.615 136.983 282.459C136.645 282.3 136.376 282.071 136.177 281.773C135.979 281.472 135.879 281.108 135.879 280.682C135.879 280.307 135.953 280.003 136.101 279.77C136.249 279.534 136.446 279.35 136.693 279.216C136.94 279.083 137.213 278.983 137.511 278.918C137.812 278.85 138.115 278.796 138.419 278.756C138.817 278.705 139.139 278.666 139.386 278.641C139.636 278.612 139.818 278.566 139.932 278.5C140.048 278.435 140.106 278.321 140.106 278.159V278.125C140.106 277.705 139.991 277.378 139.761 277.145C139.534 276.912 139.189 276.796 138.726 276.796C138.246 276.796 137.869 276.901 137.597 277.111C137.324 277.321 137.132 277.546 137.021 277.784L136.067 277.443C136.237 277.046 136.464 276.736 136.749 276.514C137.035 276.29 137.348 276.134 137.686 276.046C138.027 275.955 138.362 275.909 138.692 275.909C138.902 275.909 139.143 275.935 139.416 275.986C139.692 276.034 139.957 276.135 140.213 276.289C140.472 276.442 140.686 276.674 140.856 276.983C141.027 277.293 141.112 277.708 141.112 278.228V282.54H140.106V281.654H140.055C139.987 281.796 139.874 281.948 139.714 282.11C139.555 282.272 139.344 282.409 139.079 282.523C138.815 282.637 138.493 282.693 138.112 282.693ZM138.266 281.79C138.663 281.79 138.999 281.712 139.271 281.556C139.547 281.399 139.754 281.198 139.893 280.951C140.035 280.703 140.106 280.443 140.106 280.171V279.25C140.064 279.301 139.97 279.348 139.825 279.391C139.683 279.431 139.518 279.466 139.331 279.497C139.146 279.526 138.966 279.551 138.79 279.574C138.616 279.594 138.476 279.611 138.368 279.625C138.106 279.659 137.862 279.715 137.635 279.791C137.41 279.865 137.229 279.978 137.089 280.128C136.953 280.276 136.885 280.478 136.885 280.733C136.885 281.083 137.014 281.347 137.273 281.526C137.534 281.702 137.865 281.79 138.266 281.79ZM143.481 284.995C143.311 284.995 143.159 284.98 143.025 284.952C142.892 284.926 142.799 284.901 142.748 284.875L143.004 283.989C143.248 284.051 143.464 284.074 143.652 284.057C143.839 284.04 144.005 283.956 144.15 283.806C144.298 283.658 144.433 283.418 144.555 283.085L144.742 282.574L142.322 275.995H143.413L145.22 281.21H145.288L147.095 275.995H148.186L145.407 283.495C145.282 283.833 145.127 284.112 144.943 284.334C144.758 284.559 144.544 284.725 144.299 284.833C144.058 284.941 143.785 284.995 143.481 284.995ZM66.2051 294.938C65.8613 294.938 65.5474 294.854 65.2633 294.686C64.9792 294.516 64.752 294.289 64.5815 294.005C64.4139 293.72 64.3301 293.407 64.3301 293.063C64.3301 292.716 64.4139 292.402 64.5815 292.121C64.752 291.837 64.9792 291.611 65.2633 291.443C65.5474 291.273 65.8613 291.188 66.2051 291.188C66.5517 291.188 66.8656 291.273 67.1468 291.443C67.4309 291.611 67.6568 291.837 67.8244 292.121C67.9949 292.402 68.0801 292.716 68.0801 293.063C68.0801 293.407 67.9949 293.72 67.8244 294.005C67.6568 294.289 67.4309 294.516 67.1468 294.686C66.8656 294.854 66.5517 294.938 66.2051 294.938ZM83.2846 290.54H82.2278C82.1653 290.236 82.0559 289.969 81.8997 289.739C81.7463 289.509 81.5588 289.316 81.3372 289.159C81.1184 289 80.8755 288.881 80.6085 288.801C80.3414 288.722 80.063 288.682 79.7733 288.682C79.2449 288.682 78.7662 288.816 78.3372 289.083C77.911 289.35 77.5716 289.743 77.3187 290.263C77.0687 290.783 76.9437 291.421 76.9437 292.176C76.9437 292.932 77.0687 293.57 77.3187 294.09C77.5716 294.61 77.911 295.003 78.3372 295.27C78.7662 295.537 79.2449 295.671 79.7733 295.671C80.063 295.671 80.3414 295.631 80.6085 295.551C80.8755 295.472 81.1184 295.354 81.3372 295.198C81.5588 295.039 81.7463 294.844 81.8997 294.614C82.0559 294.381 82.1653 294.114 82.2278 293.813H83.2846C83.2051 294.259 83.0602 294.658 82.85 295.01C82.6397 295.362 82.3784 295.662 82.0659 295.909C81.7534 296.154 81.4025 296.34 81.0133 296.468C80.627 296.595 80.2136 296.659 79.7733 296.659C79.0289 296.659 78.367 296.478 77.7875 296.114C77.2079 295.75 76.752 295.233 76.4196 294.563C76.0872 293.892 75.921 293.097 75.921 292.176C75.921 291.256 76.0872 290.46 76.4196 289.79C76.752 289.12 77.2079 288.603 77.7875 288.239C78.367 287.875 79.0289 287.693 79.7733 287.693C80.2136 287.693 80.627 287.757 81.0133 287.885C81.4025 288.013 81.7534 288.201 82.0659 288.448C82.3784 288.692 82.6397 288.99 82.85 289.343C83.0602 289.692 83.2051 290.091 83.2846 290.54ZM87.6351 296.676C87.0442 296.676 86.5257 296.536 86.0797 296.255C85.6365 295.973 85.2899 295.58 85.0399 295.074C84.7928 294.568 84.6692 293.978 84.6692 293.301C84.6692 292.62 84.7928 292.024 85.0399 291.516C85.2899 291.007 85.6365 290.612 86.0797 290.331C86.5257 290.05 87.0442 289.909 87.6351 289.909C88.226 289.909 88.743 290.05 89.1862 290.331C89.6323 290.612 89.9788 291.007 90.226 291.516C90.476 292.024 90.601 292.62 90.601 293.301C90.601 293.978 90.476 294.568 90.226 295.074C89.9788 295.58 89.6323 295.973 89.1862 296.255C88.743 296.536 88.226 296.676 87.6351 296.676ZM87.6351 295.773C88.084 295.773 88.4533 295.658 88.743 295.428C89.0328 295.198 89.2473 294.895 89.3865 294.52C89.5257 294.145 89.5953 293.739 89.5953 293.301C89.5953 292.864 89.5257 292.456 89.3865 292.078C89.2473 291.701 89.0328 291.395 88.743 291.162C88.4533 290.929 88.084 290.813 87.6351 290.813C87.1862 290.813 86.8169 290.929 86.5271 291.162C86.2374 291.395 86.0229 291.701 85.8837 292.078C85.7445 292.456 85.6749 292.864 85.6749 293.301C85.6749 293.739 85.7445 294.145 85.8837 294.52C86.0229 294.895 86.2374 295.198 86.5271 295.428C86.8169 295.658 87.1862 295.773 87.6351 295.773ZM94.8982 299.131C94.4124 299.131 93.9948 299.068 93.6454 298.943C93.2959 298.821 93.0047 298.659 92.7718 298.458C92.5417 298.259 92.3584 298.046 92.2221 297.818L93.0232 297.256C93.1141 297.375 93.2292 297.512 93.3684 297.665C93.5076 297.821 93.6979 297.956 93.9394 298.07C94.1837 298.186 94.5033 298.245 94.8982 298.245C95.4266 298.245 95.8627 298.117 96.2064 297.861C96.5502 297.605 96.7221 297.205 96.7221 296.659V295.33H96.6368C96.563 295.449 96.4579 295.597 96.3215 295.773C96.188 295.946 95.9948 296.101 95.742 296.237C95.492 296.371 95.1539 296.438 94.7278 296.438C94.1993 296.438 93.7249 296.313 93.3045 296.063C92.8868 295.813 92.5559 295.449 92.3116 294.972C92.0701 294.495 91.9493 293.915 91.9493 293.233C91.9493 292.563 92.0672 291.979 92.303 291.482C92.5388 290.982 92.867 290.595 93.2874 290.323C93.7079 290.047 94.1937 289.909 94.7448 289.909C95.1709 289.909 95.509 289.98 95.759 290.122C96.0118 290.262 96.205 290.421 96.3385 290.6C96.4749 290.776 96.58 290.921 96.6539 291.034H96.7562V289.995H97.7278V296.728C97.7278 297.29 97.5999 297.747 97.3442 298.1C97.0914 298.455 96.7505 298.715 96.3215 298.88C95.8954 299.047 95.4209 299.131 94.8982 299.131ZM94.8641 295.534C95.2675 295.534 95.6084 295.442 95.8868 295.257C96.1653 295.073 96.3769 294.807 96.5218 294.46C96.6667 294.114 96.7391 293.699 96.7391 293.216C96.7391 292.745 96.6681 292.328 96.526 291.968C96.384 291.607 96.1738 291.324 95.8954 291.12C95.617 290.915 95.2732 290.813 94.8641 290.813C94.438 290.813 94.0829 290.921 93.7988 291.137C93.5175 291.353 93.3059 291.642 93.1638 292.006C93.0246 292.37 92.955 292.773 92.955 293.216C92.955 293.671 93.026 294.073 93.1681 294.422C93.313 294.769 93.526 295.041 93.8073 295.24C94.0914 295.436 94.4437 295.534 94.8641 295.534ZM100.694 292.603V296.54H99.6887V289.995H100.66V291.017H100.745C100.899 290.685 101.132 290.418 101.444 290.216C101.757 290.012 102.16 289.909 102.655 289.909C103.098 289.909 103.486 290 103.818 290.182C104.15 290.361 104.409 290.634 104.593 291C104.778 291.364 104.87 291.824 104.87 292.381V296.54H103.865V292.449C103.865 291.935 103.731 291.534 103.464 291.247C103.197 290.958 102.831 290.813 102.365 290.813C102.044 290.813 101.757 290.882 101.504 291.022C101.254 291.161 101.057 291.364 100.912 291.631C100.767 291.898 100.694 292.222 100.694 292.603ZM106.828 296.54V289.995H107.834V296.54H106.828ZM107.34 288.904C107.144 288.904 106.974 288.837 106.832 288.703C106.693 288.57 106.624 288.409 106.624 288.222C106.624 288.034 106.693 287.874 106.832 287.74C106.974 287.607 107.144 287.54 107.34 287.54C107.536 287.54 107.703 287.607 107.842 287.74C107.984 287.874 108.055 288.034 108.055 288.222C108.055 288.409 107.984 288.57 107.842 288.703C107.703 288.837 107.536 288.904 107.34 288.904ZM112.642 289.995V290.847H109.25V289.995H112.642ZM110.239 288.426H111.245V294.665C111.245 294.949 111.286 295.162 111.368 295.304C111.454 295.443 111.561 295.537 111.692 295.585C111.826 295.631 111.966 295.654 112.114 295.654C112.225 295.654 112.316 295.648 112.387 295.637C112.458 295.622 112.515 295.611 112.557 295.603L112.762 296.506C112.694 296.532 112.598 296.557 112.476 296.583C112.354 296.611 112.199 296.625 112.012 296.625C111.728 296.625 111.449 296.564 111.177 296.442C110.907 296.32 110.682 296.134 110.503 295.884C110.327 295.634 110.239 295.318 110.239 294.938V288.426ZM116.864 296.676C116.273 296.676 115.755 296.536 115.309 296.255C114.865 295.973 114.519 295.58 114.269 295.074C114.022 294.568 113.898 293.978 113.898 293.301C113.898 292.62 114.022 292.024 114.269 291.516C114.519 291.007 114.865 290.612 115.309 290.331C115.755 290.05 116.273 289.909 116.864 289.909C117.455 289.909 117.972 290.05 118.415 290.331C118.861 290.612 119.208 291.007 119.455 291.516C119.705 292.024 119.83 292.62 119.83 293.301C119.83 293.978 119.705 294.568 119.455 295.074C119.208 295.58 118.861 295.973 118.415 296.255C117.972 296.536 117.455 296.676 116.864 296.676ZM116.864 295.773C117.313 295.773 117.682 295.658 117.972 295.428C118.262 295.198 118.476 294.895 118.615 294.52C118.755 294.145 118.824 293.739 118.824 293.301C118.824 292.864 118.755 292.456 118.615 292.078C118.476 291.701 118.262 291.395 117.972 291.162C117.682 290.929 117.313 290.813 116.864 290.813C116.415 290.813 116.046 290.929 115.756 291.162C115.466 291.395 115.252 291.701 115.113 292.078C114.973 292.456 114.904 292.864 114.904 293.301C114.904 293.739 114.973 294.145 115.113 294.52C115.252 294.895 115.466 295.198 115.756 295.428C116.046 295.658 116.415 295.773 116.864 295.773Z" fill="white"/>
</g>
<rect x="206.5" y="6.2688" width="314" height="183" rx="13.5" transform="rotate(90 206.5 6.2688)" stroke="url(#paint0_angular_758_3115)" stroke-opacity="0.5"/>
</g>
<defs>
<filter id="filter0_d_758_3115" x="0" y="0.768799" width="214" height="345" filterUnits="userSpaceOnUse" color-interpolation-filters="sRGB">
<feFlood flood-opacity="0" result="BackgroundImageFix"/>
<feColorMatrix in="SourceAlpha" type="matrix" values="0 0 0 0 0 0 0 0 0 0 0 0 0 0 0 0 0 0 127 0" result="hardAlpha"/>
<feOffset dx="-8" dy="10"/>
<feGaussianBlur stdDeviation="7.5"/>
<feComposite in2="hardAlpha" operator="out"/>
<feColorMatrix type="matrix" values="0 0 0 0 0 0 0 0 0 0 0 0 0 0 0 0 0 0 0.15 0"/>
<feBlend mode="normal" in2="BackgroundImageFix" result="effect1_dropShadow_758_3115"/>
<feBlend mode="normal" in="SourceGraphic" in2="effect1_dropShadow_758_3115" result="shape"/>
</filter>
<filter id="filter1_f_758_3115" x="119.334" y="-40.9565" width="123.247" height="120.394" filterUnits="userSpaceOnUse" color-interpolation-filters="sRGB">
<feFlood flood-opacity="0" result="BackgroundImageFix"/>
<feBlend mode="normal" in="SourceGraphic" in2="BackgroundImageFix" result="shape"/>
<feGaussianBlur stdDeviation="15" result="effect1_foregroundBlur_758_3115"/>
</filter>
<filter id="filter2_f_758_3115" x="158.019" y="-56.5119" width="137.992" height="153.132" filterUnits="userSpaceOnUse" color-interpolation-filters="sRGB">
<feFlood flood-opacity="0" result="BackgroundImageFix"/>
<feBlend mode="normal" in="SourceGraphic" in2="BackgroundImageFix" result="shape"/>
<feGaussianBlur stdDeviation="15" result="effect1_foregroundBlur_758_3115"/>
</filter>
<filter id="filter3_f_758_3115" x="118.99" y="-54.0146" width="125.69" height="134.281" filterUnits="userSpaceOnUse" color-interpolation-filters="sRGB">
<feFlood flood-opacity="0" result="BackgroundImageFix"/>
<feBlend mode="normal" in="SourceGraphic" in2="BackgroundImageFix" result="shape"/>
<feGaussianBlur stdDeviation="15" result="effect1_foregroundBlur_758_3115"/>
</filter>
<filter id="filter4_f_758_3115" x="113.468" y="-48.3367" width="105.034" height="125.228" filterUnits="userSpaceOnUse" color-interpolation-filters="sRGB">
<feFlood flood-opacity="0" result="BackgroundImageFix"/>
<feBlend mode="normal" in="SourceGraphic" in2="BackgroundImageFix" result="shape"/>
<feGaussianBlur stdDeviation="15" result="effect1_foregroundBlur_758_3115"/>
</filter>
<filter id="filter5_f_758_3115" x="155.142" y="-50.1154" width="101.802" height="115.034" filterUnits="userSpaceOnUse" color-interpolation-filters="sRGB">
<feFlood flood-opacity="0" result="BackgroundImageFix"/>
<feBlend mode="normal" in="SourceGraphic" in2="BackgroundImageFix" result="shape"/>
<feGaussianBlur stdDeviation="15" result="effect1_foregroundBlur_758_3115"/>
</filter>
<radialGradient id="paint0_angular_758_3115" cx="0" cy="0" r="1" gradientUnits="userSpaceOnUse" gradientTransform="translate(258 35.2688) rotate(19.782) scale(255.583 437.546)">
<stop offset="0.106146" stop-color="white"/>
<stop offset="0.16572" stop-color="#595959"/>
<stop offset="0.356116" stop-color="white"/>
<stop offset="0.474328" stop-color="white"/>
<stop offset="0.950754" stop-color="white" stop-opacity="0.54"/>
<stop offset="0.975714" stop-color="#E3E3E3" stop-opacity="0"/>
<stop offset="1" stop-color="#8D8D8D" stop-opacity="0"/>
</radialGradient>
<clipPath id="clip0_758_3115">
<rect x="207" y="5.7688" width="315" height="184" rx="14" transform="rotate(90 207 5.7688)" fill="white"/>
</clipPath>
</defs>
</svg>
