<svg width="214" height="346" viewBox="0 0 214 346" fill="none" xmlns="http://www.w3.org/2000/svg">
<g filter="url(#filter0_d_758_3221)">
<g clip-path="url(#clip0_758_3221)">
<rect x="207" y="5.69189" width="315" height="184" rx="14" transform="rotate(90 207 5.69189)" fill="#08090C"/>
<mask id="mask0_758_3221" style="mask-type:alpha" maskUnits="userSpaceOnUse" x="156" y="-21" width="74" height="63">
<ellipse cx="192.755" cy="10.1919" rx="27.5895" ry="39.2135" transform="rotate(120 192.755 10.1919)" fill="#EA1E58"/>
</mask>
<g mask="url(#mask0_758_3221)">
<g style="mix-blend-mode:exclusion" filter="url(#filter1_f_758_3221)">
<path d="M153.803 -5.47108C164.748 -15.893 185.458 -13.0257 200.061 0.933198C214.664 14.8921 217.63 34.6566 206.685 45.0785C195.741 55.5005 187.062 41.176 172.459 27.2171C157.856 13.2583 142.858 4.95082 153.803 -5.47108Z" fill="#EA1E58"/>
</g>
<g filter="url(#filter2_f_758_3221)">
<path d="M226.523 10.8334C226.922 1.45367 205.885 -12.6903 198.189 -15.7973C172.416 -33.7166 207.095 -24.9312 210.412 -26.4578C213.729 -27.9845 217.459 -26.1713 219.266 -24.4877C221.073 -22.8041 249.132 -6.26392 257.221 1.64228C265.31 9.54848 266.02 17.7822 266.699 19.7082C267.379 21.6341 249.135 56.5338 237.717 63.9943C226.298 71.4548 216.198 54.2871 210.592 47.4014C204.986 40.5156 206.075 35.9898 219.497 32.6126C232.92 29.2353 226.024 22.5581 226.523 10.8334Z" fill="#EA1E58"/>
</g>
<g filter="url(#filter3_f_758_3221)">
<path d="M187.444 -18.7107C204.551 -13.3075 216.498 -6.44033 215.305 -9.81654C207.592 -14.2698 193.263 -23.7909 191.094 -23.7948C188.383 -23.7997 172.904 -25.1944 171.755 -24.6878C170.835 -24.2825 156.667 -14.7178 149.697 -9.98617L150.215 26.7217C162.778 34.3214 188.25 49.5133 189.639 49.4829C191.375 49.4449 198.802 36.8287 188.288 34.0095C177.774 31.1902 168.827 18.4829 164.323 8.47075C159.82 -1.54135 166.061 -25.4649 187.444 -18.7107Z" fill="#EA1E58"/>
</g>
<g filter="url(#filter4_f_758_3221)">
<path d="M182.186 -7.01393C190.962 -10.6343 189.693 -15.8556 187.962 -18.0137C184.551 -18.4799 177.083 -19.3434 174.488 -19.0675C171.245 -18.7225 155.162 -11.4197 152.795 -8.98183C150.429 -6.54393 146.155 -3.86024 144.394 2.69236C142.633 9.24496 152.025 35.3823 153.831 40.4087C155.276 44.4298 164.36 45.8789 168.722 46.1008C176.445 46.1913 189.184 45.4328 178.355 41.6744C164.82 36.9765 164.004 13.8827 163.109 10.6965C162.213 7.51029 171.217 -2.48842 182.186 -7.01393Z" fill="#EA1E58"/>
</g>
<g style="mix-blend-mode:soft-light" filter="url(#filter5_f_758_3221)">
<path d="M188.754 -19.854C196.677 -23.999 210.623 -15.4474 219.903 -0.753378C229.183 13.9406 230.283 29.2127 222.36 33.3578C214.437 37.5029 209.201 24.3944 199.921 9.70043C190.641 -4.99359 180.831 -15.7089 188.754 -19.854Z" fill="#EA1E58"/>
</g>
<g style="mix-blend-mode:overlay">
<rect x="240.423" y="-2.18958" width="255" height="318" transform="rotate(120 240.423 -2.18958)" fill="#EA1E58"/>
</g>
</g>
<path d="M62.0774 120.692L62.0774 101.783L73.9325 101.783L73.9325 104.239L64.9304 104.239L64.9304 110L73.3139 110L73.3139 112.447L64.9304 112.447L64.9304 118.236L74.0433 118.236L74.0433 120.692L62.0774 120.692ZM86.1377 110.037L86.1377 112.438L77.7541 112.438L77.7541 110.037L86.1377 110.037ZM96.42 120.692L90.2986 120.692L90.2986 101.783L96.6139 101.783C98.4667 101.783 100.058 102.161 101.387 102.918C102.717 103.669 103.736 104.75 104.443 106.159C105.157 107.563 105.514 109.246 105.514 111.21C105.514 113.179 105.154 114.872 104.434 116.288C103.72 117.703 102.686 118.793 101.332 119.556C99.9778 120.313 98.3405 120.692 96.42 120.692ZM93.1516 118.199L96.2631 118.199C97.7034 118.199 98.9006 117.928 99.8547 117.386C100.809 116.839 101.523 116.048 101.997 115.014C102.471 113.973 102.708 112.705 102.708 111.21C102.708 109.726 102.471 108.467 101.997 107.433C101.529 106.399 100.83 105.614 99.9009 105.079C98.9714 104.543 97.8173 104.276 96.4385 104.276L93.1516 104.276L93.1516 118.199ZM109.101 120.692L109.101 106.51L111.769 106.51L111.769 108.763L111.917 108.763C112.175 108 112.631 107.4 113.283 106.962C113.942 106.519 114.687 106.298 115.518 106.298C115.69 106.298 115.893 106.304 116.127 106.316C116.367 106.328 116.555 106.344 116.69 106.362L116.69 109.003C116.579 108.972 116.382 108.938 116.099 108.901C115.816 108.858 115.533 108.837 115.25 108.837C114.597 108.837 114.016 108.975 113.505 109.252C113 109.523 112.6 109.902 112.305 110.388C112.009 110.868 111.861 111.416 111.861 112.031L111.861 120.692L109.101 120.692ZM119.339 120.692L119.339 106.51L122.1 106.51L122.1 120.692L119.339 120.692ZM120.733 104.322C120.253 104.322 119.841 104.162 119.496 103.842C119.158 103.516 118.988 103.128 118.988 102.678C118.988 102.223 119.158 101.835 119.496 101.515C119.841 101.189 120.253 101.026 120.733 101.026C121.213 101.026 121.623 101.189 121.961 101.515C122.306 101.835 122.478 102.223 122.478 102.678C122.478 103.128 122.306 103.516 121.961 103.842C121.623 104.162 121.213 104.322 120.733 104.322ZM136.701 109.972L134.199 110.416C134.094 110.096 133.928 109.791 133.7 109.502C133.479 109.212 133.177 108.975 132.795 108.791C132.414 108.606 131.937 108.514 131.364 108.514C130.583 108.514 129.93 108.689 129.407 109.04C128.884 109.385 128.622 109.831 128.622 110.379C128.622 110.853 128.798 111.234 129.148 111.524C129.499 111.813 130.066 112.05 130.847 112.235L133.1 112.752C134.405 113.053 135.378 113.518 136.018 114.146C136.658 114.774 136.978 115.589 136.978 116.592C136.978 117.442 136.732 118.199 136.239 118.864C135.753 119.522 135.073 120.039 134.199 120.415C133.331 120.79 132.325 120.978 131.18 120.978C129.592 120.978 128.296 120.64 127.293 119.962C126.289 119.279 125.674 118.31 125.446 117.054L128.114 116.648C128.28 117.343 128.622 117.87 129.139 118.227C129.656 118.578 130.33 118.753 131.161 118.753C132.066 118.753 132.789 118.565 133.331 118.19C133.873 117.808 134.143 117.343 134.143 116.796C134.143 116.352 133.977 115.98 133.645 115.678C133.319 115.377 132.817 115.149 132.14 114.995L129.739 114.469C128.416 114.167 127.437 113.687 126.803 113.029C126.175 112.37 125.861 111.536 125.861 110.526C125.861 109.689 126.095 108.957 126.563 108.329C127.031 107.701 127.677 107.212 128.502 106.861C129.327 106.504 130.272 106.325 131.337 106.325C132.869 106.325 134.076 106.658 134.956 107.323C135.836 107.981 136.418 108.864 136.701 109.972ZM143.034 112.271L143.034 120.692L140.273 120.692L140.273 101.783L142.997 101.783L142.997 108.818L143.172 108.818C143.505 108.055 144.013 107.449 144.696 106.999C145.379 106.55 146.272 106.325 147.373 106.325C148.346 106.325 149.195 106.525 149.922 106.926C150.654 107.326 151.22 107.923 151.621 108.717C152.027 109.505 152.23 110.489 152.23 111.671L152.23 120.692L149.469 120.692L149.469 112.004C149.469 110.963 149.202 110.157 148.666 109.585C148.13 109.006 147.386 108.717 146.432 108.717C145.779 108.717 145.194 108.855 144.677 109.132C144.166 109.409 143.763 109.815 143.468 110.351C143.179 110.88 143.034 111.52 143.034 112.271ZM162.794 106.51L162.794 108.726L155.047 108.726L155.047 106.51L162.794 106.51ZM157.125 103.112L159.886 103.112L159.886 116.528C159.886 117.063 159.966 117.467 160.126 117.737C160.286 118.002 160.492 118.184 160.744 118.282C161.003 118.374 161.283 118.421 161.584 118.421C161.806 118.421 162 118.405 162.166 118.374C162.332 118.344 162.462 118.319 162.554 118.301L163.052 120.581C162.892 120.643 162.665 120.704 162.369 120.766C162.074 120.833 161.704 120.87 161.261 120.877C160.535 120.889 159.858 120.76 159.23 120.489C158.602 120.218 158.094 119.799 157.707 119.233C157.319 118.667 157.125 117.956 157.125 117.1L157.125 103.112ZM166.108 120.692L166.108 106.51L168.868 106.51L168.868 120.692L166.108 120.692ZM167.502 104.322C167.022 104.322 166.609 104.162 166.265 103.842C165.926 103.516 165.757 103.128 165.757 102.678C165.757 102.223 165.926 101.835 166.265 101.515C166.609 101.189 167.022 101.026 167.502 101.026C167.982 101.026 168.391 101.189 168.73 101.515C169.075 101.835 169.247 102.223 169.247 102.678C169.247 103.128 169.075 103.516 168.73 103.842C168.391 104.162 167.982 104.322 167.502 104.322Z" fill="white"/>
<path d="M40.233 180.692L40.233 170.51L43.7926 170.51C44.5019 170.51 45.0869 170.633 45.5476 170.878C46.0083 171.12 46.3513 171.446 46.5767 171.857C46.8021 172.265 46.9148 172.717 46.9148 173.215C46.9148 173.652 46.8369 174.013 46.6811 174.298C46.5286 174.583 46.3265 174.809 46.0746 174.975C45.826 175.14 45.5559 175.263 45.2642 175.342L45.2642 175.442C45.5758 175.462 45.889 175.571 46.2038 175.77C46.5187 175.969 46.7822 176.254 46.9943 176.625C47.2064 176.996 47.3125 177.45 47.3125 177.987C47.3125 178.498 47.1965 178.957 46.9645 179.364C46.7325 179.772 46.3662 180.095 45.8658 180.334C45.3653 180.573 44.714 180.692 43.9119 180.692L40.233 180.692ZM41.4659 179.598L43.9119 179.598C44.7173 179.598 45.2891 179.442 45.6271 179.131C45.9685 178.816 46.1392 178.435 46.1392 177.987C46.1392 177.643 46.0514 177.324 45.8757 177.033C45.7 176.738 45.4498 176.503 45.125 176.327C44.8002 176.148 44.4157 176.058 43.9716 176.058L41.4659 176.058L41.4659 179.598ZM41.4659 174.985L43.7528 174.985C44.1241 174.985 44.4588 174.912 44.7571 174.766C45.0587 174.62 45.2973 174.414 45.473 174.149C45.652 173.884 45.7415 173.573 45.7415 173.215C45.7415 172.767 45.5857 172.388 45.2741 172.076C44.9626 171.761 44.4688 171.604 43.7926 171.604L41.4659 171.604L41.4659 174.985ZM50.075 183.556C49.8762 183.556 49.6988 183.539 49.5431 183.506C49.3873 183.476 49.2796 183.446 49.2199 183.416L49.5182 182.382C49.8032 182.455 50.0551 182.482 50.2739 182.462C50.4926 182.442 50.6865 182.344 50.8556 182.168C51.0279 181.996 51.1853 181.716 51.3279 181.328L51.5466 180.732L48.7227 173.056L49.9955 173.056L52.1034 179.141L52.183 179.141L54.2909 173.056L55.5637 173.056L52.3222 181.806C52.1763 182.2 51.9957 182.526 51.7803 182.785C51.5648 183.047 51.3146 183.241 51.0296 183.367C50.7478 183.493 50.4297 183.556 50.075 183.556ZM57.8318 180.76C57.6216 180.76 57.4412 180.685 57.2907 180.534C57.1401 180.384 57.0648 180.203 57.0648 179.993C57.0648 179.783 57.1401 179.602 57.2907 179.452C57.4412 179.301 57.6216 179.226 57.8318 179.226C58.0421 179.226 58.2225 179.301 58.373 179.452C58.5236 179.602 58.5989 179.783 58.5989 179.993C58.5989 180.132 58.5634 180.26 58.4924 180.377C58.4242 180.493 58.3318 180.587 58.2154 180.658C58.1017 180.726 57.9739 180.76 57.8318 180.76ZM57.8318 175.902C57.6216 175.902 57.4412 175.827 57.2907 175.676C57.1401 175.526 57.0648 175.345 57.0648 175.135C57.0648 174.925 57.1401 174.744 57.2907 174.594C57.4412 174.443 57.6216 174.368 57.8318 174.368C58.0421 174.368 58.2225 174.443 58.373 174.594C58.5236 174.744 58.5989 174.925 58.5989 175.135C58.5989 175.274 58.5634 175.402 58.4924 175.519C58.4242 175.635 58.3318 175.729 58.2154 175.8C58.1017 175.868 57.9739 175.902 57.8318 175.902ZM64.2736 176.482L64.2736 177.419L60.4554 177.419L60.4554 176.482L64.2736 176.482ZM80.2099 171.965L80.2099 180.692L79.1872 180.692L74.4315 173.84L74.3463 173.84L74.3463 180.692L73.2895 180.692L73.2895 171.965L74.3122 171.965L79.0849 178.834L79.1702 178.834L79.1702 171.965L80.2099 171.965ZM82.3083 180.692L82.3083 174.146L83.314 174.146L83.314 180.692L82.3083 180.692ZM82.8196 173.056C82.6236 173.056 82.4546 172.989 82.3125 172.855C82.1733 172.722 82.1037 172.561 82.1037 172.374C82.1037 172.186 82.1733 172.026 82.3125 171.892C82.4546 171.759 82.6236 171.692 82.8196 171.692C83.0157 171.692 83.1833 171.759 83.3225 171.892C83.4645 172.026 83.5355 172.186 83.5355 172.374C83.5355 172.561 83.4645 172.722 83.3225 172.855C83.1833 172.989 83.0157 173.056 82.8196 173.056ZM89.9123 175.612L89.0089 175.868C88.9521 175.717 88.8683 175.571 88.7575 175.429C88.6495 175.284 88.5018 175.165 88.3143 175.071C88.1268 174.977 87.8867 174.931 87.5941 174.931C87.1935 174.931 86.8597 175.023 86.5927 175.208C86.3285 175.389 86.1964 175.621 86.1964 175.902C86.1964 176.152 86.2873 176.35 86.4691 176.494C86.6509 176.639 86.935 176.76 87.3214 176.857L88.293 177.095C88.8782 177.237 89.3143 177.455 89.6012 177.747C89.8881 178.037 90.0316 178.411 90.0316 178.868C90.0316 179.243 89.9237 179.578 89.7077 179.874C89.4947 180.169 89.1964 180.402 88.8129 180.573C88.4293 180.743 87.9833 180.828 87.4748 180.828C86.8072 180.828 86.2546 180.683 85.8171 180.394C85.3796 180.104 85.1026 179.681 84.9862 179.124L85.9407 178.885C86.0316 179.237 86.2035 179.502 86.4563 179.678C86.712 179.854 87.0458 179.942 87.4577 179.942C87.9265 179.942 88.2987 179.842 88.5742 179.644C88.8526 179.442 88.9918 179.2 88.9918 178.919C88.9918 178.692 88.9123 178.502 88.7532 178.348C88.5941 178.192 88.3498 178.075 88.0202 177.999L86.9293 177.743C86.3299 177.601 85.8896 177.381 85.6083 177.083C85.3299 176.781 85.1907 176.405 85.1907 175.953C85.1907 175.584 85.2944 175.257 85.5018 174.973C85.712 174.689 85.9975 174.466 86.3583 174.304C86.7219 174.142 87.1339 174.061 87.5941 174.061C88.2418 174.061 88.7504 174.203 89.1197 174.487C89.4918 174.771 89.756 175.146 89.9123 175.612ZM92.6711 176.754L92.6711 180.692L91.6655 180.692L91.6655 171.965L92.6711 171.965L92.6711 175.169L92.7564 175.169C92.9098 174.831 93.1399 174.563 93.4467 174.364C93.7564 174.162 94.1683 174.061 94.6825 174.061C95.1285 174.061 95.5191 174.151 95.8544 174.33C96.1896 174.506 96.4495 174.777 96.6342 175.144C96.8217 175.507 96.9155 175.97 96.9155 176.533L96.9155 180.692L95.9098 180.692L95.9098 176.601C95.9098 176.081 95.7748 175.679 95.5049 175.395C95.2379 175.108 94.8672 174.965 94.3927 174.965C94.0632 174.965 93.7677 175.034 93.5064 175.173C93.2478 175.313 93.0433 175.516 92.8927 175.783C92.745 176.05 92.6711 176.374 92.6711 176.754ZM101.722 174.146L101.722 174.999L98.3298 174.999L98.3298 174.146L101.722 174.146ZM99.3185 172.578L100.324 172.578L100.324 178.817C100.324 179.101 100.365 179.314 100.448 179.456C100.533 179.595 100.641 179.689 100.772 179.737C100.905 179.783 101.046 179.806 101.193 179.806C101.304 179.806 101.395 179.8 101.466 179.788C101.537 179.774 101.594 179.763 101.637 179.754L101.841 180.658C101.773 180.683 101.678 180.709 101.556 180.735C101.434 180.763 101.279 180.777 101.091 180.777C100.807 180.777 100.529 180.716 100.256 180.594C99.9861 180.472 99.7617 180.286 99.5827 180.036C99.4066 179.786 99.3185 179.47 99.3185 179.09L99.3185 172.578ZM104.501 176.754L104.501 180.692L103.495 180.692L103.495 171.965L104.501 171.965L104.501 175.169L104.586 175.169C104.74 174.831 104.97 174.563 105.277 174.364C105.586 174.162 105.998 174.061 106.512 174.061C106.958 174.061 107.349 174.151 107.684 174.33C108.019 174.506 108.279 174.777 108.464 175.144C108.652 175.507 108.745 175.97 108.745 176.533L108.745 180.692L107.74 180.692L107.74 176.601C107.74 176.081 107.605 175.679 107.335 175.395C107.068 175.108 106.697 174.965 106.223 174.965C105.893 174.965 105.598 175.034 105.336 175.173C105.078 175.313 104.873 175.516 104.723 175.783C104.575 176.05 104.501 176.374 104.501 176.754ZM112.631 180.845C112.217 180.845 111.84 180.767 111.502 180.611C111.164 180.452 110.895 180.223 110.697 179.925C110.498 179.624 110.398 179.26 110.398 178.834C110.398 178.459 110.472 178.155 110.62 177.922C110.768 177.686 110.965 177.502 111.212 177.368C111.459 177.235 111.732 177.135 112.03 177.07C112.332 177.002 112.634 176.948 112.938 176.908C113.336 176.857 113.658 176.818 113.905 176.793C114.155 176.764 114.337 176.717 114.451 176.652C114.567 176.587 114.626 176.473 114.626 176.311L114.626 176.277C114.626 175.857 114.511 175.53 114.28 175.297C114.053 175.064 113.708 174.948 113.245 174.948C112.765 174.948 112.388 175.053 112.116 175.263C111.843 175.473 111.651 175.698 111.54 175.936L110.586 175.595C110.756 175.198 110.984 174.888 111.268 174.666C111.555 174.442 111.867 174.286 112.205 174.198C112.546 174.107 112.881 174.061 113.211 174.061C113.421 174.061 113.663 174.087 113.935 174.138C114.211 174.186 114.476 174.287 114.732 174.44C114.991 174.594 115.205 174.825 115.376 175.135C115.546 175.445 115.631 175.86 115.631 176.379L115.631 180.692L114.626 180.692L114.626 179.806L114.574 179.806C114.506 179.948 114.393 180.1 114.234 180.261C114.074 180.423 113.863 180.561 113.599 180.675C113.334 180.788 113.012 180.845 112.631 180.845ZM112.785 179.942C113.182 179.942 113.518 179.864 113.79 179.708C114.066 179.551 114.273 179.35 114.413 179.102C114.555 178.855 114.626 178.595 114.626 178.323L114.626 177.402C114.583 177.453 114.489 177.5 114.344 177.543C114.202 177.583 114.038 177.618 113.85 177.649C113.665 177.678 113.485 177.703 113.309 177.726C113.136 177.746 112.995 177.763 112.887 177.777C112.626 177.811 112.381 177.867 112.154 177.943C111.93 178.017 111.748 178.129 111.609 178.28C111.472 178.428 111.404 178.629 111.404 178.885C111.404 179.235 111.533 179.499 111.792 179.678C112.053 179.854 112.384 179.942 112.785 179.942ZM121.218 180.692L121.218 171.965L124.167 171.965C124.852 171.965 125.411 172.088 125.846 172.335C126.284 172.58 126.607 172.911 126.818 173.328C127.028 173.746 127.133 174.212 127.133 174.726C127.133 175.24 127.028 175.708 126.818 176.128C126.61 176.548 126.289 176.884 125.855 177.134C125.42 177.381 124.863 177.504 124.184 177.504L122.07 177.504L122.07 176.567L124.15 176.567C124.619 176.567 124.995 176.486 125.279 176.324C125.563 176.162 125.769 175.943 125.897 175.668C126.028 175.389 126.093 175.075 126.093 174.726C126.093 174.377 126.028 174.064 125.897 173.788C125.769 173.513 125.562 173.297 125.275 173.141C124.988 172.982 124.607 172.902 124.133 172.902L122.275 172.902L122.275 180.692L121.218 180.692ZM130.745 180.845C130.33 180.845 129.954 180.767 129.616 180.611C129.278 180.452 129.009 180.223 128.811 179.925C128.612 179.624 128.512 179.26 128.512 178.834C128.512 178.459 128.586 178.155 128.734 177.922C128.882 177.686 129.079 177.502 129.326 177.368C129.573 177.235 129.846 177.135 130.144 177.07C130.445 177.002 130.748 176.948 131.052 176.908C131.45 176.857 131.772 176.818 132.019 176.793C132.269 176.764 132.451 176.717 132.565 176.652C132.681 176.587 132.739 176.473 132.739 176.311L132.739 176.277C132.739 175.857 132.624 175.53 132.394 175.297C132.167 175.064 131.822 174.948 131.359 174.948C130.879 174.948 130.502 175.053 130.23 175.263C129.957 175.473 129.765 175.698 129.654 175.936L128.7 175.595C128.87 175.198 129.097 174.888 129.382 174.666C129.668 174.442 129.981 174.286 130.319 174.198C130.66 174.107 130.995 174.061 131.325 174.061C131.535 174.061 131.776 174.087 132.049 174.138C132.325 174.186 132.59 174.287 132.846 174.44C133.105 174.594 133.319 174.825 133.489 175.135C133.66 175.445 133.745 175.86 133.745 176.379L133.745 180.692L132.739 180.692L132.739 179.806L132.688 179.806C132.62 179.948 132.507 180.1 132.347 180.261C132.188 180.423 131.977 180.561 131.713 180.675C131.448 180.788 131.126 180.845 130.745 180.845ZM130.899 179.942C131.296 179.942 131.632 179.864 131.904 179.708C132.18 179.551 132.387 179.35 132.526 179.102C132.668 178.855 132.739 178.595 132.739 178.323L132.739 177.402C132.697 177.453 132.603 177.5 132.458 177.543C132.316 177.583 132.151 177.618 131.964 177.649C131.779 177.678 131.599 177.703 131.423 177.726C131.249 177.746 131.109 177.763 131.001 177.777C130.739 177.811 130.495 177.867 130.268 177.943C130.043 178.017 129.862 178.129 129.722 178.28C129.586 178.428 129.518 178.629 129.518 178.885C129.518 179.235 129.647 179.499 129.906 179.678C130.167 179.854 130.498 179.942 130.899 179.942ZM136.706 176.754L136.706 180.692L135.701 180.692L135.701 174.146L136.672 174.146L136.672 175.169L136.758 175.169C136.911 174.837 137.144 174.57 137.456 174.368C137.769 174.163 138.172 174.061 138.667 174.061C139.11 174.061 139.498 174.152 139.83 174.334C140.162 174.513 140.421 174.786 140.606 175.152C140.79 175.516 140.883 175.976 140.883 176.533L140.883 180.692L139.877 180.692L139.877 176.601C139.877 176.087 139.743 175.686 139.476 175.399C139.209 175.11 138.843 174.965 138.377 174.965C138.056 174.965 137.769 175.034 137.516 175.173C137.266 175.313 137.069 175.516 136.924 175.783C136.779 176.05 136.706 176.374 136.706 176.754ZM145.312 180.828C144.766 180.828 144.285 180.69 143.867 180.415C143.45 180.136 143.123 179.744 142.887 179.239C142.651 178.73 142.533 178.129 142.533 177.436C142.533 176.749 142.651 176.152 142.887 175.646C143.123 175.141 143.451 174.75 143.872 174.475C144.292 174.199 144.778 174.061 145.329 174.061C145.755 174.061 146.092 174.132 146.339 174.274C146.589 174.413 146.779 174.573 146.91 174.752C147.043 174.928 147.147 175.073 147.221 175.186L147.306 175.186L147.306 171.965L148.312 171.965L148.312 180.692L147.34 180.692L147.34 179.686L147.221 179.686C147.147 179.806 147.042 179.956 146.906 180.138C146.769 180.317 146.575 180.477 146.322 180.619C146.069 180.759 145.732 180.828 145.312 180.828ZM145.448 179.925C145.852 179.925 146.193 179.82 146.471 179.61C146.749 179.396 146.961 179.102 147.106 178.727C147.251 178.35 147.323 177.913 147.323 177.419C147.323 176.931 147.252 176.503 147.11 176.136C146.968 175.767 146.758 175.48 146.48 175.276C146.201 175.068 145.857 174.965 145.448 174.965C145.022 174.965 144.667 175.074 144.383 175.293C144.102 175.509 143.89 175.803 143.748 176.175C143.609 176.544 143.539 176.959 143.539 177.419C143.539 177.885 143.61 178.308 143.752 178.689C143.897 179.067 144.11 179.368 144.391 179.592C144.676 179.814 145.028 179.925 145.448 179.925ZM153.158 180.828C152.527 180.828 151.983 180.689 151.526 180.411C151.071 180.129 150.72 179.737 150.473 179.235C150.229 178.729 150.107 178.141 150.107 177.47C150.107 176.8 150.229 176.209 150.473 175.698C150.72 175.183 151.064 174.783 151.504 174.496C151.948 174.206 152.465 174.061 153.055 174.061C153.396 174.061 153.733 174.118 154.065 174.232C154.398 174.345 154.7 174.53 154.973 174.786C155.246 175.038 155.463 175.374 155.625 175.791C155.787 176.209 155.868 176.723 155.868 177.334L155.868 177.76L150.823 177.76L150.823 176.891L154.845 176.891C154.845 176.521 154.771 176.192 154.624 175.902C154.479 175.612 154.271 175.384 154.001 175.216C153.734 175.048 153.419 174.965 153.055 174.965C152.655 174.965 152.308 175.064 152.016 175.263C151.726 175.459 151.503 175.715 151.347 176.03C151.19 176.345 151.112 176.683 151.112 177.044L151.112 177.624C151.112 178.118 151.198 178.537 151.368 178.881C151.541 179.222 151.781 179.482 152.088 179.661C152.395 179.837 152.751 179.925 153.158 179.925C153.422 179.925 153.661 179.888 153.874 179.814C154.09 179.737 154.276 179.624 154.432 179.473C154.588 179.32 154.709 179.129 154.794 178.902L155.766 179.175C155.663 179.504 155.492 179.794 155.25 180.044C155.009 180.291 154.71 180.485 154.355 180.624C154 180.76 153.601 180.828 153.158 180.828ZM160.364 174.146L160.364 174.999L156.972 174.999L156.972 174.146L160.364 174.146ZM157.961 172.578L158.967 172.578L158.967 178.817C158.967 179.101 159.008 179.314 159.09 179.456C159.175 179.595 159.283 179.689 159.414 179.737C159.548 179.783 159.688 179.806 159.836 179.806C159.947 179.806 160.038 179.8 160.109 179.788C160.18 179.774 160.237 179.763 160.279 179.754L160.484 180.658C160.416 180.683 160.32 180.709 160.198 180.735C160.076 180.763 159.921 180.777 159.734 180.777C159.45 180.777 159.171 180.716 158.898 180.594C158.629 180.472 158.404 180.286 158.225 180.036C158.049 179.786 157.961 179.47 157.961 179.09L157.961 172.578ZM108.252 196.845C107.837 196.845 107.46 196.767 107.122 196.611C106.784 196.452 106.516 196.223 106.317 195.925C106.118 195.624 106.019 195.26 106.019 194.834C106.019 194.459 106.092 194.155 106.24 193.922C106.388 193.686 106.585 193.502 106.833 193.368C107.08 193.235 107.352 193.135 107.651 193.07C107.952 193.002 108.254 192.948 108.558 192.908C108.956 192.857 109.279 192.818 109.526 192.793C109.776 192.764 109.958 192.717 110.071 192.652C110.188 192.587 110.246 192.473 110.246 192.311L110.246 192.277C110.246 191.857 110.131 191.53 109.901 191.297C109.673 191.064 109.328 190.948 108.865 190.948C108.385 190.948 108.009 191.053 107.736 191.263C107.463 191.473 107.271 191.698 107.161 191.936L106.206 191.595C106.377 191.198 106.604 190.888 106.888 190.666C107.175 190.442 107.487 190.286 107.825 190.198C108.166 190.107 108.502 190.061 108.831 190.061C109.041 190.061 109.283 190.087 109.556 190.138C109.831 190.186 110.097 190.287 110.352 190.44C110.611 190.594 110.825 190.825 110.996 191.135C111.166 191.445 111.252 191.86 111.252 192.379L111.252 196.692L110.246 196.692L110.246 195.806L110.195 195.806C110.127 195.948 110.013 196.1 109.854 196.261C109.695 196.423 109.483 196.561 109.219 196.675C108.955 196.788 108.632 196.845 108.252 196.845ZM108.405 195.942C108.803 195.942 109.138 195.864 109.411 195.708C109.686 195.551 109.894 195.35 110.033 195.102C110.175 194.855 110.246 194.595 110.246 194.323L110.246 193.402C110.203 193.453 110.11 193.5 109.965 193.543C109.823 193.583 109.658 193.618 109.47 193.649C109.286 193.678 109.105 193.703 108.929 193.726C108.756 193.746 108.615 193.763 108.507 193.777C108.246 193.811 108.002 193.867 107.774 193.943C107.55 194.017 107.368 194.129 107.229 194.28C107.093 194.428 107.024 194.629 107.024 194.885C107.024 195.235 107.154 195.499 107.412 195.678C107.673 195.854 108.004 195.942 108.405 195.942ZM114.213 192.754L114.213 196.692L113.207 196.692L113.207 190.146L114.179 190.146L114.179 191.169L114.264 191.169C114.417 190.837 114.65 190.57 114.963 190.368C115.275 190.163 115.679 190.061 116.173 190.061C116.616 190.061 117.004 190.152 117.336 190.334C117.669 190.513 117.927 190.786 118.112 191.152C118.297 191.516 118.389 191.976 118.389 192.533L118.389 196.692L117.383 196.692L117.383 192.601C117.383 192.087 117.25 191.686 116.983 191.399C116.716 191.11 116.349 190.965 115.883 190.965C115.562 190.965 115.275 191.034 115.023 191.173C114.773 191.313 114.575 191.516 114.43 191.783C114.285 192.05 114.213 192.374 114.213 192.754ZM122.818 196.828C122.273 196.828 121.791 196.69 121.374 196.415C120.956 196.136 120.629 195.744 120.394 195.239C120.158 194.73 120.04 194.129 120.04 193.436C120.04 192.749 120.158 192.152 120.394 191.646C120.629 191.141 120.957 190.75 121.378 190.475C121.798 190.199 122.284 190.061 122.835 190.061C123.261 190.061 123.598 190.132 123.845 190.274C124.095 190.413 124.286 190.573 124.416 190.752C124.55 190.928 124.654 191.073 124.727 191.186L124.813 191.186L124.813 187.965L125.818 187.965L125.818 196.692L124.847 196.692L124.847 195.686L124.727 195.686C124.654 195.806 124.548 195.956 124.412 196.138C124.276 196.317 124.081 196.477 123.828 196.619C123.575 196.759 123.239 196.828 122.818 196.828ZM122.955 195.925C123.358 195.925 123.699 195.82 123.977 195.61C124.256 195.396 124.467 195.102 124.612 194.727C124.757 194.35 124.83 193.913 124.83 193.419C124.83 192.931 124.759 192.503 124.617 192.136C124.475 191.767 124.264 191.48 123.986 191.276C123.707 191.068 123.364 190.965 122.955 190.965C122.529 190.965 122.173 191.074 121.889 191.293C121.608 191.509 121.396 191.803 121.254 192.175C121.115 192.544 121.046 192.959 121.046 193.419C121.046 193.885 121.117 194.308 121.259 194.689C121.404 195.067 121.617 195.368 121.898 195.592C122.182 195.814 122.534 195.925 122.955 195.925ZM134.261 190.146L134.261 190.999L130.869 190.999L130.869 190.146L134.261 190.146ZM131.858 188.578L132.864 188.578L132.864 194.817C132.864 195.101 132.905 195.314 132.987 195.456C133.073 195.595 133.18 195.689 133.311 195.737C133.445 195.783 133.585 195.806 133.733 195.806C133.844 195.806 133.935 195.8 134.006 195.788C134.077 195.774 134.134 195.763 134.176 195.754L134.381 196.658C134.313 196.683 134.217 196.709 134.095 196.735C133.973 196.763 133.818 196.777 133.631 196.777C133.347 196.777 133.068 196.716 132.796 196.594C132.526 196.472 132.301 196.286 132.122 196.036C131.946 195.786 131.858 195.47 131.858 195.09L131.858 188.578ZM138.568 196.828C137.938 196.828 137.393 196.689 136.936 196.411C136.482 196.129 136.131 195.737 135.884 195.235C135.639 194.729 135.517 194.141 135.517 193.47C135.517 192.8 135.639 192.209 135.884 191.698C136.131 191.183 136.474 190.783 136.915 190.496C137.358 190.206 137.875 190.061 138.466 190.061C138.807 190.061 139.143 190.118 139.476 190.232C139.808 190.345 140.111 190.53 140.384 190.786C140.656 191.038 140.874 191.374 141.036 191.791C141.197 192.209 141.278 192.723 141.278 193.334L141.278 193.76L136.233 193.76L136.233 192.891L140.256 192.891C140.256 192.521 140.182 192.192 140.034 191.902C139.889 191.612 139.682 191.384 139.412 191.216C139.145 191.048 138.83 190.965 138.466 190.965C138.065 190.965 137.719 191.064 137.426 191.263C137.136 191.459 136.913 191.715 136.757 192.03C136.601 192.345 136.523 192.683 136.523 193.044L136.523 193.624C136.523 194.118 136.608 194.537 136.778 194.881C136.952 195.222 137.192 195.482 137.499 195.661C137.805 195.837 138.162 195.925 138.568 195.925C138.832 195.925 139.071 195.888 139.284 195.814C139.5 195.737 139.686 195.624 139.842 195.473C139.999 195.32 140.119 195.129 140.205 194.902L141.176 195.175C141.074 195.504 140.902 195.794 140.661 196.044C140.419 196.291 140.121 196.485 139.766 196.624C139.411 196.76 139.011 196.828 138.568 196.828ZM144.854 196.845C144.44 196.845 144.063 196.767 143.725 196.611C143.387 196.452 143.119 196.223 142.92 195.925C142.721 195.624 142.621 195.26 142.621 194.834C142.621 194.459 142.695 194.155 142.843 193.922C142.991 193.686 143.188 193.502 143.435 193.368C143.683 193.235 143.955 193.135 144.254 193.07C144.555 193.002 144.857 192.948 145.161 192.908C145.559 192.857 145.881 192.818 146.129 192.793C146.379 192.764 146.56 192.717 146.674 192.652C146.79 192.587 146.849 192.473 146.849 192.311L146.849 192.277C146.849 191.857 146.734 191.53 146.504 191.297C146.276 191.064 145.931 190.948 145.468 190.948C144.988 190.948 144.612 191.053 144.339 191.263C144.066 191.473 143.874 191.698 143.763 191.936L142.809 191.595C142.979 191.198 143.207 190.888 143.491 190.666C143.778 190.442 144.09 190.286 144.428 190.198C144.769 190.107 145.104 190.061 145.434 190.061C145.644 190.061 145.886 190.087 146.158 190.138C146.434 190.186 146.7 190.287 146.955 190.44C147.214 190.594 147.428 190.825 147.599 191.135C147.769 191.445 147.854 191.86 147.854 192.379L147.854 196.692L146.849 196.692L146.849 195.806L146.798 195.806C146.729 195.948 146.616 196.1 146.457 196.261C146.298 196.423 146.086 196.561 145.822 196.675C145.558 196.788 145.235 196.845 144.854 196.845ZM145.008 195.942C145.406 195.942 145.741 195.864 146.013 195.708C146.289 195.551 146.496 195.35 146.636 195.102C146.778 194.855 146.849 194.595 146.849 194.323L146.849 193.402C146.806 193.453 146.712 193.5 146.567 193.543C146.425 193.583 146.261 193.618 146.073 193.649C145.888 193.678 145.708 193.703 145.532 193.726C145.359 193.746 145.218 193.763 145.11 193.777C144.849 193.811 144.604 193.867 144.377 193.943C144.153 194.017 143.971 194.129 143.832 194.28C143.695 194.428 143.627 194.629 143.627 194.885C143.627 195.235 143.756 195.499 144.015 195.678C144.276 195.854 144.607 195.942 145.008 195.942ZM149.81 196.692L149.81 190.146L150.782 190.146L150.782 191.169L150.867 191.169C151.003 190.82 151.223 190.548 151.527 190.355C151.831 190.159 152.196 190.061 152.622 190.061C153.054 190.061 153.414 190.159 153.701 190.355C153.99 190.548 154.216 190.82 154.378 191.169L154.446 191.169C154.614 190.831 154.865 190.563 155.201 190.364C155.536 190.162 155.938 190.061 156.407 190.061C156.992 190.061 157.471 190.244 157.843 190.611C158.215 190.975 158.401 191.541 158.401 192.311L158.401 196.692L157.395 196.692L157.395 192.311C157.395 191.828 157.263 191.483 156.999 191.276C156.735 191.068 156.424 190.965 156.066 190.965C155.605 190.965 155.249 191.104 154.996 191.382C154.743 191.658 154.617 192.007 154.617 192.431L154.617 196.692L153.594 196.692L153.594 192.209C153.594 191.837 153.473 191.537 153.232 191.31C152.99 191.08 152.679 190.965 152.299 190.965C152.037 190.965 151.793 191.034 151.566 191.173C151.341 191.313 151.159 191.506 151.02 191.753C150.884 191.997 150.816 192.28 150.816 192.601L150.816 196.692L149.81 196.692Z" fill="white"/>
<path d="M39 183.476L48.4595 183.476L48.4595 184.431L39 184.431L39 183.476ZM51.6811 183.476L56.1784 183.476L56.1784 184.431L51.6811 184.431L51.6811 183.476ZM56.1784 183.078L59.6031 183.078L59.6031 183.896L56.1784 183.896L56.1784 183.078Z" fill="white"/>
<path d="M66.2051 224.938C65.8613 224.938 65.5474 224.854 65.2633 224.686C64.9792 224.516 64.752 224.289 64.5815 224.005C64.4139 223.72 64.3301 223.407 64.3301 223.063C64.3301 222.716 64.4139 222.402 64.5815 222.121C64.752 221.837 64.9792 221.611 65.2633 221.443C65.5474 221.273 65.8613 221.188 66.2051 221.188C66.5517 221.188 66.8656 221.273 67.1468 221.443C67.4309 221.611 67.6568 221.837 67.8244 222.121C67.9949 222.402 68.0801 222.716 68.0801 223.063C68.0801 223.407 67.9949 223.72 67.8244 224.005C67.6568 224.289 67.4309 224.516 67.1468 224.686C66.8656 224.854 66.5517 224.938 66.2051 224.938ZM76.2619 226.54V217.813H81.4949V218.75H77.3187V221.699H81.1028V222.637H77.3187V226.54H76.2619ZM84.2942 217.813V226.54H83.2885V217.813H84.2942ZM90.3812 223.864V219.995H91.3868V226.54H90.3812V225.432H90.313C90.1596 225.764 89.9209 226.047 89.5971 226.28C89.2732 226.51 88.8641 226.625 88.3698 226.625C87.9607 226.625 87.5971 226.536 87.2789 226.357C86.9607 226.175 86.7107 225.902 86.5289 225.539C86.3471 225.172 86.2562 224.71 86.2562 224.154V219.995H87.2618V224.085C87.2618 224.563 87.3954 224.943 87.6624 225.228C87.9323 225.512 88.276 225.654 88.6937 225.654C88.9437 225.654 89.1979 225.59 89.4564 225.462C89.7178 225.334 89.9366 225.138 90.1127 224.874C90.2917 224.61 90.3812 224.273 90.3812 223.864ZM96.1954 219.995V220.847H92.8034V219.995H96.1954ZM93.792 218.426H94.7977V224.665C94.7977 224.949 94.8389 225.162 94.9213 225.304C95.0065 225.443 95.1144 225.537 95.2451 225.585C95.3786 225.631 95.5193 225.654 95.667 225.654C95.7778 225.654 95.8687 225.648 95.9397 225.637C96.0107 225.622 96.0676 225.611 96.1102 225.603L96.3147 226.506C96.2465 226.532 96.1514 226.557 96.0292 226.583C95.9071 226.611 95.7522 226.625 95.5647 226.625C95.2806 226.625 95.0022 226.564 94.7295 226.442C94.4596 226.32 94.2352 226.134 94.0562 225.884C93.8801 225.634 93.792 225.318 93.792 224.938V218.426ZM100.675 219.995V220.847H97.2827V219.995H100.675ZM98.2714 218.426H99.2771V224.665C99.2771 224.949 99.3182 225.162 99.4006 225.304C99.4859 225.443 99.5938 225.537 99.7245 225.585C99.858 225.631 99.9986 225.654 100.146 225.654C100.257 225.654 100.348 225.648 100.419 225.637C100.49 225.622 100.547 225.611 100.59 225.603L100.794 226.506C100.726 226.532 100.631 226.557 100.509 226.583C100.386 226.611 100.232 226.625 100.044 226.625C99.76 226.625 99.4816 226.564 99.2089 226.442C98.939 226.32 98.7146 226.134 98.5356 225.884C98.3594 225.634 98.2714 225.318 98.2714 224.938V218.426ZM104.982 226.676C104.351 226.676 103.807 226.537 103.349 226.259C102.895 225.978 102.544 225.585 102.297 225.083C102.053 224.577 101.93 223.989 101.93 223.318C101.93 222.648 102.053 222.057 102.297 221.546C102.544 221.032 102.888 220.631 103.328 220.344C103.771 220.054 104.288 219.909 104.879 219.909C105.22 219.909 105.557 219.966 105.889 220.08C106.222 220.193 106.524 220.378 106.797 220.634C107.07 220.887 107.287 221.222 107.449 221.639C107.611 222.057 107.692 222.571 107.692 223.182V223.608H102.646V222.739H106.669C106.669 222.37 106.595 222.04 106.447 221.75C106.303 221.46 106.095 221.232 105.825 221.064C105.558 220.897 105.243 220.813 104.879 220.813C104.479 220.813 104.132 220.912 103.84 221.111C103.55 221.307 103.327 221.563 103.17 221.878C103.014 222.193 102.936 222.532 102.936 222.892V223.472C102.936 223.966 103.021 224.385 103.192 224.729C103.365 225.07 103.605 225.33 103.912 225.509C104.219 225.685 104.575 225.773 104.982 225.773C105.246 225.773 105.484 225.736 105.697 225.662C105.913 225.585 106.099 225.472 106.256 225.321C106.412 225.168 106.533 224.978 106.618 224.75L107.59 225.023C107.487 225.353 107.315 225.642 107.074 225.892C106.832 226.139 106.534 226.333 106.179 226.472C105.824 226.608 105.425 226.676 104.982 226.676ZM109.342 226.54V219.995H110.313V220.983H110.381C110.501 220.659 110.717 220.397 111.029 220.195C111.342 219.993 111.694 219.892 112.086 219.892C112.16 219.892 112.252 219.894 112.363 219.897C112.474 219.899 112.558 219.904 112.614 219.909V220.932C112.58 220.924 112.502 220.911 112.38 220.894C112.261 220.874 112.134 220.864 112.001 220.864C111.683 220.864 111.398 220.931 111.148 221.064C110.901 221.195 110.705 221.377 110.56 221.61C110.418 221.84 110.347 222.103 110.347 222.398V226.54H109.342ZM66.2051 238.938C65.8613 238.938 65.5474 238.854 65.2633 238.686C64.9792 238.516 64.752 238.289 64.5815 238.005C64.4139 237.72 64.3301 237.407 64.3301 237.063C64.3301 236.716 64.4139 236.402 64.5815 236.121C64.752 235.837 64.9792 235.611 65.2633 235.443C65.5474 235.273 65.8613 235.188 66.2051 235.188C66.5517 235.188 66.8656 235.273 67.1468 235.443C67.4309 235.611 67.6568 235.837 67.8244 236.121C67.9949 236.402 68.0801 236.716 68.0801 237.063C68.0801 237.407 67.9949 237.72 67.8244 238.005C67.6568 238.289 67.4309 238.516 67.1468 238.686C66.8656 238.854 66.5517 238.938 66.2051 238.938ZM78.9551 240.54H76.2619V231.813H79.0744C79.921 231.813 80.6454 231.987 81.2477 232.337C81.85 232.684 82.3116 233.182 82.6326 233.833C82.9537 234.48 83.1142 235.256 83.1142 236.159C83.1142 237.068 82.9522 237.851 82.6284 238.507C82.3045 239.161 81.8329 239.664 81.2136 240.016C80.5943 240.365 79.8414 240.54 78.9551 240.54ZM77.3187 239.603H78.8869C79.6085 239.603 80.2065 239.463 80.6809 239.185C81.1554 238.907 81.5091 238.51 81.742 237.996C81.975 237.482 82.0914 236.87 82.0914 236.159C82.0914 235.455 81.9764 234.848 81.7463 234.34C81.5162 233.828 81.1724 233.436 80.715 233.164C80.2576 232.888 79.688 232.75 79.0062 232.75H77.3187V239.603ZM86.7967 240.693C86.3819 240.693 86.0055 240.615 85.6674 240.459C85.3293 240.3 85.0609 240.071 84.862 239.773C84.6631 239.472 84.5637 239.108 84.5637 238.682C84.5637 238.307 84.6376 238.003 84.7853 237.77C84.933 237.534 85.1305 237.35 85.3776 237.216C85.6248 237.083 85.8975 236.983 86.1958 236.918C86.497 236.85 86.7995 236.796 87.1035 236.756C87.5012 236.705 87.8237 236.666 88.0708 236.641C88.3208 236.612 88.5026 236.566 88.6163 236.5C88.7327 236.435 88.791 236.321 88.791 236.159V236.125C88.791 235.705 88.6759 235.378 88.4458 235.145C88.2185 234.912 87.8734 234.796 87.4103 234.796C86.9302 234.796 86.5538 234.901 86.281 235.111C86.0083 235.321 85.8166 235.546 85.7058 235.784L84.7512 235.443C84.9217 235.046 85.1489 234.736 85.433 234.514C85.72 234.29 86.0325 234.134 86.3705 234.046C86.7114 233.955 87.0467 233.909 87.3762 233.909C87.5864 233.909 87.8279 233.935 88.1006 233.986C88.3762 234.034 88.6418 234.135 88.8975 234.289C89.156 234.442 89.3705 234.674 89.541 234.983C89.7114 235.293 89.7967 235.708 89.7967 236.228V240.54H88.791V239.654H88.7399C88.6717 239.796 88.558 239.948 88.3989 240.11C88.2399 240.272 88.0282 240.409 87.764 240.523C87.4998 240.637 87.1774 240.693 86.7967 240.693ZM86.9501 239.79C87.3478 239.79 87.683 239.712 87.9558 239.556C88.2313 239.399 88.4387 239.198 88.5779 238.951C88.72 238.703 88.791 238.443 88.791 238.171V237.25C88.7484 237.301 88.6546 237.348 88.5097 237.391C88.3677 237.431 88.2029 237.466 88.0154 237.497C87.8308 237.526 87.6504 237.551 87.4742 237.574C87.3009 237.594 87.1603 237.611 87.0524 237.625C86.791 237.659 86.5467 237.715 86.3194 237.791C86.095 237.865 85.9131 237.978 85.7739 238.128C85.6376 238.276 85.5694 238.478 85.5694 238.733C85.5694 239.083 85.6987 239.347 85.9572 239.526C86.2185 239.702 86.5495 239.79 86.9501 239.79ZM91.7523 240.54V233.995H92.7238V234.983H92.792C92.9113 234.659 93.1273 234.397 93.4398 234.195C93.7523 233.993 94.1045 233.892 94.4966 233.892C94.5704 233.892 94.6628 233.894 94.7736 233.897C94.8844 233.899 94.9682 233.904 95.025 233.909V234.932C94.9909 234.924 94.9128 234.911 94.7906 234.894C94.6713 234.874 94.5449 234.864 94.4113 234.864C94.0932 234.864 93.8091 234.931 93.5591 235.064C93.3119 235.195 93.1159 235.377 92.971 235.61C92.829 235.84 92.7579 236.103 92.7579 236.398V240.54H91.7523ZM99.5938 233.995V234.847H96.2018V233.995H99.5938ZM97.1904 232.426H98.1961V238.665C98.1961 238.949 98.2373 239.162 98.3197 239.304C98.4049 239.443 98.5129 239.537 98.6436 239.585C98.7771 239.631 98.9177 239.654 99.0654 239.654C99.1762 239.654 99.2671 239.648 99.3382 239.637C99.4092 239.622 99.466 239.611 99.5086 239.603L99.7132 240.506C99.645 240.532 99.5498 240.557 99.4276 240.583C99.3055 240.611 99.1507 240.625 98.9632 240.625C98.6791 240.625 98.4007 240.564 98.1279 240.442C97.858 240.32 97.6336 240.134 97.4546 239.884C97.2785 239.634 97.1904 239.318 97.1904 238.938V232.426ZM66.2051 252.938C65.8613 252.938 65.5474 252.854 65.2633 252.686C64.9792 252.516 64.752 252.289 64.5815 252.005C64.4139 251.72 64.3301 251.407 64.3301 251.063C64.3301 250.716 64.4139 250.402 64.5815 250.121C64.752 249.837 64.9792 249.611 65.2633 249.443C65.5474 249.273 65.8613 249.188 66.2051 249.188C66.5517 249.188 66.8656 249.273 67.1468 249.443C67.4309 249.611 67.6568 249.837 67.8244 250.121C67.9949 250.402 68.0801 250.716 68.0801 251.063C68.0801 251.407 67.9949 251.72 67.8244 252.005C67.6568 252.289 67.4309 252.516 67.1468 252.686C66.8656 252.854 66.5517 252.938 66.2051 252.938ZM76.2619 254.54V245.813H81.4949V246.75H77.3187V249.699H81.1028V250.637H77.3187V254.54H76.2619ZM83.2885 254.54V247.995H84.2942V254.54H83.2885ZM83.7999 246.904C83.6038 246.904 83.4348 246.837 83.2928 246.703C83.1536 246.57 83.084 246.409 83.084 246.222C83.084 246.034 83.1536 245.874 83.2928 245.74C83.4348 245.607 83.6038 245.54 83.7999 245.54C83.9959 245.54 84.1635 245.607 84.3027 245.74C84.4448 245.874 84.5158 246.034 84.5158 246.222C84.5158 246.409 84.4448 246.57 84.3027 246.703C84.1635 246.837 83.9959 246.904 83.7999 246.904ZM86.2562 254.54V247.995H87.2277V248.983H87.2959C87.4152 248.659 87.6312 248.397 87.9437 248.195C88.2562 247.993 88.6084 247.892 89.0005 247.892C89.0743 247.892 89.1667 247.894 89.2775 247.897C89.3883 247.899 89.4721 247.904 89.5289 247.909V248.932C89.4948 248.924 89.4167 248.911 89.2945 248.894C89.1752 248.874 89.0488 248.864 88.9152 248.864C88.5971 248.864 88.313 248.931 88.063 249.064C87.8158 249.195 87.6198 249.377 87.4749 249.61C87.3329 249.84 87.2618 250.103 87.2618 250.398V254.54H86.2562ZM93.3861 254.676C92.7554 254.676 92.2114 254.537 91.754 254.259C91.2995 253.978 90.9486 253.585 90.7014 253.083C90.4571 252.577 90.335 251.989 90.335 251.318C90.335 250.648 90.4571 250.057 90.7014 249.546C90.9486 249.032 91.2924 248.631 91.7327 248.344C92.1759 248.054 92.6929 247.909 93.2838 247.909C93.6247 247.909 93.9614 247.966 94.2938 248.08C94.6262 248.193 94.9287 248.378 95.2014 248.634C95.4742 248.887 95.6915 249.222 95.8534 249.639C96.0154 250.057 96.0963 250.571 96.0963 251.182V251.608H91.0509V250.739H95.0736C95.0736 250.37 94.9997 250.04 94.852 249.75C94.7071 249.46 94.4997 249.232 94.2299 249.064C93.9628 248.897 93.6475 248.813 93.2838 248.813C92.8833 248.813 92.5367 248.912 92.2441 249.111C91.9543 249.307 91.7313 249.563 91.575 249.878C91.4188 250.193 91.3406 250.532 91.3406 250.892V251.472C91.3406 251.966 91.4259 252.385 91.5963 252.729C91.7696 253.07 92.0097 253.33 92.3165 253.509C92.6233 253.685 92.9799 253.773 93.3861 253.773C93.6503 253.773 93.8889 253.736 94.102 253.662C94.3179 253.585 94.504 253.472 94.6602 253.321C94.8165 253.168 94.9372 252.978 95.0225 252.75L95.9941 253.023C95.8918 253.353 95.7199 253.642 95.4784 253.892C95.237 254.139 94.9387 254.333 94.5835 254.472C94.2284 254.608 93.8293 254.676 93.3861 254.676ZM97.8825 254.54V245.813H98.8882V249.034H98.9734C99.0473 248.921 99.1496 248.776 99.2802 248.6C99.4138 248.421 99.6041 248.262 99.8513 248.122C100.101 247.98 100.439 247.909 100.865 247.909C101.417 247.909 101.902 248.047 102.323 248.323C102.743 248.598 103.071 248.989 103.307 249.495C103.543 250 103.661 250.597 103.661 251.284C103.661 251.978 103.543 252.578 103.307 253.087C103.071 253.593 102.745 253.985 102.327 254.263C101.91 254.539 101.428 254.676 100.883 254.676C100.462 254.676 100.125 254.607 99.8726 254.468C99.6197 254.326 99.4251 254.165 99.2888 253.986C99.1524 253.804 99.0473 253.654 98.9734 253.534H98.8541V254.54H97.8825ZM98.8712 251.267C98.8712 251.762 98.9436 252.198 99.0885 252.576C99.2334 252.951 99.445 253.245 99.7234 253.458C100.002 253.668 100.343 253.773 100.746 253.773C101.167 253.773 101.517 253.662 101.799 253.441C102.083 253.216 102.296 252.915 102.438 252.537C102.583 252.157 102.655 251.733 102.655 251.267C102.655 250.807 102.584 250.392 102.442 250.023C102.303 249.651 102.091 249.357 101.807 249.141C101.526 248.922 101.172 248.813 100.746 248.813C100.337 248.813 99.9933 248.916 99.7149 249.124C99.4365 249.328 99.2263 249.615 99.0842 249.985C98.9422 250.351 98.8712 250.779 98.8712 251.267ZM107.245 254.693C106.831 254.693 106.454 254.615 106.116 254.459C105.778 254.3 105.51 254.071 105.311 253.773C105.112 253.472 105.012 253.108 105.012 252.682C105.012 252.307 105.086 252.003 105.234 251.77C105.382 251.534 105.579 251.35 105.826 251.216C106.074 251.083 106.346 250.983 106.645 250.918C106.946 250.85 107.248 250.796 107.552 250.756C107.95 250.705 108.272 250.666 108.52 250.641C108.77 250.612 108.951 250.566 109.065 250.5C109.181 250.435 109.24 250.321 109.24 250.159V250.125C109.24 249.705 109.125 249.378 108.895 249.145C108.667 248.912 108.322 248.796 107.859 248.796C107.379 248.796 107.003 248.901 106.73 249.111C106.457 249.321 106.265 249.546 106.155 249.784L105.2 249.443C105.37 249.046 105.598 248.736 105.882 248.514C106.169 248.29 106.481 248.134 106.819 248.046C107.16 247.955 107.495 247.909 107.825 247.909C108.035 247.909 108.277 247.935 108.549 247.986C108.825 248.034 109.091 248.135 109.346 248.289C109.605 248.442 109.819 248.674 109.99 248.983C110.16 249.293 110.245 249.708 110.245 250.228V254.54H109.24V253.654H109.189C109.12 253.796 109.007 253.948 108.848 254.11C108.689 254.272 108.477 254.409 108.213 254.523C107.949 254.637 107.626 254.693 107.245 254.693ZM107.399 253.79C107.797 253.79 108.132 253.712 108.405 253.556C108.68 253.399 108.887 253.198 109.027 252.951C109.169 252.703 109.24 252.443 109.24 252.171V251.25C109.197 251.301 109.103 251.348 108.958 251.391C108.816 251.431 108.652 251.466 108.464 251.497C108.28 251.526 108.099 251.551 107.923 251.574C107.75 251.594 107.609 251.611 107.501 251.625C107.24 251.659 106.995 251.715 106.768 251.791C106.544 251.865 106.362 251.978 106.223 252.128C106.086 252.276 106.018 252.478 106.018 252.733C106.018 253.083 106.147 253.347 106.406 253.526C106.667 253.702 106.998 253.79 107.399 253.79ZM116.837 249.46L115.934 249.716C115.877 249.566 115.793 249.419 115.683 249.277C115.575 249.132 115.427 249.013 115.239 248.919C115.052 248.826 114.812 248.779 114.519 248.779C114.119 248.779 113.785 248.871 113.518 249.056C113.254 249.237 113.121 249.469 113.121 249.75C113.121 250 113.212 250.198 113.394 250.343C113.576 250.487 113.86 250.608 114.246 250.705L115.218 250.943C115.803 251.085 116.239 251.303 116.526 251.595C116.813 251.885 116.957 252.259 116.957 252.716C116.957 253.091 116.849 253.426 116.633 253.722C116.42 254.017 116.121 254.25 115.738 254.421C115.354 254.591 114.908 254.676 114.4 254.676C113.732 254.676 113.18 254.532 112.742 254.242C112.305 253.952 112.028 253.529 111.911 252.972L112.866 252.733C112.957 253.085 113.129 253.35 113.381 253.526C113.637 253.702 113.971 253.79 114.383 253.79C114.852 253.79 115.224 253.691 115.499 253.492C115.778 253.29 115.917 253.049 115.917 252.767C115.917 252.54 115.837 252.35 115.678 252.196C115.519 252.04 115.275 251.924 114.945 251.847L113.854 251.591C113.255 251.449 112.815 251.229 112.533 250.931C112.255 250.63 112.116 250.253 112.116 249.801C112.116 249.432 112.219 249.105 112.427 248.821C112.637 248.537 112.923 248.314 113.283 248.152C113.647 247.99 114.059 247.909 114.519 247.909C115.167 247.909 115.675 248.051 116.045 248.335C116.417 248.62 116.681 248.995 116.837 249.46ZM121.335 254.676C120.704 254.676 120.16 254.537 119.703 254.259C119.248 253.978 118.897 253.585 118.65 253.083C118.406 252.577 118.284 251.989 118.284 251.318C118.284 250.648 118.406 250.057 118.65 249.546C118.897 249.032 119.241 248.631 119.681 248.344C120.125 248.054 120.642 247.909 121.233 247.909C121.573 247.909 121.91 247.966 122.243 248.08C122.575 248.193 122.877 248.378 123.15 248.634C123.423 248.887 123.64 249.222 123.802 249.639C123.964 250.057 124.045 250.571 124.045 251.182V251.608H119V250.739H123.022C123.022 250.37 122.948 250.04 122.801 249.75C122.656 249.46 122.448 249.232 122.179 249.064C121.912 248.897 121.596 248.813 121.233 248.813C120.832 248.813 120.485 248.912 120.193 249.111C119.903 249.307 119.68 249.563 119.524 249.878C119.368 250.193 119.289 250.532 119.289 250.892V251.472C119.289 251.966 119.375 252.385 119.545 252.729C119.718 253.07 119.958 253.33 120.265 253.509C120.572 253.685 120.929 253.773 121.335 253.773C121.599 253.773 121.838 253.736 122.051 253.662C122.267 253.585 122.453 253.472 122.609 253.321C122.765 253.168 122.886 252.978 122.971 252.75L123.943 253.023C123.841 253.353 123.669 253.642 123.427 253.892C123.186 254.139 122.887 254.333 122.532 254.472C122.177 254.608 121.778 254.676 121.335 254.676ZM66.2051 266.938C65.8613 266.938 65.5474 266.854 65.2633 266.686C64.9792 266.516 64.752 266.289 64.5815 266.005C64.4139 265.72 64.3301 265.407 64.3301 265.063C64.3301 264.716 64.4139 264.402 64.5815 264.121C64.752 263.837 64.9792 263.611 65.2633 263.443C65.5474 263.273 65.8613 263.188 66.2051 263.188C66.5517 263.188 66.8656 263.273 67.1468 263.443C67.4309 263.611 67.6568 263.837 67.8244 264.121C67.9949 264.402 68.0801 264.716 68.0801 265.063C68.0801 265.407 67.9949 265.72 67.8244 266.005C67.6568 266.289 67.4309 266.516 67.1468 266.686C66.8656 266.854 66.5517 266.938 66.2051 266.938ZM76.2619 259.813H77.5233L80.4892 267.057H80.5914L83.5574 259.813H84.8187V268.54H83.8301V261.909H83.7449L81.0176 268.54H80.063L77.3358 261.909H77.2505V268.54H76.2619V259.813ZM88.8475 268.693C88.4327 268.693 88.0563 268.615 87.7182 268.459C87.3801 268.3 87.1117 268.071 86.9128 267.773C86.7139 267.472 86.6145 267.108 86.6145 266.682C86.6145 266.307 86.6884 266.003 86.8361 265.77C86.9838 265.534 87.1813 265.35 87.4284 265.216C87.6756 265.083 87.9483 264.983 88.2466 264.918C88.5477 264.85 88.8503 264.796 89.1543 264.756C89.552 264.705 89.8744 264.666 90.1216 264.641C90.3716 264.612 90.5534 264.566 90.6671 264.5C90.7835 264.435 90.8418 264.321 90.8418 264.159V264.125C90.8418 263.705 90.7267 263.378 90.4966 263.145C90.2693 262.912 89.9242 262.796 89.4611 262.796C88.981 262.796 88.6046 262.901 88.3318 263.111C88.0591 263.321 87.8673 263.546 87.7565 263.784L86.802 263.443C86.9725 263.046 87.1997 262.736 87.4838 262.514C87.7707 262.29 88.0832 262.134 88.4213 262.046C88.7622 261.955 89.0975 261.909 89.427 261.909C89.6372 261.909 89.8787 261.935 90.1514 261.986C90.427 262.034 90.6926 262.135 90.9483 262.289C91.2068 262.442 91.4213 262.674 91.5918 262.983C91.7622 263.293 91.8475 263.708 91.8475 264.228V268.54H90.8418V267.654H90.7906C90.7225 267.796 90.6088 267.948 90.4497 268.11C90.2906 268.272 90.079 268.409 89.8148 268.523C89.5506 268.637 89.2281 268.693 88.8475 268.693ZM89.0009 267.79C89.3986 267.79 89.7338 267.712 90.0065 267.556C90.2821 267.399 90.4895 267.198 90.6287 266.951C90.7707 266.703 90.8418 266.443 90.8418 266.171V265.25C90.7992 265.301 90.7054 265.348 90.5605 265.391C90.4185 265.431 90.2537 265.466 90.0662 265.497C89.8815 265.526 89.7011 265.551 89.525 265.574C89.3517 265.594 89.2111 265.611 89.1031 265.625C88.8418 265.659 88.5975 265.715 88.3702 265.791C88.1457 265.865 87.9639 265.978 87.8247 266.128C87.6884 266.276 87.6202 266.478 87.6202 266.733C87.6202 267.083 87.7494 267.347 88.008 267.526C88.2693 267.702 88.6003 267.79 89.0009 267.79ZM96.4621 268.676C95.8485 268.676 95.3201 268.532 94.8769 268.242C94.4337 267.952 94.0928 267.553 93.8542 267.044C93.6155 266.536 93.4962 265.955 93.4962 265.301C93.4962 264.637 93.6184 264.05 93.8627 263.541C94.1099 263.03 94.4536 262.631 94.8939 262.344C95.3371 262.054 95.8542 261.909 96.4451 261.909C96.9053 261.909 97.3201 261.995 97.6894 262.165C98.0587 262.335 98.3613 262.574 98.5971 262.881C98.8329 263.188 98.9792 263.546 99.036 263.955H98.0303C97.9536 263.657 97.7831 263.392 97.5189 263.162C97.2576 262.929 96.9053 262.813 96.4621 262.813C96.0701 262.813 95.7263 262.915 95.4309 263.12C95.1383 263.321 94.9096 263.607 94.7448 263.976C94.5829 264.343 94.5019 264.773 94.5019 265.267C94.5019 265.773 94.5814 266.213 94.7405 266.588C94.9025 266.963 95.1297 267.255 95.4224 267.462C95.7178 267.669 96.0644 267.773 96.4621 267.773C96.7235 267.773 96.9607 267.728 97.1738 267.637C97.3868 267.546 97.5672 267.415 97.715 267.245C97.8627 267.074 97.9678 266.87 98.0303 266.631H99.036C98.9792 267.017 98.8385 267.365 98.6141 267.675C98.3925 267.982 98.0985 268.226 97.732 268.408C97.3684 268.587 96.9451 268.676 96.4621 268.676ZM101.632 264.603V268.54H100.626V259.813H101.632V263.017H101.717C101.87 262.679 102.101 262.411 102.407 262.212C102.717 262.01 103.129 261.909 103.643 261.909C104.089 261.909 104.48 261.999 104.815 262.178C105.15 262.354 105.41 262.625 105.595 262.992C105.782 263.355 105.876 263.818 105.876 264.381V268.54H104.87V264.449C104.87 263.929 104.736 263.527 104.466 263.243C104.199 262.956 103.828 262.813 103.353 262.813C103.024 262.813 102.728 262.882 102.467 263.022C102.209 263.161 102.004 263.364 101.853 263.631C101.706 263.898 101.632 264.222 101.632 264.603ZM107.836 268.54V261.995H108.842V268.54H107.836ZM108.347 260.904C108.151 260.904 107.982 260.837 107.84 260.703C107.701 260.57 107.631 260.409 107.631 260.222C107.631 260.034 107.701 259.874 107.84 259.74C107.982 259.607 108.151 259.54 108.347 259.54C108.543 259.54 108.711 259.607 108.85 259.74C108.992 259.874 109.063 260.034 109.063 260.222C109.063 260.409 108.992 260.57 108.85 260.703C108.711 260.837 108.543 260.904 108.347 260.904ZM111.809 264.603V268.54H110.804V261.995H111.775V263.017H111.86C112.014 262.685 112.247 262.418 112.559 262.216C112.872 262.012 113.275 261.909 113.77 261.909C114.213 261.909 114.601 262 114.933 262.182C115.265 262.361 115.524 262.634 115.708 263C115.893 263.364 115.985 263.824 115.985 264.381V268.54H114.98V264.449C114.98 263.935 114.846 263.534 114.579 263.247C114.312 262.958 113.946 262.813 113.48 262.813C113.159 262.813 112.872 262.882 112.619 263.022C112.369 263.161 112.172 263.364 112.027 263.631C111.882 263.898 111.809 264.222 111.809 264.603ZM120.688 268.676C120.057 268.676 119.513 268.537 119.055 268.259C118.601 267.978 118.25 267.585 118.003 267.083C117.759 266.577 117.636 265.989 117.636 265.318C117.636 264.648 117.759 264.057 118.003 263.546C118.25 263.032 118.594 262.631 119.034 262.344C119.477 262.054 119.994 261.909 120.585 261.909C120.926 261.909 121.263 261.966 121.595 262.08C121.928 262.193 122.23 262.378 122.503 262.634C122.776 262.887 122.993 263.222 123.155 263.639C123.317 264.057 123.398 264.571 123.398 265.182V265.608H118.352V264.739H122.375C122.375 264.37 122.301 264.04 122.153 263.75C122.009 263.46 121.801 263.232 121.531 263.064C121.264 262.897 120.949 262.813 120.585 262.813C120.185 262.813 119.838 262.912 119.545 263.111C119.256 263.307 119.033 263.563 118.876 263.878C118.72 264.193 118.642 264.532 118.642 264.892V265.472C118.642 265.966 118.727 266.385 118.898 266.729C119.071 267.07 119.311 267.33 119.618 267.509C119.925 267.685 120.281 267.773 120.688 267.773C120.952 267.773 121.19 267.736 121.403 267.662C121.619 267.585 121.805 267.472 121.962 267.321C122.118 267.168 122.239 266.978 122.324 266.75L123.295 267.023C123.193 267.353 123.021 267.642 122.78 267.892C122.538 268.139 122.24 268.333 121.885 268.472C121.53 268.608 121.131 268.676 120.688 268.676ZM128.679 268.54V259.813H129.736V267.603H133.793V268.54H128.679ZM138.157 268.676C137.526 268.676 136.982 268.537 136.525 268.259C136.07 267.978 135.719 267.585 135.472 267.083C135.228 266.577 135.106 265.989 135.106 265.318C135.106 264.648 135.228 264.057 135.472 263.546C135.719 263.032 136.063 262.631 136.503 262.344C136.947 262.054 137.464 261.909 138.055 261.909C138.396 261.909 138.732 261.966 139.065 262.08C139.397 262.193 139.699 262.378 139.972 262.634C140.245 262.887 140.462 263.222 140.624 263.639C140.786 264.057 140.867 264.571 140.867 265.182V265.608H135.822V264.739H139.844C139.844 264.37 139.771 264.04 139.623 263.75C139.478 263.46 139.271 263.232 139.001 263.064C138.734 262.897 138.418 262.813 138.055 262.813C137.654 262.813 137.307 262.912 137.015 263.111C136.725 263.307 136.502 263.563 136.346 263.878C136.19 264.193 136.111 264.532 136.111 264.892V265.472C136.111 265.966 136.197 266.385 136.367 266.729C136.54 267.07 136.78 267.33 137.087 267.509C137.394 267.685 137.751 267.773 138.157 267.773C138.421 267.773 138.66 267.736 138.873 267.662C139.089 267.585 139.275 267.472 139.431 267.321C139.587 267.168 139.708 266.978 139.793 266.75L140.765 267.023C140.663 267.353 140.491 267.642 140.249 267.892C140.008 268.139 139.709 268.333 139.354 268.472C138.999 268.608 138.6 268.676 138.157 268.676ZM144.443 268.693C144.028 268.693 143.652 268.615 143.314 268.459C142.976 268.3 142.707 268.071 142.508 267.773C142.31 267.472 142.21 267.108 142.21 266.682C142.21 266.307 142.284 266.003 142.432 265.77C142.579 265.534 142.777 265.35 143.024 265.216C143.271 265.083 143.544 264.983 143.842 264.918C144.143 264.85 144.446 264.796 144.75 264.756C145.148 264.705 145.47 264.666 145.717 264.641C145.967 264.612 146.149 264.566 146.263 264.5C146.379 264.435 146.437 264.321 146.437 264.159V264.125C146.437 263.705 146.322 263.378 146.092 263.145C145.865 262.912 145.52 262.796 145.057 262.796C144.577 262.796 144.2 262.901 143.927 263.111C143.655 263.321 143.463 263.546 143.352 263.784L142.398 263.443C142.568 263.046 142.795 262.736 143.079 262.514C143.366 262.29 143.679 262.134 144.017 262.046C144.358 261.955 144.693 261.909 145.023 261.909C145.233 261.909 145.474 261.935 145.747 261.986C146.023 262.034 146.288 262.135 146.544 262.289C146.802 262.442 147.017 262.674 147.187 262.983C147.358 263.293 147.443 263.708 147.443 264.228V268.54H146.437V267.654H146.386C146.318 267.796 146.204 267.948 146.045 268.11C145.886 268.272 145.675 268.409 145.41 268.523C145.146 268.637 144.824 268.693 144.443 268.693ZM144.596 267.79C144.994 267.79 145.329 267.712 145.602 267.556C145.878 267.399 146.085 267.198 146.224 266.951C146.366 266.703 146.437 266.443 146.437 266.171V265.25C146.395 265.301 146.301 265.348 146.156 265.391C146.014 265.431 145.849 265.466 145.662 265.497C145.477 265.526 145.297 265.551 145.121 265.574C144.947 265.594 144.807 265.611 144.699 265.625C144.437 265.659 144.193 265.715 143.966 265.791C143.741 265.865 143.56 265.978 143.42 266.128C143.284 266.276 143.216 266.478 143.216 266.733C143.216 267.083 143.345 267.347 143.604 267.526C143.865 267.702 144.196 267.79 144.596 267.79ZM149.399 268.54V261.995H150.37V262.983H150.438C150.558 262.659 150.774 262.397 151.086 262.195C151.399 261.993 151.751 261.892 152.143 261.892C152.217 261.892 152.309 261.894 152.42 261.897C152.531 261.899 152.615 261.904 152.671 261.909V262.932C152.637 262.924 152.559 262.911 152.437 262.894C152.318 262.874 152.191 262.864 152.058 262.864C151.74 262.864 151.455 262.931 151.205 263.064C150.958 263.195 150.762 263.377 150.617 263.61C150.475 263.84 150.404 264.103 150.404 264.398V268.54H149.399ZM154.989 264.603V268.54H153.984V261.995H154.955V263.017H155.04C155.194 262.685 155.427 262.418 155.739 262.216C156.052 262.012 156.455 261.909 156.949 261.909C157.393 261.909 157.78 262 158.113 262.182C158.445 262.361 158.704 262.634 158.888 263C159.073 263.364 159.165 263.824 159.165 264.381V268.54H158.16V264.449C158.16 263.935 158.026 263.534 157.759 263.247C157.492 262.958 157.126 262.813 156.66 262.813C156.339 262.813 156.052 262.882 155.799 263.022C155.549 263.161 155.351 263.364 155.207 263.631C155.062 263.898 154.989 264.222 154.989 264.603ZM161.123 268.54V261.995H162.129V268.54H161.123ZM161.634 260.904C161.438 260.904 161.269 260.837 161.127 260.703C160.988 260.57 160.918 260.409 160.918 260.222C160.918 260.034 160.988 259.874 161.127 259.74C161.269 259.607 161.438 259.54 161.634 259.54C161.83 259.54 161.998 259.607 162.137 259.74C162.279 259.874 162.35 260.034 162.35 260.222C162.35 260.409 162.279 260.57 162.137 260.703C161.998 260.837 161.83 260.904 161.634 260.904ZM165.096 264.603V268.54H164.091V261.995H165.062V263.017H165.148C165.301 262.685 165.534 262.418 165.846 262.216C166.159 262.012 166.562 261.909 167.057 261.909C167.5 261.909 167.888 262 168.22 262.182C168.552 262.361 168.811 262.634 168.996 263C169.18 263.364 169.273 263.824 169.273 264.381V268.54H168.267V264.449C168.267 263.935 168.133 263.534 167.866 263.247C167.599 262.958 167.233 262.813 166.767 262.813C166.446 262.813 166.159 262.882 165.906 263.022C165.656 263.161 165.459 263.364 165.314 263.631C165.169 263.898 165.096 264.222 165.096 264.603ZM173.872 271.131C173.386 271.131 172.969 271.068 172.619 270.943C172.27 270.821 171.979 270.659 171.746 270.458C171.516 270.259 171.332 270.046 171.196 269.818L171.997 269.256C172.088 269.375 172.203 269.512 172.342 269.665C172.482 269.821 172.672 269.956 172.913 270.07C173.158 270.186 173.477 270.245 173.872 270.245C174.401 270.245 174.837 270.117 175.181 269.861C175.524 269.605 175.696 269.205 175.696 268.659V267.33H175.611C175.537 267.449 175.432 267.597 175.296 267.773C175.162 267.946 174.969 268.101 174.716 268.237C174.466 268.371 174.128 268.438 173.702 268.438C173.173 268.438 172.699 268.313 172.279 268.063C171.861 267.813 171.53 267.449 171.286 266.972C171.044 266.495 170.923 265.915 170.923 265.233C170.923 264.563 171.041 263.979 171.277 263.482C171.513 262.982 171.841 262.595 172.261 262.323C172.682 262.047 173.168 261.909 173.719 261.909C174.145 261.909 174.483 261.98 174.733 262.122C174.986 262.262 175.179 262.421 175.313 262.6C175.449 262.776 175.554 262.921 175.628 263.034H175.73V261.995H176.702V268.728C176.702 269.29 176.574 269.747 176.318 270.1C176.065 270.455 175.725 270.715 175.296 270.88C174.869 271.047 174.395 271.131 173.872 271.131ZM173.838 267.534C174.242 267.534 174.582 267.442 174.861 267.257C175.139 267.073 175.351 266.807 175.496 266.46C175.641 266.114 175.713 265.699 175.713 265.216C175.713 264.745 175.642 264.328 175.5 263.968C175.358 263.607 175.148 263.324 174.869 263.12C174.591 262.915 174.247 262.813 173.838 262.813C173.412 262.813 173.057 262.921 172.773 263.137C172.492 263.353 172.28 263.642 172.138 264.006C171.999 264.37 171.929 264.773 171.929 265.216C171.929 265.671 172 266.073 172.142 266.422C172.287 266.769 172.5 267.041 172.781 267.24C173.065 267.436 173.418 267.534 173.838 267.534Z" fill="white"/>
<path d="M205.362 287.076C205.119 287.319 204.837 287.482 204.518 287.564C204.197 287.645 203.875 287.645 203.554 287.564C203.234 287.482 202.953 287.319 202.71 287.076C202.465 286.831 202.302 286.55 202.222 286.232C202.142 285.911 202.143 285.591 202.225 285.271C202.305 284.95 202.467 284.668 202.71 284.425C202.955 284.179 203.237 284.018 203.557 283.939C203.876 283.857 204.196 283.857 204.515 283.939C204.834 284.018 205.117 284.179 205.362 284.425C205.605 284.668 205.766 284.95 205.847 285.271C205.929 285.591 205.93 285.911 205.85 286.232C205.769 286.55 205.607 286.831 205.362 287.076ZM213.606 281.098L207.435 274.927L211.135 271.227L211.798 271.889L208.845 274.842L210.93 276.928L213.606 274.252L214.269 274.915L211.593 277.59L214.353 280.351L213.606 281.098ZM213.114 269.247L219.286 275.418L218.574 276.129L212.403 269.958L213.114 269.247ZM221.697 269.222L218.961 266.486L219.673 265.775L224.301 270.403L223.59 271.114L222.806 270.331L222.758 270.379C222.885 270.722 222.916 271.091 222.852 271.485C222.785 271.876 222.577 272.247 222.228 272.597C221.938 272.886 221.618 273.08 221.267 273.178C220.913 273.275 220.543 273.258 220.158 273.13C219.77 272.999 219.379 272.737 218.986 272.343L216.045 269.403L216.756 268.691L219.648 271.584C219.986 271.922 220.35 272.096 220.739 272.108C221.131 272.118 221.474 271.976 221.77 271.681C221.947 271.504 222.081 271.279 222.174 271.006C222.268 270.73 222.284 270.437 222.222 270.126C222.161 269.812 221.987 269.511 221.697 269.222ZM223.073 262.374L223.675 262.977L221.277 265.376L220.674 264.773L223.073 262.374ZM220.264 262.965L220.975 262.254L225.387 266.665C225.588 266.866 225.768 266.988 225.926 267.03C226.085 267.068 226.228 267.058 226.354 267C226.481 266.937 226.596 266.854 226.701 266.75C226.779 266.671 226.839 266.603 226.881 266.545C226.922 266.484 226.954 266.436 226.978 266.4L227.761 266.894C227.731 266.961 227.682 267.046 227.614 267.15C227.547 267.257 227.448 267.376 227.315 267.509C227.114 267.71 226.874 267.864 226.595 267.97C226.318 268.074 226.028 268.102 225.724 268.051C225.423 267.999 225.138 267.838 224.869 267.569L220.264 262.965ZM226.24 259.207L226.843 259.81L224.444 262.208L223.842 261.606L226.24 259.207ZM223.432 259.798L224.143 259.087L228.554 263.498C228.755 263.699 228.935 263.82 229.094 263.862C229.252 263.901 229.395 263.891 229.522 263.832C229.648 263.77 229.764 263.687 229.868 263.582C229.946 263.504 230.007 263.436 230.049 263.377C230.089 263.317 230.121 263.269 230.145 263.233L230.929 263.727C230.899 263.793 230.849 263.879 230.781 263.983C230.715 264.089 230.615 264.209 230.483 264.342C230.282 264.542 230.042 264.696 229.763 264.803C229.485 264.907 229.195 264.934 228.892 264.884C228.59 264.832 228.305 264.671 228.036 264.402L223.432 259.798ZM234.01 260.886C233.564 261.332 233.081 261.619 232.561 261.745C232.041 261.868 231.515 261.839 230.985 261.658C230.455 261.473 229.952 261.144 229.478 260.669C229.004 260.195 228.673 259.691 228.484 259.157C228.295 258.618 228.255 258.092 228.363 257.578C228.472 257.06 228.735 256.592 229.153 256.174C229.394 255.933 229.672 255.735 229.988 255.58C230.303 255.425 230.647 255.342 231.021 255.33C231.393 255.316 231.783 255.399 232.193 255.58C232.603 255.761 233.024 256.067 233.456 256.499L233.757 256.8L230.189 260.368L229.575 259.753L232.419 256.909C232.158 256.648 231.873 256.467 231.563 256.367C231.256 256.264 230.948 256.249 230.638 256.321C230.331 256.392 230.049 256.555 229.792 256.813C229.508 257.096 229.334 257.411 229.267 257.759C229.201 258.102 229.224 258.441 229.337 258.774C229.449 259.108 229.633 259.402 229.888 259.657L230.298 260.067C230.647 260.416 231.004 260.652 231.368 260.775C231.731 260.893 232.085 260.908 232.428 260.817C232.77 260.725 233.084 260.535 233.371 260.248C233.558 260.061 233.701 259.866 233.799 259.663C233.898 259.456 233.949 259.244 233.953 259.027C233.955 258.808 233.906 258.588 233.805 258.367L234.685 257.873C234.846 258.179 234.929 258.505 234.935 258.853C234.939 259.198 234.865 259.546 234.712 259.895C234.558 260.243 234.324 260.573 234.01 260.886ZM236.997 257.707L232.368 253.079L233.056 252.392L233.755 253.091L233.803 253.042C233.658 252.729 233.625 252.391 233.703 252.027C233.782 251.663 233.959 251.343 234.237 251.066C234.289 251.014 234.355 250.949 234.436 250.873C234.516 250.797 234.578 250.74 234.622 250.704L235.346 251.427C235.315 251.445 235.251 251.492 235.153 251.566C235.054 251.636 234.958 251.719 234.863 251.813C234.638 252.038 234.485 252.286 234.402 252.557C234.32 252.825 234.31 253.092 234.372 253.359C234.435 253.622 234.57 253.858 234.779 254.067L237.708 256.996L236.997 257.707ZM215.261 296.976C215.018 297.219 214.737 297.381 214.417 297.464C214.096 297.544 213.775 297.544 213.453 297.464C213.134 297.381 212.853 297.219 212.61 296.976C212.364 296.731 212.202 296.449 212.121 296.132C212.041 295.811 212.042 295.49 212.124 295.171C212.205 294.849 212.366 294.567 212.61 294.324C212.855 294.079 213.137 293.917 213.456 293.839C213.776 293.757 214.095 293.757 214.414 293.839C214.734 293.917 215.016 294.079 215.261 294.324C215.504 294.567 215.666 294.849 215.746 295.171C215.829 295.49 215.83 295.811 215.749 296.132C215.669 296.449 215.506 296.731 215.261 296.976ZM225.41 289.093L223.505 290.997L217.334 284.826L219.323 282.838C219.922 282.239 220.557 281.85 221.23 281.671C221.901 281.491 222.58 281.517 223.267 281.75C223.952 281.981 224.614 282.416 225.253 283.054C225.896 283.697 226.335 284.365 226.57 285.058C226.803 285.749 226.825 286.438 226.636 287.125C226.445 287.81 226.037 288.466 225.41 289.093ZM223.59 289.587L224.699 288.478C225.209 287.968 225.533 287.447 225.672 286.914C225.811 286.382 225.78 285.852 225.582 285.323C225.383 284.795 225.032 284.28 224.53 283.778C224.032 283.279 223.521 282.932 222.999 282.735C222.475 282.536 221.955 282.502 221.438 282.633C220.92 282.761 220.42 283.067 219.938 283.549L218.744 284.742L223.59 289.587ZM231.063 283.657C230.77 283.95 230.448 284.161 230.099 284.289C229.747 284.416 229.396 284.444 229.044 284.374C228.691 284.301 228.363 284.115 228.062 283.813C227.797 283.548 227.634 283.281 227.574 283.012C227.511 282.741 227.521 282.47 227.601 282.201C227.681 281.932 227.804 281.669 227.969 281.412C228.133 281.151 228.309 280.899 228.496 280.655C228.741 280.338 228.942 280.083 229.098 279.89C229.255 279.693 229.351 279.532 229.385 279.405C229.421 279.276 229.382 279.155 229.267 279.04L229.243 279.016C228.946 278.719 228.633 278.569 228.306 278.567C227.981 278.563 227.654 278.725 227.327 279.052C226.987 279.392 226.795 279.732 226.751 280.074C226.707 280.415 226.73 280.71 226.82 280.957L225.904 281.391C225.744 280.989 225.685 280.609 225.73 280.252C225.774 279.89 225.884 279.559 226.061 279.257C226.238 278.952 226.443 278.683 226.676 278.45C226.824 278.301 227.013 278.148 227.242 277.992C227.471 277.831 227.73 277.715 228.02 277.642C228.311 277.568 228.626 277.58 228.966 277.678C229.305 277.777 229.659 278.01 230.027 278.377L233.076 281.427L232.365 282.138L231.738 281.511L231.702 281.547C231.754 281.696 231.781 281.884 231.783 282.111C231.785 282.338 231.733 282.585 231.627 282.852C231.52 283.119 231.332 283.387 231.063 283.657ZM230.533 282.909C230.814 282.628 230.996 282.336 231.078 282.033C231.163 281.727 231.167 281.438 231.09 281.165C231.016 280.889 230.882 280.655 230.689 280.463L230.039 279.812C230.045 279.878 230.011 279.977 229.939 280.11C229.867 280.239 229.775 280.38 229.665 280.535C229.554 280.686 229.445 280.831 229.337 280.972C229.228 281.108 229.141 281.22 229.074 281.306C228.914 281.515 228.78 281.727 228.674 281.942C228.567 282.153 228.518 282.361 228.526 282.566C228.534 282.767 228.628 282.958 228.809 283.138C229.056 283.385 229.335 283.481 229.644 283.425C229.953 283.364 230.25 283.193 230.533 282.909ZM234.459 280.044L229.83 275.416L230.517 274.729L231.217 275.428L231.265 275.38C231.12 275.066 231.087 274.728 231.165 274.364C231.244 274 231.421 273.68 231.699 273.403C231.751 273.351 231.817 273.286 231.897 273.21C231.978 273.134 232.04 273.077 232.084 273.041L232.807 273.764C232.777 273.783 232.713 273.829 232.615 273.903C232.516 273.973 232.42 274.056 232.325 274.15C232.1 274.375 231.947 274.623 231.864 274.894C231.782 275.162 231.772 275.429 231.834 275.696C231.896 275.959 232.032 276.195 232.241 276.404L235.17 279.333L234.459 280.044ZM235.375 269.871L235.978 270.474L233.579 272.872L232.977 272.269L235.375 269.871ZM232.567 270.461L233.278 269.75L237.689 274.162C237.89 274.363 238.07 274.484 238.229 274.526C238.387 274.564 238.53 274.554 238.657 274.496C238.783 274.434 238.899 274.351 239.003 274.246C239.082 274.168 239.142 274.099 239.184 274.041C239.224 273.981 239.256 273.933 239.28 273.897L240.064 274.391C240.034 274.457 239.985 274.542 239.916 274.647C239.85 274.753 239.75 274.873 239.618 275.005C239.417 275.206 239.177 275.36 238.898 275.466C238.621 275.571 238.33 275.598 238.027 275.548C237.726 275.496 237.44 275.335 237.171 275.066L232.567 270.461ZM225.161 306.875C224.918 307.118 224.636 307.281 224.317 307.363C223.996 307.444 223.674 307.444 223.353 307.363C223.033 307.281 222.752 307.118 222.509 306.875C222.264 306.63 222.101 306.349 222.021 306.031C221.941 305.71 221.942 305.39 222.024 305.07C222.104 304.749 222.266 304.467 222.509 304.223C222.754 303.978 223.036 303.817 223.356 303.738C223.675 303.656 223.995 303.656 224.314 303.738C224.633 303.817 224.916 303.978 225.161 304.223C225.404 304.467 225.565 304.749 225.646 305.07C225.728 305.39 225.729 305.71 225.649 306.031C225.568 306.349 225.406 306.63 225.161 306.875ZM233.405 300.897L227.234 294.726L230.934 291.026L231.597 291.688L228.644 294.641L230.729 296.727L233.405 294.051L234.068 294.714L231.392 297.389L234.152 300.15L233.405 300.897ZM238.373 295.928L233.745 291.3L234.456 290.589L239.085 295.217L238.373 295.928ZM233.335 290.167C233.197 290.306 233.03 290.378 232.835 290.384C232.642 290.388 232.48 290.324 232.347 290.191C232.214 290.059 232.15 289.896 232.154 289.703C232.16 289.508 232.232 289.341 232.371 289.203C232.51 289.064 232.675 288.993 232.868 288.989C233.063 288.983 233.227 289.046 233.359 289.179C233.492 289.311 233.555 289.475 233.549 289.67C233.545 289.863 233.474 290.028 233.335 290.167ZM240.472 293.83L235.844 289.202L236.531 288.515L237.23 289.214L237.278 289.165C237.133 288.852 237.1 288.514 237.178 288.15C237.257 287.786 237.435 287.466 237.712 287.189C237.764 287.136 237.83 287.072 237.911 286.996C237.991 286.92 238.053 286.863 238.097 286.827L238.821 287.55C238.791 287.568 238.726 287.615 238.628 287.689C238.529 287.759 238.433 287.842 238.339 287.936C238.114 288.161 237.96 288.409 237.878 288.68C237.795 288.947 237.785 289.215 237.847 289.482C237.91 289.745 238.045 289.981 238.254 290.19L241.183 293.119L240.472 293.83ZM245.61 288.885C245.164 289.331 244.681 289.617 244.161 289.743C243.64 289.866 243.115 289.837 242.585 289.656C242.054 289.471 241.552 289.142 241.078 288.668C240.604 288.194 240.273 287.689 240.084 287.155C239.895 286.617 239.855 286.09 239.963 285.576C240.072 285.058 240.335 284.59 240.753 284.172C240.994 283.931 241.272 283.733 241.587 283.578C241.903 283.424 242.247 283.34 242.621 283.328C242.992 283.314 243.383 283.398 243.793 283.578C244.203 283.759 244.624 284.065 245.056 284.497L245.357 284.799L241.789 288.366L241.174 287.752L244.019 284.907C243.758 284.646 243.473 284.465 243.163 284.365C242.856 284.262 242.548 284.247 242.238 284.32C241.931 284.39 241.649 284.554 241.391 284.811C241.108 285.094 240.933 285.409 240.867 285.757C240.801 286.1 240.824 286.439 240.936 286.772C241.049 287.106 241.233 287.4 241.488 287.655L241.898 288.065C242.247 288.415 242.604 288.651 242.967 288.773C243.331 288.892 243.685 288.906 244.028 288.815C244.37 288.723 244.684 288.533 244.971 288.246C245.158 288.059 245.301 287.864 245.399 287.661C245.497 287.454 245.549 287.242 245.553 287.025C245.555 286.807 245.506 286.587 245.405 286.366L246.285 285.871C246.446 286.177 246.529 286.503 246.535 286.851C246.539 287.196 246.465 287.544 246.312 287.893C246.157 288.241 245.923 288.571 245.61 288.885ZM248.693 285.609L242.522 279.438L243.233 278.727L245.511 281.005L245.571 280.944C245.543 280.812 245.513 280.637 245.481 280.42C245.449 280.199 245.471 279.952 245.547 279.679C245.624 279.402 245.812 279.112 246.114 278.811C246.503 278.421 246.944 278.175 247.436 278.073C247.929 277.97 248.437 278.014 248.961 278.205C249.485 278.396 249.991 278.735 250.477 279.221C250.967 279.711 251.308 280.219 251.501 280.745C251.692 281.27 251.738 281.778 251.64 282.27C251.54 282.76 251.296 283.198 250.911 283.584C250.613 283.881 250.326 284.07 250.049 284.15C249.77 284.229 249.519 284.253 249.296 284.223C249.071 284.191 248.89 284.158 248.753 284.126L248.669 284.211L249.38 284.922L248.693 285.609ZM247.078 282.596C247.427 282.945 247.787 283.202 248.157 283.367C248.524 283.53 248.882 283.588 249.229 283.542C249.575 283.493 249.89 283.327 250.176 283.042C250.473 282.744 250.643 282.418 250.685 282.062C250.727 281.703 250.665 281.339 250.498 280.971C250.331 280.6 250.083 280.249 249.754 279.92C249.428 279.594 249.085 279.351 248.723 279.191C248.362 279.026 248.004 278.968 247.65 279.016C247.297 279.06 246.969 279.233 246.668 279.534C246.379 279.823 246.209 280.14 246.159 280.483C246.107 280.825 246.161 281.176 246.322 281.538C246.48 281.897 246.732 282.25 247.078 282.596ZM255.422 279.097C255.129 279.39 254.807 279.601 254.458 279.729C254.106 279.856 253.755 279.884 253.403 279.814C253.05 279.742 252.722 279.555 252.421 279.253C252.156 278.988 251.993 278.721 251.933 278.452C251.87 278.181 251.879 277.91 251.96 277.641C252.04 277.372 252.163 277.109 252.327 276.852C252.492 276.591 252.668 276.339 252.855 276.096C253.1 275.778 253.301 275.523 253.457 275.33C253.614 275.133 253.71 274.972 253.744 274.845C253.78 274.716 253.741 274.595 253.626 274.48L253.602 274.456C253.305 274.159 252.992 274.009 252.665 274.007C252.339 274.003 252.013 274.165 251.686 274.492C251.346 274.832 251.154 275.172 251.11 275.514C251.066 275.855 251.089 276.15 251.179 276.397L250.263 276.831C250.103 276.429 250.044 276.049 250.089 275.692C250.133 275.33 250.243 274.999 250.42 274.697C250.597 274.392 250.802 274.123 251.035 273.89C251.183 273.741 251.372 273.588 251.601 273.432C251.83 273.271 252.089 273.155 252.379 273.082C252.67 273.008 252.985 273.02 253.325 273.118C253.664 273.217 254.018 273.45 254.385 273.818L257.435 276.867L256.724 277.578L256.097 276.951L256.061 276.987C256.113 277.136 256.14 277.324 256.142 277.551C256.144 277.778 256.092 278.025 255.986 278.292C255.879 278.559 255.691 278.828 255.422 279.097ZM254.892 278.349C255.173 278.068 255.355 277.776 255.437 277.473C255.521 277.167 255.525 276.878 255.449 276.605C255.375 276.33 255.241 276.096 255.048 275.903L254.398 275.252C254.404 275.318 254.37 275.418 254.298 275.55C254.226 275.679 254.134 275.82 254.024 275.975C253.913 276.126 253.804 276.271 253.695 276.412C253.587 276.549 253.5 276.66 253.433 276.746C253.273 276.955 253.139 277.167 253.033 277.382C252.926 277.593 252.877 277.801 252.885 278.006C252.893 278.207 252.987 278.398 253.168 278.578C253.415 278.826 253.693 278.921 254.003 278.865C254.312 278.804 254.608 278.633 254.892 278.349ZM258.504 268.614L258.046 269.434C257.9 269.367 257.737 269.323 257.558 269.301C257.379 269.275 257.191 269.295 256.992 269.361C256.793 269.427 256.59 269.564 256.383 269.771C256.1 270.054 255.929 270.356 255.871 270.675C255.812 270.99 255.883 271.247 256.082 271.446C256.258 271.623 256.462 271.698 256.693 271.672C256.924 271.646 257.211 271.531 257.552 271.326L258.408 270.808C258.922 270.494 259.384 270.339 259.794 270.344C260.202 270.346 260.567 270.508 260.891 270.832C261.156 271.097 261.317 271.41 261.373 271.772C261.431 272.131 261.385 272.507 261.234 272.899C261.084 273.29 260.829 273.666 260.469 274.026C259.997 274.498 259.504 274.786 258.989 274.89C258.475 274.995 257.98 274.891 257.504 274.58L258.01 273.736C258.324 273.921 258.632 273.987 258.935 273.932C259.241 273.876 259.539 273.702 259.83 273.411C260.162 273.08 260.354 272.746 260.409 272.411C260.463 272.071 260.391 271.802 260.192 271.603C260.031 271.442 259.84 271.364 259.619 271.368C259.396 271.37 259.141 271.46 258.854 271.639L257.902 272.23C257.377 272.553 256.91 272.709 256.501 272.697C256.091 272.681 255.726 272.513 255.407 272.194C255.146 271.932 254.988 271.628 254.934 271.281C254.881 270.931 254.926 270.572 255.066 270.202C255.209 269.83 255.443 269.482 255.768 269.156C256.226 268.698 256.686 268.439 257.148 268.379C257.612 268.317 258.064 268.395 258.504 268.614ZM265.373 269.122C264.927 269.568 264.444 269.854 263.923 269.981C263.403 270.103 262.878 270.074 262.347 269.893C261.817 269.708 261.315 269.379 260.841 268.905C260.367 268.431 260.035 267.927 259.846 267.392C259.658 266.854 259.617 266.328 259.726 265.813C259.834 265.295 260.098 264.827 260.515 264.409C260.756 264.168 261.035 263.97 261.35 263.816C261.665 263.661 262.01 263.578 262.384 263.566C262.755 263.551 263.146 263.635 263.556 263.816C263.966 263.996 264.386 264.303 264.818 264.735L265.12 265.036L261.552 268.604L260.937 267.989L263.782 265.144C263.521 264.883 263.235 264.702 262.926 264.602C262.619 264.5 262.31 264.485 262.001 264.557C261.694 264.627 261.411 264.791 261.154 265.048C260.871 265.331 260.696 265.647 260.63 265.994C260.564 266.338 260.587 266.676 260.699 267.01C260.812 267.343 260.995 267.637 261.251 267.893L261.66 268.302C262.01 268.652 262.367 268.888 262.73 269.01C263.094 269.129 263.447 269.143 263.791 269.053C264.132 268.96 264.447 268.77 264.734 268.483C264.921 268.296 265.063 268.101 265.162 267.899C265.26 267.692 265.311 267.48 265.315 267.263C265.317 267.044 265.268 266.824 265.168 266.603L266.048 266.109C266.208 266.414 266.292 266.74 266.298 267.088C266.302 267.433 266.227 267.781 266.075 268.131C265.92 268.478 265.686 268.809 265.373 269.122ZM235.06 316.775C234.817 317.018 234.536 317.18 234.216 317.263C233.895 317.343 233.574 317.343 233.252 317.263C232.933 317.18 232.652 317.018 232.409 316.775C232.163 316.53 232.001 316.248 231.92 315.931C231.84 315.61 231.841 315.289 231.923 314.97C232.004 314.648 232.165 314.366 232.409 314.123C232.654 313.878 232.936 313.716 233.255 313.638C233.575 313.555 233.894 313.555 234.213 313.638C234.533 313.716 234.815 313.878 235.06 314.123C235.303 314.366 235.465 314.648 235.545 314.97C235.628 315.289 235.629 315.61 235.548 315.931C235.468 316.248 235.305 316.53 235.06 316.775ZM237.133 304.625L238.025 303.733L245.245 306.759L245.317 306.686L242.292 299.467L243.184 298.575L249.355 304.746L248.656 305.445L243.967 300.756L243.907 300.817L246.667 307.434L245.992 308.109L239.375 305.348L239.315 305.409L244.003 310.097L243.304 310.796L237.133 304.625ZM252.312 302.006C252.019 302.299 251.698 302.51 251.348 302.638C250.996 302.765 250.645 302.793 250.293 302.723C249.94 302.65 249.612 302.464 249.311 302.162C249.046 301.897 248.883 301.63 248.823 301.361C248.761 301.089 248.77 300.819 248.85 300.55C248.93 300.281 249.053 300.018 249.218 299.761C249.382 299.5 249.558 299.247 249.745 299.004C249.99 298.687 250.191 298.432 250.348 298.239C250.504 298.042 250.6 297.88 250.634 297.754C250.67 297.625 250.631 297.504 250.516 297.389L250.492 297.365C250.195 297.068 249.883 296.918 249.555 296.916C249.23 296.912 248.903 297.074 248.576 297.401C248.236 297.741 248.044 298.081 248 298.423C247.956 298.764 247.979 299.059 248.07 299.306L247.154 299.74C246.993 299.338 246.935 298.958 246.979 298.601C247.023 298.239 247.133 297.908 247.31 297.606C247.487 297.301 247.692 297.032 247.925 296.799C248.074 296.65 248.262 296.497 248.491 296.341C248.72 296.18 248.98 296.063 249.269 295.991C249.56 295.917 249.876 295.929 250.215 296.027C250.554 296.126 250.908 296.359 251.276 296.726L254.325 299.776L253.614 300.487L252.987 299.86L252.951 299.896C253.003 300.045 253.03 300.233 253.032 300.46C253.034 300.687 252.982 300.934 252.876 301.201C252.769 301.468 252.581 301.736 252.312 302.006ZM251.782 301.258C252.063 300.977 252.245 300.685 252.327 300.381C252.412 300.076 252.416 299.787 252.339 299.514C252.265 299.238 252.131 299.004 251.939 298.811L251.288 298.161C251.294 298.227 251.261 298.326 251.188 298.459C251.116 298.588 251.025 298.729 250.914 298.884C250.804 299.034 250.694 299.18 250.586 299.321C250.477 299.457 250.39 299.569 250.323 299.655C250.163 299.864 250.029 300.076 249.923 300.291C249.816 300.502 249.767 300.71 249.775 300.915C249.783 301.116 249.878 301.306 250.058 301.487C250.305 301.734 250.584 301.83 250.893 301.774C251.202 301.713 251.499 301.541 251.782 301.258ZM257.685 296.609C257.251 297.043 256.775 297.314 256.256 297.423C255.738 297.531 255.215 297.49 254.686 297.299C254.158 297.108 253.663 296.782 253.201 296.32C252.731 295.85 252.402 295.349 252.216 294.816C252.029 294.28 251.99 293.755 252.098 293.24C252.206 292.722 252.47 292.254 252.887 291.836C253.213 291.511 253.566 291.278 253.948 291.137C254.33 290.996 254.712 290.951 255.096 291.001C255.48 291.052 255.836 291.201 256.166 291.45L255.455 292.162C255.19 292.005 254.882 291.939 254.533 291.963C254.183 291.983 253.852 292.149 253.538 292.463C253.261 292.74 253.09 293.055 253.026 293.409C252.962 293.759 253.002 294.122 253.147 294.5C253.291 294.873 253.538 295.235 253.888 295.585C254.245 295.942 254.613 296.197 254.991 296.35C255.37 296.501 255.737 296.546 256.091 296.486C256.446 296.423 256.765 296.252 257.046 295.97C257.231 295.785 257.366 295.586 257.453 295.371C257.539 295.156 257.574 294.936 257.558 294.711C257.542 294.486 257.472 294.267 257.347 294.054L258.058 293.343C258.291 293.656 258.438 294.002 258.498 294.379C258.558 294.753 258.523 295.134 258.393 295.521C258.262 295.905 258.026 296.268 257.685 296.609ZM258.459 290.073L261.244 292.857L260.533 293.568L254.361 287.397L255.073 286.686L257.339 288.952L257.399 288.892C257.268 288.544 257.241 288.192 257.317 287.834C257.394 287.472 257.614 287.11 257.977 286.746C258.293 286.431 258.632 286.218 258.996 286.107C259.357 285.995 259.733 286.003 260.123 286.132C260.512 286.256 260.906 286.517 261.304 286.915L264.245 289.856L263.534 290.567L260.641 287.674C260.273 287.307 259.894 287.118 259.502 287.108C259.11 287.094 258.747 287.255 258.411 287.59C258.178 287.823 258.018 288.081 257.932 288.364C257.848 288.646 257.847 288.934 257.929 289.229C258.013 289.522 258.19 289.804 258.459 290.073ZM265.631 288.47L261.002 283.842L261.713 283.131L266.342 287.759L265.631 288.47ZM260.593 282.709C260.454 282.847 260.287 282.92 260.092 282.926C259.899 282.93 259.737 282.865 259.604 282.733C259.472 282.6 259.407 282.438 259.411 282.245C259.417 282.05 259.49 281.883 259.628 281.745C259.767 281.606 259.933 281.535 260.125 281.531C260.32 281.525 260.484 281.588 260.617 281.72C260.749 281.853 260.812 282.017 260.806 282.212C260.802 282.404 260.731 282.57 260.593 282.709ZM265.656 282.876L268.44 285.661L267.729 286.372L263.101 281.743L263.788 281.056L264.511 281.779L264.571 281.719C264.445 281.376 264.421 281.022 264.499 280.659C264.575 280.293 264.788 279.935 265.138 279.586C265.451 279.272 265.79 279.063 266.153 278.956C266.515 278.848 266.89 278.858 267.28 278.986C267.668 279.113 268.059 279.373 268.452 279.767L271.393 282.708L270.682 283.419L267.789 280.526C267.426 280.162 267.048 279.974 266.656 279.959C266.263 279.943 265.901 280.1 265.572 280.43C265.345 280.657 265.191 280.909 265.111 281.186C265.032 281.461 265.036 281.744 265.123 282.036C265.209 282.327 265.387 282.607 265.656 282.876ZM274.814 279.479C274.369 279.925 273.885 280.211 273.365 280.338C272.845 280.46 272.32 280.431 271.789 280.251C271.259 280.066 270.757 279.736 270.283 279.262C269.808 278.788 269.477 278.284 269.288 277.75C269.099 277.211 269.059 276.685 269.168 276.171C269.276 275.652 269.539 275.184 269.957 274.766C270.198 274.525 270.476 274.328 270.792 274.173C271.107 274.018 271.452 273.935 271.825 273.923C272.197 273.909 272.588 273.992 272.997 274.173C273.407 274.354 273.828 274.66 274.26 275.092L274.561 275.393L270.994 278.961L270.379 278.346L273.223 275.502C272.962 275.241 272.677 275.06 272.368 274.959C272.06 274.857 271.752 274.842 271.443 274.914C271.135 274.984 270.853 275.148 270.596 275.405C270.313 275.688 270.138 276.004 270.072 276.351C270.005 276.695 270.028 277.033 270.141 277.367C270.253 277.7 270.437 277.995 270.692 278.25L271.102 278.66C271.452 279.009 271.808 279.245 272.172 279.368C272.535 279.486 272.889 279.5 273.233 279.41C273.574 279.317 273.888 279.128 274.176 278.84C274.362 278.654 274.505 278.459 274.604 278.256C274.702 278.049 274.753 277.837 274.757 277.62C274.759 277.401 274.71 277.181 274.61 276.96L275.489 276.466C275.65 276.771 275.734 277.098 275.74 277.445C275.744 277.791 275.669 278.138 275.517 278.488C275.362 278.835 275.128 279.166 274.814 279.479ZM280.369 273.732L274.198 267.561L274.945 266.814L280.453 272.322L283.322 269.453L283.985 270.116L280.369 273.732ZM287.167 267.126C286.721 267.572 286.238 267.859 285.718 267.985C285.198 268.108 284.672 268.079 284.142 267.898C283.612 267.713 283.109 267.384 282.635 266.909C282.161 266.435 281.83 265.931 281.641 265.397C281.452 264.858 281.412 264.332 281.52 263.818C281.629 263.3 281.892 262.832 282.31 262.414C282.551 262.173 282.829 261.975 283.145 261.82C283.46 261.665 283.804 261.582 284.178 261.57C284.55 261.556 284.94 261.639 285.35 261.82C285.76 262.001 286.181 262.307 286.613 262.739L286.914 263.04L283.346 266.608L282.732 265.993L285.576 263.149C285.315 262.888 285.03 262.707 284.72 262.607C284.413 262.504 284.105 262.489 283.795 262.561C283.488 262.632 283.206 262.795 282.949 263.053C282.665 263.336 282.491 263.651 282.424 263.999C282.358 264.342 282.381 264.681 282.494 265.014C282.606 265.348 282.79 265.642 283.045 265.897L283.455 266.307C283.804 266.656 284.161 266.892 284.525 267.015C284.888 267.133 285.242 267.148 285.585 267.057C285.927 266.965 286.241 266.775 286.528 266.488C286.715 266.301 286.858 266.106 286.956 265.903C287.055 265.696 287.106 265.484 287.11 265.267C287.112 265.048 287.063 264.828 286.962 264.607L287.842 264.113C288.003 264.419 288.086 264.745 288.092 265.092C288.096 265.438 288.022 265.786 287.869 266.135C287.715 266.483 287.481 266.813 287.167 267.126ZM291.624 262.693C291.331 262.987 291.01 263.198 290.66 263.326C290.308 263.453 289.957 263.481 289.605 263.411C289.252 263.338 288.924 263.151 288.623 262.85C288.358 262.585 288.195 262.318 288.135 262.049C288.073 261.777 288.082 261.507 288.162 261.238C288.242 260.969 288.365 260.706 288.53 260.449C288.694 260.187 288.87 259.935 289.057 259.692C289.302 259.375 289.503 259.12 289.66 258.927C289.816 258.73 289.912 258.568 289.946 258.442C289.982 258.313 289.943 258.192 289.828 258.077L289.804 258.053C289.507 257.756 289.195 257.606 288.867 257.604C288.542 257.6 288.215 257.762 287.888 258.089C287.548 258.429 287.356 258.769 287.312 259.111C287.268 259.452 287.291 259.747 287.382 259.994L286.466 260.428C286.305 260.026 286.247 259.646 286.291 259.289C286.335 258.927 286.445 258.595 286.622 258.294C286.799 257.989 287.004 257.72 287.237 257.487C287.386 257.338 287.574 257.185 287.803 257.029C288.032 256.868 288.292 256.751 288.581 256.679C288.872 256.605 289.188 256.617 289.527 256.715C289.867 256.814 290.22 257.047 290.588 257.414L293.637 260.464L292.926 261.175L292.299 260.548L292.263 260.584C292.315 260.733 292.342 260.921 292.344 261.148C292.346 261.375 292.294 261.622 292.188 261.889C292.081 262.156 291.893 262.424 291.624 262.693ZM291.094 261.946C291.375 261.665 291.557 261.373 291.639 261.069C291.724 260.764 291.728 260.475 291.651 260.202C291.577 259.926 291.443 259.692 291.251 259.499L290.6 258.849C290.606 258.915 290.573 259.014 290.5 259.147C290.428 259.275 290.337 259.417 290.226 259.572C290.116 259.722 290.006 259.868 289.898 260.009C289.789 260.145 289.702 260.257 289.636 260.343C289.475 260.552 289.341 260.764 289.235 260.979C289.128 261.19 289.079 261.398 289.087 261.603C289.095 261.804 289.19 261.994 289.37 262.175C289.617 262.422 289.896 262.518 290.205 262.461C290.514 262.401 290.811 262.229 291.094 261.946ZM295.02 259.081L290.392 254.453L291.079 253.766L291.778 254.465L291.826 254.416C291.681 254.103 291.648 253.765 291.726 253.401C291.805 253.037 291.983 252.717 292.26 252.44C292.312 252.387 292.378 252.323 292.459 252.247C292.539 252.171 292.601 252.114 292.645 252.078L293.369 252.801C293.339 252.819 293.274 252.866 293.176 252.94C293.077 253.01 292.981 253.093 292.887 253.187C292.662 253.412 292.508 253.66 292.426 253.931C292.343 254.198 292.333 254.466 292.395 254.733C292.458 254.996 292.593 255.232 292.802 255.441L295.731 258.37L295.02 259.081ZM296.189 252.344L298.973 255.128L298.262 255.839L293.634 251.211L294.321 250.524L295.044 251.247L295.104 251.186C294.977 250.843 294.953 250.489 295.032 250.126C295.108 249.76 295.321 249.403 295.67 249.053C295.984 248.74 296.322 248.53 296.686 248.423C297.048 248.315 297.423 248.325 297.813 248.453C298.201 248.58 298.591 248.84 298.985 249.234L301.926 252.175L301.215 252.886L298.322 249.993C297.959 249.63 297.581 249.441 297.189 249.427C296.795 249.411 296.434 249.567 296.104 249.897C295.877 250.124 295.724 250.376 295.643 250.653C295.565 250.928 295.569 251.212 295.655 251.503C295.742 251.794 295.92 252.074 296.189 252.344ZM303.31 250.79L298.682 246.162L299.393 245.451L304.021 250.079L303.31 250.79ZM298.272 245.029C298.134 245.168 297.967 245.24 297.772 245.246C297.579 245.25 297.416 245.186 297.284 245.053C297.151 244.921 297.087 244.758 297.091 244.565C297.097 244.37 297.169 244.204 297.308 244.065C297.447 243.926 297.612 243.855 297.805 243.851C298 243.845 298.164 243.908 298.296 244.041C298.429 244.173 298.492 244.337 298.486 244.532C298.482 244.725 298.411 244.891 298.272 245.029ZM303.336 245.197L306.12 247.981L305.409 248.692L300.78 244.064L301.467 243.377L302.191 244.1L302.251 244.04C302.124 243.696 302.1 243.343 302.179 242.979C302.255 242.613 302.468 242.256 302.817 241.906C303.131 241.593 303.469 241.383 303.833 241.276C304.194 241.168 304.57 241.178 304.96 241.307C305.347 241.433 305.738 241.693 306.132 242.087L309.073 245.028L308.362 245.739L305.469 242.846C305.105 242.483 304.728 242.294 304.336 242.28C303.942 242.264 303.581 242.42 303.251 242.75C303.024 242.977 302.871 243.229 302.79 243.506C302.712 243.781 302.716 244.065 302.802 244.356C302.889 244.647 303.066 244.928 303.336 245.197ZM314.157 243.607C313.814 243.951 313.474 244.202 313.139 244.361C312.805 244.521 312.485 244.613 312.178 244.635C311.874 244.657 311.594 244.636 311.337 244.572L311.506 243.607C311.654 243.628 311.832 243.643 312.039 243.653C312.248 243.665 312.478 243.626 312.729 243.535C312.984 243.445 313.251 243.26 313.531 242.981C313.904 242.607 314.122 242.208 314.185 241.784C314.247 241.361 314.085 240.956 313.699 240.57L312.759 239.63L312.699 239.69C312.731 239.827 312.761 240.006 312.789 240.227C312.818 240.444 312.79 240.69 312.708 240.965C312.626 241.236 312.434 241.522 312.133 241.824C311.759 242.197 311.335 242.444 310.861 242.565C310.389 242.683 309.898 242.66 309.387 242.496C308.879 242.329 308.384 242.004 307.902 241.522C307.428 241.048 307.098 240.552 306.914 240.034C306.727 239.513 306.686 239.008 306.79 238.518C306.892 238.026 307.139 237.585 307.528 237.195C307.83 236.894 308.119 236.705 308.396 236.629C308.673 236.548 308.922 236.524 309.143 236.556C309.364 236.585 309.541 236.613 309.674 236.641L309.746 236.569L309.011 235.833L309.698 235.146L314.459 239.907C314.856 240.305 315.09 240.719 315.158 241.149C315.23 241.579 315.173 242.003 314.986 242.423C314.803 242.843 314.527 243.238 314.157 243.607ZM311.59 241.088C311.875 240.803 312.051 240.497 312.117 240.169C312.184 239.842 312.146 239.504 312.003 239.157C311.86 238.809 311.618 238.465 311.277 238.123C310.943 237.79 310.599 237.546 310.243 237.391C309.888 237.236 309.539 237.185 309.198 237.237C308.856 237.29 308.541 237.46 308.251 237.75C307.95 238.051 307.775 238.378 307.727 238.732C307.681 239.084 307.736 239.438 307.893 239.796C308.052 240.151 308.288 240.486 308.601 240.799C308.922 241.121 309.257 241.355 309.604 241.501C309.952 241.644 310.295 241.686 310.635 241.628C310.974 241.565 311.293 241.386 311.59 241.088Z" fill="white"/>
</g>
<rect x="206.5" y="6.19189" width="314" height="183" rx="13.5" transform="rotate(90 206.5 6.19189)" stroke="url(#paint0_angular_758_3221)" stroke-opacity="0.5"/>
</g>
<defs>
<filter id="filter0_d_758_3221" x="0" y="0.691895" width="214" height="345" filterUnits="userSpaceOnUse" color-interpolation-filters="sRGB">
<feFlood flood-opacity="0" result="BackgroundImageFix"/>
<feColorMatrix in="SourceAlpha" type="matrix" values="0 0 0 0 0 0 0 0 0 0 0 0 0 0 0 0 0 0 127 0" result="hardAlpha"/>
<feOffset dx="-8" dy="10"/>
<feGaussianBlur stdDeviation="7.5"/>
<feComposite in2="hardAlpha" operator="out"/>
<feColorMatrix type="matrix" values="0 0 0 0 0 0 0 0 0 0 0 0 0 0 0 0 0 0 0.15 0"/>
<feBlend mode="normal" in2="BackgroundImageFix" result="effect1_dropShadow_758_3221"/>
<feBlend mode="normal" in="SourceGraphic" in2="effect1_dropShadow_758_3221" result="shape"/>
</filter>
<filter id="filter1_f_758_3221" x="120.042" y="-41.7404" width="123.247" height="120.394" filterUnits="userSpaceOnUse" color-interpolation-filters="sRGB">
<feFlood flood-opacity="0" result="BackgroundImageFix"/>
<feBlend mode="normal" in="SourceGraphic" in2="BackgroundImageFix" result="shape"/>
<feGaussianBlur stdDeviation="15" result="effect1_foregroundBlur_758_3221"/>
</filter>
<filter id="filter2_f_758_3221" x="158.726" y="-57.2959" width="137.992" height="153.132" filterUnits="userSpaceOnUse" color-interpolation-filters="sRGB">
<feFlood flood-opacity="0" result="BackgroundImageFix"/>
<feBlend mode="normal" in="SourceGraphic" in2="BackgroundImageFix" result="shape"/>
<feGaussianBlur stdDeviation="15" result="effect1_foregroundBlur_758_3221"/>
</filter>
<filter id="filter3_f_758_3221" x="119.697" y="-54.7986" width="125.69" height="134.281" filterUnits="userSpaceOnUse" color-interpolation-filters="sRGB">
<feFlood flood-opacity="0" result="BackgroundImageFix"/>
<feBlend mode="normal" in="SourceGraphic" in2="BackgroundImageFix" result="shape"/>
<feGaussianBlur stdDeviation="15" result="effect1_foregroundBlur_758_3221"/>
</filter>
<filter id="filter4_f_758_3221" x="114.175" y="-49.1207" width="105.034" height="125.228" filterUnits="userSpaceOnUse" color-interpolation-filters="sRGB">
<feFlood flood-opacity="0" result="BackgroundImageFix"/>
<feBlend mode="normal" in="SourceGraphic" in2="BackgroundImageFix" result="shape"/>
<feGaussianBlur stdDeviation="15" result="effect1_foregroundBlur_758_3221"/>
</filter>
<filter id="filter5_f_758_3221" x="155.849" y="-50.8994" width="101.802" height="115.034" filterUnits="userSpaceOnUse" color-interpolation-filters="sRGB">
<feFlood flood-opacity="0" result="BackgroundImageFix"/>
<feBlend mode="normal" in="SourceGraphic" in2="BackgroundImageFix" result="shape"/>
<feGaussianBlur stdDeviation="15" result="effect1_foregroundBlur_758_3221"/>
</filter>
<radialGradient id="paint0_angular_758_3221" cx="0" cy="0" r="1" gradientUnits="userSpaceOnUse" gradientTransform="translate(258 35.1919) rotate(19.782) scale(255.583 437.546)">
<stop offset="0.106146" stop-color="white"/>
<stop offset="0.16572" stop-color="#595959"/>
<stop offset="0.356116" stop-color="white"/>
<stop offset="0.474328" stop-color="white"/>
<stop offset="0.950754" stop-color="white" stop-opacity="0.54"/>
<stop offset="0.975714" stop-color="#E3E3E3" stop-opacity="0"/>
<stop offset="1" stop-color="#8D8D8D" stop-opacity="0"/>
</radialGradient>
<clipPath id="clip0_758_3221">
<rect x="207" y="5.69189" width="315" height="184" rx="14" transform="rotate(90 207 5.69189)" fill="white"/>
</clipPath>
</defs>
</svg>
