<svg width="214" height="346" viewBox="0 0 214 346" fill="none" xmlns="http://www.w3.org/2000/svg">
<g filter="url(#filter0_d_758_3327)">
<g clip-path="url(#clip0_758_3327)">
<rect x="207" y="5.61499" width="315" height="184" rx="14" transform="rotate(90 207 5.61499)" fill="#08090C"/>
<mask id="mask0_758_3327" style="mask-type:alpha" maskUnits="userSpaceOnUse" x="156" y="-21" width="74" height="63">
<ellipse cx="192.755" cy="10.115" rx="27.5895" ry="39.2135" transform="rotate(120 192.755 10.115)" fill="#D99945"/>
</mask>
<g mask="url(#mask0_758_3327)">
<g style="mix-blend-mode:exclusion" filter="url(#filter1_f_758_3327)">
<path d="M153.803 -5.54799C164.748 -15.9699 185.458 -13.1026 200.061 0.856293C214.664 14.8152 217.63 34.5797 206.685 45.0016C195.741 55.4235 187.062 41.0991 172.459 27.1402C157.856 13.1813 142.858 4.87392 153.803 -5.54799Z" fill="#D99945"/>
</g>
<g filter="url(#filter2_f_758_3327)">
<path d="M226.523 10.7564C226.922 1.3767 205.885 -12.7673 198.189 -15.8743C172.416 -33.7935 207.095 -25.0081 210.412 -26.5348C213.729 -28.0614 217.459 -26.2483 219.266 -24.5647C221.073 -22.881 249.132 -6.34089 257.221 1.56532C265.31 9.47152 266.02 17.7053 266.699 19.6312C267.379 21.5571 249.135 56.4568 237.717 63.9173C226.298 71.3778 216.198 54.2101 210.592 47.3244C204.986 40.4387 206.075 35.9128 219.497 32.5356C232.92 29.1584 226.024 22.4811 226.523 10.7564Z" fill="#D99945"/>
</g>
<g filter="url(#filter3_f_758_3327)">
<path d="M187.444 -18.7876C204.551 -13.3843 216.498 -6.51717 215.305 -9.89338C207.592 -14.3466 193.263 -23.8678 191.094 -23.8717C188.383 -23.8766 172.904 -25.2712 171.755 -24.7646C170.835 -24.3593 156.667 -14.7947 149.697 -10.063L150.215 26.6449C162.778 34.2446 188.25 49.4364 189.639 49.406C191.375 49.3681 198.802 36.7519 188.288 33.9326C177.774 31.1134 168.827 18.406 164.323 8.39391C159.82 -1.61819 166.061 -25.5417 187.444 -18.7876Z" fill="#D99945"/>
</g>
<g filter="url(#filter4_f_758_3327)">
<path d="M182.186 -7.09083C190.962 -10.7112 189.693 -15.9325 187.962 -18.0906C184.551 -18.5568 177.083 -19.4203 174.488 -19.1444C171.245 -18.7994 155.162 -11.4966 152.795 -9.05873C150.429 -6.62084 146.155 -3.93715 144.394 2.61545C142.633 9.16805 152.025 35.3054 153.831 40.3318C155.276 44.3529 164.36 45.802 168.722 46.0239C176.445 46.1144 189.184 45.3559 178.355 41.5975C164.82 36.8996 164.004 13.8058 163.109 10.6196C162.213 7.43339 171.217 -2.56532 182.186 -7.09083Z" fill="#D99945"/>
</g>
<g style="mix-blend-mode:soft-light" filter="url(#filter5_f_758_3327)">
<path d="M188.754 -19.9308C196.677 -24.0759 210.623 -15.5242 219.903 -0.830221C229.183 13.8638 230.283 29.1359 222.36 33.281C214.437 37.426 209.201 24.3176 199.921 9.62358C190.641 -5.07043 180.831 -15.7857 188.754 -19.9308Z" fill="#D99945"/>
</g>
<g style="mix-blend-mode:overlay">
<rect x="240.423" y="-2.26648" width="255" height="318" transform="rotate(120 240.423 -2.26648)" fill="#D99945"/>
</g>
</g>
<path d="M54.0298 114.484L56.8366 114.484L58.8125 117.06L59.745 118.205L62.8935 122.314L59.9759 122.314L57.8707 119.572L57.1506 118.575L54.0298 114.484ZM63.5028 111.16C63.5028 113.179 63.1335 114.915 62.3949 116.368C61.6563 117.814 60.6437 118.928 59.3572 119.71C58.0769 120.486 56.6212 120.874 54.9901 120.874C53.3527 120.874 51.8909 120.486 50.6044 119.71C49.3241 118.928 48.3146 117.811 47.576 116.359C46.8374 114.906 46.468 113.173 46.468 111.16C46.468 109.142 46.8374 107.409 47.576 105.962C48.3146 104.51 49.3241 103.396 50.6044 102.62C51.8909 101.838 53.3527 101.447 54.9901 101.447C56.6212 101.447 58.0769 101.838 59.3572 102.62C60.6437 103.396 61.6563 104.51 62.3949 105.962C63.1335 107.409 63.5028 109.142 63.5028 111.16ZM60.6776 111.16C60.6776 109.622 60.4283 108.326 59.9297 107.273C59.4373 106.215 58.7602 105.414 57.8984 104.873C57.0429 104.325 56.0734 104.051 54.9901 104.051C53.9006 104.051 52.928 104.325 52.0724 104.873C51.2169 105.414 50.5398 106.215 50.0412 107.273C49.5488 108.326 49.3026 109.622 49.3026 111.16C49.3026 112.699 49.5488 113.998 50.0412 115.057C50.5398 116.109 51.2169 116.909 52.0724 117.457C52.928 117.999 53.9006 118.27 54.9901 118.27C56.0734 118.27 57.0429 117.999 57.8984 117.457C58.7602 116.909 59.4373 116.109 59.9297 115.057C60.4283 113.998 60.6776 112.699 60.6776 111.16ZM76.0819 114.734L76.0819 106.433L78.8518 106.433L78.8518 120.615L76.1373 120.615L76.1373 118.159L75.9896 118.159C75.6634 118.916 75.1402 119.547 74.42 120.052C73.706 120.55 72.8165 120.8 71.7517 120.8C70.8407 120.8 70.0343 120.6 69.3326 120.2C68.6371 119.793 68.0893 119.193 67.6892 118.399C67.2952 117.605 67.0982 116.623 67.0982 115.454L67.0982 106.433L69.8589 106.433L69.8589 115.121C69.8589 116.088 70.1267 116.857 70.6622 117.43C71.1977 118.002 71.8932 118.288 72.7488 118.288C73.2659 118.288 73.7798 118.159 74.2907 117.901C74.8078 117.642 75.2356 117.251 75.5741 116.728C75.9188 116.205 76.0881 115.54 76.0819 114.734ZM82.8211 120.615L82.8211 106.433L85.5818 106.433L85.5818 120.615L82.8211 120.615ZM84.2153 104.245C83.7352 104.245 83.3228 104.085 82.9781 103.765C82.6396 103.439 82.4703 103.051 82.4703 102.601C82.4703 102.146 82.6396 101.758 82.9781 101.438C83.3228 101.112 83.7352 100.949 84.2153 100.949C84.6954 100.949 85.1048 101.112 85.4433 101.438C85.788 101.758 85.9603 102.146 85.9603 102.601C85.9603 103.051 85.788 103.439 85.4433 103.765C85.1048 104.085 84.6954 104.245 84.2153 104.245ZM89.2603 120.615L89.2603 118.722L96.9421 108.963L96.9421 108.834L89.5096 108.834L89.5096 106.433L100.386 106.433L100.386 108.446L92.9996 118.085L92.9996 118.214L100.645 118.214L100.645 120.615L89.2603 120.615ZM111.524 120.615L111.524 101.706L118.264 101.706C119.735 101.706 120.954 101.974 121.92 102.509C122.887 103.045 123.61 103.777 124.09 104.707C124.57 105.63 124.81 106.67 124.81 107.827C124.81 108.991 124.567 110.037 124.081 110.967C123.601 111.89 122.874 112.622 121.902 113.164C120.935 113.7 119.72 113.967 118.255 113.967L113.62 113.967L113.62 111.548L117.996 111.548C118.926 111.548 119.68 111.388 120.258 111.068C120.837 110.742 121.262 110.299 121.532 109.739C121.803 109.178 121.939 108.541 121.939 107.827C121.939 107.113 121.803 106.479 121.532 105.925C121.262 105.371 120.834 104.937 120.249 104.624C119.67 104.31 118.907 104.153 117.959 104.153L114.377 104.153L114.377 120.615L111.524 120.615ZM133.989 120.901C132.66 120.901 131.499 120.597 130.508 119.987C129.517 119.378 128.748 118.525 128.2 117.43C127.652 116.334 127.378 115.054 127.378 113.589C127.378 112.118 127.652 110.831 128.2 109.729C128.748 108.628 129.517 107.772 130.508 107.163C131.499 106.553 132.66 106.249 133.989 106.249C135.319 106.249 136.479 106.553 137.47 107.163C138.461 107.772 139.23 108.628 139.778 109.729C140.326 110.831 140.6 112.118 140.6 113.589C140.6 115.054 140.326 116.334 139.778 117.43C139.23 118.525 138.461 119.378 137.47 119.987C136.479 120.597 135.319 120.901 133.989 120.901ZM133.998 118.584C134.86 118.584 135.574 118.356 136.14 117.9C136.707 117.445 137.125 116.839 137.396 116.082C137.673 115.325 137.812 114.49 137.812 113.579C137.812 112.675 137.673 111.844 137.396 111.087C137.125 110.323 136.707 109.711 136.14 109.249C135.574 108.788 134.86 108.557 133.998 108.557C133.13 108.557 132.41 108.788 131.838 109.249C131.272 109.711 130.85 110.323 130.573 111.087C130.302 111.844 130.167 112.675 130.167 113.579C130.167 114.49 130.302 115.325 130.573 116.082C130.85 116.839 131.272 117.445 131.838 117.9C132.41 118.356 133.13 118.584 133.998 118.584ZM143.941 120.615L143.941 106.433L146.61 106.433L146.61 108.686L146.758 108.686C147.016 107.923 147.472 107.323 148.124 106.886C148.783 106.442 149.527 106.221 150.358 106.221C150.531 106.221 150.734 106.227 150.968 106.239C151.208 106.252 151.396 106.267 151.531 106.285L151.531 108.926C151.42 108.895 151.223 108.861 150.94 108.825C150.657 108.781 150.374 108.76 150.091 108.76C149.438 108.76 148.856 108.898 148.346 109.175C147.841 109.446 147.441 109.825 147.145 110.311C146.85 110.791 146.702 111.339 146.702 111.954L146.702 120.615L143.941 120.615ZM161.638 106.433L161.638 108.649L153.891 108.649L153.891 106.433L161.638 106.433ZM155.969 103.035L158.73 103.035L158.73 116.451C158.73 116.986 158.81 117.39 158.97 117.66C159.13 117.925 159.336 118.107 159.588 118.205C159.847 118.298 160.127 118.344 160.428 118.344C160.65 118.344 160.844 118.328 161.01 118.298C161.176 118.267 161.306 118.242 161.398 118.224L161.896 120.504C161.736 120.566 161.509 120.627 161.213 120.689C160.918 120.757 160.548 120.793 160.105 120.8C159.379 120.812 158.702 120.683 158.074 120.412C157.446 120.141 156.938 119.722 156.551 119.156C156.163 118.59 155.969 117.879 155.969 117.023L155.969 103.035ZM169.079 120.929C168.18 120.929 167.368 120.763 166.641 120.43C165.915 120.092 165.339 119.602 164.915 118.962C164.496 118.322 164.287 117.537 164.287 116.608C164.287 115.808 164.441 115.149 164.749 114.632C165.056 114.115 165.472 113.706 165.995 113.404C166.518 113.102 167.103 112.875 167.749 112.721C168.396 112.567 169.054 112.45 169.725 112.37C170.575 112.271 171.264 112.191 171.793 112.13C172.323 112.062 172.707 111.954 172.947 111.807C173.187 111.659 173.308 111.419 173.308 111.087L173.308 111.022C173.308 110.216 173.08 109.591 172.624 109.148C172.175 108.704 171.504 108.483 170.611 108.483C169.682 108.483 168.95 108.689 168.414 109.101C167.885 109.508 167.518 109.96 167.315 110.459L164.721 109.868C165.029 109.006 165.478 108.311 166.069 107.781C166.666 107.246 167.352 106.858 168.128 106.618C168.903 106.372 169.719 106.249 170.575 106.249C171.141 106.249 171.741 106.316 172.375 106.452C173.015 106.581 173.612 106.821 174.166 107.172C174.726 107.523 175.185 108.024 175.542 108.677C175.899 109.323 176.077 110.163 176.077 111.197L176.077 120.615L173.381 120.615L173.381 118.676L173.271 118.676C173.092 119.033 172.824 119.384 172.467 119.729C172.11 120.073 171.652 120.36 171.092 120.587C170.531 120.815 169.861 120.929 169.079 120.929ZM169.679 118.713C170.442 118.713 171.095 118.562 171.636 118.261C172.184 117.959 172.6 117.565 172.883 117.079C173.172 116.586 173.317 116.06 173.317 115.5L173.317 113.672C173.218 113.77 173.027 113.863 172.744 113.949C172.467 114.029 172.15 114.1 171.793 114.161C171.436 114.217 171.089 114.269 170.75 114.318C170.411 114.361 170.128 114.398 169.901 114.429C169.365 114.497 168.876 114.61 168.433 114.771C167.995 114.931 167.645 115.161 167.38 115.463C167.121 115.758 166.992 116.152 166.992 116.645C166.992 117.328 167.245 117.845 167.749 118.196C168.254 118.541 168.897 118.713 169.679 118.713ZM182.775 101.706L182.775 120.615L180.014 120.615L180.014 101.706L182.775 101.706Z" fill="white"/>
<path d="M40.233 180.615L40.233 170.433L43.7926 170.433C44.5019 170.433 45.0869 170.556 45.5476 170.801C46.0083 171.043 46.3513 171.369 46.5767 171.78C46.8021 172.188 46.9148 172.641 46.9148 173.138C46.9148 173.575 46.8369 173.936 46.6811 174.222C46.5286 174.507 46.3265 174.732 46.0746 174.898C45.826 175.063 45.5559 175.186 45.2642 175.266L45.2642 175.365C45.5758 175.385 45.889 175.494 46.2038 175.693C46.5187 175.892 46.7822 176.177 46.9943 176.548C47.2064 176.919 47.3125 177.374 47.3125 177.91C47.3125 178.421 47.1965 178.88 46.9645 179.288C46.7325 179.695 46.3662 180.018 45.8658 180.257C45.3653 180.496 44.714 180.615 43.9119 180.615L40.233 180.615ZM41.4659 179.521L43.9119 179.521C44.7173 179.521 45.2891 179.365 45.6271 179.054C45.9685 178.739 46.1392 178.358 46.1392 177.91C46.1392 177.566 46.0514 177.248 45.8757 176.956C45.7 176.661 45.4498 176.426 45.125 176.25C44.8002 176.071 44.4157 175.981 43.9716 175.981L41.4659 175.981L41.4659 179.521ZM41.4659 174.908L43.7528 174.908C44.1241 174.908 44.4588 174.835 44.7571 174.689C45.0587 174.543 45.2973 174.338 45.473 174.072C45.652 173.807 45.7415 173.496 45.7415 173.138C45.7415 172.69 45.5857 172.311 45.2741 171.999C44.9626 171.684 44.4688 171.527 43.7926 171.527L41.4659 171.527L41.4659 174.908ZM50.075 183.479C49.8762 183.479 49.6988 183.462 49.5431 183.429C49.3873 183.399 49.2796 183.369 49.2199 183.339L49.5182 182.305C49.8032 182.378 50.0551 182.405 50.2739 182.385C50.4926 182.365 50.6865 182.267 50.8556 182.092C51.0279 181.919 51.1853 181.639 51.3279 181.251L51.5466 180.655L48.7227 172.979L49.9955 172.979L52.1034 179.064L52.183 179.064L54.2909 172.979L55.5637 172.979L52.3222 181.729C52.1763 182.123 51.9957 182.45 51.7803 182.708C51.5648 182.97 51.3146 183.164 51.0296 183.29C50.7478 183.416 50.4297 183.479 50.075 183.479ZM57.8318 180.683C57.6216 180.683 57.4412 180.608 57.2907 180.457C57.1401 180.307 57.0648 180.126 57.0648 179.916C57.0648 179.706 57.1401 179.526 57.2907 179.375C57.4412 179.224 57.6216 179.149 57.8318 179.149C58.0421 179.149 58.2225 179.224 58.373 179.375C58.5236 179.526 58.5989 179.706 58.5989 179.916C58.5989 180.055 58.5634 180.183 58.4924 180.3C58.4242 180.416 58.3318 180.51 58.2154 180.581C58.1017 180.649 57.9739 180.683 57.8318 180.683ZM57.8318 175.825C57.6216 175.825 57.4412 175.75 57.2907 175.599C57.1401 175.449 57.0648 175.268 57.0648 175.058C57.0648 174.848 57.1401 174.668 57.2907 174.517C57.4412 174.366 57.6216 174.291 57.8318 174.291C58.0421 174.291 58.2225 174.366 58.373 174.517C58.5236 174.668 58.5989 174.848 58.5989 175.058C58.5989 175.197 58.5634 175.325 58.4924 175.442C58.4242 175.558 58.3318 175.652 58.2154 175.723C58.1017 175.791 57.9739 175.825 57.8318 175.825ZM64.2736 176.405L64.2736 177.342L60.4554 177.342L60.4554 176.405L64.2736 176.405ZM78.0622 174.07C78.0111 173.638 77.8037 173.302 77.44 173.064C77.0764 172.825 76.6304 172.706 76.102 172.706C75.7156 172.706 75.3775 172.768 75.0878 172.893C74.8008 173.018 74.5764 173.19 74.4145 173.409C74.2554 173.628 74.1758 173.876 74.1758 174.155C74.1758 174.388 74.2312 174.588 74.342 174.756C74.4557 174.92 74.6006 175.058 74.7767 175.169C74.9528 175.277 75.1375 175.366 75.3307 175.437C75.5238 175.506 75.7014 175.561 75.8633 175.604L76.7497 175.842C76.977 175.902 77.2298 175.984 77.5082 176.089C77.7895 176.195 78.0579 176.338 78.3136 176.52C78.5721 176.699 78.7852 176.929 78.9528 177.21C79.1204 177.491 79.2042 177.837 79.2042 178.246C79.2042 178.717 79.0807 179.143 78.8335 179.524C78.5892 179.905 78.2312 180.207 77.7596 180.432C77.2909 180.656 76.7213 180.768 76.0508 180.768C75.4258 180.768 74.8846 180.668 74.4273 180.466C73.9727 180.264 73.6148 179.983 73.3534 179.622C73.0949 179.261 72.9486 178.842 72.9145 178.365L74.0054 178.365C74.0338 178.695 74.1446 178.967 74.3378 179.183C74.5338 179.396 74.781 179.555 75.0792 179.66C75.3804 179.763 75.7042 179.814 76.0508 179.814C76.4542 179.814 76.8165 179.749 77.1375 179.618C77.4585 179.484 77.7128 179.3 77.9003 179.064C78.0878 178.825 78.1815 178.547 78.1815 178.229C78.1815 177.939 78.1006 177.703 77.9386 177.521C77.7767 177.339 77.5636 177.192 77.2994 177.078C77.0352 176.964 76.7497 176.865 76.4429 176.78L75.369 176.473C74.6872 176.277 74.1474 175.997 73.7497 175.633C73.352 175.27 73.1531 174.794 73.1531 174.206C73.1531 173.717 73.2852 173.291 73.5494 172.927C73.8165 172.561 74.1744 172.277 74.6233 172.075C75.075 171.871 75.5792 171.768 76.1361 171.768C76.6986 171.768 77.1986 171.869 77.6361 172.071C78.0736 172.27 78.4202 172.543 78.6758 172.889C78.9344 173.236 79.0707 173.629 79.0849 174.07L78.0622 174.07ZM82.8516 180.768C82.4368 180.768 82.0604 180.69 81.7223 180.534C81.3843 180.375 81.1158 180.146 80.9169 179.848C80.7181 179.547 80.6186 179.183 80.6186 178.757C80.6186 178.382 80.6925 178.078 80.8402 177.845C80.988 177.609 81.1854 177.425 81.4326 177.291C81.6797 177.158 81.9524 177.058 82.2507 176.993C82.5519 176.925 82.8544 176.871 83.1584 176.831C83.5561 176.78 83.8786 176.741 84.1257 176.716C84.3757 176.687 84.5576 176.641 84.6712 176.575C84.7877 176.51 84.8459 176.396 84.8459 176.234L84.8459 176.2C84.8459 175.78 84.7309 175.453 84.5007 175.22C84.2735 174.987 83.9283 174.871 83.4652 174.871C82.9851 174.871 82.6087 174.976 82.336 175.186C82.0632 175.396 81.8715 175.621 81.7607 175.859L80.8061 175.518C80.9766 175.121 81.2039 174.811 81.488 174.589C81.7749 174.365 82.0874 174.209 82.4255 174.121C82.7664 174.03 83.1016 173.984 83.4311 173.984C83.6414 173.984 83.8828 174.01 84.1556 174.061C84.4311 174.109 84.6968 174.21 84.9524 174.364C85.211 174.517 85.4255 174.749 85.5959 175.058C85.7664 175.368 85.8516 175.783 85.8516 176.302L85.8516 180.615L84.8459 180.615L84.8459 179.729L84.7948 179.729C84.7266 179.871 84.613 180.023 84.4539 180.185C84.2948 180.347 84.0831 180.484 83.8189 180.598C83.5547 180.712 83.2323 180.768 82.8516 180.768ZM83.005 179.865C83.4027 179.865 83.738 179.787 84.0107 179.631C84.2863 179.474 84.4936 179.273 84.6328 179.025C84.7749 178.778 84.8459 178.518 84.8459 178.246L84.8459 177.325C84.8033 177.376 84.7095 177.423 84.5647 177.466C84.4226 177.506 84.2578 177.541 84.0703 177.572C83.8857 177.601 83.7053 177.626 83.5291 177.649C83.3559 177.669 83.2152 177.686 83.1073 177.7C82.8459 177.734 82.6016 177.79 82.3743 177.866C82.1499 177.94 81.9681 178.052 81.8289 178.203C81.6925 178.351 81.6243 178.552 81.6243 178.808C81.6243 179.158 81.7536 179.422 82.0121 179.601C82.2735 179.777 82.6044 179.865 83.005 179.865ZM90.4663 180.751C89.8526 180.751 89.3242 180.606 88.881 180.317C88.4379 180.027 88.0969 179.628 87.8583 179.119C87.6197 178.611 87.5004 178.03 87.5004 177.376C87.5004 176.712 87.6225 176.125 87.8668 175.616C88.114 175.105 88.4577 174.706 88.8981 174.419C89.3413 174.129 89.8583 173.984 90.4492 173.984C90.9094 173.984 91.3242 174.07 91.6935 174.24C92.0629 174.41 92.3654 174.649 92.6012 174.956C92.837 175.263 92.9833 175.621 93.0401 176.03L92.0344 176.03C91.9577 175.731 91.7873 175.467 91.5231 175.237C91.2617 175.004 90.9094 174.888 90.4663 174.888C90.0742 174.888 89.7305 174.99 89.435 175.195C89.1424 175.396 88.9137 175.682 88.7489 176.051C88.587 176.418 88.506 176.848 88.506 177.342C88.506 177.848 88.5856 178.288 88.7447 178.663C88.9066 179.038 89.1339 179.329 89.4265 179.537C89.7219 179.744 90.0685 179.848 90.4663 179.848C90.7276 179.848 90.9648 179.802 91.1779 179.712C91.391 179.621 91.5714 179.49 91.7191 179.32C91.8668 179.149 91.9719 178.945 92.0344 178.706L93.0401 178.706C92.9833 179.092 92.8427 179.44 92.6183 179.75C92.3967 180.057 92.1026 180.301 91.7362 180.483C91.3725 180.662 90.9492 180.751 90.4663 180.751ZM95.636 176.677L95.636 180.615L94.6303 180.615L94.6303 171.888L95.636 171.888L95.636 175.092L95.7212 175.092C95.8746 174.754 96.1047 174.486 96.4115 174.287C96.7212 174.085 97.1331 173.984 97.6473 173.984C98.0934 173.984 98.484 174.074 98.8192 174.253C99.1544 174.429 99.4144 174.7 99.599 175.067C99.7865 175.43 99.8803 175.893 99.8803 176.456L99.8803 180.615L98.8746 180.615L98.8746 176.524C98.8746 176.004 98.7397 175.602 98.4698 175.318C98.2027 175.031 97.832 174.888 97.3576 174.888C97.028 174.888 96.7326 174.957 96.4712 175.097C96.2127 175.236 96.0081 175.439 95.8576 175.706C95.7098 175.973 95.636 176.297 95.636 176.677ZM101.84 180.615L101.84 174.07L102.846 174.07L102.846 180.615L101.84 180.615ZM102.352 172.979C102.155 172.979 101.986 172.912 101.844 172.778C101.705 172.645 101.636 172.484 101.636 172.297C101.636 172.109 101.705 171.949 101.844 171.815C101.986 171.682 102.155 171.615 102.352 171.615C102.548 171.615 102.715 171.682 102.854 171.815C102.996 171.949 103.067 172.109 103.067 172.297C103.067 172.484 102.996 172.645 102.854 172.778C102.715 172.912 102.548 172.979 102.352 172.979ZM105.813 176.677L105.813 180.615L104.808 180.615L104.808 174.07L105.779 174.07L105.779 175.092L105.865 175.092C106.018 174.76 106.251 174.493 106.563 174.291C106.876 174.087 107.279 173.984 107.774 173.984C108.217 173.984 108.605 174.075 108.937 174.257C109.269 174.436 109.528 174.709 109.713 175.075C109.897 175.439 109.99 175.899 109.99 176.456L109.99 180.615L108.984 180.615L108.984 176.524C108.984 176.01 108.85 175.609 108.583 175.322C108.316 175.033 107.95 174.888 107.484 174.888C107.163 174.888 106.876 174.957 106.623 175.097C106.373 175.236 106.176 175.439 106.031 175.706C105.886 175.973 105.813 176.297 105.813 176.677ZM115.579 180.615L115.579 171.888L116.636 171.888L116.636 176.217L116.738 176.217L120.658 171.888L122.039 171.888L118.374 175.825L122.039 180.615L120.761 180.615L117.726 176.558L116.636 177.785L116.636 180.615L115.579 180.615ZM127.105 177.939L127.105 174.07L128.111 174.07L128.111 180.615L127.105 180.615L127.105 179.507L127.037 179.507C126.884 179.839 126.645 180.122 126.321 180.355C125.997 180.585 125.588 180.7 125.094 180.7C124.685 180.7 124.321 180.611 124.003 180.432C123.685 180.25 123.435 179.977 123.253 179.614C123.071 179.247 122.98 178.785 122.98 178.229L122.98 174.07L123.986 174.07L123.986 178.16C123.986 178.638 124.12 179.018 124.387 179.302C124.656 179.587 125 179.729 125.418 179.729C125.668 179.729 125.922 179.665 126.181 179.537C126.442 179.409 126.661 179.213 126.837 178.949C127.016 178.685 127.105 178.348 127.105 177.939ZM130.073 180.615L130.073 174.07L131.045 174.07L131.045 175.092L131.13 175.092C131.266 174.743 131.486 174.472 131.79 174.278C132.094 174.082 132.459 173.984 132.885 173.984C133.317 173.984 133.677 174.082 133.964 174.278C134.253 174.472 134.479 174.743 134.641 175.092L134.709 175.092C134.877 174.754 135.128 174.486 135.464 174.287C135.799 174.085 136.201 173.984 136.67 173.984C137.255 173.984 137.733 174.168 138.106 174.534C138.478 174.898 138.664 175.464 138.664 176.234L138.664 180.615L137.658 180.615L137.658 176.234C137.658 175.751 137.526 175.406 137.262 175.199C136.998 174.991 136.687 174.888 136.329 174.888C135.868 174.888 135.512 175.027 135.259 175.305C135.006 175.581 134.88 175.93 134.88 176.354L134.88 180.615L133.857 180.615L133.857 176.132C133.857 175.76 133.736 175.46 133.495 175.233C133.253 175.003 132.942 174.888 132.562 174.888C132.3 174.888 132.056 174.957 131.829 175.097C131.604 175.236 131.422 175.429 131.283 175.676C131.147 175.92 131.079 176.203 131.079 176.524L131.079 180.615L130.073 180.615ZM142.549 180.768C142.134 180.768 141.758 180.69 141.42 180.534C141.081 180.375 140.813 180.146 140.614 179.848C140.415 179.547 140.316 179.183 140.316 178.757C140.316 178.382 140.39 178.078 140.537 177.845C140.685 177.609 140.883 177.425 141.13 177.291C141.377 177.158 141.65 177.058 141.948 176.993C142.249 176.925 142.552 176.871 142.856 176.831C143.253 176.78 143.576 176.741 143.823 176.716C144.073 176.687 144.255 176.641 144.368 176.575C144.485 176.51 144.543 176.396 144.543 176.234L144.543 176.2C144.543 175.78 144.428 175.453 144.198 175.22C143.971 174.987 143.625 174.871 143.162 174.871C142.682 174.871 142.306 174.976 142.033 175.186C141.76 175.396 141.569 175.621 141.458 175.859L140.503 175.518C140.674 175.121 140.901 174.811 141.185 174.589C141.472 174.365 141.785 174.209 142.123 174.121C142.464 174.03 142.799 173.984 143.128 173.984C143.339 173.984 143.58 174.01 143.853 174.061C144.128 174.109 144.394 174.21 144.65 174.364C144.908 174.517 145.123 174.749 145.293 175.058C145.464 175.368 145.549 175.783 145.549 176.302L145.549 180.615L144.543 180.615L144.543 179.729L144.492 179.729C144.424 179.871 144.31 180.023 144.151 180.185C143.992 180.347 143.78 180.484 143.516 180.598C143.252 180.712 142.929 180.768 142.549 180.768ZM142.702 179.865C143.1 179.865 143.435 179.787 143.708 179.631C143.983 179.474 144.191 179.273 144.33 179.025C144.472 178.778 144.543 178.518 144.543 178.246L144.543 177.325C144.5 177.376 144.407 177.423 144.262 177.466C144.12 177.506 143.955 177.541 143.768 177.572C143.583 177.601 143.402 177.626 143.226 177.649C143.053 177.669 142.912 177.686 142.804 177.7C142.543 177.734 142.299 177.79 142.072 177.866C141.847 177.94 141.665 178.052 141.526 178.203C141.39 178.351 141.322 178.552 141.322 178.808C141.322 179.158 141.451 179.422 141.709 179.601C141.971 179.777 142.302 179.865 142.702 179.865ZM147.504 180.615L147.504 174.07L148.476 174.07L148.476 175.058L148.544 175.058C148.663 174.734 148.879 174.472 149.192 174.27C149.504 174.068 149.857 173.967 150.249 173.967C150.323 173.967 150.415 173.969 150.526 173.972C150.636 173.974 150.72 173.979 150.777 173.984L150.777 175.007C150.743 174.999 150.665 174.986 150.543 174.969C150.423 174.949 150.297 174.939 150.163 174.939C149.845 174.939 149.561 175.006 149.311 175.139C149.064 175.27 148.868 175.452 148.723 175.685C148.581 175.915 148.51 176.177 148.51 176.473L148.51 180.615L147.504 180.615ZM108.252 196.768C107.837 196.768 107.46 196.69 107.122 196.534C106.784 196.375 106.516 196.146 106.317 195.848C106.118 195.547 106.019 195.183 106.019 194.757C106.019 194.382 106.092 194.078 106.24 193.845C106.388 193.609 106.585 193.425 106.833 193.291C107.08 193.158 107.352 193.058 107.651 192.993C107.952 192.925 108.254 192.871 108.558 192.831C108.956 192.78 109.279 192.741 109.526 192.716C109.776 192.687 109.958 192.641 110.071 192.575C110.188 192.51 110.246 192.396 110.246 192.234L110.246 192.2C110.246 191.78 110.131 191.453 109.901 191.22C109.673 190.987 109.328 190.871 108.865 190.871C108.385 190.871 108.009 190.976 107.736 191.186C107.463 191.396 107.271 191.621 107.161 191.859L106.206 191.518C106.377 191.121 106.604 190.811 106.888 190.589C107.175 190.365 107.487 190.209 107.825 190.121C108.166 190.03 108.502 189.984 108.831 189.984C109.041 189.984 109.283 190.01 109.556 190.061C109.831 190.109 110.097 190.21 110.352 190.364C110.611 190.517 110.825 190.749 110.996 191.058C111.166 191.368 111.252 191.783 111.252 192.302L111.252 196.615L110.246 196.615L110.246 195.729L110.195 195.729C110.127 195.871 110.013 196.023 109.854 196.185C109.695 196.347 109.483 196.484 109.219 196.598C108.955 196.712 108.632 196.768 108.252 196.768ZM108.405 195.865C108.803 195.865 109.138 195.787 109.411 195.631C109.686 195.474 109.894 195.273 110.033 195.025C110.175 194.778 110.246 194.518 110.246 194.246L110.246 193.325C110.203 193.376 110.11 193.423 109.965 193.466C109.823 193.506 109.658 193.541 109.47 193.572C109.286 193.601 109.105 193.626 108.929 193.649C108.756 193.669 108.615 193.686 108.507 193.7C108.246 193.734 108.002 193.79 107.774 193.866C107.55 193.94 107.368 194.052 107.229 194.203C107.093 194.351 107.024 194.552 107.024 194.808C107.024 195.158 107.154 195.422 107.412 195.601C107.673 195.777 108.004 195.865 108.405 195.865ZM114.213 192.677L114.213 196.615L113.207 196.615L113.207 190.07L114.179 190.07L114.179 191.092L114.264 191.092C114.417 190.76 114.65 190.493 114.963 190.291C115.275 190.087 115.679 189.984 116.173 189.984C116.616 189.984 117.004 190.075 117.336 190.257C117.669 190.436 117.927 190.709 118.112 191.075C118.297 191.439 118.389 191.899 118.389 192.456L118.389 196.615L117.383 196.615L117.383 192.524C117.383 192.01 117.25 191.609 116.983 191.322C116.716 191.033 116.349 190.888 115.883 190.888C115.562 190.888 115.275 190.957 115.023 191.097C114.773 191.236 114.575 191.439 114.43 191.706C114.285 191.973 114.213 192.297 114.213 192.677ZM122.818 196.751C122.273 196.751 121.791 196.614 121.374 196.338C120.956 196.06 120.629 195.668 120.394 195.162C120.158 194.653 120.04 194.052 120.04 193.359C120.04 192.672 120.158 192.075 120.394 191.57C120.629 191.064 120.957 190.673 121.378 190.398C121.798 190.122 122.284 189.984 122.835 189.984C123.261 189.984 123.598 190.055 123.845 190.197C124.095 190.337 124.286 190.496 124.416 190.675C124.55 190.851 124.654 190.996 124.727 191.109L124.813 191.109L124.813 187.888L125.818 187.888L125.818 196.615L124.847 196.615L124.847 195.609L124.727 195.609C124.654 195.729 124.548 195.879 124.412 196.061C124.276 196.24 124.081 196.4 123.828 196.543C123.575 196.682 123.239 196.751 122.818 196.751ZM122.955 195.848C123.358 195.848 123.699 195.743 123.977 195.533C124.256 195.32 124.467 195.025 124.612 194.65C124.757 194.273 124.83 193.837 124.83 193.342C124.83 192.854 124.759 192.426 124.617 192.06C124.475 191.69 124.264 191.403 123.986 191.199C123.707 190.991 123.364 190.888 122.955 190.888C122.529 190.888 122.173 190.997 121.889 191.216C121.608 191.432 121.396 191.726 121.254 192.098C121.115 192.467 121.046 192.882 121.046 193.342C121.046 193.808 121.117 194.231 121.259 194.612C121.404 194.99 121.617 195.291 121.898 195.516C122.182 195.737 122.534 195.848 122.955 195.848ZM134.261 190.07L134.261 190.922L130.869 190.922L130.869 190.07L134.261 190.07ZM131.858 188.501L132.864 188.501L132.864 194.74C132.864 195.024 132.905 195.237 132.987 195.379C133.073 195.518 133.18 195.612 133.311 195.66C133.445 195.706 133.585 195.729 133.733 195.729C133.844 195.729 133.935 195.723 134.006 195.712C134.077 195.697 134.134 195.686 134.176 195.677L134.381 196.581C134.313 196.606 134.217 196.632 134.095 196.658C133.973 196.686 133.818 196.7 133.631 196.7C133.347 196.7 133.068 196.639 132.796 196.517C132.526 196.395 132.301 196.209 132.122 195.959C131.946 195.709 131.858 195.393 131.858 195.013L131.858 188.501ZM138.568 196.751C137.938 196.751 137.393 196.612 136.936 196.334C136.482 196.052 136.131 195.66 135.884 195.158C135.639 194.652 135.517 194.064 135.517 193.393C135.517 192.723 135.639 192.132 135.884 191.621C136.131 191.106 136.474 190.706 136.915 190.419C137.358 190.129 137.875 189.984 138.466 189.984C138.807 189.984 139.143 190.041 139.476 190.155C139.808 190.268 140.111 190.453 140.384 190.709C140.656 190.962 140.874 191.297 141.036 191.714C141.197 192.132 141.278 192.646 141.278 193.257L141.278 193.683L136.233 193.683L136.233 192.814L140.256 192.814C140.256 192.445 140.182 192.115 140.034 191.825C139.889 191.535 139.682 191.307 139.412 191.139C139.145 190.972 138.83 190.888 138.466 190.888C138.065 190.888 137.719 190.987 137.426 191.186C137.136 191.382 136.913 191.638 136.757 191.953C136.601 192.268 136.523 192.606 136.523 192.967L136.523 193.547C136.523 194.041 136.608 194.46 136.778 194.804C136.952 195.145 137.192 195.405 137.499 195.584C137.805 195.76 138.162 195.848 138.568 195.848C138.832 195.848 139.071 195.811 139.284 195.737C139.5 195.66 139.686 195.547 139.842 195.396C139.999 195.243 140.119 195.052 140.205 194.825L141.176 195.098C141.074 195.427 140.902 195.717 140.661 195.967C140.419 196.214 140.121 196.408 139.766 196.547C139.411 196.683 139.011 196.751 138.568 196.751ZM144.854 196.768C144.44 196.768 144.063 196.69 143.725 196.534C143.387 196.375 143.119 196.146 142.92 195.848C142.721 195.547 142.621 195.183 142.621 194.757C142.621 194.382 142.695 194.078 142.843 193.845C142.991 193.609 143.188 193.425 143.435 193.291C143.683 193.158 143.955 193.058 144.254 192.993C144.555 192.925 144.857 192.871 145.161 192.831C145.559 192.78 145.881 192.741 146.129 192.716C146.379 192.687 146.56 192.641 146.674 192.575C146.79 192.51 146.849 192.396 146.849 192.234L146.849 192.2C146.849 191.78 146.734 191.453 146.504 191.22C146.276 190.987 145.931 190.871 145.468 190.871C144.988 190.871 144.612 190.976 144.339 191.186C144.066 191.396 143.874 191.621 143.763 191.859L142.809 191.518C142.979 191.121 143.207 190.811 143.491 190.589C143.778 190.365 144.09 190.209 144.428 190.121C144.769 190.03 145.104 189.984 145.434 189.984C145.644 189.984 145.886 190.01 146.158 190.061C146.434 190.109 146.7 190.21 146.955 190.364C147.214 190.517 147.428 190.749 147.599 191.058C147.769 191.368 147.854 191.783 147.854 192.302L147.854 196.615L146.849 196.615L146.849 195.729L146.798 195.729C146.729 195.871 146.616 196.023 146.457 196.185C146.298 196.347 146.086 196.484 145.822 196.598C145.558 196.712 145.235 196.768 144.854 196.768ZM145.008 195.865C145.406 195.865 145.741 195.787 146.013 195.631C146.289 195.474 146.496 195.273 146.636 195.025C146.778 194.778 146.849 194.518 146.849 194.246L146.849 193.325C146.806 193.376 146.712 193.423 146.567 193.466C146.425 193.506 146.261 193.541 146.073 193.572C145.888 193.601 145.708 193.626 145.532 193.649C145.359 193.669 145.218 193.686 145.11 193.7C144.849 193.734 144.604 193.79 144.377 193.866C144.153 193.94 143.971 194.052 143.832 194.203C143.695 194.351 143.627 194.552 143.627 194.808C143.627 195.158 143.756 195.422 144.015 195.601C144.276 195.777 144.607 195.865 145.008 195.865ZM149.81 196.615L149.81 190.07L150.782 190.07L150.782 191.092L150.867 191.092C151.003 190.743 151.223 190.472 151.527 190.278C151.831 190.082 152.196 189.984 152.622 189.984C153.054 189.984 153.414 190.082 153.701 190.278C153.99 190.472 154.216 190.743 154.378 191.092L154.446 191.092C154.614 190.754 154.865 190.486 155.201 190.287C155.536 190.085 155.938 189.984 156.407 189.984C156.992 189.984 157.471 190.168 157.843 190.534C158.215 190.898 158.401 191.464 158.401 192.234L158.401 196.615L157.395 196.615L157.395 192.234C157.395 191.751 157.263 191.406 156.999 191.199C156.735 190.991 156.424 190.888 156.066 190.888C155.605 190.888 155.249 191.027 154.996 191.305C154.743 191.581 154.617 191.93 154.617 192.354L154.617 196.615L153.594 196.615L153.594 192.132C153.594 191.76 153.473 191.46 153.232 191.233C152.99 191.003 152.679 190.888 152.299 190.888C152.037 190.888 151.793 190.957 151.566 191.097C151.341 191.236 151.159 191.429 151.02 191.676C150.884 191.92 150.816 192.203 150.816 192.524L150.816 196.615L149.81 196.615Z" fill="white"/>
<path d="M39 183.399L48.4595 183.399L48.4595 184.354L39 184.354L39 183.399ZM51.6811 183.399L56.1784 183.399L56.1784 184.354L51.6811 184.354L51.6811 183.399ZM56.1784 183.001L59.6031 183.001L59.6031 183.82L56.1784 183.82L56.1784 183.001Z" fill="white"/>
<path d="M66.2051 224.938C65.8613 224.938 65.5474 224.854 65.2633 224.686C64.9792 224.516 64.752 224.289 64.5815 224.005C64.4139 223.72 64.3301 223.407 64.3301 223.063C64.3301 222.716 64.4139 222.402 64.5815 222.121C64.752 221.837 64.9792 221.611 65.2633 221.443C65.5474 221.273 65.8613 221.188 66.2051 221.188C66.5517 221.188 66.8656 221.273 67.1468 221.443C67.4309 221.611 67.6568 221.837 67.8244 222.121C67.9949 222.402 68.0801 222.716 68.0801 223.063C68.0801 223.407 67.9949 223.72 67.8244 224.005C67.6568 224.289 67.4309 224.516 67.1468 224.686C66.8656 224.854 66.5517 224.938 66.2051 224.938ZM76.2619 226.54V217.813H77.3187V221.699H81.9721V217.813H83.0289V226.54H81.9721V222.637H77.3187V226.54H76.2619ZM84.7874 218.75V217.813H91.3329V218.75H88.5886V226.54H87.5318V218.75H84.7874ZM93.0839 217.813H94.3453L97.3112 225.057H97.4135L100.379 217.813H101.641V226.54H100.652V219.909H100.567L97.8396 226.54H96.8851L94.1578 219.909H94.0726V226.54H93.0839V217.813ZM103.88 226.54V217.813H104.937V225.603H108.993V226.54H103.88ZM112.113 225.347L112.045 225.807C111.997 226.131 111.923 226.478 111.824 226.847C111.727 227.216 111.626 227.564 111.521 227.891C111.416 228.218 111.329 228.478 111.261 228.671H110.494C110.531 228.489 110.579 228.249 110.639 227.951C110.699 227.652 110.758 227.318 110.818 226.949C110.88 226.583 110.932 226.208 110.971 225.824L111.022 225.347H112.113ZM124.751 220.54H123.694C123.631 220.236 123.522 219.969 123.366 219.739C123.212 219.509 123.025 219.316 122.803 219.159C122.585 219 122.342 218.881 122.075 218.801C121.808 218.722 121.529 218.682 121.239 218.682C120.711 218.682 120.232 218.816 119.803 219.083C119.377 219.35 119.038 219.743 118.785 220.263C118.535 220.783 118.41 221.421 118.41 222.176C118.41 222.932 118.535 223.57 118.785 224.09C119.038 224.61 119.377 225.003 119.803 225.27C120.232 225.537 120.711 225.671 121.239 225.671C121.529 225.671 121.808 225.631 122.075 225.551C122.342 225.472 122.585 225.354 122.803 225.198C123.025 225.039 123.212 224.844 123.366 224.614C123.522 224.381 123.631 224.114 123.694 223.813H124.751C124.671 224.259 124.526 224.658 124.316 225.01C124.106 225.362 123.844 225.662 123.532 225.909C123.219 226.154 122.869 226.34 122.479 226.468C122.093 226.595 121.68 226.659 121.239 226.659C120.495 226.659 119.833 226.478 119.254 226.114C118.674 225.75 118.218 225.233 117.886 224.563C117.553 223.892 117.387 223.097 117.387 222.176C117.387 221.256 117.553 220.46 117.886 219.79C118.218 219.12 118.674 218.603 119.254 218.239C119.833 217.875 120.495 217.693 121.239 217.693C121.68 217.693 122.093 217.757 122.479 217.885C122.869 218.013 123.219 218.201 123.532 218.448C123.844 218.692 124.106 218.99 124.316 219.343C124.526 219.692 124.671 220.091 124.751 220.54ZM131.351 219.995C131.3 219.563 131.093 219.228 130.729 218.989C130.365 218.75 129.919 218.631 129.391 218.631C129.005 218.631 128.667 218.693 128.377 218.818C128.09 218.943 127.865 219.115 127.703 219.334C127.544 219.553 127.465 219.801 127.465 220.08C127.465 220.313 127.52 220.513 127.631 220.681C127.745 220.845 127.89 220.983 128.066 221.094C128.242 221.202 128.426 221.291 128.62 221.362C128.813 221.431 128.99 221.486 129.152 221.529L130.039 221.767C130.266 221.827 130.519 221.909 130.797 222.014C131.078 222.12 131.347 222.263 131.603 222.445C131.861 222.624 132.074 222.854 132.242 223.135C132.409 223.416 132.493 223.762 132.493 224.171C132.493 224.642 132.37 225.068 132.122 225.449C131.878 225.83 131.52 226.132 131.049 226.357C130.58 226.581 130.01 226.693 129.34 226.693C128.715 226.693 128.174 226.593 127.716 226.391C127.262 226.189 126.904 225.908 126.642 225.547C126.384 225.186 126.238 224.767 126.203 224.29H127.294C127.323 224.62 127.434 224.892 127.627 225.108C127.823 225.321 128.07 225.48 128.368 225.585C128.669 225.688 128.993 225.739 129.34 225.739C129.743 225.739 130.105 225.674 130.426 225.543C130.747 225.409 131.002 225.225 131.189 224.989C131.377 224.75 131.471 224.472 131.471 224.154C131.471 223.864 131.39 223.628 131.228 223.446C131.066 223.264 130.853 223.117 130.588 223.003C130.324 222.889 130.039 222.79 129.732 222.705L128.658 222.398C127.976 222.202 127.436 221.922 127.039 221.559C126.641 221.195 126.442 220.719 126.442 220.131C126.442 219.642 126.574 219.216 126.838 218.853C127.105 218.486 127.463 218.202 127.912 218C128.364 217.796 128.868 217.693 129.425 217.693C129.988 217.693 130.488 217.794 130.925 217.996C131.363 218.195 131.709 218.468 131.965 218.814C132.223 219.161 132.36 219.554 132.374 219.995H131.351ZM139.124 219.995C139.072 219.563 138.865 219.228 138.501 218.989C138.138 218.75 137.692 218.631 137.163 218.631C136.777 218.631 136.439 218.693 136.149 218.818C135.862 218.943 135.638 219.115 135.476 219.334C135.317 219.553 135.237 219.801 135.237 220.08C135.237 220.313 135.293 220.513 135.403 220.681C135.517 220.845 135.662 220.983 135.838 221.094C136.014 221.202 136.199 221.291 136.392 221.362C136.585 221.431 136.763 221.486 136.925 221.529L137.811 221.767C138.038 221.827 138.291 221.909 138.57 222.014C138.851 222.12 139.119 222.263 139.375 222.445C139.633 222.624 139.847 222.854 140.014 223.135C140.182 223.416 140.266 223.762 140.266 224.171C140.266 224.642 140.142 225.068 139.895 225.449C139.651 225.83 139.293 226.132 138.821 226.357C138.352 226.581 137.783 226.693 137.112 226.693C136.487 226.693 135.946 226.593 135.489 226.391C135.034 226.189 134.676 225.908 134.415 225.547C134.156 225.186 134.01 224.767 133.976 224.29H135.067C135.095 224.62 135.206 224.892 135.399 225.108C135.595 225.321 135.842 225.48 136.141 225.585C136.442 225.688 136.766 225.739 137.112 225.739C137.516 225.739 137.878 225.674 138.199 225.543C138.52 225.409 138.774 225.225 138.962 224.989C139.149 224.75 139.243 224.472 139.243 224.154C139.243 223.864 139.162 223.628 139 223.446C138.838 223.264 138.625 223.117 138.361 223.003C138.097 222.889 137.811 222.79 137.504 222.705L136.43 222.398C135.749 222.202 135.209 221.922 134.811 221.559C134.413 221.195 134.214 220.719 134.214 220.131C134.214 219.642 134.347 219.216 134.611 218.853C134.878 218.486 135.236 218.202 135.685 218C136.136 217.796 136.641 217.693 137.197 217.693C137.76 217.693 138.26 217.794 138.697 217.996C139.135 218.195 139.481 218.468 139.737 218.814C139.996 219.161 140.132 219.554 140.146 219.995H139.124ZM66.2051 238.938C65.8613 238.938 65.5474 238.854 65.2633 238.686C64.9792 238.516 64.752 238.289 64.5815 238.005C64.4139 237.72 64.3301 237.407 64.3301 237.063C64.3301 236.716 64.4139 236.402 64.5815 236.121C64.752 235.837 64.9792 235.611 65.2633 235.443C65.5474 235.273 65.8613 235.188 66.2051 235.188C66.5517 235.188 66.8656 235.273 67.1468 235.443C67.4309 235.611 67.6568 235.837 67.8244 236.121C67.9949 236.402 68.0801 236.716 68.0801 237.063C68.0801 237.407 67.9949 237.72 67.8244 238.005C67.6568 238.289 67.4309 238.516 67.1468 238.686C66.8656 238.854 66.5517 238.938 66.2051 238.938ZM79.6028 231.813H80.6596V238.051C80.6596 238.608 80.5574 239.081 80.3528 239.47C80.1483 239.86 79.8599 240.155 79.4877 240.357C79.1156 240.559 78.6767 240.659 78.171 240.659C77.6937 240.659 77.269 240.573 76.8968 240.399C76.5247 240.223 76.2321 239.973 76.019 239.649C75.8059 239.326 75.6994 238.941 75.6994 238.495H76.7392C76.7392 238.742 76.8002 238.958 76.9224 239.142C77.0474 239.324 77.2179 239.466 77.4338 239.568C77.6497 239.671 77.8954 239.722 78.171 239.722C78.475 239.722 78.7335 239.658 78.9466 239.53C79.1596 239.402 79.3216 239.215 79.4324 238.968C79.546 238.718 79.6028 238.412 79.6028 238.051V231.813ZM84.6873 240.693C84.2725 240.693 83.8961 240.615 83.558 240.459C83.22 240.3 82.9515 240.071 82.7526 239.773C82.5538 239.472 82.4543 239.108 82.4543 238.682C82.4543 238.307 82.5282 238.003 82.6759 237.77C82.8237 237.534 83.0211 237.35 83.2683 237.216C83.5154 237.083 83.7881 236.983 84.0864 236.918C84.3876 236.85 84.6901 236.796 84.9941 236.756C85.3918 236.705 85.7143 236.666 85.9614 236.641C86.2114 236.612 86.3933 236.566 86.5069 236.5C86.6234 236.435 86.6816 236.321 86.6816 236.159V236.125C86.6816 235.705 86.5666 235.378 86.3364 235.145C86.1092 234.912 85.764 234.796 85.3009 234.796C84.8208 234.796 84.4444 234.901 84.1717 235.111C83.8989 235.321 83.7072 235.546 83.5964 235.784L82.6418 235.443C82.8123 235.046 83.0396 234.736 83.3237 234.514C83.6106 234.29 83.9231 234.134 84.2612 234.046C84.6021 233.955 84.9373 233.909 85.2668 233.909C85.4771 233.909 85.7185 233.935 85.9913 233.986C86.2668 234.034 86.5325 234.135 86.7881 234.289C87.0467 234.442 87.2612 234.674 87.4316 234.983C87.6021 235.293 87.6873 235.708 87.6873 236.228V240.54H86.6816V239.654H86.6305C86.5623 239.796 86.4487 239.948 86.2896 240.11C86.1305 240.272 85.9188 240.409 85.6546 240.523C85.3904 240.637 85.068 240.693 84.6873 240.693ZM84.8407 239.79C85.2384 239.79 85.5737 239.712 85.8464 239.556C86.122 239.399 86.3293 239.198 86.4685 238.951C86.6106 238.703 86.6816 238.443 86.6816 238.171V237.25C86.639 237.301 86.5452 237.348 86.4004 237.391C86.2583 237.431 86.0935 237.466 85.906 237.497C85.7214 237.526 85.541 237.551 85.3649 237.574C85.1916 237.594 85.0509 237.611 84.943 237.625C84.6816 237.659 84.4373 237.715 84.21 237.791C83.9856 237.865 83.8038 237.978 83.6646 238.128C83.5282 238.276 83.46 238.478 83.46 238.733C83.46 239.083 83.5893 239.347 83.8478 239.526C84.1092 239.702 84.4401 239.79 84.8407 239.79ZM94.7608 233.995L92.3403 240.54H91.3176L88.8971 233.995H89.988L91.7949 239.21H91.863L93.6699 233.995H94.7608ZM97.9351 240.693C97.5203 240.693 97.1439 240.615 96.8058 240.459C96.4678 240.3 96.1993 240.071 96.0004 239.773C95.8016 239.472 95.7022 239.108 95.7022 238.682C95.7022 238.307 95.776 238.003 95.9237 237.77C96.0715 237.534 96.2689 237.35 96.5161 237.216C96.7632 237.083 97.036 236.983 97.3343 236.918C97.6354 236.85 97.9379 236.796 98.2419 236.756C98.6397 236.705 98.9621 236.666 99.2093 236.641C99.4593 236.612 99.6411 236.566 99.7547 236.5C99.8712 236.435 99.9294 236.321 99.9294 236.159V236.125C99.9294 235.705 99.8144 235.378 99.5843 235.145C99.357 234.912 99.0118 234.796 98.5487 234.796C98.0686 234.796 97.6922 234.901 97.4195 235.111C97.1468 235.321 96.955 235.546 96.8442 235.784L95.8897 235.443C96.0601 235.046 96.2874 234.736 96.5715 234.514C96.8584 234.29 97.1709 234.134 97.509 234.046C97.8499 233.955 98.1851 233.909 98.5147 233.909C98.7249 233.909 98.9664 233.935 99.2391 233.986C99.5147 234.034 99.7803 234.135 100.036 234.289C100.294 234.442 100.509 234.674 100.679 234.983C100.85 235.293 100.935 235.708 100.935 236.228V240.54H99.9294V239.654H99.8783C99.8101 239.796 99.6965 239.948 99.5374 240.11C99.3783 240.272 99.1666 240.409 98.9024 240.523C98.6382 240.637 98.3158 240.693 97.9351 240.693ZM98.0885 239.79C98.4862 239.79 98.8215 239.712 99.0942 239.556C99.3698 239.399 99.5772 239.198 99.7164 238.951C99.8584 238.703 99.9294 238.443 99.9294 238.171V237.25C99.8868 237.301 99.7931 237.348 99.6482 237.391C99.5061 237.431 99.3414 237.466 99.1539 237.497C98.9692 237.526 98.7888 237.551 98.6127 237.574C98.4394 237.594 98.2987 237.611 98.1908 237.625C97.9294 237.659 97.6851 237.715 97.4578 237.791C97.2334 237.865 97.0516 237.978 96.9124 238.128C96.776 238.276 96.7078 238.478 96.7078 238.733C96.7078 239.083 96.8371 239.347 97.0956 239.526C97.357 239.702 97.6879 239.79 98.0885 239.79ZM107.8 233.995C107.749 233.563 107.541 233.228 107.178 232.989C106.814 232.75 106.368 232.631 105.84 232.631C105.453 232.631 105.115 232.693 104.825 232.818C104.538 232.943 104.314 233.115 104.152 233.334C103.993 233.553 103.913 233.801 103.913 234.08C103.913 234.313 103.969 234.513 104.08 234.681C104.193 234.845 104.338 234.983 104.514 235.094C104.69 235.202 104.875 235.291 105.068 235.362C105.261 235.431 105.439 235.486 105.601 235.529L106.487 235.767C106.715 235.827 106.967 235.909 107.246 236.014C107.527 236.12 107.796 236.263 108.051 236.445C108.31 236.624 108.523 236.854 108.69 237.135C108.858 237.416 108.942 237.762 108.942 238.171C108.942 238.642 108.818 239.068 108.571 239.449C108.327 239.83 107.969 240.132 107.497 240.357C107.028 240.581 106.459 240.693 105.788 240.693C105.163 240.693 104.622 240.593 104.165 240.391C103.71 240.189 103.352 239.908 103.091 239.547C102.832 239.186 102.686 238.767 102.652 238.29H103.743C103.771 238.62 103.882 238.892 104.075 239.108C104.271 239.321 104.519 239.48 104.817 239.585C105.118 239.688 105.442 239.739 105.788 239.739C106.192 239.739 106.554 239.674 106.875 239.543C107.196 239.409 107.45 239.225 107.638 238.989C107.825 238.75 107.919 238.472 107.919 238.154C107.919 237.864 107.838 237.628 107.676 237.446C107.514 237.264 107.301 237.117 107.037 237.003C106.773 236.889 106.487 236.79 106.18 236.705L105.107 236.398C104.425 236.202 103.885 235.922 103.487 235.559C103.09 235.195 102.891 234.719 102.891 234.131C102.891 233.642 103.023 233.216 103.287 232.853C103.554 232.486 103.912 232.202 104.361 232C104.813 231.796 105.317 231.693 105.874 231.693C106.436 231.693 106.936 231.794 107.374 231.996C107.811 232.195 108.158 232.468 108.413 232.814C108.672 233.161 108.808 233.554 108.823 233.995H107.8ZM113.322 240.676C112.708 240.676 112.18 240.532 111.737 240.242C111.294 239.952 110.953 239.553 110.714 239.044C110.476 238.536 110.356 237.955 110.356 237.301C110.356 236.637 110.478 236.05 110.723 235.541C110.97 235.03 111.314 234.631 111.754 234.344C112.197 234.054 112.714 233.909 113.305 233.909C113.765 233.909 114.18 233.995 114.549 234.165C114.919 234.335 115.221 234.574 115.457 234.881C115.693 235.188 115.839 235.546 115.896 235.955H114.89C114.814 235.657 114.643 235.392 114.379 235.162C114.118 234.929 113.765 234.813 113.322 234.813C112.93 234.813 112.586 234.915 112.291 235.12C111.998 235.321 111.77 235.607 111.605 235.976C111.443 236.343 111.362 236.773 111.362 237.267C111.362 237.773 111.441 238.213 111.601 238.588C111.762 238.963 111.99 239.255 112.282 239.462C112.578 239.669 112.924 239.773 113.322 239.773C113.583 239.773 113.821 239.728 114.034 239.637C114.247 239.546 114.427 239.415 114.575 239.245C114.723 239.074 114.828 238.87 114.89 238.631H115.896C115.839 239.017 115.699 239.365 115.474 239.675C115.253 239.982 114.958 240.226 114.592 240.408C114.228 240.587 113.805 240.676 113.322 240.676ZM117.486 240.54V233.995H118.458V234.983H118.526C118.645 234.659 118.861 234.397 119.174 234.195C119.486 233.993 119.838 233.892 120.23 233.892C120.304 233.892 120.397 233.894 120.507 233.897C120.618 233.899 120.702 233.904 120.759 233.909V234.932C120.725 234.924 120.647 234.911 120.525 234.894C120.405 234.874 120.279 234.864 120.145 234.864C119.827 234.864 119.543 234.931 119.293 235.064C119.046 235.195 118.85 235.377 118.705 235.61C118.563 235.84 118.492 236.103 118.492 236.398V240.54H117.486ZM122.071 240.54V233.995H123.077V240.54H122.071ZM122.582 232.904C122.386 232.904 122.217 232.837 122.075 232.703C121.936 232.57 121.866 232.409 121.866 232.222C121.866 232.034 121.936 231.874 122.075 231.74C122.217 231.607 122.386 231.54 122.582 231.54C122.778 231.54 122.946 231.607 123.085 231.74C123.227 231.874 123.298 232.034 123.298 232.222C123.298 232.409 123.227 232.57 123.085 232.703C122.946 232.837 122.778 232.904 122.582 232.904ZM125.039 242.995V233.995H126.01V235.034H126.13C126.203 234.921 126.306 234.776 126.436 234.6C126.57 234.421 126.76 234.262 127.007 234.122C127.257 233.98 127.595 233.909 128.022 233.909C128.573 233.909 129.059 234.047 129.479 234.323C129.899 234.598 130.228 234.989 130.463 235.495C130.699 236 130.817 236.597 130.817 237.284C130.817 237.978 130.699 238.578 130.463 239.087C130.228 239.593 129.901 239.985 129.483 240.263C129.066 240.539 128.584 240.676 128.039 240.676C127.618 240.676 127.282 240.607 127.029 240.468C126.776 240.326 126.581 240.165 126.445 239.986C126.309 239.804 126.203 239.654 126.13 239.534H126.044V242.995H125.039ZM126.027 237.267C126.027 237.762 126.1 238.198 126.245 238.576C126.39 238.951 126.601 239.245 126.88 239.458C127.158 239.668 127.499 239.773 127.902 239.773C128.323 239.773 128.674 239.662 128.955 239.441C129.239 239.216 129.452 238.915 129.594 238.537C129.739 238.157 129.811 237.733 129.811 237.267C129.811 236.807 129.74 236.392 129.598 236.023C129.459 235.651 129.247 235.357 128.963 235.141C128.682 234.922 128.328 234.813 127.902 234.813C127.493 234.813 127.149 234.916 126.871 235.124C126.593 235.328 126.382 235.615 126.24 235.985C126.098 236.351 126.027 236.779 126.027 237.267ZM135.318 233.995V234.847H131.926V233.995H135.318ZM132.914 232.426H133.92V238.665C133.92 238.949 133.961 239.162 134.044 239.304C134.129 239.443 134.237 239.537 134.367 239.585C134.501 239.631 134.642 239.654 134.789 239.654C134.9 239.654 134.991 239.648 135.062 239.637C135.133 239.622 135.19 239.611 135.233 239.603L135.437 240.506C135.369 240.532 135.274 240.557 135.152 240.583C135.029 240.611 134.875 240.625 134.687 240.625C134.403 240.625 134.125 240.564 133.852 240.442C133.582 240.32 133.358 240.134 133.179 239.884C133.002 239.634 132.914 239.318 132.914 238.938V232.426ZM66.2051 252.938C65.8613 252.938 65.5474 252.854 65.2633 252.686C64.9792 252.516 64.752 252.289 64.5815 252.005C64.4139 251.72 64.3301 251.407 64.3301 251.063C64.3301 250.716 64.4139 250.402 64.5815 250.121C64.752 249.837 64.9792 249.611 65.2633 249.443C65.5474 249.273 65.8613 249.188 66.2051 249.188C66.5517 249.188 66.8656 249.273 67.1468 249.443C67.4309 249.611 67.6568 249.837 67.8244 250.121C67.9949 250.402 68.0801 250.716 68.0801 251.063C68.0801 251.407 67.9949 251.72 67.8244 252.005C67.6568 252.289 67.4309 252.516 67.1468 252.686C66.8656 252.854 66.5517 252.938 66.2051 252.938ZM76.2619 254.54V245.813H79.313C79.921 245.813 80.4224 245.918 80.8173 246.128C81.2122 246.335 81.5062 246.615 81.6994 246.968C81.8926 247.317 81.9892 247.705 81.9892 248.131C81.9892 248.506 81.9224 248.816 81.7889 249.06C81.6582 249.304 81.4849 249.497 81.269 249.639C81.0559 249.782 80.8244 249.887 80.5744 249.955V250.04C80.8414 250.057 81.1099 250.151 81.3798 250.321C81.6497 250.492 81.8755 250.736 82.0574 251.054C82.2392 251.372 82.3301 251.762 82.3301 252.222C82.3301 252.659 82.2306 253.053 82.0318 253.402C81.8329 253.752 81.519 254.029 81.09 254.233C80.661 254.438 80.1028 254.54 79.4153 254.54H76.2619ZM77.3187 253.603H79.4153C80.1056 253.603 80.5957 253.469 80.8855 253.202C81.1781 252.932 81.3244 252.605 81.3244 252.222C81.3244 251.926 81.2491 251.654 81.0985 251.404C80.948 251.151 80.7335 250.949 80.4551 250.799C80.1767 250.645 79.8471 250.568 79.4664 250.568H77.3187V253.603ZM77.3187 249.648H79.2789C79.5971 249.648 79.8841 249.585 80.1397 249.46C80.3983 249.335 80.6028 249.159 80.7534 248.932C80.9068 248.705 80.9835 248.438 80.9835 248.131C80.9835 247.747 80.85 247.422 80.5829 247.155C80.3159 246.885 79.8926 246.75 79.313 246.75H77.3187V249.648ZM86.7093 254.676C86.1184 254.676 85.5999 254.536 85.1539 254.255C84.7107 253.973 84.3641 253.58 84.1141 253.074C83.867 252.568 83.7434 251.978 83.7434 251.301C83.7434 250.62 83.867 250.024 84.1141 249.516C84.3641 249.007 84.7107 248.612 85.1539 248.331C85.5999 248.05 86.1184 247.909 86.7093 247.909C87.3002 247.909 87.8173 248.05 88.2604 248.331C88.7065 248.612 89.0531 249.007 89.3002 249.516C89.5502 250.024 89.6752 250.62 89.6752 251.301C89.6752 251.978 89.5502 252.568 89.3002 253.074C89.0531 253.58 88.7065 253.973 88.2604 254.255C87.8173 254.536 87.3002 254.676 86.7093 254.676ZM86.7093 253.773C87.1582 253.773 87.5275 253.658 87.8173 253.428C88.107 253.198 88.3215 252.895 88.4607 252.52C88.5999 252.145 88.6695 251.739 88.6695 251.301C88.6695 250.864 88.5999 250.456 88.4607 250.078C88.3215 249.701 88.107 249.395 87.8173 249.162C87.5275 248.929 87.1582 248.813 86.7093 248.813C86.2604 248.813 85.8911 248.929 85.6014 249.162C85.3116 249.395 85.0971 249.701 84.9579 250.078C84.8187 250.456 84.7491 250.864 84.7491 251.301C84.7491 251.739 84.8187 252.145 84.9579 252.52C85.0971 252.895 85.3116 253.198 85.6014 253.428C85.8911 253.658 86.2604 253.773 86.7093 253.773ZM93.9895 254.676C93.3986 254.676 92.8801 254.536 92.4341 254.255C91.9909 253.973 91.6443 253.58 91.3943 253.074C91.1471 252.568 91.0236 251.978 91.0236 251.301C91.0236 250.62 91.1471 250.024 91.3943 249.516C91.6443 249.007 91.9909 248.612 92.4341 248.331C92.8801 248.05 93.3986 247.909 93.9895 247.909C94.5804 247.909 95.0974 248.05 95.5406 248.331C95.9866 248.612 96.3332 249.007 96.5804 249.516C96.8304 250.024 96.9554 250.62 96.9554 251.301C96.9554 251.978 96.8304 252.568 96.5804 253.074C96.3332 253.58 95.9866 253.973 95.5406 254.255C95.0974 254.536 94.5804 254.676 93.9895 254.676ZM93.9895 253.773C94.4383 253.773 94.8077 253.658 95.0974 253.428C95.3872 253.198 95.6017 252.895 95.7409 252.52C95.8801 252.145 95.9497 251.739 95.9497 251.301C95.9497 250.864 95.8801 250.456 95.7409 250.078C95.6017 249.701 95.3872 249.395 95.0974 249.162C94.8077 248.929 94.4383 248.813 93.9895 248.813C93.5406 248.813 93.1713 248.929 92.8815 249.162C92.5917 249.395 92.3773 249.701 92.238 250.078C92.0988 250.456 92.0292 250.864 92.0292 251.301C92.0292 251.739 92.0988 252.145 92.238 252.52C92.3773 252.895 92.5917 253.198 92.8815 253.428C93.1713 253.658 93.5406 253.773 93.9895 253.773ZM101.457 247.995V248.847H98.0651V247.995H101.457ZM99.0537 246.426H100.059V252.665C100.059 252.949 100.101 253.162 100.183 253.304C100.268 253.443 100.376 253.537 100.507 253.585C100.64 253.631 100.781 253.654 100.929 253.654C101.04 253.654 101.13 253.648 101.201 253.637C101.272 253.622 101.329 253.611 101.372 253.603L101.576 254.506C101.508 254.532 101.413 254.557 101.291 254.583C101.169 254.611 101.014 254.625 100.826 254.625C100.542 254.625 100.264 254.564 99.9912 254.442C99.7213 254.32 99.4969 254.134 99.3179 253.884C99.1418 253.634 99.0537 253.318 99.0537 252.938V246.426ZM107.609 249.46L106.706 249.716C106.649 249.566 106.565 249.419 106.454 249.277C106.346 249.132 106.199 249.013 106.011 248.919C105.824 248.826 105.584 248.779 105.291 248.779C104.89 248.779 104.557 248.871 104.289 249.056C104.025 249.237 103.893 249.469 103.893 249.75C103.893 250 103.984 250.198 104.166 250.343C104.348 250.487 104.632 250.608 105.018 250.705L105.99 250.943C106.575 251.085 107.011 251.303 107.298 251.595C107.585 251.885 107.728 252.259 107.728 252.716C107.728 253.091 107.62 253.426 107.405 253.722C107.191 254.017 106.893 254.25 106.51 254.421C106.126 254.591 105.68 254.676 105.172 254.676C104.504 254.676 103.951 254.532 103.514 254.242C103.076 253.952 102.799 253.529 102.683 252.972L103.637 252.733C103.728 253.085 103.9 253.35 104.153 253.526C104.409 253.702 104.743 253.79 105.155 253.79C105.623 253.79 105.995 253.691 106.271 253.492C106.549 253.29 106.689 253.049 106.689 252.767C106.689 252.54 106.609 252.35 106.45 252.196C106.291 252.04 106.047 251.924 105.717 251.847L104.626 251.591C104.027 251.449 103.586 251.229 103.305 250.931C103.027 250.63 102.887 250.253 102.887 249.801C102.887 249.432 102.991 249.105 103.199 248.821C103.409 248.537 103.694 248.314 104.055 248.152C104.419 247.99 104.831 247.909 105.291 247.909C105.939 247.909 106.447 248.051 106.816 248.335C107.189 248.62 107.453 248.995 107.609 249.46ZM112.209 247.995V248.847H108.817V247.995H112.209ZM109.805 246.426H110.811V252.665C110.811 252.949 110.852 253.162 110.935 253.304C111.02 253.443 111.128 253.537 111.259 253.585C111.392 253.631 111.533 253.654 111.68 253.654C111.791 253.654 111.882 253.648 111.953 253.637C112.024 253.622 112.081 253.611 112.124 253.603L112.328 254.506C112.26 254.532 112.165 254.557 112.043 254.583C111.92 254.611 111.766 254.625 111.578 254.625C111.294 254.625 111.016 254.564 110.743 254.442C110.473 254.32 110.249 254.134 110.07 253.884C109.893 253.634 109.805 253.318 109.805 252.938V246.426ZM113.842 254.54V247.995H114.813V248.983H114.881C115.001 248.659 115.217 248.397 115.529 248.195C115.842 247.993 116.194 247.892 116.586 247.892C116.66 247.892 116.752 247.894 116.863 247.897C116.974 247.899 117.058 247.904 117.114 247.909V248.932C117.08 248.924 117.002 248.911 116.88 248.894C116.761 248.874 116.634 248.864 116.501 248.864C116.183 248.864 115.898 248.931 115.648 249.064C115.401 249.195 115.205 249.377 115.06 249.61C114.918 249.84 114.847 250.103 114.847 250.398V254.54H113.842ZM120.353 254.693C119.938 254.693 119.561 254.615 119.223 254.459C118.885 254.3 118.617 254.071 118.418 253.773C118.219 253.472 118.12 253.108 118.12 252.682C118.12 252.307 118.194 252.003 118.341 251.77C118.489 251.534 118.686 251.35 118.934 251.216C119.181 251.083 119.453 250.983 119.752 250.918C120.053 250.85 120.355 250.796 120.659 250.756C121.057 250.705 121.38 250.666 121.627 250.641C121.877 250.612 122.059 250.566 122.172 250.5C122.289 250.435 122.347 250.321 122.347 250.159V250.125C122.347 249.705 122.232 249.378 122.002 249.145C121.774 248.912 121.429 248.796 120.966 248.796C120.486 248.796 120.11 248.901 119.837 249.111C119.564 249.321 119.372 249.546 119.262 249.784L118.307 249.443C118.478 249.046 118.705 248.736 118.989 248.514C119.276 248.29 119.588 248.134 119.926 248.046C120.267 247.955 120.603 247.909 120.932 247.909C121.142 247.909 121.384 247.935 121.657 247.986C121.932 248.034 122.198 248.135 122.453 248.289C122.712 248.442 122.926 248.674 123.097 248.983C123.267 249.293 123.353 249.708 123.353 250.228V254.54H122.347V253.654H122.296C122.228 253.796 122.114 253.948 121.955 254.11C121.796 254.272 121.584 254.409 121.32 254.523C121.056 254.637 120.733 254.693 120.353 254.693ZM120.506 253.79C120.904 253.79 121.239 253.712 121.512 253.556C121.787 253.399 121.995 253.198 122.134 252.951C122.276 252.703 122.347 252.443 122.347 252.171V251.25C122.304 251.301 122.211 251.348 122.066 251.391C121.924 251.431 121.759 251.466 121.571 251.497C121.387 251.526 121.206 251.551 121.03 251.574C120.857 251.594 120.716 251.611 120.608 251.625C120.347 251.659 120.103 251.715 119.875 251.791C119.651 251.865 119.469 251.978 119.33 252.128C119.194 252.276 119.125 252.478 119.125 252.733C119.125 253.083 119.255 253.347 119.513 253.526C119.774 253.702 120.105 253.79 120.506 253.79ZM125.308 256.995V247.995H126.28V249.034H126.399C126.473 248.921 126.575 248.776 126.706 248.6C126.839 248.421 127.03 248.262 127.277 248.122C127.527 247.98 127.865 247.909 128.291 247.909C128.842 247.909 129.328 248.047 129.749 248.323C130.169 248.598 130.497 248.989 130.733 249.495C130.969 250 131.087 250.597 131.087 251.284C131.087 251.978 130.969 252.578 130.733 253.087C130.497 253.593 130.17 253.985 129.753 254.263C129.335 254.539 128.854 254.676 128.308 254.676C127.888 254.676 127.551 254.607 127.298 254.468C127.045 254.326 126.851 254.165 126.714 253.986C126.578 253.804 126.473 253.654 126.399 253.534H126.314V256.995H125.308ZM126.297 251.267C126.297 251.762 126.369 252.198 126.514 252.576C126.659 252.951 126.871 253.245 127.149 253.458C127.428 253.668 127.768 253.773 128.172 253.773C128.592 253.773 128.943 253.662 129.224 253.441C129.508 253.216 129.722 252.915 129.864 252.537C130.008 252.157 130.081 251.733 130.081 251.267C130.081 250.807 130.01 250.392 129.868 250.023C129.729 249.651 129.517 249.357 129.233 249.141C128.952 248.922 128.598 248.813 128.172 248.813C127.763 248.813 127.419 248.916 127.141 249.124C126.862 249.328 126.652 249.615 126.51 249.985C126.368 250.351 126.297 250.779 126.297 251.267ZM66.2051 266.938C65.8613 266.938 65.5474 266.854 65.2633 266.686C64.9792 266.516 64.752 266.289 64.5815 266.005C64.4139 265.72 64.3301 265.407 64.3301 265.063C64.3301 264.716 64.4139 264.402 64.5815 264.121C64.752 263.837 64.9792 263.611 65.2633 263.443C65.5474 263.273 65.8613 263.188 66.2051 263.188C66.5517 263.188 66.8656 263.273 67.1468 263.443C67.4309 263.611 67.6568 263.837 67.8244 264.121C67.9949 264.402 68.0801 264.716 68.0801 265.063C68.0801 265.407 67.9949 265.72 67.8244 266.005C67.6568 266.289 67.4309 266.516 67.1468 266.686C66.8656 266.854 66.5517 266.938 66.2051 266.938ZM75.7846 260.75V259.813H82.3301V260.75H79.5858V268.54H78.5289V260.75H75.7846ZM84.9803 268.693C84.5655 268.693 84.1891 268.615 83.851 268.459C83.5129 268.3 83.2445 268.071 83.0456 267.773C82.8467 267.472 82.7473 267.108 82.7473 266.682C82.7473 266.307 82.8212 266.003 82.9689 265.77C83.1166 265.534 83.3141 265.35 83.5612 265.216C83.8084 265.083 84.0811 264.983 84.3794 264.918C84.6805 264.85 84.9831 264.796 85.2871 264.756C85.6848 264.705 86.0073 264.666 86.2544 264.641C86.5044 264.612 86.6862 264.566 86.7999 264.5C86.9163 264.435 86.9746 264.321 86.9746 264.159V264.125C86.9746 263.705 86.8595 263.378 86.6294 263.145C86.4021 262.912 86.057 262.796 85.5939 262.796C85.1138 262.796 84.7374 262.901 84.4646 263.111C84.1919 263.321 84.0002 263.546 83.8894 263.784L82.9348 263.443C83.1053 263.046 83.3325 262.736 83.6166 262.514C83.9036 262.29 84.2161 262.134 84.5541 262.046C84.895 261.955 85.2303 261.909 85.5598 261.909C85.77 261.909 86.0115 261.935 86.2842 261.986C86.5598 262.034 86.8254 262.135 87.0811 262.289C87.3396 262.442 87.5541 262.674 87.7246 262.983C87.895 263.293 87.9803 263.708 87.9803 264.228V268.54H86.9746V267.654H86.9234C86.8553 267.796 86.7416 267.948 86.5825 268.11C86.4234 268.272 86.2118 268.409 85.9476 268.523C85.6834 268.637 85.3609 268.693 84.9803 268.693ZM85.1337 267.79C85.5314 267.79 85.8666 267.712 86.1394 267.556C86.4149 267.399 86.6223 267.198 86.7615 266.951C86.9036 266.703 86.9746 266.443 86.9746 266.171V265.25C86.932 265.301 86.8382 265.348 86.6933 265.391C86.5513 265.431 86.3865 265.466 86.199 265.497C86.0144 265.526 85.834 265.551 85.6578 265.574C85.4845 265.594 85.3439 265.611 85.2359 265.625C84.9746 265.659 84.7303 265.715 84.503 265.791C84.2786 265.865 84.0967 265.978 83.9575 266.128C83.8212 266.276 83.753 266.478 83.753 266.733C83.753 267.083 83.8823 267.347 84.1408 267.526C84.4021 267.702 84.7331 267.79 85.1337 267.79ZM89.9358 268.54V261.995H90.9415V268.54H89.9358ZM90.4472 260.904C90.2512 260.904 90.0822 260.837 89.9401 260.703C89.8009 260.57 89.7313 260.409 89.7313 260.222C89.7313 260.034 89.8009 259.874 89.9401 259.74C90.0822 259.607 90.2512 259.54 90.4472 259.54C90.6432 259.54 90.8108 259.607 90.95 259.74C91.0921 259.874 91.1631 260.034 91.1631 260.222C91.1631 260.409 91.0921 260.57 90.95 260.703C90.8108 260.837 90.6432 260.904 90.4472 260.904ZM93.9092 259.813V268.54H92.9035V259.813H93.9092ZM97.3541 268.54L95.3598 261.995H96.4166L97.8314 267.006H97.8996L99.2973 261.995H100.371L101.752 266.989H101.82L103.235 261.995H104.292L102.297 268.54H101.309L99.8768 263.512H99.7746L98.3427 268.54H97.3541ZM105.741 268.54V261.995H106.747V268.54H105.741ZM106.253 260.904C106.056 260.904 105.887 260.837 105.745 260.703C105.606 260.57 105.537 260.409 105.537 260.222C105.537 260.034 105.606 259.874 105.745 259.74C105.887 259.607 106.056 259.54 106.253 259.54C106.449 259.54 106.616 259.607 106.755 259.74C106.897 259.874 106.968 260.034 106.968 260.222C106.968 260.409 106.897 260.57 106.755 260.703C106.616 260.837 106.449 260.904 106.253 260.904ZM109.714 264.603V268.54H108.709V261.995H109.68V263.017H109.766C109.919 262.685 110.152 262.418 110.464 262.216C110.777 262.012 111.18 261.909 111.675 261.909C112.118 261.909 112.506 262 112.838 262.182C113.17 262.361 113.429 262.634 113.614 263C113.798 263.364 113.891 263.824 113.891 264.381V268.54H112.885V264.449C112.885 263.935 112.751 263.534 112.484 263.247C112.217 262.958 111.851 262.813 111.385 262.813C111.064 262.813 110.777 262.882 110.524 263.022C110.274 263.161 110.077 263.364 109.932 263.631C109.787 263.898 109.714 264.222 109.714 264.603ZM118.32 268.676C117.774 268.676 117.293 268.539 116.875 268.263C116.458 267.985 116.131 267.593 115.895 267.087C115.659 266.578 115.542 265.978 115.542 265.284C115.542 264.597 115.659 264 115.895 263.495C116.131 262.989 116.459 262.598 116.88 262.323C117.3 262.047 117.786 261.909 118.337 261.909C118.763 261.909 119.1 261.98 119.347 262.122C119.597 262.262 119.787 262.421 119.918 262.6C120.051 262.776 120.155 262.921 120.229 263.034H120.314V259.813H121.32V268.54H120.348V267.534H120.229C120.155 267.654 120.05 267.804 119.914 267.986C119.777 268.165 119.583 268.326 119.33 268.468C119.077 268.607 118.74 268.676 118.32 268.676ZM118.456 267.773C118.86 267.773 119.201 267.668 119.479 267.458C119.757 267.245 119.969 266.951 120.114 266.576C120.259 266.198 120.331 265.762 120.331 265.267C120.331 264.779 120.26 264.351 120.118 263.985C119.976 263.615 119.766 263.328 119.488 263.124C119.209 262.916 118.865 262.813 118.456 262.813C118.03 262.813 117.675 262.922 117.391 263.141C117.11 263.357 116.898 263.651 116.756 264.023C116.617 264.392 116.547 264.807 116.547 265.267C116.547 265.733 116.618 266.157 116.76 266.537C116.905 266.915 117.118 267.216 117.399 267.441C117.684 267.662 118.036 267.773 118.456 267.773ZM134.076 262.54H133.019C132.956 262.236 132.847 261.969 132.691 261.739C132.537 261.509 132.35 261.316 132.128 261.159C131.909 261 131.666 260.881 131.399 260.801C131.132 260.722 130.854 260.682 130.564 260.682C130.036 260.682 129.557 260.816 129.128 261.083C128.702 261.35 128.362 261.743 128.11 262.263C127.86 262.783 127.735 263.421 127.735 264.176C127.735 264.932 127.86 265.57 128.11 266.09C128.362 266.61 128.702 267.003 129.128 267.27C129.557 267.537 130.036 267.671 130.564 267.671C130.854 267.671 131.132 267.631 131.399 267.551C131.666 267.472 131.909 267.354 132.128 267.198C132.35 267.039 132.537 266.844 132.691 266.614C132.847 266.381 132.956 266.114 133.019 265.813H134.076C133.996 266.259 133.851 266.658 133.641 267.01C133.431 267.362 133.169 267.662 132.857 267.909C132.544 268.154 132.193 268.34 131.804 268.468C131.418 268.595 131.005 268.659 130.564 268.659C129.82 268.659 129.158 268.478 128.578 268.114C127.999 267.75 127.543 267.233 127.211 266.563C126.878 265.892 126.712 265.097 126.712 264.176C126.712 263.256 126.878 262.46 127.211 261.79C127.543 261.12 127.999 260.603 128.578 260.239C129.158 259.875 129.82 259.693 130.564 259.693C131.005 259.693 131.418 259.757 131.804 259.885C132.193 260.013 132.544 260.201 132.857 260.448C133.169 260.692 133.431 260.99 133.641 261.343C133.851 261.692 133.996 262.091 134.076 262.54ZM140.676 261.995C140.625 261.563 140.418 261.228 140.054 260.989C139.69 260.75 139.244 260.631 138.716 260.631C138.329 260.631 137.991 260.693 137.702 260.818C137.415 260.943 137.19 261.115 137.028 261.334C136.869 261.553 136.79 261.801 136.79 262.08C136.79 262.313 136.845 262.513 136.956 262.681C137.069 262.845 137.214 262.983 137.391 263.094C137.567 263.202 137.751 263.291 137.944 263.362C138.138 263.431 138.315 263.486 138.477 263.529L139.364 263.767C139.591 263.827 139.844 263.909 140.122 264.014C140.403 264.12 140.672 264.263 140.927 264.445C141.186 264.624 141.399 264.854 141.567 265.135C141.734 265.416 141.818 265.762 141.818 266.171C141.818 266.642 141.694 267.068 141.447 267.449C141.203 267.83 140.845 268.132 140.373 268.357C139.905 268.581 139.335 268.693 138.665 268.693C138.04 268.693 137.498 268.593 137.041 268.391C136.587 268.189 136.229 267.908 135.967 267.547C135.709 267.186 135.562 266.767 135.528 266.29H136.619C136.648 266.62 136.758 266.892 136.952 267.108C137.148 267.321 137.395 267.48 137.693 267.585C137.994 267.688 138.318 267.739 138.665 267.739C139.068 267.739 139.43 267.674 139.751 267.543C140.072 267.409 140.327 267.225 140.514 266.989C140.702 266.75 140.795 266.472 140.795 266.154C140.795 265.864 140.714 265.628 140.552 265.446C140.391 265.264 140.177 265.117 139.913 265.003C139.649 264.889 139.364 264.79 139.057 264.705L137.983 264.398C137.301 264.202 136.761 263.922 136.364 263.559C135.966 263.195 135.767 262.719 135.767 262.131C135.767 261.642 135.899 261.216 136.163 260.853C136.43 260.486 136.788 260.202 137.237 260C137.689 259.796 138.193 259.693 138.75 259.693C139.312 259.693 139.812 259.794 140.25 259.996C140.687 260.195 141.034 260.468 141.29 260.814C141.548 261.161 141.685 261.554 141.699 261.995H140.676ZM148.448 261.995C148.397 261.563 148.19 261.228 147.826 260.989C147.463 260.75 147.017 260.631 146.488 260.631C146.102 260.631 145.764 260.693 145.474 260.818C145.187 260.943 144.963 261.115 144.801 261.334C144.642 261.553 144.562 261.801 144.562 262.08C144.562 262.313 144.617 262.513 144.728 262.681C144.842 262.845 144.987 262.983 145.163 263.094C145.339 263.202 145.524 263.291 145.717 263.362C145.91 263.431 146.088 263.486 146.25 263.529L147.136 263.767C147.363 263.827 147.616 263.909 147.894 264.014C148.176 264.12 148.444 264.263 148.7 264.445C148.958 264.624 149.171 264.854 149.339 265.135C149.507 265.416 149.59 265.762 149.59 266.171C149.59 266.642 149.467 267.068 149.22 267.449C148.975 267.83 148.617 268.132 148.146 268.357C147.677 268.581 147.107 268.693 146.437 268.693C145.812 268.693 145.271 268.593 144.813 268.391C144.359 268.189 144.001 267.908 143.74 267.547C143.481 267.186 143.335 266.767 143.301 266.29H144.392C144.42 266.62 144.531 266.892 144.724 267.108C144.92 267.321 145.167 267.48 145.465 267.585C145.767 267.688 146.09 267.739 146.437 267.739C146.84 267.739 147.203 267.674 147.524 267.543C147.845 267.409 148.099 267.225 148.286 266.989C148.474 266.75 148.568 266.472 148.568 266.154C148.568 265.864 148.487 265.628 148.325 265.446C148.163 265.264 147.95 265.117 147.686 265.003C147.421 264.889 147.136 264.79 146.829 264.705L145.755 264.398C145.073 264.202 144.534 263.922 144.136 263.559C143.738 263.195 143.539 262.719 143.539 262.131C143.539 261.642 143.671 261.216 143.936 260.853C144.203 260.486 144.561 260.202 145.009 260C145.461 259.796 145.965 259.693 146.522 259.693C147.085 259.693 147.585 259.794 148.022 259.996C148.46 260.195 148.806 260.468 149.062 260.814C149.321 261.161 149.457 261.554 149.471 261.995H148.448ZM66.2051 280.938C65.8613 280.938 65.5474 280.854 65.2633 280.686C64.9792 280.516 64.752 280.289 64.5815 280.005C64.4139 279.72 64.3301 279.407 64.3301 279.063C64.3301 278.716 64.4139 278.402 64.5815 278.121C64.752 277.837 64.9792 277.611 65.2633 277.443C65.5474 277.273 65.8613 277.188 66.2051 277.188C66.5517 277.188 66.8656 277.273 67.1468 277.443C67.4309 277.611 67.6568 277.837 67.8244 278.121C67.9949 278.402 68.0801 278.716 68.0801 279.063C68.0801 279.407 67.9949 279.72 67.8244 280.005C67.6568 280.289 67.4309 280.516 67.1468 280.686C66.8656 280.854 66.5517 280.938 66.2051 280.938ZM76.2619 282.54V273.813H81.4949V274.75H77.3187V277.699H81.1028V278.637H77.3187V282.54H76.2619ZM83.2885 282.54V275.995H84.2942V282.54H83.2885ZM83.7999 274.904C83.6038 274.904 83.4348 274.837 83.2928 274.703C83.1536 274.57 83.084 274.409 83.084 274.222C83.084 274.034 83.1536 273.874 83.2928 273.74C83.4348 273.607 83.6038 273.54 83.7999 273.54C83.9959 273.54 84.1635 273.607 84.3027 273.74C84.4448 273.874 84.5158 274.034 84.5158 274.222C84.5158 274.409 84.4448 274.57 84.3027 274.703C84.1635 274.837 83.9959 274.904 83.7999 274.904ZM86.2562 282.54V275.995H87.2277V276.983H87.2959C87.4152 276.659 87.6312 276.397 87.9437 276.195C88.2562 275.993 88.6084 275.892 89.0005 275.892C89.0743 275.892 89.1667 275.894 89.2775 275.897C89.3883 275.899 89.4721 275.904 89.5289 275.909V276.932C89.4948 276.924 89.4167 276.911 89.2945 276.894C89.1752 276.874 89.0488 276.864 88.9152 276.864C88.5971 276.864 88.313 276.931 88.063 277.064C87.8158 277.195 87.6198 277.377 87.4749 277.61C87.3329 277.84 87.2618 278.103 87.2618 278.398V282.54H86.2562ZM93.3861 282.676C92.7554 282.676 92.2114 282.537 91.754 282.259C91.2995 281.978 90.9486 281.585 90.7014 281.083C90.4571 280.577 90.335 279.989 90.335 279.318C90.335 278.648 90.4571 278.057 90.7014 277.546C90.9486 277.032 91.2924 276.631 91.7327 276.344C92.1759 276.054 92.6929 275.909 93.2838 275.909C93.6247 275.909 93.9614 275.966 94.2938 276.08C94.6262 276.193 94.9287 276.378 95.2014 276.634C95.4742 276.887 95.6915 277.222 95.8534 277.639C96.0154 278.057 96.0963 278.571 96.0963 279.182V279.608H91.0509V278.739H95.0736C95.0736 278.37 94.9997 278.04 94.852 277.75C94.7071 277.46 94.4997 277.232 94.2299 277.064C93.9628 276.897 93.6475 276.813 93.2838 276.813C92.8833 276.813 92.5367 276.912 92.2441 277.111C91.9543 277.307 91.7313 277.563 91.575 277.878C91.4188 278.193 91.3406 278.532 91.3406 278.892V279.472C91.3406 279.966 91.4259 280.385 91.5963 280.729C91.7696 281.07 92.0097 281.33 92.3165 281.509C92.6233 281.685 92.9799 281.773 93.3861 281.773C93.6503 281.773 93.8889 281.736 94.102 281.662C94.3179 281.585 94.504 281.472 94.6602 281.321C94.8165 281.168 94.9372 280.978 95.0225 280.75L95.9941 281.023C95.8918 281.353 95.7199 281.642 95.4784 281.892C95.237 282.139 94.9387 282.333 94.5835 282.472C94.2284 282.608 93.8293 282.676 93.3861 282.676ZM97.8825 282.54V273.813H98.8882V277.034H98.9734C99.0473 276.921 99.1496 276.776 99.2802 276.6C99.4138 276.421 99.6041 276.262 99.8513 276.122C100.101 275.98 100.439 275.909 100.865 275.909C101.417 275.909 101.902 276.047 102.323 276.323C102.743 276.598 103.071 276.989 103.307 277.495C103.543 278 103.661 278.597 103.661 279.284C103.661 279.978 103.543 280.578 103.307 281.087C103.071 281.593 102.745 281.985 102.327 282.263C101.91 282.539 101.428 282.676 100.883 282.676C100.462 282.676 100.125 282.607 99.8726 282.468C99.6197 282.326 99.4251 282.165 99.2888 281.986C99.1524 281.804 99.0473 281.654 98.9734 281.534H98.8541V282.54H97.8825ZM98.8712 279.267C98.8712 279.762 98.9436 280.198 99.0885 280.576C99.2334 280.951 99.445 281.245 99.7234 281.458C100.002 281.668 100.343 281.773 100.746 281.773C101.167 281.773 101.517 281.662 101.799 281.441C102.083 281.216 102.296 280.915 102.438 280.537C102.583 280.157 102.655 279.733 102.655 279.267C102.655 278.807 102.584 278.392 102.442 278.023C102.303 277.651 102.091 277.357 101.807 277.141C101.526 276.922 101.172 276.813 100.746 276.813C100.337 276.813 99.9933 276.916 99.7149 277.124C99.4365 277.328 99.2263 277.615 99.0842 277.985C98.9422 278.351 98.8712 278.779 98.8712 279.267ZM107.245 282.693C106.831 282.693 106.454 282.615 106.116 282.459C105.778 282.3 105.51 282.071 105.311 281.773C105.112 281.472 105.012 281.108 105.012 280.682C105.012 280.307 105.086 280.003 105.234 279.77C105.382 279.534 105.579 279.35 105.826 279.216C106.074 279.083 106.346 278.983 106.645 278.918C106.946 278.85 107.248 278.796 107.552 278.756C107.95 278.705 108.272 278.666 108.52 278.641C108.77 278.612 108.951 278.566 109.065 278.5C109.181 278.435 109.24 278.321 109.24 278.159V278.125C109.24 277.705 109.125 277.378 108.895 277.145C108.667 276.912 108.322 276.796 107.859 276.796C107.379 276.796 107.003 276.901 106.73 277.111C106.457 277.321 106.265 277.546 106.155 277.784L105.2 277.443C105.37 277.046 105.598 276.736 105.882 276.514C106.169 276.29 106.481 276.134 106.819 276.046C107.16 275.955 107.495 275.909 107.825 275.909C108.035 275.909 108.277 275.935 108.549 275.986C108.825 276.034 109.091 276.135 109.346 276.289C109.605 276.442 109.819 276.674 109.99 276.983C110.16 277.293 110.245 277.708 110.245 278.228V282.54H109.24V281.654H109.189C109.12 281.796 109.007 281.948 108.848 282.11C108.689 282.272 108.477 282.409 108.213 282.523C107.949 282.637 107.626 282.693 107.245 282.693ZM107.399 281.79C107.797 281.79 108.132 281.712 108.405 281.556C108.68 281.399 108.887 281.198 109.027 280.951C109.169 280.703 109.24 280.443 109.24 280.171V279.25C109.197 279.301 109.103 279.348 108.958 279.391C108.816 279.431 108.652 279.466 108.464 279.497C108.28 279.526 108.099 279.551 107.923 279.574C107.75 279.594 107.609 279.611 107.501 279.625C107.24 279.659 106.995 279.715 106.768 279.791C106.544 279.865 106.362 279.978 106.223 280.128C106.086 280.276 106.018 280.478 106.018 280.733C106.018 281.083 106.147 281.347 106.406 281.526C106.667 281.702 106.998 281.79 107.399 281.79ZM116.837 277.46L115.934 277.716C115.877 277.566 115.793 277.419 115.683 277.277C115.575 277.132 115.427 277.013 115.239 276.919C115.052 276.826 114.812 276.779 114.519 276.779C114.119 276.779 113.785 276.871 113.518 277.056C113.254 277.237 113.121 277.469 113.121 277.75C113.121 278 113.212 278.198 113.394 278.343C113.576 278.487 113.86 278.608 114.246 278.705L115.218 278.943C115.803 279.085 116.239 279.303 116.526 279.595C116.813 279.885 116.957 280.259 116.957 280.716C116.957 281.091 116.849 281.426 116.633 281.722C116.42 282.017 116.121 282.25 115.738 282.421C115.354 282.591 114.908 282.676 114.4 282.676C113.732 282.676 113.18 282.532 112.742 282.242C112.305 281.952 112.028 281.529 111.911 280.972L112.866 280.733C112.957 281.085 113.129 281.35 113.381 281.526C113.637 281.702 113.971 281.79 114.383 281.79C114.852 281.79 115.224 281.691 115.499 281.492C115.778 281.29 115.917 281.049 115.917 280.767C115.917 280.54 115.837 280.35 115.678 280.196C115.519 280.04 115.275 279.924 114.945 279.847L113.854 279.591C113.255 279.449 112.815 279.229 112.533 278.931C112.255 278.63 112.116 278.253 112.116 277.801C112.116 277.432 112.219 277.105 112.427 276.821C112.637 276.537 112.923 276.314 113.283 276.152C113.647 275.99 114.059 275.909 114.519 275.909C115.167 275.909 115.675 276.051 116.045 276.335C116.417 276.62 116.681 276.995 116.837 277.46ZM121.335 282.676C120.704 282.676 120.16 282.537 119.703 282.259C119.248 281.978 118.897 281.585 118.65 281.083C118.406 280.577 118.284 279.989 118.284 279.318C118.284 278.648 118.406 278.057 118.65 277.546C118.897 277.032 119.241 276.631 119.681 276.344C120.125 276.054 120.642 275.909 121.233 275.909C121.573 275.909 121.91 275.966 122.243 276.08C122.575 276.193 122.877 276.378 123.15 276.634C123.423 276.887 123.64 277.222 123.802 277.639C123.964 278.057 124.045 278.571 124.045 279.182V279.608H119V278.739H123.022C123.022 278.37 122.948 278.04 122.801 277.75C122.656 277.46 122.448 277.232 122.179 277.064C121.912 276.897 121.596 276.813 121.233 276.813C120.832 276.813 120.485 276.912 120.193 277.111C119.903 277.307 119.68 277.563 119.524 277.878C119.368 278.193 119.289 278.532 119.289 278.892V279.472C119.289 279.966 119.375 280.385 119.545 280.729C119.718 281.07 119.958 281.33 120.265 281.509C120.572 281.685 120.929 281.773 121.335 281.773C121.599 281.773 121.838 281.736 122.051 281.662C122.267 281.585 122.453 281.472 122.609 281.321C122.765 281.168 122.886 280.978 122.971 280.75L123.943 281.023C123.841 281.353 123.669 281.642 123.427 281.892C123.186 282.139 122.887 282.333 122.532 282.472C122.177 282.608 121.778 282.676 121.335 282.676ZM66.2051 294.938C65.8613 294.938 65.5474 294.854 65.2633 294.686C64.9792 294.516 64.752 294.289 64.5815 294.005C64.4139 293.72 64.3301 293.407 64.3301 293.063C64.3301 292.716 64.4139 292.402 64.5815 292.121C64.752 291.837 64.9792 291.611 65.2633 291.443C65.5474 291.273 65.8613 291.188 66.2051 291.188C66.5517 291.188 66.8656 291.273 67.1468 291.443C67.4309 291.611 67.6568 291.837 67.8244 292.121C67.9949 292.402 68.0801 292.716 68.0801 293.063C68.0801 293.407 67.9949 293.72 67.8244 294.005C67.6568 294.289 67.4309 294.516 67.1468 294.686C66.8656 294.854 66.5517 294.938 66.2051 294.938ZM76.2619 296.54V287.813H81.4949V288.75H77.3187V291.699H81.1028V292.637H77.3187V296.54H76.2619ZM83.2885 296.54V289.995H84.2942V296.54H83.2885ZM83.7999 288.904C83.6038 288.904 83.4348 288.837 83.2928 288.703C83.1536 288.57 83.084 288.409 83.084 288.222C83.084 288.034 83.1536 287.874 83.2928 287.74C83.4348 287.607 83.6038 287.54 83.7999 287.54C83.9959 287.54 84.1635 287.607 84.3027 287.74C84.4448 287.874 84.5158 288.034 84.5158 288.222C84.5158 288.409 84.4448 288.57 84.3027 288.703C84.1635 288.837 83.9959 288.904 83.7999 288.904ZM88.8982 299.131C88.4124 299.131 87.9948 299.068 87.6454 298.943C87.2959 298.821 87.0047 298.659 86.7718 298.458C86.5417 298.259 86.3584 298.046 86.2221 297.818L87.0232 297.256C87.1141 297.375 87.2292 297.512 87.3684 297.665C87.5076 297.821 87.6979 297.956 87.9394 298.07C88.1837 298.186 88.5033 298.245 88.8982 298.245C89.4266 298.245 89.8627 298.117 90.2064 297.861C90.5502 297.605 90.7221 297.205 90.7221 296.659V295.33H90.6368C90.563 295.449 90.4579 295.597 90.3215 295.773C90.188 295.946 89.9948 296.101 89.742 296.237C89.492 296.371 89.1539 296.438 88.7277 296.438C88.1993 296.438 87.7249 296.313 87.3045 296.063C86.8868 295.813 86.5559 295.449 86.3116 294.972C86.0701 294.495 85.9493 293.915 85.9493 293.233C85.9493 292.563 86.0672 291.979 86.303 291.482C86.5388 290.982 86.867 290.595 87.2874 290.323C87.7079 290.047 88.1937 289.909 88.7448 289.909C89.1709 289.909 89.509 289.98 89.759 290.122C90.0118 290.262 90.205 290.421 90.3385 290.6C90.4749 290.776 90.58 290.921 90.6539 291.034H90.7562V289.995H91.7277V296.728C91.7277 297.29 91.5999 297.747 91.3442 298.1C91.0914 298.455 90.7505 298.715 90.3215 298.88C89.8954 299.047 89.4209 299.131 88.8982 299.131ZM88.8641 295.534C89.2675 295.534 89.6084 295.442 89.8868 295.257C90.1652 295.073 90.3769 294.807 90.5218 294.46C90.6667 294.114 90.7391 293.699 90.7391 293.216C90.7391 292.745 90.6681 292.328 90.526 291.968C90.384 291.607 90.1738 291.324 89.8954 291.12C89.617 290.915 89.2732 290.813 88.8641 290.813C88.438 290.813 88.0829 290.921 87.7988 291.137C87.5175 291.353 87.3059 291.642 87.1638 292.006C87.0246 292.37 86.955 292.773 86.955 293.216C86.955 293.671 87.026 294.073 87.1681 294.422C87.313 294.769 87.526 295.041 87.8073 295.24C88.0914 295.436 88.4437 295.534 88.8641 295.534ZM93.6887 296.54V289.995H94.6602V291.017H94.7455C94.8818 290.668 95.102 290.397 95.406 290.203C95.71 290.007 96.075 289.909 96.5012 289.909C96.933 289.909 97.2924 290.007 97.5793 290.203C97.8691 290.397 98.0949 290.668 98.2568 291.017H98.325C98.4926 290.679 98.7441 290.411 99.0793 290.212C99.4145 290.01 99.8165 289.909 100.285 289.909C100.87 289.909 101.349 290.093 101.721 290.459C102.093 290.823 102.28 291.389 102.28 292.159V296.54H101.274V292.159C101.274 291.676 101.142 291.331 100.878 291.124C100.613 290.916 100.302 290.813 99.9443 290.813C99.4841 290.813 99.1276 290.952 98.8747 291.23C98.6219 291.506 98.4955 291.855 98.4955 292.279V296.54H97.4727V292.057C97.4727 291.685 97.352 291.385 97.1105 291.158C96.8691 290.928 96.558 290.813 96.1773 290.813C95.9159 290.813 95.6716 290.882 95.4443 291.022C95.2199 291.161 95.0381 291.354 94.8989 291.601C94.7625 291.845 94.6943 292.128 94.6943 292.449V296.54H93.6887ZM106.164 296.693C105.75 296.693 105.373 296.615 105.035 296.459C104.697 296.3 104.429 296.071 104.23 295.773C104.031 295.472 103.932 295.108 103.932 294.682C103.932 294.307 104.005 294.003 104.153 293.77C104.301 293.534 104.498 293.35 104.745 293.216C104.993 293.083 105.265 292.983 105.564 292.918C105.865 292.85 106.167 292.796 106.471 292.756C106.869 292.705 107.191 292.666 107.439 292.641C107.689 292.612 107.87 292.566 107.984 292.5C108.101 292.435 108.159 292.321 108.159 292.159V292.125C108.159 291.705 108.044 291.378 107.814 291.145C107.586 290.912 107.241 290.796 106.778 290.796C106.298 290.796 105.922 290.901 105.649 291.111C105.376 291.321 105.184 291.546 105.074 291.784L104.119 291.443C104.289 291.046 104.517 290.736 104.801 290.514C105.088 290.29 105.4 290.134 105.738 290.046C106.079 289.955 106.414 289.909 106.744 289.909C106.954 289.909 107.196 289.935 107.468 289.986C107.744 290.034 108.01 290.135 108.265 290.289C108.524 290.442 108.738 290.674 108.909 290.983C109.079 291.293 109.164 291.708 109.164 292.228V296.54H108.159V295.654H108.108C108.039 295.796 107.926 295.948 107.767 296.11C107.608 296.272 107.396 296.409 107.132 296.523C106.868 296.637 106.545 296.693 106.164 296.693ZM106.318 295.79C106.716 295.79 107.051 295.712 107.324 295.556C107.599 295.399 107.807 295.198 107.946 294.951C108.088 294.703 108.159 294.443 108.159 294.171V293.25C108.116 293.301 108.022 293.348 107.878 293.391C107.736 293.431 107.571 293.466 107.383 293.497C107.199 293.526 107.018 293.551 106.842 293.574C106.669 293.594 106.528 293.611 106.42 293.625C106.159 293.659 105.914 293.715 105.687 293.791C105.463 293.865 105.281 293.978 105.142 294.128C105.005 294.276 104.937 294.478 104.937 294.733C104.937 295.083 105.066 295.347 105.325 295.526C105.586 295.702 105.917 295.79 106.318 295.79Z" fill="white"/>
</g>
<rect x="206.5" y="6.11499" width="314" height="183" rx="13.5" transform="rotate(90 206.5 6.11499)" stroke="url(#paint0_angular_758_3327)" stroke-opacity="0.5"/>
</g>
<defs>
<filter id="filter0_d_758_3327" x="0" y="0.61499" width="214" height="345" filterUnits="userSpaceOnUse" color-interpolation-filters="sRGB">
<feFlood flood-opacity="0" result="BackgroundImageFix"/>
<feColorMatrix in="SourceAlpha" type="matrix" values="0 0 0 0 0 0 0 0 0 0 0 0 0 0 0 0 0 0 127 0" result="hardAlpha"/>
<feOffset dx="-8" dy="10"/>
<feGaussianBlur stdDeviation="7.5"/>
<feComposite in2="hardAlpha" operator="out"/>
<feColorMatrix type="matrix" values="0 0 0 0 0 0 0 0 0 0 0 0 0 0 0 0 0 0 0.15 0"/>
<feBlend mode="normal" in2="BackgroundImageFix" result="effect1_dropShadow_758_3327"/>
<feBlend mode="normal" in="SourceGraphic" in2="effect1_dropShadow_758_3327" result="shape"/>
</filter>
<filter id="filter1_f_758_3327" x="120.042" y="-41.8174" width="123.247" height="120.394" filterUnits="userSpaceOnUse" color-interpolation-filters="sRGB">
<feFlood flood-opacity="0" result="BackgroundImageFix"/>
<feBlend mode="normal" in="SourceGraphic" in2="BackgroundImageFix" result="shape"/>
<feGaussianBlur stdDeviation="15" result="effect1_foregroundBlur_758_3327"/>
</filter>
<filter id="filter2_f_758_3327" x="158.726" y="-57.3728" width="137.992" height="153.132" filterUnits="userSpaceOnUse" color-interpolation-filters="sRGB">
<feFlood flood-opacity="0" result="BackgroundImageFix"/>
<feBlend mode="normal" in="SourceGraphic" in2="BackgroundImageFix" result="shape"/>
<feGaussianBlur stdDeviation="15" result="effect1_foregroundBlur_758_3327"/>
</filter>
<filter id="filter3_f_758_3327" x="119.697" y="-54.8754" width="125.69" height="134.281" filterUnits="userSpaceOnUse" color-interpolation-filters="sRGB">
<feFlood flood-opacity="0" result="BackgroundImageFix"/>
<feBlend mode="normal" in="SourceGraphic" in2="BackgroundImageFix" result="shape"/>
<feGaussianBlur stdDeviation="15" result="effect1_foregroundBlur_758_3327"/>
</filter>
<filter id="filter4_f_758_3327" x="114.175" y="-49.1976" width="105.034" height="125.228" filterUnits="userSpaceOnUse" color-interpolation-filters="sRGB">
<feFlood flood-opacity="0" result="BackgroundImageFix"/>
<feBlend mode="normal" in="SourceGraphic" in2="BackgroundImageFix" result="shape"/>
<feGaussianBlur stdDeviation="15" result="effect1_foregroundBlur_758_3327"/>
</filter>
<filter id="filter5_f_758_3327" x="155.849" y="-50.9762" width="101.802" height="115.034" filterUnits="userSpaceOnUse" color-interpolation-filters="sRGB">
<feFlood flood-opacity="0" result="BackgroundImageFix"/>
<feBlend mode="normal" in="SourceGraphic" in2="BackgroundImageFix" result="shape"/>
<feGaussianBlur stdDeviation="15" result="effect1_foregroundBlur_758_3327"/>
</filter>
<radialGradient id="paint0_angular_758_3327" cx="0" cy="0" r="1" gradientUnits="userSpaceOnUse" gradientTransform="translate(258 35.115) rotate(19.782) scale(255.583 437.546)">
<stop offset="0.106146" stop-color="white"/>
<stop offset="0.16572" stop-color="#595959"/>
<stop offset="0.356116" stop-color="white"/>
<stop offset="0.474328" stop-color="white"/>
<stop offset="0.950754" stop-color="white" stop-opacity="0.54"/>
<stop offset="0.975714" stop-color="#E3E3E3" stop-opacity="0"/>
<stop offset="1" stop-color="#8D8D8D" stop-opacity="0"/>
</radialGradient>
<clipPath id="clip0_758_3327">
<rect x="207" y="5.61499" width="315" height="184" rx="14" transform="rotate(90 207 5.61499)" fill="white"/>
</clipPath>
</defs>
</svg>
