<svg width="214" height="346" viewBox="0 0 214 346" fill="none" xmlns="http://www.w3.org/2000/svg">
<g filter="url(#filter0_d_758_3433)">
<g clip-path="url(#clip0_758_3433)">
<rect x="207" y="5.53809" width="315" height="184" rx="14" transform="rotate(90 207 5.53809)" fill="#08090C"/>
<mask id="mask0_758_3433" style="mask-type:alpha" maskUnits="userSpaceOnUse" x="156" y="-21" width="74" height="62">
<ellipse cx="192.755" cy="10.038" rx="27.5895" ry="39.2135" transform="rotate(120 192.755 10.038)" fill="#D946CA"/>
</mask>
<g mask="url(#mask0_758_3433)">
<g style="mix-blend-mode:exclusion" filter="url(#filter1_f_758_3433)">
<path d="M153.803 -5.62489C164.748 -16.0468 185.458 -13.1795 200.061 0.779389C214.664 14.7383 217.63 34.5028 206.685 44.9247C195.741 55.3466 187.062 41.0222 172.459 27.0633C157.856 13.1044 142.858 4.79701 153.803 -5.62489Z" fill="#D946CA"/>
</g>
<g filter="url(#filter2_f_758_3433)">
<path d="M226.523 10.6795C226.922 1.2998 205.885 -12.8442 198.189 -15.9512C172.416 -33.8705 207.095 -25.085 210.412 -26.6117C213.729 -28.1384 217.459 -26.3252 219.266 -24.6416C221.073 -22.9579 249.132 -6.41779 257.221 1.48841C265.31 9.39461 266.02 17.6284 266.699 19.5543C267.379 21.4802 249.135 56.3799 237.717 63.8404C226.298 71.3009 216.198 54.1332 210.592 47.2475C204.986 40.3618 206.075 35.8359 219.497 32.4587C232.92 29.0815 226.024 22.4042 226.523 10.6795Z" fill="#D946CA"/>
</g>
<g filter="url(#filter3_f_758_3433)">
<path d="M187.444 -18.8647C204.551 -13.4615 216.498 -6.59432 215.305 -9.97053C207.592 -14.4238 193.263 -23.9449 191.094 -23.9488C188.383 -23.9537 172.904 -25.3484 171.755 -24.8418C170.835 -24.4365 156.667 -14.8718 149.697 -10.1402L150.215 26.5677C162.778 34.1675 188.25 49.3593 189.639 49.3289C191.375 49.2909 198.802 36.6747 188.288 33.8555C177.774 31.0362 168.827 18.3289 164.323 8.31676C159.82 -1.69534 166.061 -25.6188 187.444 -18.8647Z" fill="#D946CA"/>
</g>
<g filter="url(#filter4_f_758_3433)">
<path d="M182.186 -7.16774C190.962 -10.7881 189.693 -16.0094 187.962 -18.1675C184.551 -18.6337 177.083 -19.4972 174.488 -19.2213C171.245 -18.8763 155.162 -11.5735 152.795 -9.13564C150.429 -6.69774 146.155 -4.01405 144.394 2.53855C142.633 9.09115 152.025 35.2285 153.831 40.2549C155.276 44.276 164.36 45.7251 168.722 45.947C176.445 46.0375 189.184 45.279 178.355 41.5206C164.82 36.8227 164.004 13.7289 163.109 10.5427C162.213 7.35648 171.217 -2.64223 182.186 -7.16774Z" fill="#D946CA"/>
</g>
<g style="mix-blend-mode:soft-light" filter="url(#filter5_f_758_3433)">
<path d="M188.754 -20.0078C196.677 -24.1529 210.623 -15.6013 219.903 -0.907247C229.183 13.7868 230.283 29.0589 222.36 33.2039C214.437 37.349 209.201 24.2406 199.921 9.54656C190.641 -5.14746 180.831 -15.8628 188.754 -20.0078Z" fill="#D946CA"/>
</g>
<g style="mix-blend-mode:overlay">
<rect x="240.423" y="-2.34351" width="255" height="318" transform="rotate(120 240.423 -2.34351)" fill="#D946CA"/>
</g>
</g>
<path d="M56.0774 84.5381L56.0774 65.629L62.8175 65.629C64.2824 65.629 65.4981 65.8814 66.4645 66.3861C67.437 66.8908 68.1634 67.5895 68.6435 68.482C69.1236 69.3683 69.3636 70.3932 69.3636 71.5566C69.3636 72.7137 69.1205 73.7325 68.6342 74.6127C68.1541 75.4867 67.4278 76.1669 66.4553 76.6531C65.4889 77.1394 64.2732 77.3825 62.8082 77.3825L57.7024 77.3825L57.7024 74.9266L62.5497 74.9266C63.473 74.9266 64.224 74.7942 64.8026 74.5296C65.3873 74.2649 65.8151 73.8802 66.0859 73.3754C66.3568 72.8707 66.4922 72.2644 66.4922 71.5566C66.4922 70.8425 66.3537 70.2239 66.0767 69.7007C65.8059 69.1775 65.3781 68.7774 64.7933 68.5004C64.2147 68.2173 63.4545 68.0757 62.5128 68.0757L58.9304 68.0757L58.9304 84.5381L56.0774 84.5381ZM65.4119 76.0068L70.0838 84.5381L66.8338 84.5381L62.2543 76.0068L65.4119 76.0068ZM78.8081 84.8243C77.4109 84.8243 76.2075 84.5258 75.198 83.9287C74.1947 83.3255 73.4192 82.4791 72.8713 81.3896C72.3297 80.294 72.0588 79.0106 72.0588 77.5395C72.0588 76.0869 72.3297 74.8066 72.8713 73.6986C73.4192 72.5906 74.1824 71.7258 75.1611 71.1041C76.146 70.4825 77.297 70.1716 78.6142 70.1716C79.4144 70.1716 80.19 70.3039 80.9409 70.5686C81.6919 70.8333 82.3659 71.2488 82.9629 71.8151C83.56 72.3814 84.0309 73.1169 84.3756 74.0217C84.7203 74.9204 84.8926 76.013 84.8926 77.2994L84.8926 78.2781L73.6192 78.2781L73.6192 76.21L82.1874 76.21C82.1874 75.4836 82.0397 74.8404 81.7442 74.2803C81.4487 73.714 81.0333 73.2677 80.4977 72.9415C79.9684 72.6153 79.3467 72.4521 78.6327 72.4521C77.8571 72.4521 77.18 72.643 76.6014 73.0246C76.029 73.4001 75.5858 73.8925 75.2719 74.5019C74.9641 75.1051 74.8103 75.7606 74.8103 76.4685L74.8103 78.0842C74.8103 79.0322 74.9764 79.8385 75.3088 80.5033C75.6474 81.1681 76.1183 81.6759 76.7215 82.0267C77.3247 82.3714 78.0295 82.5438 78.8358 82.5438C79.359 82.5438 79.8361 82.4699 80.2669 82.3222C80.6978 82.1683 81.0702 81.9405 81.3841 81.6389C81.698 81.3373 81.9381 80.9649 82.1043 80.5217L84.7172 80.9926C84.5079 81.762 84.1325 82.436 83.5908 83.0146C83.0553 83.5871 82.3813 84.0333 81.5688 84.3534C80.7624 84.6673 79.8422 84.8243 78.8081 84.8243ZM98.8428 73.8186L96.3407 74.2618C96.236 73.9417 96.0698 73.637 95.8421 73.3477C95.6205 73.0584 95.3189 72.8215 94.9373 72.6368C94.5556 72.4521 94.0786 72.3598 93.5062 72.3598C92.7244 72.3598 92.072 72.5352 91.5488 72.8861C91.0256 73.2308 90.764 73.6771 90.764 74.2249C90.764 74.6988 90.9394 75.0805 91.2902 75.3698C91.6411 75.6591 92.2074 75.896 92.9891 76.0807L95.2419 76.5977C96.5469 76.8994 97.5194 77.3641 98.1596 77.9919C98.7997 78.6198 99.1198 79.4353 99.1198 80.4387C99.1198 81.2881 98.8736 82.0452 98.3812 82.71C97.8949 83.3686 97.2147 83.8856 96.3407 84.2611C95.4728 84.6366 94.4664 84.8243 93.3215 84.8243C91.7334 84.8243 90.4377 84.4858 89.4344 83.8087C88.4311 83.1254 87.8156 82.156 87.5878 80.9003L90.2562 80.4941C90.4223 81.1896 90.764 81.7159 91.281 82.0729C91.7981 82.4237 92.4721 82.5992 93.303 82.5992C94.2079 82.5992 94.9311 82.4114 95.4728 82.036C96.0144 81.6543 96.2853 81.1896 96.2853 80.6418C96.2853 80.1986 96.1191 79.8262 95.7867 79.5246C95.4605 79.223 94.9588 78.9952 94.2817 78.8414L91.8812 78.3151C90.5578 78.0135 89.5791 77.5333 88.9451 76.8747C88.3172 76.2161 88.0033 75.3821 88.0033 74.3726C88.0033 73.5355 88.2372 72.803 88.705 72.1752C89.1728 71.5473 89.8191 71.058 90.6439 70.7071C91.4687 70.3501 92.4136 70.1716 93.4785 70.1716C95.0111 70.1716 96.2176 70.504 97.0978 71.1688C97.978 71.8274 98.5597 72.7107 98.8428 73.8186ZM109.035 70.3563L109.035 72.5722L101.289 72.5722L101.289 70.3563L109.035 70.3563ZM103.366 66.9585L106.127 66.9585L106.127 80.374C106.127 80.9095 106.207 81.3127 106.367 81.5835C106.527 81.8482 106.733 82.0298 106.985 82.1283C107.244 82.2206 107.524 82.2668 107.826 82.2668C108.047 82.2668 108.241 82.2514 108.407 82.2206C108.574 82.1898 108.703 82.1652 108.795 82.1467L109.294 84.4273C109.134 84.4888 108.906 84.5504 108.61 84.6119C108.315 84.6797 107.946 84.7166 107.502 84.7227C106.776 84.7351 106.099 84.6058 105.471 84.335C104.843 84.0641 104.336 83.6456 103.948 83.0793C103.56 82.513 103.366 81.8021 103.366 80.9465L103.366 66.9585ZM121.333 78.6567L121.333 70.3563L124.103 70.3563L124.103 84.5381L121.388 84.5381L121.388 82.0821L121.24 82.0821C120.914 82.8392 120.391 83.4701 119.671 83.9749C118.957 84.4735 118.067 84.7227 117.002 84.7227C116.091 84.7227 115.285 84.5227 114.583 84.1226C113.888 83.7164 113.34 83.1162 112.94 82.3222C112.546 81.5281 112.349 80.5464 112.349 79.3769L112.349 70.3563L115.11 70.3563L115.11 79.0445C115.11 80.0109 115.377 80.7803 115.913 81.3527C116.448 81.9252 117.144 82.2114 118 82.2114C118.517 82.2114 119.031 82.0821 119.541 81.8236C120.058 81.5651 120.486 81.1742 120.825 80.651C121.17 80.1278 121.339 79.463 121.333 78.6567ZM128.072 84.5381L128.072 70.3563L130.74 70.3563L130.74 72.6091L130.888 72.6091C131.146 71.8458 131.602 71.2457 132.254 70.8087C132.913 70.3655 133.658 70.1439 134.489 70.1439C134.661 70.1439 134.864 70.1501 135.098 70.1624C135.338 70.1747 135.526 70.1901 135.661 70.2085L135.661 72.8492C135.551 72.8184 135.354 72.7845 135.07 72.7476C134.787 72.7045 134.504 72.683 134.221 72.683C133.569 72.683 132.987 72.8215 132.476 73.0985C131.971 73.3693 131.571 73.7478 131.276 74.2341C130.98 74.7142 130.832 75.262 130.832 75.8776L130.832 84.5381L128.072 84.5381ZM142.311 84.852C141.412 84.852 140.599 84.6858 139.873 84.3534C139.147 84.0149 138.571 83.5255 138.146 82.8854C137.728 82.2452 137.519 81.4604 137.519 80.531C137.519 79.7308 137.673 79.0722 137.98 78.5551C138.288 78.0381 138.704 77.6288 139.227 77.3271C139.75 77.0255 140.335 76.7978 140.981 76.6439C141.627 76.49 142.286 76.3731 142.957 76.2931C143.806 76.1946 144.496 76.1145 145.025 76.053C145.554 75.9853 145.939 75.8776 146.179 75.7298C146.419 75.5821 146.539 75.3421 146.539 75.0097L146.539 74.945C146.539 74.1387 146.311 73.5139 145.856 73.0708C145.407 72.6276 144.736 72.406 143.843 72.406C142.914 72.406 142.181 72.6122 141.646 73.0246C141.116 73.4308 140.75 73.8833 140.547 74.3818L137.953 73.7909C138.26 72.9292 138.71 72.2336 139.301 71.7043C139.898 71.1688 140.584 70.781 141.36 70.5409C142.135 70.2947 142.951 70.1716 143.806 70.1716C144.373 70.1716 144.973 70.2393 145.607 70.3747C146.247 70.504 146.844 70.744 147.398 71.0949C147.958 71.4458 148.417 71.9474 148.774 72.5999C149.131 73.2462 149.309 74.0864 149.309 75.1205L149.309 84.5381L146.613 84.5381L146.613 82.5992L146.502 82.5992C146.324 82.9562 146.056 83.307 145.699 83.6517C145.342 83.9964 144.883 84.2826 144.323 84.5104C143.763 84.7381 143.092 84.852 142.311 84.852ZM142.911 82.6361C143.674 82.6361 144.326 82.4853 144.868 82.1837C145.416 81.8821 145.831 81.4881 146.115 81.0019C146.404 80.5094 146.548 79.9832 146.548 79.423L146.548 77.5949C146.45 77.6934 146.259 77.7857 145.976 77.8719C145.699 77.9519 145.382 78.0227 145.025 78.0842C144.668 78.1396 144.32 78.192 143.982 78.2412C143.643 78.2843 143.36 78.3212 143.132 78.352C142.597 78.4197 142.107 78.5336 141.664 78.6936C141.227 78.8537 140.876 79.0845 140.612 79.3861C140.353 79.6815 140.224 80.0755 140.224 80.5679C140.224 81.2512 140.476 81.7682 140.981 82.119C141.486 82.4637 142.129 82.6361 142.911 82.6361ZM156.007 76.1176L156.007 84.5381L153.246 84.5381L153.246 70.3563L155.896 70.3563L155.896 72.6645L156.071 72.6645C156.398 71.9136 156.909 71.3103 157.604 70.8548C158.306 70.3994 159.189 70.1716 160.254 70.1716C161.22 70.1716 162.067 70.3747 162.793 70.781C163.519 71.1811 164.083 71.7781 164.483 72.5722C164.883 73.3662 165.083 74.348 165.083 75.5175L165.083 84.5381L162.322 84.5381L162.322 75.8499C162.322 74.8219 162.054 74.0187 161.519 73.4401C160.983 72.8553 160.248 72.5629 159.312 72.5629C158.672 72.5629 158.103 72.7014 157.604 72.9784C157.112 73.2554 156.721 73.6617 156.432 74.1972C156.148 74.7265 156.007 75.3667 156.007 76.1176ZM175.665 70.3563L175.665 72.5722L167.919 72.5722L167.919 70.3563L175.665 70.3563ZM169.996 66.9585L172.757 66.9585L172.757 80.374C172.757 80.9095 172.837 81.3127 172.997 81.5835C173.157 81.8482 173.363 82.0298 173.616 82.1283C173.874 82.2206 174.154 82.2668 174.456 82.2668C174.677 82.2668 174.871 82.2514 175.037 82.2206C175.204 82.1898 175.333 82.1652 175.425 82.1467L175.924 84.4273C175.764 84.4888 175.536 84.5504 175.241 84.6119C174.945 84.6797 174.576 84.7166 174.133 84.7227C173.406 84.7351 172.729 84.6058 172.101 84.335C171.473 84.0641 170.966 83.6456 170.578 83.0793C170.19 82.513 169.996 81.802 169.996 80.9465L169.996 66.9585ZM59.7798 126.538L54.5355 107.629L57.5362 107.629L61.2202 122.272L61.3956 122.272L65.2273 107.629L68.2003 107.629L72.032 122.282L72.2074 122.282L75.8821 107.629L78.892 107.629L73.6385 126.538L70.767 126.538L66.7876 112.375L66.6399 112.375L62.6605 126.538L59.7798 126.538ZM86.2476 126.824C84.8503 126.824 83.647 126.526 82.6375 125.929C81.6342 125.325 80.8586 124.479 80.3108 123.39C79.7691 122.294 79.4983 121.011 79.4983 119.54C79.4983 118.087 79.7691 116.807 80.3108 115.699C80.8586 114.591 81.6219 113.726 82.6006 113.104C83.5854 112.482 84.7364 112.172 86.0537 112.172C86.8539 112.172 87.6294 112.304 88.3804 112.569C89.1313 112.833 89.8053 113.249 90.4024 113.815C90.9995 114.381 91.4703 115.117 91.815 116.022C92.1597 116.92 92.3321 118.013 92.3321 119.299L92.3321 120.278L81.0587 120.278L81.0587 118.21L89.6268 118.21C89.6268 117.484 89.4791 116.84 89.1837 116.28C88.8882 115.714 88.4727 115.268 87.9372 114.941C87.4078 114.615 86.7862 114.452 86.0721 114.452C85.2966 114.452 84.6195 114.643 84.0409 115.025C83.4685 115.4 83.0253 115.892 82.7114 116.502C82.4036 117.105 82.2497 117.761 82.2497 118.468L82.2497 120.084C82.2497 121.032 82.4159 121.839 82.7483 122.503C83.0868 123.168 83.5577 123.676 84.1609 124.027C84.7641 124.371 85.4689 124.544 86.2753 124.544C86.7985 124.544 87.2755 124.47 87.7064 124.322C88.1373 124.168 88.5096 123.941 88.8236 123.639C89.1375 123.337 89.3775 122.965 89.5437 122.522L92.1567 122.993C91.9474 123.762 91.5719 124.436 91.0302 125.015C90.4947 125.587 89.8207 126.033 89.0082 126.353C88.2019 126.667 87.2817 126.824 86.2476 126.824ZM95.8767 126.538L95.8767 107.629L98.6374 107.629L98.6374 114.655L98.8036 114.655C98.9636 114.36 99.1944 114.018 99.496 113.63C99.7976 113.243 100.216 112.904 100.752 112.615C101.287 112.319 101.995 112.172 102.875 112.172C104.02 112.172 105.042 112.461 105.941 113.04C106.839 113.618 107.544 114.452 108.055 115.542C108.572 116.631 108.831 117.942 108.831 119.475C108.831 121.008 108.575 122.322 108.064 123.417C107.553 124.507 106.852 125.347 105.959 125.938C105.067 126.523 104.048 126.815 102.903 126.815C102.041 126.815 101.336 126.67 100.789 126.381C100.247 126.092 99.8223 125.753 99.5145 125.365C99.2067 124.978 98.9698 124.633 98.8036 124.331L98.5727 124.331L98.5727 126.538L95.8767 126.538ZM98.582 119.447C98.582 120.444 98.7266 121.318 99.0159 122.069C99.3052 122.82 99.7238 123.408 100.272 123.833C100.819 124.251 101.49 124.461 102.284 124.461C103.109 124.461 103.799 124.242 104.353 123.805C104.907 123.362 105.325 122.762 105.608 122.005C105.898 121.248 106.042 120.395 106.042 119.447C106.042 118.512 105.901 117.671 105.617 116.927C105.34 116.182 104.922 115.594 104.362 115.163C103.808 114.732 103.115 114.517 102.284 114.517C101.484 114.517 100.807 114.723 100.253 115.135C99.7053 115.548 99.2898 116.123 99.0067 116.862C98.7235 117.601 98.582 118.462 98.582 119.447ZM122.818 115.819L120.316 116.262C120.211 115.942 120.045 115.637 119.817 115.348C119.595 115.058 119.294 114.821 118.912 114.637C118.53 114.452 118.053 114.36 117.481 114.36C116.699 114.36 116.047 114.535 115.524 114.886C115 115.231 114.739 115.677 114.739 116.225C114.739 116.699 114.914 117.08 115.265 117.37C115.616 117.659 116.182 117.896 116.964 118.081L119.217 118.598C120.522 118.899 121.494 119.364 122.134 119.992C122.775 120.62 123.095 121.435 123.095 122.439C123.095 123.288 122.848 124.045 122.356 124.71C121.87 125.369 121.19 125.886 120.316 126.261C119.448 126.637 118.441 126.824 117.296 126.824C115.708 126.824 114.413 126.486 113.409 125.809C112.406 125.125 111.79 124.156 111.563 122.9L114.231 122.494C114.397 123.19 114.739 123.716 115.256 124.073C115.773 124.424 116.447 124.599 117.278 124.599C118.183 124.599 118.906 124.411 119.448 124.036C119.989 123.654 120.26 123.19 120.26 122.642C120.26 122.199 120.094 121.826 119.762 121.525C119.435 121.223 118.934 120.995 118.257 120.841L115.856 120.315C114.533 120.013 113.554 119.533 112.92 118.875C112.292 118.216 111.978 117.382 111.978 116.373C111.978 115.535 112.212 114.803 112.68 114.175C113.148 113.547 113.794 113.058 114.619 112.707C115.444 112.35 116.388 112.172 117.453 112.172C118.986 112.172 120.192 112.504 121.073 113.169C121.953 113.827 122.535 114.711 122.818 115.819ZM126.39 126.538L126.39 112.356L129.151 112.356L129.151 126.538L126.39 126.538ZM127.784 110.168C127.304 110.168 126.892 110.008 126.547 109.688C126.208 109.362 126.039 108.974 126.039 108.525C126.039 108.069 126.208 107.681 126.547 107.361C126.892 107.035 127.304 106.872 127.784 106.872C128.264 106.872 128.674 107.035 129.012 107.361C129.357 107.681 129.529 108.069 129.529 108.525C129.529 108.974 129.357 109.362 129.012 109.688C128.674 110.008 128.264 110.168 127.784 110.168ZM139.745 112.356L139.745 114.572L131.998 114.572L131.998 112.356L139.745 112.356ZM134.076 108.959L136.836 108.959L136.836 122.374C136.836 122.91 136.916 123.313 137.076 123.584C137.236 123.848 137.443 124.03 137.695 124.128C137.953 124.221 138.233 124.267 138.535 124.267C138.757 124.267 138.951 124.251 139.117 124.221C139.283 124.19 139.412 124.165 139.505 124.147L140.003 126.427C139.843 126.489 139.615 126.55 139.32 126.612C139.024 126.68 138.655 126.717 138.212 126.723C137.486 126.735 136.809 126.606 136.181 126.335C135.553 126.064 135.045 125.646 134.657 125.079C134.269 124.513 134.076 123.802 134.076 122.946L134.076 108.959ZM149.018 126.824C147.621 126.824 146.418 126.526 145.408 125.929C144.405 125.325 143.629 124.479 143.081 123.39C142.54 122.294 142.269 121.011 142.269 119.54C142.269 118.087 142.54 116.807 143.081 115.699C143.629 114.591 144.393 113.726 145.371 113.104C146.356 112.482 147.507 112.172 148.824 112.172C149.625 112.172 150.4 112.304 151.151 112.569C151.902 112.833 152.576 113.249 153.173 113.815C153.77 114.381 154.241 115.117 154.586 116.022C154.93 116.92 155.103 118.013 155.103 119.299L155.103 120.278L143.829 120.278L143.829 118.21L152.398 118.21C152.398 117.484 152.25 116.84 151.954 116.28C151.659 115.714 151.243 115.268 150.708 114.941C150.179 114.615 149.557 114.452 148.843 114.452C148.067 114.452 147.39 114.643 146.812 115.025C146.239 115.4 145.796 115.892 145.482 116.502C145.174 117.105 145.02 117.761 145.02 118.468L145.02 120.084C145.02 121.032 145.187 121.839 145.519 122.503C145.858 123.168 146.328 123.676 146.932 124.027C147.535 124.371 148.24 124.544 149.046 124.544C149.569 124.544 150.046 124.47 150.477 124.322C150.908 124.168 151.28 123.941 151.594 123.639C151.908 123.337 152.148 122.965 152.314 122.522L154.927 122.993C154.718 123.762 154.343 124.436 153.801 125.015C153.265 125.587 152.591 126.033 151.779 126.353C150.973 126.667 150.052 126.824 149.018 126.824Z" fill="white"/>
<path d="M40.233 180.538L40.233 170.356L43.7926 170.356C44.5019 170.356 45.0869 170.479 45.5476 170.724C46.0083 170.966 46.3513 171.293 46.5767 171.704C46.8021 172.111 46.9148 172.564 46.9148 173.061C46.9148 173.498 46.8369 173.86 46.6811 174.145C46.5286 174.43 46.3265 174.655 46.0746 174.821C45.826 174.986 45.5559 175.109 45.2642 175.189L45.2642 175.288C45.5758 175.308 45.889 175.417 46.2038 175.616C46.5187 175.815 46.7822 176.1 46.9943 176.471C47.2064 176.843 47.3125 177.297 47.3125 177.834C47.3125 178.344 47.1965 178.803 46.9645 179.211C46.7325 179.618 46.3662 179.941 45.8658 180.18C45.3653 180.419 44.714 180.538 43.9119 180.538L40.233 180.538ZM41.4659 179.444L43.9119 179.444C44.7173 179.444 45.2891 179.289 45.6271 178.977C45.9685 178.662 46.1392 178.281 46.1392 177.834C46.1392 177.489 46.0514 177.171 45.8757 176.879C45.7 176.584 45.4498 176.349 45.125 176.173C44.8002 175.994 44.4157 175.905 43.9716 175.905L41.4659 175.905L41.4659 179.444ZM41.4659 174.831L43.7528 174.831C44.1241 174.831 44.4588 174.758 44.7571 174.612C45.0587 174.466 45.2973 174.261 45.473 173.995C45.652 173.73 45.7415 173.419 45.7415 173.061C45.7415 172.613 45.5857 172.234 45.2741 171.922C44.9626 171.607 44.4688 171.45 43.7926 171.45L41.4659 171.45L41.4659 174.831ZM50.075 183.402C49.8762 183.402 49.6988 183.385 49.5431 183.352C49.3873 183.322 49.2796 183.292 49.2199 183.263L49.5182 182.228C49.8032 182.301 50.0551 182.328 50.2739 182.308C50.4926 182.288 50.6865 182.19 50.8556 182.015C51.0279 181.842 51.1853 181.562 51.3279 181.174L51.5466 180.578L48.7227 172.902L49.9955 172.902L52.1034 178.987L52.183 178.987L54.2909 172.902L55.5637 172.902L52.3222 181.652C52.1763 182.046 51.9957 182.373 51.7803 182.631C51.5648 182.893 51.3146 183.087 51.0296 183.213C50.7478 183.339 50.4297 183.402 50.075 183.402ZM57.8318 180.606C57.6216 180.606 57.4412 180.531 57.2907 180.38C57.1401 180.23 57.0648 180.049 57.0648 179.839C57.0648 179.629 57.1401 179.449 57.2907 179.298C57.4412 179.147 57.6216 179.072 57.8318 179.072C58.0421 179.072 58.2225 179.147 58.373 179.298C58.5236 179.449 58.5989 179.629 58.5989 179.839C58.5989 179.978 58.5634 180.106 58.4924 180.223C58.4242 180.339 58.3318 180.433 58.2154 180.504C58.1017 180.572 57.9739 180.606 57.8318 180.606ZM57.8318 175.748C57.6216 175.748 57.4412 175.673 57.2907 175.522C57.1401 175.372 57.0648 175.191 57.0648 174.981C57.0648 174.771 57.1401 174.591 57.2907 174.44C57.4412 174.29 57.6216 174.214 57.8318 174.214C58.0421 174.214 58.2225 174.29 58.373 174.44C58.5236 174.591 58.5989 174.771 58.5989 174.981C58.5989 175.12 58.5634 175.248 58.4924 175.365C58.4242 175.481 58.3318 175.575 58.2154 175.646C58.1017 175.714 57.9739 175.748 57.8318 175.748ZM64.2736 176.328L64.2736 177.265L60.4554 177.265L60.4554 176.328L64.2736 176.328ZM78.0622 173.993C78.0111 173.561 77.8037 173.226 77.44 172.987C77.0764 172.748 76.6304 172.629 76.102 172.629C75.7156 172.629 75.3775 172.691 75.0878 172.816C74.8008 172.941 74.5764 173.113 74.4145 173.332C74.2554 173.551 74.1758 173.799 74.1758 174.078C74.1758 174.311 74.2312 174.511 74.342 174.679C74.4557 174.843 74.6006 174.981 74.7767 175.092C74.9528 175.2 75.1375 175.29 75.3307 175.361C75.5238 175.429 75.7014 175.484 75.8633 175.527L76.7497 175.765C76.977 175.825 77.2298 175.907 77.5082 176.013C77.7895 176.118 78.0579 176.261 78.3136 176.443C78.5721 176.622 78.7852 176.852 78.9528 177.133C79.1204 177.415 79.2042 177.76 79.2042 178.169C79.2042 178.64 79.0807 179.066 78.8335 179.447C78.5892 179.828 78.2312 180.13 77.7596 180.355C77.2909 180.579 76.7213 180.691 76.0508 180.691C75.4258 180.691 74.8846 180.591 74.4273 180.389C73.9727 180.187 73.6148 179.906 73.3534 179.545C73.0949 179.184 72.9486 178.765 72.9145 178.288L74.0054 178.288C74.0338 178.618 74.1446 178.89 74.3378 179.106C74.5338 179.319 74.781 179.478 75.0792 179.584C75.3804 179.686 75.7042 179.737 76.0508 179.737C76.4542 179.737 76.8165 179.672 77.1375 179.541C77.4585 179.407 77.7128 179.223 77.9003 178.987C78.0878 178.748 78.1815 178.47 78.1815 178.152C78.1815 177.862 78.1006 177.626 77.9386 177.444C77.7767 177.263 77.5636 177.115 77.2994 177.001C77.0352 176.888 76.7497 176.788 76.4429 176.703L75.369 176.396C74.6872 176.2 74.1474 175.92 73.7497 175.557C73.352 175.193 73.1531 174.717 73.1531 174.129C73.1531 173.64 73.2852 173.214 73.5494 172.851C73.8165 172.484 74.1744 172.2 74.6233 171.998C75.075 171.794 75.5792 171.691 76.1361 171.691C76.6986 171.691 77.1986 171.792 77.6361 171.994C78.0736 172.193 78.4202 172.466 78.6758 172.812C78.9344 173.159 79.0707 173.552 79.0849 173.993L78.0622 173.993ZM80.9255 180.538L80.9255 173.993L81.9311 173.993L81.9311 180.538L80.9255 180.538ZM81.4368 172.902C81.2408 172.902 81.0718 172.835 80.9297 172.701C80.7905 172.568 80.7209 172.407 80.7209 172.22C80.7209 172.032 80.7905 171.872 80.9297 171.738C81.0718 171.605 81.2408 171.538 81.4368 171.538C81.6328 171.538 81.8005 171.605 81.9397 171.738C82.0817 171.872 82.1527 172.032 82.1527 172.22C82.1527 172.407 82.0817 172.568 81.9397 172.701C81.8005 172.835 81.6328 172.902 81.4368 172.902ZM86.3647 180.674C85.8192 180.674 85.3377 180.537 84.9201 180.261C84.5025 179.983 84.1758 179.591 83.94 179.085C83.7042 178.576 83.5863 177.976 83.5863 177.282C83.5863 176.595 83.7042 175.998 83.94 175.493C84.1758 174.987 84.5039 174.596 84.9244 174.321C85.3448 174.045 85.8306 173.907 86.3817 173.907C86.8079 173.907 87.1445 173.978 87.3917 174.12C87.6417 174.26 87.832 174.419 87.9627 174.598C88.0962 174.774 88.1999 174.919 88.2738 175.032L88.359 175.032L88.359 171.811L89.3647 171.811L89.3647 180.538L88.3931 180.538L88.3931 179.532L88.2738 179.532C88.1999 179.652 88.0948 179.802 87.9585 179.984C87.8221 180.163 87.6275 180.324 87.3746 180.466C87.1218 180.605 86.7852 180.674 86.3647 180.674ZM86.5011 179.771C86.9045 179.771 87.2454 179.666 87.5238 179.456C87.8022 179.243 88.0138 178.949 88.1587 178.574C88.3036 178.196 88.3761 177.76 88.3761 177.265C88.3761 176.777 88.305 176.349 88.163 175.983C88.021 175.613 87.8107 175.326 87.5323 175.122C87.2539 174.915 86.9102 174.811 86.5011 174.811C86.0749 174.811 85.7198 174.92 85.4357 175.139C85.1545 175.355 84.9428 175.649 84.8008 176.021C84.6616 176.39 84.592 176.805 84.592 177.265C84.592 177.731 84.663 178.155 84.805 178.535C84.9499 178.913 85.163 179.214 85.4442 179.439C85.7283 179.66 86.0806 179.771 86.5011 179.771ZM93.9378 180.674C93.3924 180.674 92.9108 180.537 92.4932 180.261C92.0756 179.983 91.7489 179.591 91.5131 179.085C91.2773 178.576 91.1594 177.976 91.1594 177.282C91.1594 176.595 91.2773 175.998 91.5131 175.493C91.7489 174.987 92.077 174.596 92.4975 174.321C92.9179 174.045 93.4037 173.907 93.9549 173.907C94.381 173.907 94.7177 173.978 94.9648 174.12C95.2148 174.26 95.4052 174.419 95.5358 174.598C95.6694 174.774 95.7731 174.919 95.8469 175.032L95.9321 175.032L95.9321 171.811L96.9378 171.811L96.9378 180.538L95.9662 180.538L95.9662 179.532L95.8469 179.532C95.7731 179.652 95.6679 179.802 95.5316 179.984C95.3952 180.163 95.2006 180.324 94.9478 180.466C94.6949 180.605 94.3583 180.674 93.9378 180.674ZM94.0742 179.771C94.4776 179.771 94.8185 179.666 95.0969 179.456C95.3753 179.243 95.587 178.949 95.7319 178.574C95.8767 178.196 95.9492 177.76 95.9492 177.265C95.9492 176.777 95.8782 176.349 95.7361 175.983C95.5941 175.613 95.3838 175.326 95.1054 175.122C94.827 174.915 94.4833 174.811 94.0742 174.811C93.6481 174.811 93.2929 174.92 93.0088 175.139C92.7276 175.355 92.516 175.649 92.3739 176.021C92.2347 176.39 92.1651 176.805 92.1651 177.265C92.1651 177.731 92.2361 178.155 92.3782 178.535C92.5231 178.913 92.7361 179.214 93.0174 179.439C93.3015 179.66 93.6537 179.771 94.0742 179.771ZM100.045 176.601L100.045 180.538L99.0394 180.538L99.0394 171.811L100.045 171.811L100.045 175.015L100.13 175.015C100.284 174.677 100.514 174.409 100.821 174.21C101.13 174.008 101.542 173.907 102.056 173.907C102.502 173.907 102.893 173.997 103.228 174.176C103.564 174.352 103.823 174.623 104.008 174.99C104.196 175.353 104.289 175.816 104.289 176.379L104.289 180.538L103.284 180.538L103.284 176.447C103.284 175.927 103.149 175.525 102.879 175.241C102.612 174.954 102.241 174.811 101.767 174.811C101.437 174.811 101.142 174.88 100.88 175.02C100.622 175.159 100.417 175.362 100.267 175.629C100.119 175.896 100.045 176.22 100.045 176.601ZM108.175 180.691C107.761 180.691 107.384 180.613 107.046 180.457C106.708 180.298 106.44 180.069 106.241 179.771C106.042 179.47 105.942 179.106 105.942 178.68C105.942 178.305 106.016 178.001 106.164 177.768C106.312 177.532 106.509 177.348 106.756 177.214C107.003 177.081 107.276 176.981 107.574 176.916C107.876 176.848 108.178 176.794 108.482 176.754C108.88 176.703 109.202 176.665 109.449 176.639C109.699 176.611 109.881 176.564 109.995 176.498C110.111 176.433 110.17 176.319 110.17 176.157L110.17 176.123C110.17 175.703 110.055 175.376 109.824 175.143C109.597 174.91 109.252 174.794 108.789 174.794C108.309 174.794 107.932 174.899 107.66 175.109C107.387 175.319 107.195 175.544 107.084 175.782L106.13 175.441C106.3 175.044 106.528 174.734 106.812 174.513C107.099 174.288 107.411 174.132 107.749 174.044C108.09 173.953 108.425 173.907 108.755 173.907C108.965 173.907 109.207 173.933 109.479 173.984C109.755 174.032 110.021 174.133 110.276 174.287C110.535 174.44 110.749 174.672 110.92 174.981C111.09 175.291 111.175 175.706 111.175 176.226L111.175 180.538L110.17 180.538L110.17 179.652L110.119 179.652C110.05 179.794 109.937 179.946 109.778 180.108C109.619 180.27 109.407 180.407 109.143 180.521C108.878 180.635 108.556 180.691 108.175 180.691ZM108.329 179.788C108.726 179.788 109.062 179.71 109.334 179.554C109.61 179.397 109.817 179.196 109.957 178.949C110.099 178.701 110.17 178.441 110.17 178.169L110.17 177.248C110.127 177.299 110.033 177.346 109.888 177.389C109.746 177.429 109.582 177.464 109.394 177.495C109.209 177.524 109.029 177.549 108.853 177.572C108.68 177.592 108.539 177.609 108.431 177.623C108.17 177.657 107.925 177.713 107.698 177.79C107.474 177.863 107.292 177.976 107.153 178.126C107.016 178.274 106.948 178.476 106.948 178.731C106.948 179.081 107.077 179.345 107.336 179.524C107.597 179.7 107.928 179.788 108.329 179.788ZM113.131 180.538L113.131 173.993L114.103 173.993L114.103 174.981L114.171 174.981C114.29 174.657 114.506 174.395 114.818 174.193C115.131 173.991 115.483 173.89 115.875 173.89C115.949 173.89 116.041 173.892 116.152 173.895C116.263 173.897 116.347 173.902 116.404 173.907L116.404 174.93C116.37 174.922 116.291 174.909 116.169 174.892C116.05 174.872 115.924 174.862 115.79 174.862C115.472 174.862 115.188 174.929 114.938 175.062C114.691 175.193 114.495 175.375 114.35 175.608C114.208 175.838 114.137 176.101 114.137 176.396L114.137 180.538L113.131 180.538ZM120.973 173.993L120.973 174.845L117.58 174.845L117.58 173.993L120.973 173.993ZM118.569 172.424L119.575 172.424L119.575 178.663C119.575 178.947 119.616 179.16 119.698 179.302C119.784 179.441 119.892 179.535 120.022 179.584C120.156 179.629 120.296 179.652 120.444 179.652C120.555 179.652 120.646 179.646 120.717 179.635C120.788 179.62 120.845 179.609 120.887 179.601L121.092 180.504C121.024 180.53 120.928 180.555 120.806 180.581C120.684 180.609 120.529 180.623 120.342 180.623C120.058 180.623 119.779 180.562 119.507 180.44C119.237 180.318 119.012 180.132 118.833 179.882C118.657 179.632 118.569 179.316 118.569 178.936L118.569 172.424ZM123.752 176.601L123.752 180.538L122.746 180.538L122.746 171.811L123.752 171.811L123.752 175.015L123.837 175.015C123.99 174.677 124.22 174.409 124.527 174.21C124.837 174.008 125.249 173.907 125.763 173.907C126.209 173.907 126.6 173.997 126.935 174.176C127.27 174.352 127.53 174.623 127.715 174.99C127.902 175.353 127.996 175.816 127.996 176.379L127.996 180.538L126.99 180.538L126.99 176.447C126.99 175.927 126.855 175.525 126.585 175.241C126.318 174.954 125.948 174.811 125.473 174.811C125.144 174.811 124.848 174.88 124.587 175.02C124.328 175.159 124.124 175.362 123.973 175.629C123.825 175.896 123.752 176.22 123.752 176.601ZM138.36 173.993C138.309 173.561 138.101 173.226 137.738 172.987C137.374 172.748 136.928 172.629 136.4 172.629C136.013 172.629 135.675 172.691 135.385 172.816C135.098 172.941 134.874 173.113 134.712 173.332C134.553 173.551 134.473 173.799 134.473 174.078C134.473 174.311 134.529 174.511 134.64 174.679C134.753 174.843 134.898 174.981 135.074 175.092C135.25 175.2 135.435 175.29 135.628 175.361C135.822 175.429 135.999 175.484 136.161 175.527L137.047 175.765C137.275 175.825 137.527 175.907 137.806 176.013C138.087 176.118 138.356 176.261 138.611 176.443C138.87 176.622 139.083 176.852 139.25 177.133C139.418 177.415 139.502 177.76 139.502 178.169C139.502 178.64 139.378 179.066 139.131 179.447C138.887 179.828 138.529 180.13 138.057 180.355C137.589 180.579 137.019 180.691 136.348 180.691C135.723 180.691 135.182 180.591 134.725 180.389C134.27 180.187 133.912 179.906 133.651 179.545C133.393 179.184 133.246 178.765 133.212 178.288L134.303 178.288C134.331 178.618 134.442 178.89 134.635 179.106C134.831 179.319 135.079 179.478 135.377 179.584C135.678 179.686 136.002 179.737 136.348 179.737C136.752 179.737 137.114 179.672 137.435 179.541C137.756 179.407 138.01 179.223 138.198 178.987C138.385 178.748 138.479 178.47 138.479 178.152C138.479 177.862 138.398 177.626 138.236 177.444C138.074 177.263 137.861 177.115 137.597 177.001C137.333 176.888 137.047 176.788 136.741 176.703L135.667 176.396C134.985 176.2 134.445 175.92 134.047 175.557C133.65 175.193 133.451 174.717 133.451 174.129C133.451 173.64 133.583 173.214 133.847 172.851C134.114 172.484 134.472 172.2 134.921 171.998C135.373 171.794 135.877 171.691 136.434 171.691C136.996 171.691 137.496 171.792 137.934 171.994C138.371 172.193 138.718 172.466 138.973 172.812C139.232 173.159 139.368 173.552 139.383 173.993L138.36 173.993ZM141.223 180.538L141.223 173.993L142.195 173.993L142.195 174.981L142.263 174.981C142.382 174.657 142.598 174.395 142.911 174.193C143.223 173.991 143.575 173.89 143.967 173.89C144.041 173.89 144.134 173.892 144.244 173.895C144.355 173.897 144.439 173.902 144.496 173.907L144.496 174.93C144.462 174.922 144.384 174.909 144.261 174.892C144.142 174.872 144.016 174.862 143.882 174.862C143.564 174.862 143.28 174.929 143.03 175.062C142.783 175.193 142.587 175.375 142.442 175.608C142.3 175.838 142.229 176.101 142.229 176.396L142.229 180.538L141.223 180.538ZM145.808 180.538L145.808 173.993L146.814 173.993L146.814 180.538L145.808 180.538ZM146.319 172.902C146.123 172.902 145.954 172.835 145.812 172.701C145.673 172.568 145.603 172.407 145.603 172.22C145.603 172.032 145.673 171.872 145.812 171.738C145.954 171.605 146.123 171.538 146.319 171.538C146.515 171.538 146.683 171.605 146.822 171.738C146.964 171.872 147.035 172.032 147.035 172.22C147.035 172.407 146.964 172.568 146.822 172.701C146.683 172.835 146.515 172.902 146.319 172.902ZM154.128 173.993L151.707 180.538L150.685 180.538L148.264 173.993L149.355 173.993L151.162 179.209L151.23 179.209L153.037 173.993L154.128 173.993ZM157.302 180.691C156.887 180.691 156.511 180.613 156.173 180.457C155.835 180.298 155.566 180.069 155.368 179.771C155.169 179.47 155.069 179.106 155.069 178.68C155.069 178.305 155.143 178.001 155.291 177.768C155.439 177.532 155.636 177.348 155.883 177.214C156.13 177.081 156.403 176.981 156.701 176.916C157.003 176.848 157.305 176.794 157.609 176.754C158.007 176.703 158.329 176.665 158.576 176.639C158.826 176.611 159.008 176.564 159.122 176.498C159.238 176.433 159.297 176.319 159.297 176.157L159.297 176.123C159.297 175.703 159.181 175.376 158.951 175.143C158.724 174.91 158.379 174.794 157.916 174.794C157.436 174.794 157.059 174.899 156.787 175.109C156.514 175.319 156.322 175.544 156.211 175.782L155.257 175.441C155.427 175.044 155.654 174.734 155.939 174.513C156.226 174.288 156.538 174.132 156.876 174.044C157.217 173.953 157.552 173.907 157.882 173.907C158.092 173.907 158.333 173.933 158.606 173.984C158.882 174.032 159.147 174.133 159.403 174.287C159.662 174.44 159.876 174.672 160.047 174.981C160.217 175.291 160.302 175.706 160.302 176.226L160.302 180.538L159.297 180.538L159.297 179.652L159.245 179.652C159.177 179.794 159.064 179.946 158.904 180.108C158.745 180.27 158.534 180.407 158.27 180.521C158.005 180.635 157.683 180.691 157.302 180.691ZM157.456 179.788C157.853 179.788 158.189 179.71 158.461 179.554C158.737 179.397 158.944 179.196 159.083 178.949C159.226 178.701 159.297 178.441 159.297 178.169L159.297 177.248C159.254 177.299 159.16 177.346 159.015 177.389C158.873 177.429 158.708 177.464 158.521 177.495C158.336 177.524 158.156 177.549 157.98 177.572C157.806 177.592 157.666 177.609 157.558 177.623C157.297 177.657 157.052 177.713 156.825 177.79C156.601 177.863 156.419 177.976 156.279 178.126C156.143 178.274 156.075 178.476 156.075 178.731C156.075 179.081 156.204 179.345 156.463 179.524C156.724 179.7 157.055 179.788 157.456 179.788ZM166.894 175.459L165.991 175.714C165.934 175.564 165.85 175.417 165.739 175.275C165.631 175.13 165.484 175.011 165.296 174.917C165.109 174.824 164.869 174.777 164.576 174.777C164.175 174.777 163.842 174.869 163.575 175.054C163.31 175.236 163.178 175.467 163.178 175.748C163.178 175.998 163.269 176.196 163.451 176.341C163.633 176.486 163.917 176.606 164.303 176.703L165.275 176.941C165.86 177.084 166.296 177.301 166.583 177.593C166.87 177.883 167.013 178.257 167.013 178.714C167.013 179.089 166.906 179.424 166.69 179.72C166.477 180.015 166.178 180.248 165.795 180.419C165.411 180.589 164.965 180.674 164.457 180.674C163.789 180.674 163.236 180.53 162.799 180.24C162.361 179.95 162.085 179.527 161.968 178.97L162.923 178.731C163.013 179.084 163.185 179.348 163.438 179.524C163.694 179.7 164.028 179.788 164.44 179.788C164.908 179.788 165.281 179.689 165.556 179.49C165.835 179.288 165.974 179.047 165.974 178.765C165.974 178.538 165.894 178.348 165.735 178.194C165.576 178.038 165.332 177.922 165.002 177.845L163.911 177.589C163.312 177.447 162.871 177.227 162.59 176.929C162.312 176.628 162.173 176.251 162.173 175.799C162.173 175.43 162.276 175.103 162.484 174.819C162.694 174.535 162.979 174.312 163.34 174.15C163.704 173.988 164.116 173.907 164.576 173.907C165.224 173.907 165.732 174.049 166.102 174.334C166.474 174.618 166.738 174.993 166.894 175.459ZM171.494 173.993L171.494 174.845L168.102 174.845L168.102 173.993L171.494 173.993ZM169.091 172.424L170.096 172.424L170.096 178.663C170.096 178.947 170.137 179.16 170.22 179.302C170.305 179.441 170.413 179.535 170.544 179.584C170.677 179.629 170.818 179.652 170.966 179.652C171.076 179.652 171.167 179.646 171.238 179.635C171.309 179.62 171.366 179.609 171.409 179.601L171.613 180.504C171.545 180.53 171.45 180.555 171.328 180.581C171.206 180.609 171.051 180.623 170.863 180.623C170.579 180.623 170.301 180.562 170.028 180.44C169.758 180.318 169.534 180.132 169.355 179.882C169.179 179.632 169.091 179.316 169.091 178.936L169.091 172.424ZM175.053 180.691C174.638 180.691 174.262 180.613 173.924 180.457C173.586 180.298 173.317 180.069 173.118 179.771C172.919 179.47 172.82 179.106 172.82 178.68C172.82 178.305 172.894 178.001 173.041 177.768C173.189 177.532 173.387 177.348 173.634 177.214C173.881 177.081 174.154 176.981 174.452 176.916C174.753 176.848 175.056 176.794 175.36 176.754C175.757 176.703 176.08 176.665 176.327 176.639C176.577 176.611 176.759 176.564 176.872 176.498C176.989 176.433 177.047 176.319 177.047 176.157L177.047 176.123C177.047 175.703 176.932 175.376 176.702 175.143C176.475 174.91 176.13 174.794 175.666 174.794C175.186 174.794 174.81 174.899 174.537 175.109C174.264 175.319 174.073 175.544 173.962 175.782L173.007 175.441C173.178 175.044 173.405 174.734 173.689 174.513C173.976 174.288 174.289 174.132 174.627 174.044C174.968 173.953 175.303 173.907 175.632 173.907C175.843 173.907 176.084 173.933 176.357 173.984C176.632 174.032 176.898 174.133 177.154 174.287C177.412 174.44 177.627 174.672 177.797 174.981C177.968 175.291 178.053 175.706 178.053 176.226L178.053 180.538L177.047 180.538L177.047 179.652L176.996 179.652C176.928 179.794 176.814 179.946 176.655 180.108C176.496 180.27 176.284 180.407 176.02 180.521C175.756 180.635 175.434 180.691 175.053 180.691ZM175.206 179.788C175.604 179.788 175.939 179.71 176.212 179.554C176.488 179.397 176.695 179.196 176.834 178.949C176.976 178.701 177.047 178.441 177.047 178.169L177.047 177.248C177.005 177.299 176.911 177.346 176.766 177.389C176.624 177.429 176.459 177.464 176.272 177.495C176.087 177.524 175.907 177.549 175.73 177.572C175.557 177.592 175.416 177.609 175.309 177.623C175.047 177.657 174.803 177.713 174.576 177.79C174.351 177.863 174.169 177.976 174.03 178.126C173.894 178.274 173.826 178.476 173.826 178.731C173.826 179.081 173.955 179.345 174.213 179.524C174.475 179.7 174.806 179.788 175.206 179.788ZM185.126 173.993L182.706 180.538L181.683 180.538L179.263 173.993L180.354 173.993L182.16 179.209L182.229 179.209L184.035 173.993L185.126 173.993ZM188.301 180.691C187.886 180.691 187.509 180.613 187.171 180.457C186.833 180.298 186.565 180.069 186.366 179.771C186.167 179.47 186.068 179.106 186.068 178.68C186.068 178.305 186.142 178.001 186.289 177.768C186.437 177.532 186.634 177.348 186.882 177.214C187.129 177.081 187.401 176.981 187.7 176.916C188.001 176.848 188.303 176.794 188.607 176.754C189.005 176.703 189.328 176.664 189.575 176.639C189.825 176.611 190.007 176.564 190.12 176.498C190.237 176.433 190.295 176.319 190.295 176.157L190.295 176.123C190.295 175.703 190.18 175.376 189.95 175.143C189.723 174.91 189.377 174.794 188.914 174.794C188.434 174.794 188.058 174.899 187.785 175.109C187.512 175.319 187.321 175.544 187.21 175.782L186.255 175.441C186.426 175.044 186.653 174.734 186.937 174.513C187.224 174.288 187.536 174.132 187.875 174.044C188.215 173.953 188.551 173.907 188.88 173.907C189.09 173.907 189.332 173.933 189.605 173.984C189.88 174.032 190.146 174.133 190.401 174.287C190.66 174.44 190.875 174.672 191.045 174.981C191.215 175.291 191.301 175.706 191.301 176.226L191.301 180.538L190.295 180.538L190.295 179.652L190.244 179.652C190.176 179.794 190.062 179.946 189.903 180.108C189.744 180.27 189.532 180.407 189.268 180.521C189.004 180.635 188.681 180.691 188.301 180.691ZM188.454 179.788C188.852 179.788 189.187 179.71 189.46 179.554C189.735 179.397 189.943 179.196 190.082 178.949C190.224 178.701 190.295 178.441 190.295 178.169L190.295 177.248C190.252 177.299 190.159 177.346 190.014 177.389C189.872 177.429 189.707 177.464 189.519 177.495C189.335 177.524 189.154 177.549 188.978 177.572C188.805 177.592 188.664 177.609 188.556 177.623C188.295 177.657 188.051 177.713 187.823 177.789C187.599 177.863 187.417 177.976 187.278 178.126C187.142 178.274 187.073 178.476 187.073 178.731C187.073 179.081 187.203 179.345 187.461 179.524C187.723 179.7 188.053 179.788 188.454 179.788ZM108.252 196.691C107.837 196.691 107.46 196.613 107.122 196.457C106.784 196.298 106.516 196.069 106.317 195.771C106.118 195.47 106.019 195.106 106.019 194.68C106.019 194.305 106.092 194.001 106.24 193.768C106.388 193.532 106.585 193.348 106.833 193.214C107.08 193.081 107.352 192.981 107.651 192.916C107.952 192.848 108.254 192.794 108.558 192.754C108.956 192.703 109.279 192.665 109.526 192.639C109.776 192.611 109.958 192.564 110.071 192.498C110.188 192.433 110.246 192.319 110.246 192.157L110.246 192.123C110.246 191.703 110.131 191.376 109.901 191.143C109.673 190.91 109.328 190.794 108.865 190.794C108.385 190.794 108.009 190.899 107.736 191.109C107.463 191.319 107.271 191.544 107.161 191.782L106.206 191.441C106.377 191.044 106.604 190.734 106.888 190.513C107.175 190.288 107.487 190.132 107.825 190.044C108.166 189.953 108.502 189.907 108.831 189.907C109.041 189.907 109.283 189.933 109.556 189.984C109.831 190.032 110.097 190.133 110.352 190.287C110.611 190.44 110.825 190.672 110.996 190.981C111.166 191.291 111.252 191.706 111.252 192.226L111.252 196.538L110.246 196.538L110.246 195.652L110.195 195.652C110.127 195.794 110.013 195.946 109.854 196.108C109.695 196.27 109.483 196.407 109.219 196.521C108.955 196.635 108.632 196.691 108.252 196.691ZM108.405 195.788C108.803 195.788 109.138 195.71 109.411 195.554C109.686 195.397 109.894 195.196 110.033 194.949C110.175 194.701 110.246 194.441 110.246 194.169L110.246 193.248C110.203 193.299 110.11 193.346 109.965 193.389C109.823 193.429 109.658 193.464 109.47 193.495C109.286 193.524 109.105 193.549 108.929 193.572C108.756 193.592 108.615 193.609 108.507 193.623C108.246 193.657 108.002 193.713 107.774 193.79C107.55 193.863 107.368 193.976 107.229 194.126C107.093 194.274 107.024 194.476 107.024 194.731C107.024 195.081 107.154 195.345 107.412 195.524C107.673 195.7 108.004 195.788 108.405 195.788ZM114.213 192.601L114.213 196.538L113.207 196.538L113.207 189.993L114.179 189.993L114.179 191.015L114.264 191.015C114.417 190.683 114.65 190.416 114.963 190.214C115.275 190.01 115.679 189.907 116.173 189.907C116.616 189.907 117.004 189.998 117.336 190.18C117.669 190.359 117.927 190.632 118.112 190.998C118.297 191.362 118.389 191.822 118.389 192.379L118.389 196.538L117.383 196.538L117.383 192.447C117.383 191.933 117.25 191.532 116.983 191.245C116.716 190.956 116.349 190.811 115.883 190.811C115.562 190.811 115.275 190.88 115.023 191.02C114.773 191.159 114.575 191.362 114.43 191.629C114.285 191.896 114.213 192.22 114.213 192.601ZM122.818 196.674C122.273 196.674 121.791 196.537 121.374 196.261C120.956 195.983 120.629 195.591 120.394 195.085C120.158 194.576 120.04 193.976 120.04 193.282C120.04 192.595 120.158 191.998 120.394 191.493C120.629 190.987 120.957 190.596 121.378 190.321C121.798 190.045 122.284 189.907 122.835 189.907C123.261 189.907 123.598 189.978 123.845 190.12C124.095 190.26 124.286 190.419 124.416 190.598C124.55 190.774 124.654 190.919 124.727 191.032L124.813 191.032L124.813 187.811L125.818 187.811L125.818 196.538L124.847 196.538L124.847 195.532L124.727 195.532C124.654 195.652 124.548 195.802 124.412 195.984C124.276 196.163 124.081 196.324 123.828 196.466C123.575 196.605 123.239 196.674 122.818 196.674ZM122.955 195.771C123.358 195.771 123.699 195.666 123.977 195.456C124.256 195.243 124.467 194.949 124.612 194.574C124.757 194.196 124.83 193.76 124.83 193.265C124.83 192.777 124.759 192.349 124.617 191.983C124.475 191.613 124.264 191.326 123.986 191.122C123.707 190.915 123.364 190.811 122.955 190.811C122.529 190.811 122.173 190.92 121.889 191.139C121.608 191.355 121.396 191.649 121.254 192.021C121.115 192.39 121.046 192.805 121.046 193.265C121.046 193.731 121.117 194.155 121.259 194.535C121.404 194.913 121.617 195.214 121.898 195.439C122.182 195.66 122.534 195.771 122.955 195.771ZM134.261 189.993L134.261 190.845L130.869 190.845L130.869 189.993L134.261 189.993ZM131.858 188.424L132.864 188.424L132.864 194.663C132.864 194.947 132.905 195.16 132.987 195.302C133.073 195.441 133.18 195.535 133.311 195.584C133.445 195.629 133.585 195.652 133.733 195.652C133.844 195.652 133.935 195.646 134.006 195.635C134.077 195.62 134.134 195.609 134.176 195.601L134.381 196.504C134.313 196.53 134.217 196.555 134.095 196.581C133.973 196.609 133.818 196.623 133.631 196.623C133.347 196.623 133.068 196.562 132.796 196.44C132.526 196.318 132.301 196.132 132.122 195.882C131.946 195.632 131.858 195.316 131.858 194.936L131.858 188.424ZM138.568 196.674C137.938 196.674 137.393 196.535 136.936 196.257C136.482 195.976 136.131 195.584 135.884 195.081C135.639 194.575 135.517 193.987 135.517 193.316C135.517 192.646 135.639 192.055 135.884 191.544C136.131 191.03 136.474 190.629 136.915 190.342C137.358 190.052 137.875 189.907 138.466 189.907C138.807 189.907 139.143 189.964 139.476 190.078C139.808 190.191 140.111 190.376 140.384 190.632C140.656 190.885 140.874 191.22 141.036 191.638C141.197 192.055 141.278 192.569 141.278 193.18L141.278 193.606L136.233 193.606L136.233 192.737L140.256 192.737C140.256 192.368 140.182 192.038 140.034 191.748C139.889 191.459 139.682 191.23 139.412 191.062C139.145 190.895 138.83 190.811 138.466 190.811C138.065 190.811 137.719 190.91 137.426 191.109C137.136 191.305 136.913 191.561 136.757 191.876C136.601 192.191 136.523 192.53 136.523 192.89L136.523 193.47C136.523 193.964 136.608 194.383 136.778 194.727C136.952 195.068 137.192 195.328 137.499 195.507C137.805 195.683 138.162 195.771 138.568 195.771C138.832 195.771 139.071 195.734 139.284 195.66C139.5 195.584 139.686 195.47 139.842 195.319C139.999 195.166 140.119 194.976 140.205 194.748L141.176 195.021C141.074 195.351 140.902 195.64 140.661 195.89C140.419 196.138 140.121 196.331 139.766 196.47C139.411 196.606 139.011 196.674 138.568 196.674ZM144.854 196.691C144.44 196.691 144.063 196.613 143.725 196.457C143.387 196.298 143.119 196.069 142.92 195.771C142.721 195.47 142.621 195.106 142.621 194.68C142.621 194.305 142.695 194.001 142.843 193.768C142.991 193.532 143.188 193.348 143.435 193.214C143.683 193.081 143.955 192.981 144.254 192.916C144.555 192.848 144.857 192.794 145.161 192.754C145.559 192.703 145.881 192.665 146.129 192.639C146.379 192.611 146.56 192.564 146.674 192.498C146.79 192.433 146.849 192.319 146.849 192.157L146.849 192.123C146.849 191.703 146.734 191.376 146.504 191.143C146.276 190.91 145.931 190.794 145.468 190.794C144.988 190.794 144.612 190.899 144.339 191.109C144.066 191.319 143.874 191.544 143.763 191.782L142.809 191.441C142.979 191.044 143.207 190.734 143.491 190.513C143.778 190.288 144.09 190.132 144.428 190.044C144.769 189.953 145.104 189.907 145.434 189.907C145.644 189.907 145.886 189.933 146.158 189.984C146.434 190.032 146.7 190.133 146.955 190.287C147.214 190.44 147.428 190.672 147.599 190.981C147.769 191.291 147.854 191.706 147.854 192.226L147.854 196.538L146.849 196.538L146.849 195.652L146.798 195.652C146.729 195.794 146.616 195.946 146.457 196.108C146.298 196.27 146.086 196.407 145.822 196.521C145.558 196.635 145.235 196.691 144.854 196.691ZM145.008 195.788C145.406 195.788 145.741 195.71 146.013 195.554C146.289 195.397 146.496 195.196 146.636 194.949C146.778 194.701 146.849 194.441 146.849 194.169L146.849 193.248C146.806 193.299 146.712 193.346 146.567 193.389C146.425 193.429 146.261 193.464 146.073 193.495C145.888 193.524 145.708 193.549 145.532 193.572C145.359 193.592 145.218 193.609 145.11 193.623C144.849 193.657 144.604 193.713 144.377 193.79C144.153 193.863 143.971 193.976 143.832 194.126C143.695 194.274 143.627 194.476 143.627 194.731C143.627 195.081 143.756 195.345 144.015 195.524C144.276 195.7 144.607 195.788 145.008 195.788ZM149.81 196.538L149.81 189.993L150.782 189.993L150.782 191.015L150.867 191.015C151.003 190.666 151.223 190.395 151.527 190.201C151.831 190.005 152.196 189.907 152.622 189.907C153.054 189.907 153.414 190.005 153.701 190.201C153.99 190.395 154.216 190.666 154.378 191.015L154.446 191.015C154.614 190.677 154.865 190.409 155.201 190.21C155.536 190.008 155.938 189.907 156.407 189.907C156.992 189.907 157.471 190.091 157.843 190.457C158.215 190.821 158.401 191.388 158.401 192.157L158.401 196.538L157.395 196.538L157.395 192.157C157.395 191.674 157.263 191.329 156.999 191.122C156.735 190.915 156.424 190.811 156.066 190.811C155.605 190.811 155.249 190.95 154.996 191.228C154.743 191.504 154.617 191.853 154.617 192.277L154.617 196.538L153.594 196.538L153.594 192.055C153.594 191.683 153.473 191.383 153.232 191.156C152.99 190.926 152.679 190.811 152.299 190.811C152.037 190.811 151.793 190.88 151.566 191.02C151.341 191.159 151.159 191.352 151.02 191.599C150.884 191.843 150.816 192.126 150.816 192.447L150.816 196.538L149.81 196.538Z" fill="white"/>
<path d="M39 183.322L48.4595 183.322L48.4595 184.277L39 184.277L39 183.322ZM51.6811 183.322L56.1784 183.322L56.1784 184.277L51.6811 184.277L51.6811 183.322ZM56.1784 182.924L59.6031 182.924L59.6031 183.743L56.1784 183.743L56.1784 182.924Z" fill="white"/>
<path d="M66.2051 224.938C65.8613 224.938 65.5474 224.854 65.2633 224.686C64.9792 224.516 64.752 224.289 64.5815 224.005C64.4139 223.72 64.3301 223.407 64.3301 223.063C64.3301 222.716 64.4139 222.402 64.5815 222.121C64.752 221.837 64.9792 221.611 65.2633 221.443C65.5474 221.273 65.8613 221.188 66.2051 221.188C66.5517 221.188 66.8656 221.273 67.1468 221.443C67.4309 221.611 67.6568 221.837 67.8244 222.121C67.9949 222.402 68.0801 222.716 68.0801 223.063C68.0801 223.407 67.9949 223.72 67.8244 224.005C67.6568 224.289 67.4309 224.516 67.1468 224.686C66.8656 224.854 66.5517 224.938 66.2051 224.938ZM76.2619 226.54V217.813H77.3187V221.699H81.9721V217.813H83.0289V226.54H81.9721V222.637H77.3187V226.54H76.2619ZM84.7874 218.75V217.813H91.3329V218.75H88.5886V226.54H87.5318V218.75H84.7874ZM93.0839 217.813H94.3453L97.3112 225.057H97.4135L100.379 217.813H101.641V226.54H100.652V219.909H100.567L97.8396 226.54H96.8851L94.1578 219.909H94.0726V226.54H93.0839V217.813ZM103.88 226.54V217.813H104.937V225.603H108.993V226.54H103.88ZM66.2051 238.938C65.8613 238.938 65.5474 238.854 65.2633 238.686C64.9792 238.516 64.752 238.289 64.5815 238.005C64.4139 237.72 64.3301 237.407 64.3301 237.063C64.3301 236.716 64.4139 236.402 64.5815 236.121C64.752 235.837 64.9792 235.611 65.2633 235.443C65.5474 235.273 65.8613 235.188 66.2051 235.188C66.5517 235.188 66.8656 235.273 67.1468 235.443C67.4309 235.611 67.6568 235.837 67.8244 236.121C67.9949 236.402 68.0801 236.716 68.0801 237.063C68.0801 237.407 67.9949 237.72 67.8244 238.005C67.6568 238.289 67.4309 238.516 67.1468 238.686C66.8656 238.854 66.5517 238.938 66.2051 238.938ZM83.2846 234.54H82.2278C82.1653 234.236 82.0559 233.969 81.8997 233.739C81.7463 233.509 81.5588 233.316 81.3372 233.159C81.1184 233 80.8755 232.881 80.6085 232.801C80.3414 232.722 80.063 232.682 79.7733 232.682C79.2449 232.682 78.7662 232.816 78.3372 233.083C77.911 233.35 77.5716 233.743 77.3187 234.263C77.0687 234.783 76.9437 235.421 76.9437 236.176C76.9437 236.932 77.0687 237.57 77.3187 238.09C77.5716 238.61 77.911 239.003 78.3372 239.27C78.7662 239.537 79.2449 239.671 79.7733 239.671C80.063 239.671 80.3414 239.631 80.6085 239.551C80.8755 239.472 81.1184 239.354 81.3372 239.198C81.5588 239.039 81.7463 238.844 81.8997 238.614C82.0559 238.381 82.1653 238.114 82.2278 237.813H83.2846C83.2051 238.259 83.0602 238.658 82.85 239.01C82.6397 239.362 82.3784 239.662 82.0659 239.909C81.7534 240.154 81.4025 240.34 81.0133 240.468C80.627 240.595 80.2136 240.659 79.7733 240.659C79.0289 240.659 78.367 240.478 77.7875 240.114C77.2079 239.75 76.752 239.233 76.4196 238.563C76.0872 237.892 75.921 237.097 75.921 236.176C75.921 235.256 76.0872 234.46 76.4196 233.79C76.752 233.12 77.2079 232.603 77.7875 232.239C78.367 231.875 79.0289 231.693 79.7733 231.693C80.2136 231.693 80.627 231.757 81.0133 231.885C81.4025 232.013 81.7534 232.201 82.0659 232.448C82.3784 232.692 82.6397 232.99 82.85 233.343C83.0602 233.692 83.2051 234.091 83.2846 234.54ZM89.8851 233.995C89.834 233.563 89.6266 233.228 89.2629 232.989C88.8993 232.75 88.4533 232.631 87.9249 232.631C87.5385 232.631 87.2004 232.693 86.9107 232.818C86.6237 232.943 86.3993 233.115 86.2374 233.334C86.0783 233.553 85.9987 233.801 85.9987 234.08C85.9987 234.313 86.0541 234.513 86.1649 234.681C86.2786 234.845 86.4234 234.983 86.5996 235.094C86.7757 235.202 86.9604 235.291 87.1536 235.362C87.3467 235.431 87.5243 235.486 87.6862 235.529L88.5726 235.767C88.7999 235.827 89.0527 235.909 89.3311 236.014C89.6124 236.12 89.8808 236.263 90.1365 236.445C90.395 236.624 90.6081 236.854 90.7757 237.135C90.9433 237.416 91.0271 237.762 91.0271 238.171C91.0271 238.642 90.9036 239.068 90.6564 239.449C90.4121 239.83 90.0541 240.132 89.5825 240.357C89.1138 240.581 88.5442 240.693 87.8737 240.693C87.2487 240.693 86.7075 240.593 86.2502 240.391C85.7956 240.189 85.4377 239.908 85.1763 239.547C84.9178 239.186 84.7715 238.767 84.7374 238.29H85.8283C85.8567 238.62 85.9675 238.892 86.1607 239.108C86.3567 239.321 86.6038 239.48 86.9021 239.585C87.2033 239.688 87.5271 239.739 87.8737 239.739C88.2771 239.739 88.6394 239.674 88.9604 239.543C89.2814 239.409 89.5357 239.225 89.7232 238.989C89.9107 238.75 90.0044 238.472 90.0044 238.154C90.0044 237.864 89.9234 237.628 89.7615 237.446C89.5996 237.264 89.3865 237.117 89.1223 237.003C88.8581 236.889 88.5726 236.79 88.2658 236.705L87.1919 236.398C86.5101 236.202 85.9703 235.922 85.5726 235.559C85.1749 235.195 84.976 234.719 84.976 234.131C84.976 233.642 85.1081 233.216 85.3723 232.853C85.6394 232.486 85.9973 232.202 86.4462 232C86.8979 231.796 87.4021 231.693 87.959 231.693C88.5215 231.693 89.0215 231.794 89.459 231.996C89.8965 232.195 90.243 232.468 90.4987 232.814C90.7573 233.161 90.8936 233.554 90.9078 233.995H89.8851ZM97.6574 233.995C97.6063 233.563 97.3989 233.228 97.0353 232.989C96.6716 232.75 96.2256 232.631 95.6972 232.631C95.3108 232.631 94.9728 232.693 94.683 232.818C94.3961 232.943 94.1716 233.115 94.0097 233.334C93.8506 233.553 93.7711 233.801 93.7711 234.08C93.7711 234.313 93.8265 234.513 93.9373 234.681C94.0509 234.845 94.1958 234.983 94.3719 235.094C94.5481 235.202 94.7327 235.291 94.9259 235.362C95.1191 235.431 95.2966 235.486 95.4586 235.529L96.3449 235.767C96.5722 235.827 96.8251 235.909 97.1035 236.014C97.3847 236.12 97.6532 236.263 97.9089 236.445C98.1674 236.624 98.3804 236.854 98.5481 237.135C98.7157 237.416 98.7995 237.762 98.7995 238.171C98.7995 238.642 98.6759 239.068 98.4287 239.449C98.1844 239.83 97.8265 240.132 97.3549 240.357C96.8861 240.581 96.3165 240.693 95.6461 240.693C95.0211 240.693 94.4799 240.593 94.0225 240.391C93.5679 240.189 93.21 239.908 92.9486 239.547C92.6901 239.186 92.5438 238.767 92.5097 238.29H93.6006C93.629 238.62 93.7398 238.892 93.933 239.108C94.129 239.321 94.3762 239.48 94.6745 239.585C94.9756 239.688 95.2995 239.739 95.6461 239.739C96.0495 239.739 96.4117 239.674 96.7327 239.543C97.0537 239.409 97.308 239.225 97.4955 238.989C97.683 238.75 97.7768 238.472 97.7768 238.154C97.7768 237.864 97.6958 237.628 97.5339 237.446C97.3719 237.264 97.1589 237.117 96.8947 237.003C96.6304 236.889 96.3449 236.79 96.0381 236.705L94.9643 236.398C94.2824 236.202 93.7427 235.922 93.3449 235.559C92.9472 235.195 92.7483 234.719 92.7483 234.131C92.7483 233.642 92.8804 233.216 93.1447 232.853C93.4117 232.486 93.7697 232.202 94.2185 232C94.6702 231.796 95.1745 231.693 95.7313 231.693C96.2938 231.693 96.7938 231.794 97.2313 231.996C97.6688 232.195 98.0154 232.468 98.2711 232.814C98.5296 233.161 98.666 233.554 98.6802 233.995H97.6574ZM66.2051 252.938C65.8613 252.938 65.5474 252.854 65.2633 252.686C64.9792 252.516 64.752 252.289 64.5815 252.005C64.4139 251.72 64.3301 251.407 64.3301 251.063C64.3301 250.716 64.4139 250.402 64.5815 250.121C64.752 249.837 64.9792 249.611 65.2633 249.443C65.5474 249.273 65.8613 249.188 66.2051 249.188C66.5517 249.188 66.8656 249.273 67.1468 249.443C67.4309 249.611 67.6568 249.837 67.8244 250.121C67.9949 250.402 68.0801 250.716 68.0801 251.063C68.0801 251.407 67.9949 251.72 67.8244 252.005C67.6568 252.289 67.4309 252.516 67.1468 252.686C66.8656 252.854 66.5517 252.938 66.2051 252.938ZM79.6028 245.813H80.6596V252.051C80.6596 252.608 80.5574 253.081 80.3528 253.47C80.1483 253.86 79.8599 254.155 79.4877 254.357C79.1156 254.559 78.6767 254.659 78.171 254.659C77.6937 254.659 77.269 254.573 76.8968 254.399C76.5247 254.223 76.2321 253.973 76.019 253.649C75.8059 253.326 75.6994 252.941 75.6994 252.495H76.7392C76.7392 252.742 76.8002 252.958 76.9224 253.142C77.0474 253.324 77.2179 253.466 77.4338 253.568C77.6497 253.671 77.8954 253.722 78.171 253.722C78.475 253.722 78.7335 253.658 78.9466 253.53C79.1596 253.402 79.3216 253.215 79.4324 252.968C79.546 252.718 79.6028 252.412 79.6028 252.051V245.813ZM84.6873 254.693C84.2725 254.693 83.8961 254.615 83.558 254.459C83.22 254.3 82.9515 254.071 82.7526 253.773C82.5538 253.472 82.4543 253.108 82.4543 252.682C82.4543 252.307 82.5282 252.003 82.6759 251.77C82.8237 251.534 83.0211 251.35 83.2683 251.216C83.5154 251.083 83.7881 250.983 84.0864 250.918C84.3876 250.85 84.6901 250.796 84.9941 250.756C85.3918 250.705 85.7143 250.666 85.9614 250.641C86.2114 250.612 86.3933 250.566 86.5069 250.5C86.6234 250.435 86.6816 250.321 86.6816 250.159V250.125C86.6816 249.705 86.5666 249.378 86.3364 249.145C86.1092 248.912 85.764 248.796 85.3009 248.796C84.8208 248.796 84.4444 248.901 84.1717 249.111C83.8989 249.321 83.7072 249.546 83.5964 249.784L82.6418 249.443C82.8123 249.046 83.0396 248.736 83.3237 248.514C83.6106 248.29 83.9231 248.134 84.2612 248.046C84.6021 247.955 84.9373 247.909 85.2668 247.909C85.4771 247.909 85.7185 247.935 85.9913 247.986C86.2668 248.034 86.5325 248.135 86.7881 248.289C87.0467 248.442 87.2612 248.674 87.4316 248.983C87.6021 249.293 87.6873 249.708 87.6873 250.228V254.54H86.6816V253.654H86.6305C86.5623 253.796 86.4487 253.948 86.2896 254.11C86.1305 254.272 85.9188 254.409 85.6546 254.523C85.3904 254.637 85.068 254.693 84.6873 254.693ZM84.8407 253.79C85.2384 253.79 85.5737 253.712 85.8464 253.556C86.122 253.399 86.3293 253.198 86.4685 252.951C86.6106 252.703 86.6816 252.443 86.6816 252.171V251.25C86.639 251.301 86.5452 251.348 86.4004 251.391C86.2583 251.431 86.0935 251.466 85.906 251.497C85.7214 251.526 85.541 251.551 85.3649 251.574C85.1916 251.594 85.0509 251.611 84.943 251.625C84.6816 251.659 84.4373 251.715 84.21 251.791C83.9856 251.865 83.8038 251.978 83.6646 252.128C83.5282 252.276 83.46 252.478 83.46 252.733C83.46 253.083 83.5893 253.347 83.8478 253.526C84.1092 253.702 84.4401 253.79 84.8407 253.79ZM94.7608 247.995L92.3403 254.54H91.3176L88.8971 247.995H89.988L91.7949 253.21H91.863L93.6699 247.995H94.7608ZM97.9351 254.693C97.5203 254.693 97.1439 254.615 96.8058 254.459C96.4678 254.3 96.1993 254.071 96.0004 253.773C95.8016 253.472 95.7022 253.108 95.7022 252.682C95.7022 252.307 95.776 252.003 95.9237 251.77C96.0715 251.534 96.2689 251.35 96.5161 251.216C96.7632 251.083 97.036 250.983 97.3343 250.918C97.6354 250.85 97.9379 250.796 98.2419 250.756C98.6397 250.705 98.9621 250.666 99.2093 250.641C99.4593 250.612 99.6411 250.566 99.7547 250.5C99.8712 250.435 99.9294 250.321 99.9294 250.159V250.125C99.9294 249.705 99.8144 249.378 99.5843 249.145C99.357 248.912 99.0118 248.796 98.5487 248.796C98.0686 248.796 97.6922 248.901 97.4195 249.111C97.1468 249.321 96.955 249.546 96.8442 249.784L95.8897 249.443C96.0601 249.046 96.2874 248.736 96.5715 248.514C96.8584 248.29 97.1709 248.134 97.509 248.046C97.8499 247.955 98.1851 247.909 98.5147 247.909C98.7249 247.909 98.9664 247.935 99.2391 247.986C99.5147 248.034 99.7803 248.135 100.036 248.289C100.294 248.442 100.509 248.674 100.679 248.983C100.85 249.293 100.935 249.708 100.935 250.228V254.54H99.9294V253.654H99.8783C99.8101 253.796 99.6965 253.948 99.5374 254.11C99.3783 254.272 99.1666 254.409 98.9024 254.523C98.6382 254.637 98.3158 254.693 97.9351 254.693ZM98.0885 253.79C98.4862 253.79 98.8215 253.712 99.0942 253.556C99.3698 253.399 99.5772 253.198 99.7164 252.951C99.8584 252.703 99.9294 252.443 99.9294 252.171V251.25C99.8868 251.301 99.7931 251.348 99.6482 251.391C99.5061 251.431 99.3414 251.466 99.1539 251.497C98.9692 251.526 98.7888 251.551 98.6127 251.574C98.4394 251.594 98.2987 251.611 98.1908 251.625C97.9294 251.659 97.6851 251.715 97.4578 251.791C97.2334 251.865 97.0516 251.978 96.9124 252.128C96.776 252.276 96.7078 252.478 96.7078 252.733C96.7078 253.083 96.8371 253.347 97.0956 253.526C97.357 253.702 97.6879 253.79 98.0885 253.79ZM107.8 247.995C107.749 247.563 107.541 247.228 107.178 246.989C106.814 246.75 106.368 246.631 105.84 246.631C105.453 246.631 105.115 246.693 104.825 246.818C104.538 246.943 104.314 247.115 104.152 247.334C103.993 247.553 103.913 247.801 103.913 248.08C103.913 248.313 103.969 248.513 104.08 248.681C104.193 248.845 104.338 248.983 104.514 249.094C104.69 249.202 104.875 249.291 105.068 249.362C105.261 249.431 105.439 249.486 105.601 249.529L106.487 249.767C106.715 249.827 106.967 249.909 107.246 250.014C107.527 250.12 107.796 250.263 108.051 250.445C108.31 250.624 108.523 250.854 108.69 251.135C108.858 251.416 108.942 251.762 108.942 252.171C108.942 252.642 108.818 253.068 108.571 253.449C108.327 253.83 107.969 254.132 107.497 254.357C107.028 254.581 106.459 254.693 105.788 254.693C105.163 254.693 104.622 254.593 104.165 254.391C103.71 254.189 103.352 253.908 103.091 253.547C102.832 253.186 102.686 252.767 102.652 252.29H103.743C103.771 252.62 103.882 252.892 104.075 253.108C104.271 253.321 104.519 253.48 104.817 253.585C105.118 253.688 105.442 253.739 105.788 253.739C106.192 253.739 106.554 253.674 106.875 253.543C107.196 253.409 107.45 253.225 107.638 252.989C107.825 252.75 107.919 252.472 107.919 252.154C107.919 251.864 107.838 251.628 107.676 251.446C107.514 251.264 107.301 251.117 107.037 251.003C106.773 250.889 106.487 250.79 106.18 250.705L105.107 250.398C104.425 250.202 103.885 249.922 103.487 249.559C103.09 249.195 102.891 248.719 102.891 248.131C102.891 247.642 103.023 247.216 103.287 246.853C103.554 246.486 103.912 246.202 104.361 246C104.813 245.796 105.317 245.693 105.874 245.693C106.436 245.693 106.936 245.794 107.374 245.996C107.811 246.195 108.158 246.468 108.413 246.814C108.672 247.161 108.808 247.554 108.823 247.995H107.8ZM113.322 254.676C112.708 254.676 112.18 254.532 111.737 254.242C111.294 253.952 110.953 253.553 110.714 253.044C110.476 252.536 110.356 251.955 110.356 251.301C110.356 250.637 110.478 250.05 110.723 249.541C110.97 249.03 111.314 248.631 111.754 248.344C112.197 248.054 112.714 247.909 113.305 247.909C113.765 247.909 114.18 247.995 114.549 248.165C114.919 248.335 115.221 248.574 115.457 248.881C115.693 249.188 115.839 249.546 115.896 249.955H114.89C114.814 249.657 114.643 249.392 114.379 249.162C114.118 248.929 113.765 248.813 113.322 248.813C112.93 248.813 112.586 248.915 112.291 249.12C111.998 249.321 111.77 249.607 111.605 249.976C111.443 250.343 111.362 250.773 111.362 251.267C111.362 251.773 111.441 252.213 111.601 252.588C111.762 252.963 111.99 253.255 112.282 253.462C112.578 253.669 112.924 253.773 113.322 253.773C113.583 253.773 113.821 253.728 114.034 253.637C114.247 253.546 114.427 253.415 114.575 253.245C114.723 253.074 114.828 252.87 114.89 252.631H115.896C115.839 253.017 115.699 253.365 115.474 253.675C115.253 253.982 114.958 254.226 114.592 254.408C114.228 254.587 113.805 254.676 113.322 254.676ZM117.486 254.54V247.995H118.458V248.983H118.526C118.645 248.659 118.861 248.397 119.174 248.195C119.486 247.993 119.838 247.892 120.23 247.892C120.304 247.892 120.397 247.894 120.507 247.897C120.618 247.899 120.702 247.904 120.759 247.909V248.932C120.725 248.924 120.647 248.911 120.525 248.894C120.405 248.874 120.279 248.864 120.145 248.864C119.827 248.864 119.543 248.931 119.293 249.064C119.046 249.195 118.85 249.377 118.705 249.61C118.563 249.84 118.492 250.103 118.492 250.398V254.54H117.486ZM122.071 254.54V247.995H123.077V254.54H122.071ZM122.582 246.904C122.386 246.904 122.217 246.837 122.075 246.703C121.936 246.57 121.866 246.409 121.866 246.222C121.866 246.034 121.936 245.874 122.075 245.74C122.217 245.607 122.386 245.54 122.582 245.54C122.778 245.54 122.946 245.607 123.085 245.74C123.227 245.874 123.298 246.034 123.298 246.222C123.298 246.409 123.227 246.57 123.085 246.703C122.946 246.837 122.778 246.904 122.582 246.904ZM125.039 256.995V247.995H126.01V249.034H126.13C126.203 248.921 126.306 248.776 126.436 248.6C126.57 248.421 126.76 248.262 127.007 248.122C127.257 247.98 127.595 247.909 128.022 247.909C128.573 247.909 129.059 248.047 129.479 248.323C129.899 248.598 130.228 248.989 130.463 249.495C130.699 250 130.817 250.597 130.817 251.284C130.817 251.978 130.699 252.578 130.463 253.087C130.228 253.593 129.901 253.985 129.483 254.263C129.066 254.539 128.584 254.676 128.039 254.676C127.618 254.676 127.282 254.607 127.029 254.468C126.776 254.326 126.581 254.165 126.445 253.986C126.309 253.804 126.203 253.654 126.13 253.534H126.044V256.995H125.039ZM126.027 251.267C126.027 251.762 126.1 252.198 126.245 252.576C126.39 252.951 126.601 253.245 126.88 253.458C127.158 253.668 127.499 253.773 127.902 253.773C128.323 253.773 128.674 253.662 128.955 253.441C129.239 253.216 129.452 252.915 129.594 252.537C129.739 252.157 129.811 251.733 129.811 251.267C129.811 250.807 129.74 250.392 129.598 250.023C129.459 249.651 129.247 249.357 128.963 249.141C128.682 248.922 128.328 248.813 127.902 248.813C127.493 248.813 127.149 248.916 126.871 249.124C126.593 249.328 126.382 249.615 126.24 249.985C126.098 250.351 126.027 250.779 126.027 251.267ZM135.318 247.995V248.847H131.926V247.995H135.318ZM132.914 246.426H133.92V252.665C133.92 252.949 133.961 253.162 134.044 253.304C134.129 253.443 134.237 253.537 134.367 253.585C134.501 253.631 134.642 253.654 134.789 253.654C134.9 253.654 134.991 253.648 135.062 253.637C135.133 253.622 135.19 253.611 135.233 253.603L135.437 254.506C135.369 254.532 135.274 254.557 135.152 254.583C135.029 254.611 134.875 254.625 134.687 254.625C134.403 254.625 134.125 254.564 133.852 254.442C133.582 254.32 133.358 254.134 133.179 253.884C133.002 253.634 132.914 253.318 132.914 252.938V246.426ZM66.2051 266.938C65.8613 266.938 65.5474 266.854 65.2633 266.686C64.9792 266.516 64.752 266.289 64.5815 266.005C64.4139 265.72 64.3301 265.407 64.3301 265.063C64.3301 264.716 64.4139 264.402 64.5815 264.121C64.752 263.837 64.9792 263.611 65.2633 263.443C65.5474 263.273 65.8613 263.188 66.2051 263.188C66.5517 263.188 66.8656 263.273 67.1468 263.443C67.4309 263.611 67.6568 263.837 67.8244 264.121C67.9949 264.402 68.0801 264.716 68.0801 265.063C68.0801 265.407 67.9949 265.72 67.8244 266.005C67.6568 266.289 67.4309 266.516 67.1468 266.686C66.8656 266.854 66.5517 266.938 66.2051 266.938ZM76.2619 268.54V259.813H79.313C79.921 259.813 80.4224 259.918 80.8173 260.128C81.2122 260.335 81.5062 260.615 81.6994 260.968C81.8926 261.317 81.9892 261.705 81.9892 262.131C81.9892 262.506 81.9224 262.816 81.7889 263.06C81.6582 263.304 81.4849 263.497 81.269 263.639C81.0559 263.782 80.8244 263.887 80.5744 263.955V264.04C80.8414 264.057 81.1099 264.151 81.3798 264.321C81.6497 264.492 81.8755 264.736 82.0574 265.054C82.2392 265.372 82.3301 265.762 82.3301 266.222C82.3301 266.659 82.2306 267.053 82.0318 267.402C81.8329 267.752 81.519 268.029 81.09 268.233C80.661 268.438 80.1028 268.54 79.4153 268.54H76.2619ZM77.3187 267.603H79.4153C80.1056 267.603 80.5957 267.469 80.8855 267.202C81.1781 266.932 81.3244 266.605 81.3244 266.222C81.3244 265.926 81.2491 265.654 81.0985 265.404C80.948 265.151 80.7335 264.949 80.4551 264.799C80.1767 264.645 79.8471 264.568 79.4664 264.568H77.3187V267.603ZM77.3187 263.648H79.2789C79.5971 263.648 79.8841 263.585 80.1397 263.46C80.3983 263.335 80.6028 263.159 80.7534 262.932C80.9068 262.705 80.9835 262.438 80.9835 262.131C80.9835 261.747 80.85 261.422 80.5829 261.155C80.3159 260.885 79.8926 260.75 79.313 260.75H77.3187V263.648ZM86.7093 268.676C86.1184 268.676 85.5999 268.536 85.1539 268.255C84.7107 267.973 84.3641 267.58 84.1141 267.074C83.867 266.568 83.7434 265.978 83.7434 265.301C83.7434 264.62 83.867 264.024 84.1141 263.516C84.3641 263.007 84.7107 262.612 85.1539 262.331C85.5999 262.05 86.1184 261.909 86.7093 261.909C87.3002 261.909 87.8173 262.05 88.2604 262.331C88.7065 262.612 89.0531 263.007 89.3002 263.516C89.5502 264.024 89.6752 264.62 89.6752 265.301C89.6752 265.978 89.5502 266.568 89.3002 267.074C89.0531 267.58 88.7065 267.973 88.2604 268.255C87.8173 268.536 87.3002 268.676 86.7093 268.676ZM86.7093 267.773C87.1582 267.773 87.5275 267.658 87.8173 267.428C88.107 267.198 88.3215 266.895 88.4607 266.52C88.5999 266.145 88.6695 265.739 88.6695 265.301C88.6695 264.864 88.5999 264.456 88.4607 264.078C88.3215 263.701 88.107 263.395 87.8173 263.162C87.5275 262.929 87.1582 262.813 86.7093 262.813C86.2604 262.813 85.8911 262.929 85.6014 263.162C85.3116 263.395 85.0971 263.701 84.9579 264.078C84.8187 264.456 84.7491 264.864 84.7491 265.301C84.7491 265.739 84.8187 266.145 84.9579 266.52C85.0971 266.895 85.3116 267.198 85.6014 267.428C85.8911 267.658 86.2604 267.773 86.7093 267.773ZM93.9895 268.676C93.3986 268.676 92.8801 268.536 92.4341 268.255C91.9909 267.973 91.6443 267.58 91.3943 267.074C91.1471 266.568 91.0236 265.978 91.0236 265.301C91.0236 264.62 91.1471 264.024 91.3943 263.516C91.6443 263.007 91.9909 262.612 92.4341 262.331C92.8801 262.05 93.3986 261.909 93.9895 261.909C94.5804 261.909 95.0974 262.05 95.5406 262.331C95.9866 262.612 96.3332 263.007 96.5804 263.516C96.8304 264.024 96.9554 264.62 96.9554 265.301C96.9554 265.978 96.8304 266.568 96.5804 267.074C96.3332 267.58 95.9866 267.973 95.5406 268.255C95.0974 268.536 94.5804 268.676 93.9895 268.676ZM93.9895 267.773C94.4383 267.773 94.8077 267.658 95.0974 267.428C95.3872 267.198 95.6017 266.895 95.7409 266.52C95.8801 266.145 95.9497 265.739 95.9497 265.301C95.9497 264.864 95.8801 264.456 95.7409 264.078C95.6017 263.701 95.3872 263.395 95.0974 263.162C94.8077 262.929 94.4383 262.813 93.9895 262.813C93.5406 262.813 93.1713 262.929 92.8815 263.162C92.5917 263.395 92.3773 263.701 92.238 264.078C92.0988 264.456 92.0292 264.864 92.0292 265.301C92.0292 265.739 92.0988 266.145 92.238 266.52C92.3773 266.895 92.5917 267.198 92.8815 267.428C93.1713 267.658 93.5406 267.773 93.9895 267.773ZM101.457 261.995V262.847H98.0651V261.995H101.457ZM99.0537 260.426H100.059V266.665C100.059 266.949 100.101 267.162 100.183 267.304C100.268 267.443 100.376 267.537 100.507 267.585C100.64 267.631 100.781 267.654 100.929 267.654C101.04 267.654 101.13 267.648 101.201 267.637C101.272 267.622 101.329 267.611 101.372 267.603L101.576 268.506C101.508 268.532 101.413 268.557 101.291 268.583C101.169 268.611 101.014 268.625 100.826 268.625C100.542 268.625 100.264 268.564 99.9912 268.442C99.7213 268.32 99.4969 268.134 99.3179 267.884C99.1418 267.634 99.0537 267.318 99.0537 266.938V260.426ZM107.609 263.46L106.706 263.716C106.649 263.566 106.565 263.419 106.454 263.277C106.346 263.132 106.199 263.013 106.011 262.919C105.824 262.826 105.584 262.779 105.291 262.779C104.89 262.779 104.557 262.871 104.289 263.056C104.025 263.237 103.893 263.469 103.893 263.75C103.893 264 103.984 264.198 104.166 264.343C104.348 264.487 104.632 264.608 105.018 264.705L105.99 264.943C106.575 265.085 107.011 265.303 107.298 265.595C107.585 265.885 107.728 266.259 107.728 266.716C107.728 267.091 107.62 267.426 107.405 267.722C107.191 268.017 106.893 268.25 106.51 268.421C106.126 268.591 105.68 268.676 105.172 268.676C104.504 268.676 103.951 268.532 103.514 268.242C103.076 267.952 102.799 267.529 102.683 266.972L103.637 266.733C103.728 267.085 103.9 267.35 104.153 267.526C104.409 267.702 104.743 267.79 105.155 267.79C105.623 267.79 105.995 267.691 106.271 267.492C106.549 267.29 106.689 267.049 106.689 266.767C106.689 266.54 106.609 266.35 106.45 266.196C106.291 266.04 106.047 265.924 105.717 265.847L104.626 265.591C104.027 265.449 103.586 265.229 103.305 264.931C103.027 264.63 102.887 264.253 102.887 263.801C102.887 263.432 102.991 263.105 103.199 262.821C103.409 262.537 103.694 262.314 104.055 262.152C104.419 261.99 104.831 261.909 105.291 261.909C105.939 261.909 106.447 262.051 106.816 262.335C107.189 262.62 107.453 262.995 107.609 263.46ZM112.209 261.995V262.847H108.817V261.995H112.209ZM109.805 260.426H110.811V266.665C110.811 266.949 110.852 267.162 110.935 267.304C111.02 267.443 111.128 267.537 111.259 267.585C111.392 267.631 111.533 267.654 111.68 267.654C111.791 267.654 111.882 267.648 111.953 267.637C112.024 267.622 112.081 267.611 112.124 267.603L112.328 268.506C112.26 268.532 112.165 268.557 112.043 268.583C111.92 268.611 111.766 268.625 111.578 268.625C111.294 268.625 111.016 268.564 110.743 268.442C110.473 268.32 110.249 268.134 110.07 267.884C109.893 267.634 109.805 267.318 109.805 266.938V260.426ZM113.842 268.54V261.995H114.813V262.983H114.881C115.001 262.659 115.217 262.397 115.529 262.195C115.842 261.993 116.194 261.892 116.586 261.892C116.66 261.892 116.752 261.894 116.863 261.897C116.974 261.899 117.058 261.904 117.114 261.909V262.932C117.08 262.924 117.002 262.911 116.88 262.894C116.761 262.874 116.634 262.864 116.501 262.864C116.183 262.864 115.898 262.931 115.648 263.064C115.401 263.195 115.205 263.377 115.06 263.61C114.918 263.84 114.847 264.103 114.847 264.398V268.54H113.842ZM120.353 268.693C119.938 268.693 119.561 268.615 119.223 268.459C118.885 268.3 118.617 268.071 118.418 267.773C118.219 267.472 118.12 267.108 118.12 266.682C118.12 266.307 118.194 266.003 118.341 265.77C118.489 265.534 118.686 265.35 118.934 265.216C119.181 265.083 119.453 264.983 119.752 264.918C120.053 264.85 120.355 264.796 120.659 264.756C121.057 264.705 121.38 264.666 121.627 264.641C121.877 264.612 122.059 264.566 122.172 264.5C122.289 264.435 122.347 264.321 122.347 264.159V264.125C122.347 263.705 122.232 263.378 122.002 263.145C121.774 262.912 121.429 262.796 120.966 262.796C120.486 262.796 120.11 262.901 119.837 263.111C119.564 263.321 119.372 263.546 119.262 263.784L118.307 263.443C118.478 263.046 118.705 262.736 118.989 262.514C119.276 262.29 119.588 262.134 119.926 262.046C120.267 261.955 120.603 261.909 120.932 261.909C121.142 261.909 121.384 261.935 121.657 261.986C121.932 262.034 122.198 262.135 122.453 262.289C122.712 262.442 122.926 262.674 123.097 262.983C123.267 263.293 123.353 263.708 123.353 264.228V268.54H122.347V267.654H122.296C122.228 267.796 122.114 267.948 121.955 268.11C121.796 268.272 121.584 268.409 121.32 268.523C121.056 268.637 120.733 268.693 120.353 268.693ZM120.506 267.79C120.904 267.79 121.239 267.712 121.512 267.556C121.787 267.399 121.995 267.198 122.134 266.951C122.276 266.703 122.347 266.443 122.347 266.171V265.25C122.304 265.301 122.211 265.348 122.066 265.391C121.924 265.431 121.759 265.466 121.571 265.497C121.387 265.526 121.206 265.551 121.03 265.574C120.857 265.594 120.716 265.611 120.608 265.625C120.347 265.659 120.103 265.715 119.875 265.791C119.651 265.865 119.469 265.978 119.33 266.128C119.194 266.276 119.125 266.478 119.125 266.733C119.125 267.083 119.255 267.347 119.513 267.526C119.774 267.702 120.105 267.79 120.506 267.79ZM125.308 270.995V261.995H126.28V263.034H126.399C126.473 262.921 126.575 262.776 126.706 262.6C126.839 262.421 127.03 262.262 127.277 262.122C127.527 261.98 127.865 261.909 128.291 261.909C128.842 261.909 129.328 262.047 129.749 262.323C130.169 262.598 130.497 262.989 130.733 263.495C130.969 264 131.087 264.597 131.087 265.284C131.087 265.978 130.969 266.578 130.733 267.087C130.497 267.593 130.17 267.985 129.753 268.263C129.335 268.539 128.854 268.676 128.308 268.676C127.888 268.676 127.551 268.607 127.298 268.468C127.045 268.326 126.851 268.165 126.714 267.986C126.578 267.804 126.473 267.654 126.399 267.534H126.314V270.995H125.308ZM126.297 265.267C126.297 265.762 126.369 266.198 126.514 266.576C126.659 266.951 126.871 267.245 127.149 267.458C127.428 267.668 127.768 267.773 128.172 267.773C128.592 267.773 128.943 267.662 129.224 267.441C129.508 267.216 129.722 266.915 129.864 266.537C130.008 266.157 130.081 265.733 130.081 265.267C130.081 264.807 130.01 264.392 129.868 264.023C129.729 263.651 129.517 263.357 129.233 263.141C128.952 262.922 128.598 262.813 128.172 262.813C127.763 262.813 127.419 262.916 127.141 263.124C126.862 263.328 126.652 263.615 126.51 263.985C126.368 264.351 126.297 264.779 126.297 265.267Z" fill="white"/>
</g>
<rect x="206.5" y="6.03809" width="314" height="183" rx="13.5" transform="rotate(90 206.5 6.03809)" stroke="url(#paint0_angular_758_3433)" stroke-opacity="0.5"/>
</g>
<defs>
<filter id="filter0_d_758_3433" x="0" y="0.538086" width="214" height="345" filterUnits="userSpaceOnUse" color-interpolation-filters="sRGB">
<feFlood flood-opacity="0" result="BackgroundImageFix"/>
<feColorMatrix in="SourceAlpha" type="matrix" values="0 0 0 0 0 0 0 0 0 0 0 0 0 0 0 0 0 0 127 0" result="hardAlpha"/>
<feOffset dx="-8" dy="10"/>
<feGaussianBlur stdDeviation="7.5"/>
<feComposite in2="hardAlpha" operator="out"/>
<feColorMatrix type="matrix" values="0 0 0 0 0 0 0 0 0 0 0 0 0 0 0 0 0 0 0.15 0"/>
<feBlend mode="normal" in2="BackgroundImageFix" result="effect1_dropShadow_758_3433"/>
<feBlend mode="normal" in="SourceGraphic" in2="effect1_dropShadow_758_3433" result="shape"/>
</filter>
<filter id="filter1_f_758_3433" x="120.042" y="-41.8943" width="123.247" height="120.394" filterUnits="userSpaceOnUse" color-interpolation-filters="sRGB">
<feFlood flood-opacity="0" result="BackgroundImageFix"/>
<feBlend mode="normal" in="SourceGraphic" in2="BackgroundImageFix" result="shape"/>
<feGaussianBlur stdDeviation="15" result="effect1_foregroundBlur_758_3433"/>
</filter>
<filter id="filter2_f_758_3433" x="158.726" y="-57.4497" width="137.992" height="153.132" filterUnits="userSpaceOnUse" color-interpolation-filters="sRGB">
<feFlood flood-opacity="0" result="BackgroundImageFix"/>
<feBlend mode="normal" in="SourceGraphic" in2="BackgroundImageFix" result="shape"/>
<feGaussianBlur stdDeviation="15" result="effect1_foregroundBlur_758_3433"/>
</filter>
<filter id="filter3_f_758_3433" x="119.697" y="-54.9526" width="125.69" height="134.281" filterUnits="userSpaceOnUse" color-interpolation-filters="sRGB">
<feFlood flood-opacity="0" result="BackgroundImageFix"/>
<feBlend mode="normal" in="SourceGraphic" in2="BackgroundImageFix" result="shape"/>
<feGaussianBlur stdDeviation="15" result="effect1_foregroundBlur_758_3433"/>
</filter>
<filter id="filter4_f_758_3433" x="114.175" y="-49.2744" width="105.034" height="125.228" filterUnits="userSpaceOnUse" color-interpolation-filters="sRGB">
<feFlood flood-opacity="0" result="BackgroundImageFix"/>
<feBlend mode="normal" in="SourceGraphic" in2="BackgroundImageFix" result="shape"/>
<feGaussianBlur stdDeviation="15" result="effect1_foregroundBlur_758_3433"/>
</filter>
<filter id="filter5_f_758_3433" x="155.849" y="-51.0532" width="101.802" height="115.034" filterUnits="userSpaceOnUse" color-interpolation-filters="sRGB">
<feFlood flood-opacity="0" result="BackgroundImageFix"/>
<feBlend mode="normal" in="SourceGraphic" in2="BackgroundImageFix" result="shape"/>
<feGaussianBlur stdDeviation="15" result="effect1_foregroundBlur_758_3433"/>
</filter>
<radialGradient id="paint0_angular_758_3433" cx="0" cy="0" r="1" gradientUnits="userSpaceOnUse" gradientTransform="translate(258 35.0381) rotate(19.782) scale(255.583 437.546)">
<stop offset="0.106146" stop-color="white"/>
<stop offset="0.16572" stop-color="#595959"/>
<stop offset="0.356116" stop-color="white"/>
<stop offset="0.474328" stop-color="white"/>
<stop offset="0.950754" stop-color="white" stop-opacity="0.54"/>
<stop offset="0.975714" stop-color="#E3E3E3" stop-opacity="0"/>
<stop offset="1" stop-color="#8D8D8D" stop-opacity="0"/>
</radialGradient>
<clipPath id="clip0_758_3433">
<rect x="207" y="5.53809" width="315" height="184" rx="14" transform="rotate(90 207 5.53809)" fill="white"/>
</clipPath>
</defs>
</svg>
