<svg width="118" height="121" viewBox="0 0 118 121" fill="none" xmlns="http://www.w3.org/2000/svg">
<g filter="url(#filter0_dd_49_2842)">
<ellipse cx="58.9196" cy="56.5" rx="54.9196" ry="56.5" fill="#C4EAE8"/>
<path d="M112.839 56.5C112.839 87.1787 88.672 112 58.9196 112C29.1672 112 5 87.1787 5 56.5C5 25.8213 29.1672 1 58.9196 1C88.672 1 112.839 25.8213 112.839 56.5Z" stroke="#272A5F" stroke-width="2"/>
</g>
<path d="M20.12 83.7944V72.5944H25.416C26.6533 72.5944 27.7413 72.8238 28.68 73.2824C29.6187 73.7411 30.3493 74.3864 30.872 75.2184C31.4053 76.0504 31.672 77.0424 31.672 78.1944C31.672 79.3358 31.4053 80.3278 30.872 81.1704C30.3493 82.0024 29.6187 82.6478 28.68 83.1064C27.7413 83.5651 26.6533 83.7944 25.416 83.7944H20.12ZM23.288 81.2664H25.288C25.928 81.2664 26.4827 81.1491 26.952 80.9144C27.432 80.6691 27.8053 80.3171 28.072 79.8584C28.3387 79.3891 28.472 78.8344 28.472 78.1944C28.472 77.5438 28.3387 76.9891 28.072 76.5304C27.8053 76.0718 27.432 75.7251 26.952 75.4904C26.4827 75.2451 25.928 75.1224 25.288 75.1224H23.288V81.2664ZM36.2508 76.9304H41.4508V79.2984H36.2508V76.9304ZM36.4748 81.3464H42.3308V83.7944H33.3388V72.5944H42.1228V75.0424H36.4748V81.3464ZM47.3725 83.7944L42.5885 72.5944H46.0125L50.0445 82.2904H48.0285L52.1565 72.5944H55.2925L50.4925 83.7944H47.3725ZM58.8601 76.9304H64.0601V79.2984H58.8601V76.9304ZM59.0841 81.3464H64.9401V83.7944H55.9481V72.5944H64.7321V75.0424H59.0841V81.3464ZM66.6981 83.7944V72.5944H69.8661V81.2824H75.2101V83.7944H66.6981ZM81.9399 84.0184C81.0439 84.0184 80.2172 83.8744 79.4599 83.5864C78.7025 83.2984 78.0412 82.8931 77.4759 82.3704C76.9212 81.8371 76.4892 81.2184 76.1799 80.5144C75.8705 79.8104 75.7159 79.0371 75.7159 78.1944C75.7159 77.3518 75.8705 76.5784 76.1799 75.8744C76.4892 75.1704 76.9212 74.5571 77.4759 74.0344C78.0412 73.5011 78.7025 73.0904 79.4599 72.8024C80.2172 72.5144 81.0439 72.3704 81.9399 72.3704C82.8465 72.3704 83.6732 72.5144 84.4199 72.8024C85.1772 73.0904 85.8332 73.5011 86.3879 74.0344C86.9425 74.5571 87.3745 75.1704 87.6839 75.8744C88.0039 76.5784 88.1639 77.3518 88.1639 78.1944C88.1639 79.0371 88.0039 79.8158 87.6839 80.5304C87.3745 81.2344 86.9425 81.8478 86.3879 82.3704C85.8332 82.8931 85.1772 83.2984 84.4199 83.5864C83.6732 83.8744 82.8465 84.0184 81.9399 84.0184ZM81.9399 81.3944C82.3665 81.3944 82.7612 81.3198 83.1239 81.1704C83.4972 81.0211 83.8172 80.8078 84.0839 80.5304C84.3612 80.2424 84.5745 79.9011 84.7239 79.5064C84.8839 79.1118 84.9639 78.6744 84.9639 78.1944C84.9639 77.7038 84.8839 77.2664 84.7239 76.8824C84.5745 76.4878 84.3612 76.1518 84.0839 75.8744C83.8172 75.5864 83.4972 75.3678 83.1239 75.2184C82.7612 75.0691 82.3665 74.9944 81.9399 74.9944C81.5132 74.9944 81.1132 75.0691 80.7399 75.2184C80.3772 75.3678 80.0572 75.5864 79.7799 75.8744C79.5132 76.1518 79.2999 76.4878 79.1399 76.8824C78.9905 77.2664 78.9159 77.7038 78.9159 78.1944C78.9159 78.6744 78.9905 79.1118 79.1399 79.5064C79.2999 79.9011 79.5132 80.2424 79.7799 80.5304C80.0572 80.8078 80.3772 81.0211 80.7399 81.1704C81.1132 81.3198 81.5132 81.3944 81.9399 81.3944ZM89.8231 83.7944V72.5944H94.9431C95.9671 72.5944 96.8471 72.7598 97.5831 73.0904C98.3298 73.4211 98.9058 73.9011 99.3111 74.5304C99.7165 75.1491 99.9191 75.8851 99.9191 76.7384C99.9191 77.5811 99.7165 78.3118 99.3111 78.9304C98.9058 79.5491 98.3298 80.0291 97.5831 80.3704C96.8471 80.7011 95.9671 80.8664 94.9431 80.8664H91.5831L92.9911 79.4904V83.7944H89.8231ZM92.9911 79.8264L91.5831 78.3704H94.7511C95.4125 78.3704 95.9031 78.2264 96.2231 77.9384C96.5538 77.6504 96.7191 77.2504 96.7191 76.7384C96.7191 76.2158 96.5538 75.8104 96.2231 75.5224C95.9031 75.2344 95.4125 75.0904 94.7511 75.0904H91.5831L92.9911 73.6344V79.8264Z" fill="#272A5F"/>
<path d="M48.5 48.5L36.5 35L46.5 23.5" stroke="#272A5F" stroke-width="5"/>
<path d="M75.5847 25.4444L84.1006 41.3734L71.6916 50.2203" stroke="#272A5F" stroke-width="5"/>
<line y1="-2.5" x2="41.4766" y2="-2.5" transform="matrix(-0.340373 0.94029 -0.944495 -0.328525 66.1176 16)" stroke="#272A5F" stroke-width="5"/>
<defs>
<filter id="filter0_dd_49_2842" x="0" y="0" width="117.839" height="121" filterUnits="userSpaceOnUse" color-interpolation-filters="sRGB">
<feFlood flood-opacity="0" result="BackgroundImageFix"/>
<feColorMatrix in="SourceAlpha" type="matrix" values="0 0 0 0 0 0 0 0 0 0 0 0 0 0 0 0 0 0 127 0" result="hardAlpha"/>
<feOffset dy="4"/>
<feGaussianBlur stdDeviation="2"/>
<feComposite in2="hardAlpha" operator="out"/>
<feColorMatrix type="matrix" values="0 0 0 0 0 0 0 0 0 0 0 0 0 0 0 0 0 0 0.25 0"/>
<feBlend mode="normal" in2="BackgroundImageFix" result="effect1_dropShadow_49_2842"/>
<feColorMatrix in="SourceAlpha" type="matrix" values="0 0 0 0 0 0 0 0 0 0 0 0 0 0 0 0 0 0 127 0" result="hardAlpha"/>
<feOffset dy="4"/>
<feGaussianBlur stdDeviation="2"/>
<feComposite in2="hardAlpha" operator="out"/>
<feColorMatrix type="matrix" values="0 0 0 0 0 0 0 0 0 0 0 0 0 0 0 0 0 0 0.25 0"/>
<feBlend mode="normal" in2="effect1_dropShadow_49_2842" result="effect2_dropShadow_49_2842"/>
<feBlend mode="normal" in="SourceGraphic" in2="effect2_dropShadow_49_2842" result="shape"/>
</filter>
</defs>
</svg>
