<svg width="21" height="21" viewBox="0 0 21 21" fill="none" xmlns="http://www.w3.org/2000/svg">
<path d="M15.3889 19.3C14.3516 19.3 13.3568 18.8879 12.6233 18.1545C11.8899 17.421 11.4778 16.4262 11.4778 15.3889V3.65557C11.4778 3.13692 11.6838 2.63952 12.0506 2.27278C12.4173 1.90604 12.9147 1.70001 13.4333 1.70001H17.3445C17.8631 1.70001 18.3605 1.90604 18.7272 2.27278C19.094 2.63952 19.3 3.13692 19.3 3.65557V15.3889C19.3 16.4262 18.8879 17.421 18.1545 18.1545C17.421 18.8879 16.4262 19.3 15.3889 19.3ZM15.3889 19.3H3.65557C3.13692 19.3 2.63952 19.094 2.27278 18.7272C1.90604 18.3605 1.70001 17.8631 1.70001 17.3445V13.4333C1.70001 12.9147 1.90604 12.4173 2.27278 12.0506C2.63952 11.6838 3.13692 11.4778 3.65557 11.4778H5.90446M11.4778 5.95335L9.52223 3.99779C9.15551 3.63118 8.6582 3.42523 8.13966 3.42523C7.62111 3.42523 7.1238 3.63118 6.75708 3.99779L3.99192 6.76295C3.62531 7.12967 3.41936 7.62698 3.41936 8.14552C3.41936 8.66407 3.62531 9.16138 3.99192 9.5281L12.7919 18.3281M15.3889 15.3889V15.3987" stroke="#747B83" stroke-width="2" stroke-linecap="round" stroke-linejoin="round"/>
</svg>
