<svg width="98" height="98" viewBox="0 0 98 98" fill="none" xmlns="http://www.w3.org/2000/svg">
<g filter="url(#filter0_d_523_24735)">
<rect x="14" y="14" width="70" height="70" rx="35" fill="white"/>
<path fill-rule="evenodd" clip-rule="evenodd" d="M56.5663 30.3184H53.7973C53.1343 30.749 52.6842 31.4799 52.64 32.3184H57.4546C57.547 32.3184 57.6366 32.3058 57.7215 32.2823C57.6665 31.4589 57.2199 30.7428 56.5663 30.3184ZM48.6378 32.3184C48.6521 31.6193 48.7759 30.9471 48.993 30.3184H41.5455C40.9932 30.3184 40.5455 30.7661 40.5455 31.3184C40.5455 31.8706 40.9932 32.3184 41.5455 32.3184H48.6378ZM49.6788 36.0002C50.1989 36.8057 50.8909 37.4896 51.703 38.0002H41.5455C40.9932 38.0002 40.5455 37.5525 40.5455 37.0002C40.5455 36.4479 40.9932 36.0002 41.5455 36.0002H49.6788ZM41.5455 41.682C40.9932 41.682 40.5455 42.1297 40.5455 42.682C40.5455 43.2343 40.9932 43.682 41.5455 43.682H57.4546C58.0068 43.682 58.4546 43.2343 58.4546 42.682C58.4546 42.1297 58.0068 41.682 57.4546 41.682H41.5455Z" fill="#251557"/>
<circle cx="55.1818" cy="32.4546" r="4.54545" fill="#251557"/>
<path d="M31.8282 57.586H26.8022V60.344H30.5682V61.73H26.8022V64.614H31.8282V66H25.1362V56.2H31.8282V57.586ZM33.0947 59H34.9147L36.4127 61.268L37.9247 59H39.7307L37.2807 62.5L39.7307 66H37.9247L36.4127 63.718L34.9147 66H33.0947L35.5447 62.5L33.0947 59ZM42.5779 64.964L42.7599 64.922V68.8H41.1779V59H42.6059L42.7179 59.868C42.9512 59.5973 43.2546 59.3687 43.6279 59.182C44.0012 58.9953 44.4539 58.902 44.9859 58.902C45.5926 58.902 46.1292 59.0513 46.5959 59.35C47.0719 59.6487 47.4406 60.0687 47.7019 60.61C47.9726 61.142 48.1079 61.772 48.1079 62.5C48.1079 63.2187 47.9726 63.8487 47.7019 64.39C47.4406 64.9313 47.0766 65.3513 46.6099 65.65C46.1432 65.9487 45.6019 66.098 44.9859 66.098C44.4259 66.098 43.9406 65.9907 43.5299 65.776C43.1192 65.552 42.8019 65.2813 42.5779 64.964ZM46.4139 62.5C46.4139 61.856 46.2412 61.3333 45.8959 60.932C45.5599 60.5307 45.1259 60.33 44.5939 60.33C44.2579 60.33 43.9499 60.414 43.6699 60.582C43.3992 60.75 43.1799 60.9927 43.0119 61.31C42.8439 61.6273 42.7599 62.024 42.7599 62.5C42.7599 62.9667 42.8439 63.3633 43.0119 63.69C43.1799 64.0073 43.3992 64.25 43.6699 64.418C43.9499 64.586 44.2579 64.67 44.5939 64.67C45.1259 64.67 45.5599 64.4693 45.8959 64.068C46.2412 63.6667 46.4139 63.144 46.4139 62.5ZM49.7261 55.92H51.3081V66H49.7261V55.92ZM56.4197 66.098C55.7477 66.098 55.1457 65.9533 54.6137 65.664C54.0817 65.3653 53.6664 64.95 53.3677 64.418C53.0691 63.8767 52.9197 63.242 52.9197 62.514C52.9197 61.7767 53.0737 61.1373 53.3817 60.596C53.6897 60.0547 54.1144 59.6393 54.6557 59.35C55.1971 59.0513 55.7991 58.902 56.4617 58.902C57.1337 58.902 57.7357 59.0513 58.2677 59.35C58.8091 59.6393 59.2384 60.0547 59.5557 60.596C59.8731 61.128 60.0317 61.758 60.0317 62.486C60.0317 63.2233 59.8684 63.8627 59.5417 64.404C59.2244 64.9453 58.7904 65.3653 58.2397 65.664C57.6984 65.9533 57.0917 66.098 56.4197 66.098ZM56.4057 64.684C56.7324 64.684 57.0404 64.6047 57.3297 64.446C57.6284 64.2873 57.8711 64.0493 58.0577 63.732C58.2444 63.4053 58.3377 62.99 58.3377 62.486C58.3377 62.0007 58.2491 61.5993 58.0717 61.282C57.8944 60.9553 57.6611 60.7127 57.3717 60.554C57.0824 60.3953 56.7697 60.316 56.4337 60.316C56.1071 60.316 55.8037 60.3953 55.5237 60.554C55.2531 60.7127 55.0337 60.9553 54.8657 61.282C54.6977 61.5993 54.6137 62.01 54.6137 62.514C54.6137 62.9993 54.6931 63.4053 54.8517 63.732C55.0197 64.0493 55.2391 64.2873 55.5097 64.446C55.7804 64.6047 56.0791 64.684 56.4057 64.684ZM61.6545 59H63.0825L63.2085 59.868C63.3952 59.6347 63.6145 59.4433 63.8665 59.294C64.1185 59.1353 64.3892 59.028 64.6785 58.972C64.9772 58.916 65.2759 58.9253 65.5745 59V60.456C65.3319 60.372 65.0705 60.3533 64.7905 60.4C64.5199 60.4373 64.2679 60.54 64.0345 60.708C63.8012 60.8667 63.6099 61.0953 63.4605 61.394C63.3112 61.6833 63.2365 62.0427 63.2365 62.472V66H61.6545V59ZM70.0985 66.098C69.3985 66.098 68.7825 65.944 68.2505 65.636C67.7278 65.328 67.3172 64.8987 67.0185 64.348C66.7292 63.7973 66.5845 63.1627 66.5845 62.444C66.5845 61.7627 66.7292 61.156 67.0185 60.624C67.3078 60.092 67.7092 59.672 68.2225 59.364C68.7358 59.056 69.3192 58.902 69.9725 58.902C70.6352 58.902 71.2185 59.0467 71.7225 59.336C72.2265 59.6253 72.6185 60.0313 72.8985 60.554C73.1878 61.0673 73.3325 61.6647 73.3325 62.346C73.3325 62.458 73.3278 62.5793 73.3185 62.71C73.3092 62.8313 73.2952 62.962 73.2765 63.102H68.2925C68.3392 63.4287 68.4418 63.7133 68.6005 63.956C68.7685 64.1893 68.9785 64.3713 69.2305 64.502C69.4825 64.6327 69.7718 64.698 70.0985 64.698C70.4905 64.698 70.8405 64.6187 71.1485 64.46C71.4658 64.3013 71.6852 64.0913 71.8065 63.83L73.1925 64.292C72.9125 64.852 72.4972 65.2953 71.9465 65.622C71.3958 65.9393 70.7798 66.098 70.0985 66.098ZM71.6105 61.814C71.6012 61.5247 71.5218 61.2633 71.3725 61.03C71.2232 60.7967 71.0272 60.6147 70.7845 60.484C70.5418 60.344 70.2712 60.274 69.9725 60.274C69.7112 60.274 69.4638 60.3393 69.2305 60.47C68.9972 60.6007 68.7965 60.7827 68.6285 61.016C68.4698 61.24 68.3672 61.506 68.3205 61.814H71.6105Z" fill="#251557"/>
</g>
<defs>
<filter id="filter0_d_523_24735" x="0" y="0" width="98" height="98" filterUnits="userSpaceOnUse" color-interpolation-filters="sRGB">
<feFlood flood-opacity="0" result="BackgroundImageFix"/>
<feColorMatrix in="SourceAlpha" type="matrix" values="0 0 0 0 0 0 0 0 0 0 0 0 0 0 0 0 0 0 127 0" result="hardAlpha"/>
<feMorphology radius="4" operator="dilate" in="SourceAlpha" result="effect1_dropShadow_523_24735"/>
<feOffset/>
<feGaussianBlur stdDeviation="5"/>
<feComposite in2="hardAlpha" operator="out"/>
<feColorMatrix type="matrix" values="0 0 0 0 0.586667 0 0 0 0 0.586667 0 0 0 0 0.586667 0 0 0 0.25 0"/>
<feBlend mode="normal" in2="BackgroundImageFix" result="effect1_dropShadow_523_24735"/>
<feBlend mode="normal" in="SourceGraphic" in2="effect1_dropShadow_523_24735" result="shape"/>
</filter>
</defs>
</svg>
