<svg width="11" height="10" viewBox="0 0 11 10" fill="none" xmlns="http://www.w3.org/2000/svg">
<path d="M2.90364 7.58437C2.76638 7.50285 2.64833 7.39893 2.51016 7.2518C2.43844 7.1736 2.36737 7.09494 2.29694 7.01582C2.0851 6.78147 1.9515 6.67306 1.81378 6.62864C1.75583 6.61155 1.70231 6.58432 1.65636 6.54853C1.61041 6.51274 1.57297 6.46912 1.54623 6.42024C1.51949 6.37136 1.50401 6.31822 1.50068 6.26393C1.49735 6.20964 1.50626 6.1553 1.52686 6.10412C1.54747 6.05294 1.57936 6.00596 1.62067 5.96592C1.66197 5.92589 1.71185 5.89363 1.76737 5.87103C1.82288 5.84843 1.88291 5.83595 1.94392 5.83434C2.00494 5.83272 2.06569 5.84199 2.12262 5.86161C2.46669 5.97165 2.69958 6.16116 3.01345 6.50881C2.97044 6.46113 3.16902 6.68284 3.21157 6.72849C3.2985 6.82101 3.36256 6.87725 3.41288 6.907C3.50622 6.96284 3.68192 6.98688 3.93906 6.96406C3.95004 6.80837 3.98206 6.65717 4.03148 6.51778C2.6735 6.22189 1.90483 5.44182 1.90483 3.91102C1.90483 3.40565 2.07412 2.95081 2.38891 2.56933C2.28917 2.20497 2.30426 1.7644 2.52709 1.2684C2.55237 1.21229 2.59136 1.1619 2.64121 1.12087C2.69107 1.07984 2.75055 1.04921 2.81534 1.0312C2.8524 1.02141 2.87344 1.01693 2.91051 1.01204C3.27791 0.961503 3.79676 1.08133 4.47301 1.45873C4.87598 1.37469 5.28854 1.33257 5.70242 1.3332C6.11969 1.3332 6.53468 1.37558 6.93045 1.45873C7.60624 1.07847 8.12646 0.95865 8.49616 1.01204C8.5352 1.01747 8.56845 1.02427 8.5959 1.03242C8.65942 1.05108 8.71758 1.08191 8.76627 1.12275C8.81497 1.16359 8.85302 1.21345 8.87774 1.2688C9.10057 1.7644 9.11567 2.20456 9.01592 2.56892C9.33208 2.9504 9.5 3.40239 9.5 3.91102C9.5 5.44223 8.73408 6.21985 7.3761 6.51615C7.43329 6.68529 7.46303 6.87399 7.46303 7.07858C7.46303 7.34961 7.46212 7.60801 7.45983 7.89778C7.45983 7.97522 7.45891 8.05836 7.45754 8.18552C7.5603 8.20544 7.65222 8.25629 7.71783 8.3295C7.78344 8.40272 7.81873 8.49383 7.81776 8.58751C7.8168 8.68118 7.77963 8.7717 7.71252 8.84383C7.64541 8.91596 7.55246 8.96529 7.4493 8.98352C6.92771 9.07604 6.54154 8.7667 6.54154 8.36199L6.54246 8.17981L6.54475 7.89248C6.54704 7.60434 6.54841 7.34758 6.54841 7.07858C6.54841 6.79451 6.46422 6.60907 6.3535 6.52389C6.05106 6.29158 6.20434 5.84979 6.60103 5.81026C7.95809 5.67454 8.58492 5.20625 8.58492 3.91102C8.58492 3.5218 8.44217 3.20023 8.16719 2.93124C8.10932 2.87457 8.07055 2.80451 8.05534 2.72911C8.04012 2.65371 8.04908 2.57601 8.08117 2.50494C8.15712 2.33621 8.18915 2.1149 8.12463 1.84713L8.12006 1.84836C7.89541 1.90501 7.61219 2.02768 7.26995 2.23513C7.21476 2.26849 7.15205 2.2907 7.08622 2.30021C7.02038 2.30971 6.95301 2.30628 6.88882 2.29015C6.50264 2.19477 6.10362 2.14691 5.70287 2.14791C5.29566 2.14791 4.89211 2.196 4.51693 2.29056C4.45304 2.3065 4.38603 2.30987 4.32053 2.30044C4.25504 2.29101 4.19263 2.269 4.13763 2.23595C3.7931 2.02931 3.50897 1.90704 3.28203 1.84999C3.2166 2.11612 3.24908 2.33661 3.32458 2.50494C3.35652 2.576 3.36535 2.65363 3.35005 2.72896C3.33476 2.80428 3.29596 2.87424 3.2381 2.93084C2.96495 3.19779 2.82037 3.52506 2.82037 3.91061C2.82037 5.2034 3.44766 5.67454 4.79786 5.80985C5.19363 5.84938 5.34782 6.28955 5.04722 6.52226C4.95891 6.59073 4.85048 6.8206 4.85048 7.07818V8.36199C4.85048 8.76344 4.46889 9.06504 3.9537 8.98475C3.84927 8.96841 3.75445 8.92028 3.68545 8.84858C3.61644 8.77688 3.57754 8.68606 3.57538 8.59163C3.57322 8.49721 3.60793 8.40505 3.6736 8.3309C3.73927 8.25675 3.8318 8.20522 3.9354 8.18511V7.78163C3.51903 7.80649 3.17542 7.74576 2.9041 7.58396" fill="#828282"/>
</svg>
