<svg width="21" height="22" viewBox="0 0 21 22" fill="none" xmlns="http://www.w3.org/2000/svg">
<rect x="0.75" y="1.25" width="19.5" height="19.5" rx="4.25" stroke="#464646" stroke-width="1.5"/>
<path d="M7.75455 14.7305C7.58298 14.6286 7.43542 14.4987 7.2627 14.3147C7.17305 14.217 7.08421 14.1187 6.99618 14.0198C6.73138 13.7268 6.56438 13.5913 6.39223 13.5358C6.31979 13.5144 6.25289 13.4804 6.19545 13.4357C6.13801 13.3909 6.09121 13.3364 6.05779 13.2753C6.02437 13.2142 6.00501 13.1478 6.00085 13.0799C5.99669 13.012 6.00782 12.9441 6.03358 12.8802C6.05934 12.8162 6.09921 12.7574 6.15084 12.7074C6.20247 12.6574 6.26481 12.617 6.33421 12.5888C6.4036 12.5605 6.47864 12.5449 6.55491 12.5429C6.63117 12.5409 6.70712 12.5525 6.77828 12.577C7.20836 12.7146 7.49947 12.9515 7.89181 13.386C7.83805 13.3264 8.08627 13.6036 8.13946 13.6606C8.24812 13.7763 8.32819 13.8466 8.39111 13.8838C8.50778 13.9535 8.7274 13.9836 9.04882 13.9551C9.06255 13.7605 9.10258 13.5715 9.16435 13.3972C7.46687 13.0274 6.50604 12.0523 6.50604 10.1388C6.50604 9.50706 6.71765 8.93851 7.11114 8.46166C6.98646 8.00621 7.00533 7.4555 7.28386 6.8355C7.31547 6.76536 7.3642 6.70237 7.42652 6.65109C7.48884 6.59981 7.56318 6.56152 7.64417 6.53899C7.6905 6.52677 7.71681 6.52116 7.76313 6.51505C8.22239 6.45188 8.87095 6.60166 9.71626 7.07341C10.22 6.96836 10.7357 6.91571 11.253 6.9165C11.7746 6.9165 12.2934 6.96948 12.7881 7.07341C13.6328 6.59809 14.2831 6.44831 14.7452 6.51505C14.794 6.52184 14.8356 6.53033 14.8699 6.54052C14.9493 6.56384 15.022 6.60239 15.0828 6.65344C15.1437 6.70449 15.1913 6.76681 15.2222 6.83601C15.5007 7.4555 15.5196 8.0057 15.3949 8.46115C15.7901 8.938 16 9.50298 16 10.1388C16 12.0528 15.0426 13.0248 13.3451 13.3952C13.4166 13.6066 13.4538 13.8425 13.4538 14.0982C13.4538 14.437 13.4526 14.76 13.4498 15.1222C13.4498 15.219 13.4486 15.323 13.4469 15.4819C13.5754 15.5068 13.6903 15.5704 13.7723 15.6619C13.8543 15.7534 13.8984 15.8673 13.8972 15.9844C13.896 16.1015 13.8495 16.2146 13.7657 16.3048C13.6818 16.3949 13.5656 16.4566 13.4366 16.4794C12.7846 16.595 12.3019 16.2084 12.3019 15.7025L12.3031 15.4748L12.3059 15.1156C12.3088 14.7554 12.3105 14.4345 12.3105 14.0982C12.3105 13.7431 12.2053 13.5113 12.0669 13.4049C11.6888 13.1145 11.8804 12.5622 12.3763 12.5128C14.0726 12.3432 14.8562 11.7578 14.8562 10.1388C14.8562 9.65225 14.6777 9.25029 14.334 8.91406C14.2616 8.84321 14.2132 8.75564 14.1942 8.66139C14.1752 8.56714 14.1863 8.47002 14.2265 8.38117C14.3214 8.17026 14.3614 7.89363 14.2808 7.55892L14.2751 7.56044C13.9943 7.63126 13.6402 7.7846 13.2124 8.04391C13.1435 8.08561 13.0651 8.11338 12.9828 8.12526C12.9005 8.13714 12.8163 8.13285 12.736 8.11269C12.2533 7.99346 11.7545 7.93364 11.2536 7.93489C10.7446 7.93489 10.2401 7.99501 9.77116 8.1132C9.6913 8.13312 9.60753 8.13733 9.52566 8.12555C9.44379 8.11376 9.36578 8.08625 9.29704 8.04493C8.86638 7.78664 8.51121 7.63381 8.22754 7.56248C8.14575 7.89515 8.18636 8.17077 8.28072 8.38117C8.32065 8.47 8.33168 8.56704 8.31257 8.6612C8.29345 8.75535 8.24495 8.8428 8.17263 8.91355C7.83119 9.24724 7.65046 9.65633 7.65046 10.1383C7.65046 11.7542 8.43457 12.3432 10.1223 12.5123C10.617 12.5617 10.8098 13.1119 10.434 13.4028C10.3236 13.4884 10.1881 13.7757 10.1881 14.0977V15.7025C10.1881 16.2043 9.71111 16.5813 9.06712 16.4809C8.93659 16.4605 8.81807 16.4004 8.73181 16.3107C8.64556 16.2211 8.59692 16.1076 8.59422 15.9895C8.59152 15.8715 8.63492 15.7563 8.717 15.6636C8.79908 15.5709 8.91475 15.5065 9.04424 15.4814V14.977C8.52379 15.0081 8.09428 14.9322 7.75512 14.7299" fill="#464646"/>
</svg>
