<svg width="25" height="24" viewBox="0 0 25 24" fill="none" xmlns="http://www.w3.org/2000/svg">
<path d="M11.9234 1.74551L4.39857 7.87822C4.09319 8.12711 3.9118 8.53002 3.9118 8.9595V20.4372C3.9118 21.5363 4.68926 22.4273 5.6483 22.4273H19.5403C20.4993 22.4273 21.2767 21.5363 21.2767 20.4372V8.95949C21.2767 8.53002 21.0954 8.12711 20.79 7.87822L13.2652 1.74552C12.8635 1.41816 12.325 1.41816 11.9234 1.74551ZM11.9234 1.74551L1.50001 10.2197M9.21776 22.5V14.9429L12.5943 12.0363L15.9708 14.9429V21.3374" stroke="#747B83" stroke-width="2" stroke-linecap="round" stroke-linejoin="round"/>
<path d="M24.1308 9.44373C24.5594 9.79212 24.6243 10.4219 24.2759 10.8505C23.9275 11.279 23.2977 11.344 22.8692 10.9956L24.1308 9.44373ZM13.7074 0.969587L24.1308 9.44373L22.8692 10.9956L12.4458 2.52144L13.7074 0.969587Z" fill="#747B83"/>
</svg>
