<svg width="167" height="122" viewBox="0 0 167 122" fill="none" xmlns="http://www.w3.org/2000/svg">
<g filter="url(#filter0_d_707_5516)">
<path d="M30.6235 106.369C30.6235 106.369 9.17235 101.885 8.05232 82.4959C6.73801 59.7665 30.6235 55.4247 30.6235 55.4247C30.6235 55.4247 27.0394 26.1863 71.9439 26.1863C129.506 26.1863 127.595 61.3668 127.595 61.3668C127.595 61.3668 142.403 60.2254 151.958 73.9316C165.523 93.3942 147.42 108.426 147.42 108.426" fill="url(#paint0_linear_707_5516)"/>
</g>
<path d="M42.6922 63.022C42.6922 63.2268 42.5137 63.3936 42.2937 63.3936C42.0737 63.3936 41.8952 63.2268 41.8952 63.022C41.8952 62.8172 42.0737 62.6504 42.2937 62.6504C42.5137 62.6504 42.6922 62.8172 42.6922 63.022ZM74.9055 88.019C74.9055 88.129 74.8203 88.2181 74.7133 88.2181C74.6082 88.2181 74.521 88.129 74.521 88.019C74.521 87.909 74.6062 87.8199 74.7133 87.8199C74.8203 87.818 74.9055 87.9071 74.9055 88.019ZM49.5412 68.2417C49.5412 68.4465 49.3628 68.6133 49.1428 68.6133C48.9227 68.6133 48.7443 68.4465 48.7443 68.2417C48.7443 68.0369 48.9227 67.8701 49.1428 67.8701C49.3628 67.8701 49.5412 68.0369 49.5412 68.2417ZM20.1705 83.3453C20.1705 83.5501 19.9921 83.7169 19.7721 83.7169C19.552 83.7169 19.3736 83.5501 19.3736 83.3453C19.3736 83.1406 19.552 82.9737 19.7721 82.9737C19.9921 82.9756 20.1705 83.1406 20.1705 83.3453ZM29.6482 80.4558C29.6482 80.6606 29.4698 80.8274 29.2498 80.8274C29.0297 80.8274 28.8513 80.6606 28.8513 80.4558C28.8513 80.251 29.0297 80.0842 29.2498 80.0842C29.4698 80.0842 29.6482 80.251 29.6482 80.4558ZM14.0728 77.0752C14.0728 77.28 13.8944 77.4468 13.6743 77.4468C13.4543 77.4468 13.2759 77.28 13.2759 77.0752C13.2759 76.8705 13.4543 76.7036 13.6743 76.7036C13.8944 76.7036 14.0728 76.8686 14.0728 77.0752ZM45.3406 77.8128C45.3406 78.0175 45.1622 78.1844 44.9421 78.1844C44.7221 78.1844 44.5437 78.0175 44.5437 77.8128C44.5437 77.608 44.7221 77.4411 44.9421 77.4411C45.1622 77.443 45.3406 77.608 45.3406 77.8128Z" fill="white"/>
<path opacity="0.8" d="M29.9057 76.3282C34.4569 76.3282 38.1464 72.7994 38.1464 68.4465C38.1464 64.0935 34.4569 60.5648 29.9057 60.5648C25.3545 60.5648 21.665 64.0935 21.665 68.4465C21.665 72.7994 25.3545 76.3282 29.9057 76.3282Z" fill="url(#paint1_linear_707_5516)"/>
<path opacity="0.1" d="M15.4069 83.023H32.6752C33.6149 82.5585 34.2552 81.6199 34.2552 80.5354C34.2552 79.1324 33.1788 77.9701 31.7752 77.771C31.7772 77.7255 31.7792 77.68 31.7792 77.6345C31.7792 75.9926 30.3598 74.6616 28.6094 74.6616C28.427 74.6616 28.2466 74.6767 28.0722 74.7052C27.3169 73.4519 25.844 72.6025 24.1511 72.6025C22.1786 72.6025 20.5055 73.7572 19.9187 75.3574C19.7344 75.3214 19.5421 75.3024 19.3478 75.3024C17.6648 75.3024 16.3029 76.6865 16.3029 78.3929C16.3029 78.5844 16.3208 78.7721 16.3525 78.9541C15.0798 79.0319 14.0728 79.9647 14.0728 81.1042C14.0728 81.9404 14.6139 82.6665 15.4069 83.023Z" fill="white"/>
<path d="M85.2237 114C121.117 114 150.213 111.808 150.213 109.104C150.213 106.401 121.117 104.209 85.2237 104.209C49.3308 104.209 20.2339 106.401 20.2339 109.104C20.2339 111.808 49.3308 114 85.2237 114Z" fill="url(#paint2_linear_707_5516)"/>
<g filter="url(#filter1_d_707_5516)">
<path d="M110.879 96.261H96.3083V94.547H110.879C113.277 94.547 115.2 93.8322 116.594 92.4215C119.587 89.3879 119.304 84.0867 119.3 84.0336L119.298 84.007L119.363 50.8837L121.153 50.8363L121.088 83.9483C121.112 84.3559 121.371 90.0686 117.902 93.5933C116.158 95.3622 113.795 96.261 110.879 96.261ZM59.7079 96.261H74.2783V94.547H59.7079C57.3093 94.547 55.3864 93.8322 53.9928 92.4215C50.9994 89.3879 51.2829 84.0867 51.2869 84.0336L51.2888 84.007L51.2234 50.8837L49.4333 50.8363L49.4988 83.9483C49.475 84.3559 49.2153 90.0686 52.6844 93.5933C54.4289 95.3622 56.7919 96.261 59.7079 96.261ZM70.3572 48.0701H71.9688V74.9005H70.3572V48.0701ZM86.4183 48.0701H88.0299V77.8128H86.4183V48.0701ZM102.481 48.0701H104.093V77.8128H102.481V48.0701Z" fill="white"/>
<path d="M44.1722 53.2556H127.449C131.977 51.0202 135.073 46.4888 135.073 41.2634C135.073 34.4965 129.882 28.8938 123.114 27.9325C123.124 27.7126 123.13 27.4927 123.13 27.2727C123.13 19.355 116.287 12.9389 107.844 12.9389C106.962 12.9389 106.097 13.009 105.255 13.1437C101.617 7.10297 94.5143 3 86.347 3C76.8316 3 68.7614 8.56858 65.9326 16.2834C65.0405 16.1109 64.1207 16.0199 63.1791 16.0199C55.0673 16.0199 48.4898 22.6939 48.4898 30.9263C48.4898 31.8516 48.5731 32.7579 48.7336 33.6357C42.5923 34.0111 37.7434 38.5085 37.7434 44.0031C37.7434 48.0359 40.3542 51.5322 44.1722 53.2556Z" fill="url(#paint3_linear_707_5516)"/>
</g>
<path d="M93.0342 12.7662L84.2643 25.2837L75.4011 19.6032L84.1731 7.08575L93.0342 12.7662Z" fill="url(#paint4_linear_707_5516)"/>
<path d="M84.076 23.9223L81.2253 18.3461L84.6905 16.5089C84.6905 16.5089 84.8055 8.73148 84.9185 8.80543C85.0335 8.87937 91.6466 13.1169 91.6466 13.1169L84.076 23.9223Z" fill="white"/>
<path d="M82.0264 15.5211C81.4733 15.1666 81.3266 14.4499 81.6953 13.9209C82.066 13.3919 82.8153 13.2516 83.3684 13.6043C83.6341 13.7745 83.8183 14.0387 83.8804 14.3388C83.9424 14.6389 83.8774 14.9503 83.6995 15.2045C83.5215 15.4586 83.2452 15.6347 82.9315 15.6941C82.6177 15.7535 82.2922 15.6913 82.0264 15.5211Z" fill="white"/>
<path d="M121.589 36.148L116.159 40.3666L115.588 37.5567L119.924 34.1894L121.589 36.148Z" fill="url(#paint5_linear_707_5516)"/>
<path d="M125.619 40.8937L117.049 47.5505L112.169 41.8037L120.738 35.1469L125.619 40.8937Z" fill="url(#paint6_linear_707_5516)"/>
<path d="M95.9304 38.9831H108.437V47.0848H95.9304V38.9831Z" fill="#A600A9"/>
<path d="M96.7849 46.3643L99.3699 42.1021L102.169 43.4767C102.169 43.4767 107.583 40.1112 107.583 40.2155V46.3662H96.7849V46.3643Z" fill="url(#paint7_linear_707_5516)"/>
<path d="M102.945 42.2201C103.444 42.0527 103.707 41.5301 103.532 41.0528C103.357 40.5756 102.81 40.3244 102.311 40.4918C101.812 40.6592 101.55 41.1818 101.725 41.6591C101.9 42.1364 102.446 42.3875 102.945 42.2201Z" fill="white"/>
<path d="M92.0867 35.9222L85.085 35.6454L86.6035 33.1749L92.1957 33.3967L92.0867 35.9222Z" fill="url(#paint8_linear_707_5516)"/>
<path d="M91.8212 42.0426L80.7715 41.6065L81.0906 34.195L92.1423 34.6311L91.8212 42.0426Z" fill="url(#paint9_linear_707_5516)"/>
<path d="M63.9475 23.4718H75.4542V30.5734H63.9475V23.4718Z" fill="url(#paint10_linear_707_5516)" stroke="white"/>
<path d="M69.6861 27.4653L69.9501 27.8899L69.9503 27.8898L69.951 27.8893L69.9539 27.8875L69.9655 27.8803L70.0107 27.8523L70.1823 27.7458C70.3301 27.6541 70.5414 27.5231 70.795 27.3663C71.3022 27.0527 71.9782 26.6357 72.654 26.2221C73.3303 25.8082 74.0046 25.3988 74.509 25.0998C74.54 25.0814 74.5703 25.0635 74.5999 25.046V29.8548H65.1889L67.0773 26.7412L69.4657 27.9141L69.7146 28.0363L69.9501 27.8899L69.6861 27.4653Z" fill="url(#paint11_linear_707_5516)" stroke="white"/>
<path d="M70.6034 25.3475C70.6034 25.5563 70.4198 25.7632 70.146 25.7632C69.8721 25.7632 69.6885 25.5563 69.6885 25.3475C69.6885 25.1386 69.8721 24.9317 70.146 24.9317C70.4198 24.9317 70.6034 25.1386 70.6034 25.3475Z" fill="url(#paint12_linear_707_5516)" stroke="white"/>
<path d="M66.6189 43.8287L71.9544 37.537L81.6672 45.0717L76.3315 51.3634L66.6189 43.8287Z" fill="#4B00A9"/>
<path d="M80.5328 45.1186L75.7177 46.8724L74.449 44.1194C74.449 44.1194 68.0281 43.4709 68.0975 43.3894L72.1474 38.6134L80.5328 45.1186Z" fill="url(#paint13_linear_707_5516)"/>
<path d="M73.4397 46.0609C73.3613 46.1563 73.2638 46.2359 73.1529 46.295C73.0421 46.3541 72.92 46.3915 72.7939 46.4051C72.6678 46.4186 72.5401 46.408 72.4183 46.374C72.2965 46.3399 72.1829 46.2829 72.0844 46.2065C71.9858 46.13 71.9041 46.0356 71.844 45.9287C71.7839 45.8217 71.7467 45.7044 71.7344 45.5836C71.7222 45.4628 71.7352 45.3408 71.7727 45.2249C71.8102 45.1089 71.8715 45.0012 71.9529 44.9081C72.1141 44.7237 72.3447 44.6074 72.5948 44.5843C72.845 44.5611 73.0946 44.633 73.2898 44.7843C73.485 44.9357 73.6101 45.1544 73.6382 45.3932C73.6662 45.6321 73.5949 45.8719 73.4397 46.0609Z" fill="white"/>
<path d="M55.5146 45.9352L49.5437 40.1998L53.0089 39.2006L57.7765 43.7794L55.5146 45.9352Z" fill="url(#paint14_linear_707_5516)"/>
<path d="M50.0352 51.153L40.6111 42.1034L47.2461 35.784L56.6702 44.8336L50.0352 51.153Z" fill="url(#paint15_linear_707_5516)"/>
<path d="M91.1827 82.7332L79.9546 90.2149L74.6558 82.9418L85.8858 75.4601L91.1827 82.7332Z" fill="url(#paint16_linear_707_5516)"/>
<path d="M80.2498 89.0564L79.782 83.6831L83.1936 83.2414C83.1936 83.2414 85.852 76.9807 85.9214 77.0755C85.9907 77.1703 89.9436 82.5967 89.9436 82.5967L80.2498 89.0564Z" fill="url(#paint17_linear_707_5516)"/>
<path d="M81.3643 81.6392C81.2857 81.5314 81.23 81.4098 81.2005 81.2815C81.1709 81.1531 81.1681 81.0204 81.1923 80.8909C81.2164 80.7615 81.2669 80.6379 81.341 80.5272C81.4151 80.4165 81.5113 80.3208 81.624 80.2456C81.7367 80.1704 81.8638 80.1171 81.9981 80.0889C82.1323 80.0606 82.2711 80.058 82.4064 80.081C82.5417 80.1041 82.6709 80.1525 82.7867 80.2233C82.9025 80.2942 83.0025 80.3862 83.0811 80.494C83.1597 80.6018 83.2154 80.7234 83.245 80.8518C83.2745 80.9802 83.2773 81.1128 83.2532 81.2423C83.229 81.3717 83.1785 81.4953 83.1044 81.606C83.0303 81.7167 82.9341 81.8124 82.8214 81.8876C82.5937 82.0394 82.3123 82.0985 82.0391 82.0519C81.7659 82.0054 81.5232 81.8569 81.3643 81.6392Z" fill="url(#paint18_linear_707_5516)"/>
<path d="M95.2744 24.2056L100.558 15.3399L114.245 22.8015L108.961 31.6672L95.2744 24.2056Z" fill="#4B00A9"/>
<path d="M96.6797 23.9294L102.288 20.8067L104.455 23.9787C104.455 23.9787 112.574 23.5255 112.505 23.6393C112.435 23.7531 108.495 30.3682 108.495 30.3682L96.6797 23.9294Z" fill="url(#paint19_linear_707_5516)"/>
<path d="M105.293 21.3679C105.622 20.8142 106.359 20.6227 106.938 20.9375C107.517 21.2522 107.717 21.9575 107.388 22.5093C107.059 23.0629 106.322 23.2563 105.745 22.9397C105.607 22.8652 105.486 22.7654 105.388 22.6459C105.291 22.5265 105.219 22.3898 105.177 22.2437C105.135 22.0976 105.124 21.945 105.144 21.7947C105.163 21.6444 105.214 21.4993 105.293 21.3679Z" fill="url(#paint20_linear_707_5516)"/>
<path d="M61.2014 105.898C61.2014 105.898 59.2963 108.371 52.8279 108.221C48.1138 108.113 43.4414 104.7 43.4414 104.7C43.4414 104.7 51.4402 99.6283 61.2014 105.898Z" fill="#00759F"/>
<path d="M61.1003 106.156C61.1003 106.156 57.199 106.558 51.9933 100.868C48.199 96.7198 47.5488 89.8771 47.5488 89.8771C47.5488 89.8771 58.9335 92.5732 61.1003 106.156Z" fill="#005CB4"/>
<path d="M60.9238 106.056C60.9238 106.056 57.3675 104.469 55.9937 97.0231C54.9906 91.5968 58.1386 85.4177 58.1386 85.4177C58.1386 85.4177 66.4189 93.3601 60.9238 106.056Z" fill="#741AAC"/>
<path d="M110.939 103.896C110.939 103.896 112.844 106.369 119.312 106.219C124.027 106.111 128.699 102.698 128.699 102.698C128.699 102.698 120.7 97.628 110.939 103.896Z" fill="#00759F"/>
<path d="M111.04 104.156C111.04 104.156 114.941 104.558 120.147 98.8679C123.941 94.7195 124.591 87.8768 124.591 87.8768C124.591 87.8768 113.207 90.5729 111.04 104.156Z" fill="#005CB4"/>
<path d="M111.216 104.055C111.216 104.055 114.773 102.468 116.146 95.0228C117.15 89.5964 114.002 83.4173 114.002 83.4173C114.002 83.4173 105.721 91.3597 111.216 104.055Z" fill="#741AAC"/>
<path d="M113.185 105.841C113.185 106.96 112.237 107.866 111.068 107.866H61.3005C60.1309 107.866 59.1833 106.96 59.1833 105.841V75.7404C59.1833 74.6218 60.1309 73.7155 61.3005 73.7155H111.068C112.237 73.7155 113.185 74.6218 113.185 75.7404V105.841Z" fill="black"/>
<path d="M61.9468 76.3604H110.243V105.392H61.9468V76.3604Z" fill="url(#paint21_linear_707_5516)"/>
<path d="M53.1233 107.923H119.186V109.105H53.1233V107.923Z" fill="url(#paint22_linear_707_5516)"/>
<path d="M53.1233 109.105C53.1233 109.105 54.1224 110.623 57.1832 110.623H115.304C115.304 110.623 117.245 110.961 119.188 109.105H53.1233Z" fill="black"/>
<path fill-rule="evenodd" clip-rule="evenodd" d="M61.9468 77.7881H110.326V81.3393H61.9468V77.7881Z" fill="url(#paint23_linear_707_5516)"/>
<path d="M103.779 79.595C103.779 80.0709 103.376 80.4558 102.879 80.4558H70.7386C70.241 80.4558 69.8386 80.0709 69.8386 79.595C69.8386 79.1191 70.241 78.7342 70.7386 78.7342H102.881C103.376 78.7342 103.779 79.121 103.779 79.595Z" fill="white"/>
<path fill-rule="evenodd" clip-rule="evenodd" d="M61.9468 76.3604H110.239V77.79H61.9468V76.3604Z" fill="url(#paint24_linear_707_5516)"/>
<path d="M41.4134 109.804C47.4765 109.804 52.3917 109.113 52.3917 108.261C52.3917 107.408 47.4765 106.717 41.4134 106.717C35.3502 106.717 30.4351 107.408 30.4351 108.261C30.4351 109.113 35.3502 109.804 41.4134 109.804Z" fill="url(#paint25_linear_707_5516)"/>
<path d="M44.7992 73.6415L43.3363 79.7884C43.2966 79.9553 43.4156 80.1202 43.592 80.1449L48.1475 80.7705C48.306 80.7914 48.4547 80.6947 48.4904 80.5449L49.9534 74.3981C49.993 74.2312 49.8761 74.0662 49.6977 74.0416L45.1422 73.4159C44.9856 73.3932 44.8349 73.4918 44.7992 73.6415Z" fill="black"/>
<path d="M45.0849 73.8406L43.6833 79.7258L48.2051 80.3477L49.6067 74.4606L45.0849 73.8406Z" fill="url(#paint26_linear_707_5516)"/>
<path d="M49.129 74.8948L45.2852 74.3658M48.9981 75.4503L45.1563 74.9232M47.3984 75.913L44.9977 75.5831M47.2279 76.3908L44.8253 76.0608M47.0574 76.8685L44.6548 76.5386M47.9376 79.5116L45.5369 79.1817" stroke="#A1D2F0" stroke-width="1.481" stroke-linecap="round" stroke-linejoin="round"/>
<path d="M43.0469 79.8624C43.3046 79.7467 43.4969 79.5306 43.6793 79.322C43.8597 79.1153 44.0421 78.9106 44.2225 78.7039C44.2938 78.6224 44.3692 78.5333 44.3771 78.4271C44.0738 78.4043 43.8775 78.7797 43.5742 78.8025C43.715 78.3247 43.9192 77.864 44.1769 77.4336C44.2403 77.3293 44.3077 77.206 44.2641 77.0923C43.937 77.2117 43.6595 77.4355 43.4216 77.68C43.2531 77.8526 43.1005 78.0384 42.9657 78.2356C42.5652 78.8158 42.3174 79.4813 42.1489 80.1562" fill="url(#paint27_linear_707_5516)"/>
<path d="M41.7503 88.5366L40.3369 91.6404C40.9336 92.6035 41.2785 93.7411 41.3241 94.8939C41.3479 95.4931 41.2924 96.0922 41.3103 96.6913C41.3122 96.7331 41.3182 96.7786 41.3301 96.8222C41.5204 95.9348 41.6611 95.203 41.7166 94.7252C41.8713 93.3904 41.8713 91.2706 41.8237 88.5328C41.7979 88.5347 41.7741 88.5328 41.7503 88.5366Z" fill="#F2A181"/>
<path d="M41.7408 84.8147L38.4878 82.1906C38.4878 82.1906 36.9732 84.1549 37.5442 86.049C37.8257 86.98 38.1765 87.4426 38.3292 87.8844C38.4719 88.2977 39.4512 94.1412 39.3778 94.5697C39.3045 94.9963 38.7792 96.1927 38.579 97.4497C38.3589 98.8319 38.3728 103.068 38.234 104.782H38.232C38.232 104.782 38.121 106.06 37.9624 106.338C37.8039 106.617 37.5838 106.928 37.5442 107.307C37.5224 107.525 37.6492 107.758 37.9129 107.887C38.1765 108.016 38.353 107.882 38.4461 107.893C38.9972 107.957 39.0944 108.357 40.04 108.505C40.3314 108.551 40.7774 108.458 41.0331 108.265C41.1322 108.189 41.1283 108.067 41.0728 107.984C41.0173 107.901 40.3195 107.671 40.0043 107.48C39.7049 107.296 39.4115 106.788 39.3303 106.613C39.3085 106.568 39.3144 106.443 39.3323 106.281C39.3759 106.008 39.4234 105.724 39.475 105.43C39.5166 105.221 39.5503 105.068 39.5503 105.068L39.5404 105.066C40.2283 101.344 41.5109 96.424 41.7091 94.729C41.9331 92.8367 41.8439 89.3784 41.7408 84.8147Z" fill="url(#paint28_linear_707_5516)"/>
<path d="M41.1103 108.327C41.1797 108.215 41.1975 108.045 41.1321 108.003C41.0429 107.944 40.7277 107.745 40.5433 107.664C40.359 107.584 40.0696 107.512 40.1726 107.565C40.2757 107.618 40.0874 107.815 39.9149 107.806C39.3222 107.772 38.8861 107.394 38.5471 107.313C38.0594 107.197 37.8553 106.645 37.8335 106.556C37.7403 106.611 37.5262 107.055 37.4846 107.195C37.4449 107.32 37.3755 107.552 37.4132 107.682C37.439 107.773 37.4965 107.956 37.4667 108.147C37.4667 108.147 37.5619 108.217 37.8176 108.268C37.9782 108.301 38.1942 108.274 38.1942 108.274L38.2359 107.982C38.2359 107.982 38.3687 107.978 38.5372 108.011C38.7057 108.045 38.9812 108.198 38.9971 108.215C39.0645 108.293 39.118 108.433 39.2092 108.477C39.4451 108.591 39.685 108.646 39.9863 108.663C40.6226 108.697 40.9933 108.521 41.1103 108.327Z" fill="black"/>
<path d="M46.183 108.27C46.1136 108.196 45.3603 108.079 45.0054 107.938C44.6684 107.804 44.2601 107.372 44.1808 107.188C44.1015 107.004 44.1193 106.075 44.1292 105.684C44.2006 102.994 44.72 96.4221 44.7953 94.8465C44.9261 92.1106 44.5554 89.2874 43.4532 84.8943L39.3557 81.8854C39.3557 81.8854 38.2079 83.9255 38.5925 85.8765C38.8165 87.0084 39.7978 87.1828 39.9643 87.6227C40.1308 88.0626 42.6088 95.1556 42.6088 95.1556C42.6088 95.1556 42.127 96.6894 42.0973 98.3693C42.0735 99.8027 42.7535 104.129 42.8803 105.777C42.8942 106.099 42.9537 106.871 42.8546 107.116C42.7336 107.417 42.4224 107.77 42.4383 108.149C42.4462 108.369 42.6127 108.579 42.9041 108.665C43.1936 108.75 43.3561 108.591 43.4552 108.587C44.0341 108.564 44.1927 108.943 45.1898 108.943C45.4971 108.943 45.9431 108.78 46.179 108.549C46.2741 108.464 46.2523 108.344 46.183 108.27Z" fill="url(#paint29_linear_707_5516)"/>
<path d="M46.2683 108.608C46.3218 108.485 46.3159 108.314 46.2425 108.284C46.1414 108.24 45.7866 108.092 45.5844 108.041C45.3842 107.99 45.0729 107.965 45.1859 108.001C45.2989 108.037 45.1344 108.263 44.956 108.28C44.3395 108.339 43.8339 108.033 43.4732 108.007C42.9538 107.967 42.7615 107.457 42.7278 107.372C42.6406 107.442 42.3848 107.912 42.3591 108.058C42.3373 108.189 42.2996 108.428 42.3571 108.551C42.3967 108.636 42.484 108.807 42.482 109.002C42.482 109.002 42.591 109.057 42.8606 109.067C43.0311 109.072 43.2511 109.013 43.2511 109.013V108.718C43.2511 108.718 43.3879 108.693 43.5663 108.699C43.7447 108.704 43.9668 108.792 44.0738 108.871C44.1591 108.932 44.2483 109.034 44.3474 109.059C44.6368 109.129 44.843 109.148 45.1562 109.118C45.8183 109.048 46.1751 108.816 46.2683 108.608Z" fill="black"/>
<path d="M38.5747 81.8607C38.2972 82.1527 37.306 83.7321 37.2941 85.0195C37.2842 86.305 37.7619 87.1298 37.8055 87.399C38.1207 89.3633 38.424 91.7314 38.424 91.8603C38.424 91.9892 39.5897 92.7325 41.1577 92.6377C44.054 92.4632 45.1799 91.7371 45.1799 91.7371C45.1799 91.7371 45.0432 86.98 44.5951 84.6327C44.3711 83.4572 43.3978 81.565 43.3978 81.565" fill="url(#paint30_linear_707_5516)"/>
<path d="M35.9324 76.7225C35.9324 76.7225 36.3982 78.939 36.5211 79.3333C36.644 79.7277 37.2487 82.2323 37.8235 82.1887C38.3965 82.1451 41.5385 79.6367 41.5385 79.6367L41.0944 78.7854L38.3291 80.0462C38.3291 80.0462 38.0793 77.1833 37.8592 76.5007" fill="white"/>
<path d="M37.0007 78.0877C37.2941 79.0774 37.8928 80.1202 38.0732 80.8881C38.1089 81.0417 40.0238 80.3762 40.0298 79.6879" fill="url(#paint31_linear_707_5516)"/>
<path d="M36.755 75.4333C36.755 75.4333 36.6539 77.2857 37.0047 78.2204C37.3517 78.2147 37.655 78.1389 37.655 78.1389L36.755 75.4333Z" fill="#B03D44"/>
<path d="M42.1885 67.8379C42.7416 68.5223 42.6325 69.4874 42.4958 70.3425C42.4264 70.7748 42.357 71.2071 42.2896 71.6394C42.2579 71.8441 42.2143 72.0698 42.0458 72.2025C41.8773 72.3352 41.6354 72.3333 41.4174 72.3257L41.4233 73.4008C40.783 73.4159 40.1427 73.4178 39.5024 73.4083C39.5024 73.1581 39.4449 72.9078 39.3359 72.6784C39.0227 72.6727 38.8125 72.3712 38.6896 72.0963C38.5489 71.7778 38.4458 71.446 38.3447 71.1142C38.2119 70.6724 38.085 70.2249 38.0731 69.7661C38.0612 69.3073 38.1742 68.8314 38.4795 68.4768C38.6876 68.236 38.9691 68.0635 39.2605 67.9194C39.657 67.7222 40.1348 67.5648 40.5451 67.7374" fill="white"/>
<path d="M41.6297 69.4096C41.6793 69.4855 41.6674 69.586 41.7149 69.6637C41.7942 69.7945 41.8993 69.84 42.042 69.9045C42.272 70.0069 42.2185 70.3273 42.2125 70.4714C42.387 70.3614 42.4147 70.06 42.4563 69.9083C42.5039 69.7377 42.5337 69.5613 42.5852 69.3907C42.6367 69.2257 42.724 69.0684 42.7398 68.8958C42.7953 68.2948 42.4008 67.5876 41.9251 67.2501C41.5782 67.0036 41.0489 67.015 40.6564 67.2653C40.4918 67.3695 40.3669 67.5288 40.2936 67.707C40.2619 67.7829 40.2401 67.872 40.2797 67.944" fill="black"/>
<path d="M38.5469 73.6586C38.5786 73.4481 38.6381 73.2036 38.8422 73.122C38.8997 73.0993 38.9612 73.0917 39.0226 73.086C39.6472 73.0197 40.2756 72.9912 40.9039 73.0007C41.1636 73.0045 41.4332 73.0178 41.6651 73.1277C42.0299 73.3022 42.2301 73.6776 42.4065 74.0302" fill="url(#paint32_linear_707_5516)"/>
<path d="M43.6237 77.6781C43.6237 77.8734 43.5088 78.137 43.4731 78.2394C43.3304 78.3095 42.7634 78.4271 42.4383 78.2849C42.3669 77.6364 41.9705 76.3907 41.9705 76.3907C41.9705 76.3907 43.6237 77.4961 43.6237 77.6781Z" fill="#B03D44"/>
<path d="M42.8962 77.2269C42.8962 77.2269 44.7735 81.565 45.5863 81.565C46.179 81.565 47.6301 77.5606 47.6301 77.5606L46.7123 77.1454L45.6894 78.8233L44.6526 75.6949" fill="white"/>
<path d="M46.532 77.443C46.532 77.443 46.8353 76.9842 46.8135 76.66C46.8055 76.5367 46.7282 75.9471 46.7917 75.8314C46.8551 75.7158 47.0097 75.3366 47.0989 75.2626C47.1862 75.1887 47.5133 75.0711 47.5925 75.1223C47.6718 75.1754 47.771 74.9327 47.9038 74.9536C48.0366 74.9744 48.1456 75.0806 48.1456 75.1963C48.1456 75.3119 48.3221 75.3328 48.3439 75.4181C48.3657 75.5015 48.3558 75.5755 48.3875 75.6399C48.4212 75.7025 48.5183 75.6722 48.552 75.8295C48.5837 75.9736 48.5401 75.9888 48.552 76.0608C48.5639 76.1348 48.6293 76.1272 48.6075 76.2675C48.5857 76.4078 48.4846 76.5898 48.3974 76.7491C48.3102 76.9065 48.1278 77.1055 47.8859 77.244C47.767 77.3122 47.7016 77.4336 47.5866 77.6383" fill="white"/>
<path d="M47.0355 74.0909C47.0118 74.0568 46.9483 73.998 46.873 74.0492C46.7977 74.1004 46.8214 74.1857 46.8373 74.2217L47.3924 75.4219C47.3924 75.4219 47.438 75.4712 47.5232 75.3991C47.6164 75.3214 47.5866 75.2816 47.5866 75.2816C47.5866 75.2816 47.0593 74.125 47.0355 74.0909Z" fill="black"/>
<path d="M47.6203 75.2038C47.5152 75.384 47.3923 75.4427 47.2813 75.5413C47.1941 75.6191 47.206 75.6684 47.1108 75.748C47.2774 75.7366 47.2496 75.6418 47.4657 75.492C47.5668 75.4238 47.6699 75.3479 47.6897 75.2304C47.6956 75.1906 47.6461 75.1697 47.6203 75.2038Z" fill="black"/>
<path d="M43.6256 78.0156C44.2302 77.9095 44.698 77.5075 45.1797 77.0392C44.9121 76.3339 44.5335 74.5971 43.8714 73.9354C43.1894 73.2529 42.0357 73.3363 41.4192 73.3571C40.7809 73.3306 40.2536 73.4026 39.4884 73.4349C38.9809 73.4557 38.4734 73.5126 37.9739 73.6188C37.9164 73.6302 37.8609 73.6434 37.8053 73.6567L37.8034 73.651C37.8034 73.651 36.8855 73.7439 36.4217 74.0852C35.2362 74.9536 36.154 78.1029 36.154 78.1029C36.154 78.1029 36.0966 78.2716 36.8915 78.228C37.0263 78.2204 37.1571 78.2071 37.282 78.192C37.6963 79.121 38.739 81.036 38.4338 81.4455C38.3545 81.5517 38.1562 81.7546 38.1324 81.8873C38.0452 82.3746 39.195 82.5452 39.6886 82.585C40.4379 82.6438 41.3003 82.604 42.0516 82.5717C42.6225 82.5452 43.8674 82.3556 43.9566 81.6825C43.9745 81.5498 43.9051 81.4436 43.8377 81.3469C43.7505 81.2237 43.5483 81.0758 43.4769 80.9393C43.3024 80.6132 43.1518 79.2386 43.2113 78.8878C43.2608 78.6091 43.461 78.4252 43.6256 78.0156Z" fill="url(#paint33_linear_707_5516)"/>
<path d="M41.7128 92.5941C41.5284 91.4527 40.3846 87.9147 40.337 87.8161C39.7146 87.3554 39.3042 86.8776 39.0961 86.4927C38.9553 87.2682 39.326 88.0361 39.6709 88.749C40.2756 89.9965 40.6344 91.3522 41.1557 92.6339" fill="url(#paint34_linear_707_5516)"/>
<path d="M41.5265 71.1028C41.4511 70.7425 41.4571 70.5397 41.58 70.3008C41.6216 70.2211 41.6751 70.1472 41.7485 70.0979C41.8476 70.0315 41.9804 70.0183 42.0914 70.0638C42.1628 70.0941 42.2223 70.1491 42.2639 70.2173C42.3947 69.7339 42.4225 69.2181 42.3848 68.7176C42.3254 67.9213 41.8238 67.3051 41.0903 67.0188C39.7344 66.486 37.7857 67.0131 37.2346 68.2853C36.8183 69.2466 37.0305 70.6364 37.8254 71.4422C38.5311 72.157 39.5441 72.2612 40.4818 72.1134C40.9615 72.0375 41.7009 72.083 41.9487 71.4611C41.9685 71.4137 41.9249 71.3644 41.8734 71.3682C41.6751 71.3796 41.5403 71.1691 41.5265 71.1028Z" fill="black"/>
<path d="M38.8802 71.664C38.4896 71.5578 38.0674 71.7683 37.8077 72.0678C37.5064 72.4129 37.3755 72.9476 37.657 73.3078C37.7621 73.4424 37.9108 73.5373 38.0654 73.6188C38.5313 73.8672 39.0824 74.0132 39.5998 73.8918C40.1172 73.7705 40.5711 73.3268 40.5652 72.8168C40.5592 72.356 40.2083 71.9711 39.8515 71.6583" fill="black"/>
<path d="M143.66 68.7138C143.66 68.9186 143.481 69.0854 143.261 69.0854C143.041 69.0854 142.863 68.9186 142.863 68.7138C142.863 68.509 143.041 68.3422 143.261 68.3422C143.481 68.3422 143.66 68.509 143.66 68.7138ZM150.509 73.9335C150.509 74.1383 150.331 74.3051 150.11 74.3051C149.89 74.3051 149.712 74.1383 149.712 73.9335C149.712 73.7288 149.89 73.5619 150.11 73.5619C150.331 73.5638 150.509 73.7288 150.509 73.9335ZM113.237 63.4979C113.237 63.7027 113.058 63.8695 112.838 63.8695C112.618 63.8695 112.44 63.7027 112.44 63.4979C112.44 63.2931 112.618 63.1263 112.838 63.1263C113.058 63.1263 113.237 63.2931 113.237 63.4979ZM97.1834 67.8701C97.1834 68.0749 97.005 68.2417 96.7849 68.2417C96.5649 68.2417 96.3865 68.0749 96.3865 67.8701C96.3865 67.6653 96.5649 67.4985 96.7849 67.4985C97.005 67.5004 97.1834 67.6653 97.1834 67.8701ZM115.04 82.767C115.04 82.9718 114.862 83.1387 114.642 83.1387C114.422 83.1387 114.244 82.9718 114.244 82.767C114.244 82.5623 114.422 82.3954 114.642 82.3954C114.862 82.3954 115.04 82.5623 115.04 82.767ZM146.308 83.5046C146.308 83.7093 146.13 83.8762 145.91 83.8762C145.69 83.8762 145.511 83.7093 145.511 83.5046C145.511 83.2998 145.69 83.133 145.91 83.133C146.13 83.1349 146.308 83.2998 146.308 83.5046Z" fill="white"/>
<path d="M141.985 108.005C141.985 109.165 137.059 110.108 130.981 110.108C124.903 110.108 119.977 109.167 119.977 108.005C119.977 106.844 124.903 105.902 130.981 105.902C137.059 105.902 141.985 106.844 141.985 108.005Z" fill="url(#paint35_linear_707_5516)"/>
<path d="M127.359 72.8812L128.818 79.0129C128.857 79.1798 128.74 79.3447 128.562 79.3675L124.02 79.9913C123.862 80.0121 123.713 79.9154 123.677 79.7656L122.218 73.6339C122.179 73.4671 122.296 73.3021 122.474 73.2775L127.016 72.6537C127.174 72.6347 127.323 72.7314 127.359 72.8812Z" fill="black"/>
<path d="M127.075 73.0784L128.471 78.9485L123.961 79.5685L122.563 73.6984L127.075 73.0784Z" fill="url(#paint36_linear_707_5516)"/>
<path d="M123.041 74.1307L126.875 73.6036M123.17 74.6862L127.004 74.1591M124.766 75.1451L127.163 74.8171M124.936 75.6229L127.333 75.293M125.107 76.0988L127.504 75.7708M124.229 78.7342L126.623 78.4062" stroke="#A1D2F0" stroke-width="1.436" stroke-linecap="round" stroke-linejoin="round"/>
<path d="M129.107 79.085C128.85 78.9693 128.659 78.7551 128.475 78.5465C128.294 78.3417 128.114 78.1351 127.934 77.9303C127.862 77.8488 127.787 77.7597 127.779 77.6554C128.082 77.6326 128.277 78.008 128.58 78.0289C128.439 77.553 128.237 77.0923 127.979 76.6638C127.916 76.5595 127.848 76.4363 127.892 76.3244C128.219 76.4438 128.495 76.6657 128.733 76.9122C128.899 77.0847 129.052 77.2705 129.189 77.4658C129.587 78.0441 129.835 78.7077 130.003 79.3808" fill="black"/>
<path d="M130.4 87.7365L131.811 90.8326C131.217 91.7939 130.872 92.9277 130.826 94.0767C130.802 94.674 130.858 95.2731 130.84 95.8703C130.838 95.9121 130.832 95.9576 130.82 96.0012C130.632 95.1157 130.491 94.3858 130.435 93.9099C130.281 92.5789 130.281 90.4648 130.33 87.7346C130.352 87.7346 130.376 87.7327 130.4 87.7365Z" fill="#F2A181"/>
<path d="M130.408 84.0241L133.651 81.4076C133.651 81.4076 135.161 83.3662 134.592 85.2546C134.313 86.1836 133.962 86.6444 133.809 87.0842C133.667 87.4957 132.691 93.324 132.765 93.7506C132.838 94.1772 133.361 95.3698 133.562 96.6231C133.782 98.0015 133.766 102.226 133.905 103.936H133.907C133.907 103.936 134.018 105.21 134.174 105.489C134.331 105.768 134.553 106.078 134.59 106.454C134.614 106.672 134.485 106.903 134.224 107.032C133.962 107.161 133.786 107.026 133.69 107.038C133.141 107.102 133.042 107.5 132.101 107.648C131.809 107.694 131.365 107.601 131.109 107.408C131.01 107.334 131.014 107.212 131.07 107.129C131.125 107.045 131.821 106.818 132.134 106.625C132.434 106.441 132.725 105.934 132.808 105.76C132.828 105.714 132.824 105.589 132.806 105.43C132.765 105.157 132.715 104.873 132.664 104.581C132.622 104.372 132.588 104.22 132.588 104.22L132.598 104.218C131.91 100.506 130.632 95.6011 130.435 93.9099C130.217 92.0252 130.307 88.5764 130.408 84.0241Z" fill="black"/>
<path d="M131.038 107.474C130.968 107.362 130.951 107.191 131.016 107.15C131.105 107.093 131.42 106.892 131.603 106.812C131.785 106.733 132.075 106.661 131.974 106.714C131.872 106.767 132.059 106.964 132.231 106.954C132.822 106.92 133.258 106.545 133.595 106.463C134.081 106.348 134.285 105.798 134.307 105.709C134.398 105.764 134.612 106.207 134.656 106.346C134.695 106.471 134.765 106.7 134.727 106.831C134.701 106.922 134.644 107.104 134.674 107.294C134.674 107.294 134.578 107.364 134.325 107.415C134.164 107.447 133.948 107.421 133.948 107.421L133.906 107.129C133.906 107.129 133.774 107.125 133.605 107.157C133.437 107.191 133.163 107.343 133.145 107.362C133.078 107.44 133.024 107.58 132.935 107.622C132.699 107.736 132.461 107.791 132.16 107.808C131.526 107.842 131.155 107.665 131.038 107.474Z" fill="black"/>
<path d="M125.979 107.417C126.049 107.343 126.8 107.227 127.153 107.085C127.488 106.951 127.894 106.52 127.974 106.336C128.053 106.154 128.035 105.225 128.025 104.837C127.956 102.154 127.436 95.5992 127.361 94.0293C127.23 91.301 127.601 88.4835 128.699 84.1037L132.787 81.1042C132.787 81.1042 133.931 83.1386 133.548 85.0858C133.326 86.214 132.347 86.3884 132.18 86.8283C132.016 87.2663 129.542 94.3422 129.542 94.3422C129.542 94.3422 130.023 95.8722 130.051 97.5483C130.075 98.9779 129.397 103.293 129.27 104.937C129.256 105.257 129.197 106.027 129.296 106.272C129.417 106.571 129.726 106.924 129.71 107.303C129.702 107.523 129.536 107.732 129.246 107.819C128.957 107.904 128.794 107.745 128.695 107.741C128.118 107.719 127.96 108.098 126.964 108.098C126.657 108.098 126.213 107.937 125.977 107.705C125.888 107.61 125.91 107.491 125.979 107.417Z" fill="black"/>
<path d="M125.894 107.753C125.84 107.631 125.846 107.461 125.92 107.428C126.019 107.385 126.376 107.237 126.576 107.186C126.776 107.135 127.085 107.11 126.972 107.146C126.859 107.182 127.024 107.408 127.202 107.423C127.817 107.482 128.322 107.178 128.681 107.152C129.198 107.112 129.391 106.602 129.424 106.518C129.512 106.589 129.767 107.059 129.791 107.203C129.813 107.334 129.851 107.571 129.793 107.694C129.754 107.779 129.666 107.95 129.668 108.143C129.668 108.143 129.559 108.198 129.29 108.208C129.119 108.213 128.901 108.155 128.901 108.155V107.859C128.901 107.859 128.764 107.834 128.586 107.84C128.407 107.846 128.187 107.933 128.078 108.011C127.993 108.071 127.906 108.174 127.805 108.198C127.517 108.268 127.311 108.287 126.998 108.257C126.342 108.193 125.987 107.961 125.894 107.753Z" fill="black"/>
<path d="M133.568 81.0777C133.845 81.3697 134.834 82.9453 134.844 84.227C134.854 85.5087 134.379 86.3315 134.335 86.5989C134.022 88.5574 135.332 98.4205 135.332 98.5494C135.332 98.6783 133.665 99.9676 132.109 100.138C128.689 100.512 125.466 99.1106 125.466 99.1106C125.466 99.1106 126.053 91.5418 127.563 83.8421C127.793 82.6703 128.759 80.7819 128.759 80.7819" fill="url(#paint37_linear_707_5516)"/>
<path d="M136.202 75.9547C136.202 75.9547 135.736 78.1654 135.616 78.5598C135.493 78.9541 134.89 81.4512 134.317 81.4076C133.744 81.364 130.612 78.8612 130.612 78.8612L131.056 78.0118L133.816 79.2689C133.816 79.2689 134.065 76.4135 134.283 75.7328" fill="black"/>
<path d="M135.382 74.6673C135.382 74.6673 135.483 76.514 135.132 77.4468C134.787 77.4412 134.484 77.3653 134.484 77.3653L135.382 74.6673Z" fill="#B03D44"/>
<path d="M129.962 67.0927C129.41 67.7753 129.519 68.7366 129.656 69.5898C129.726 70.0202 129.793 70.4524 129.862 70.8847C129.894 71.0895 129.938 71.3132 130.106 71.446C130.275 71.5787 130.515 71.5768 130.733 71.5673L130.727 72.6385C131.365 72.6537 132.003 72.6556 132.644 72.6461C132.644 72.3959 132.701 72.1456 132.808 71.9181C133.121 71.9124 133.33 71.6128 133.452 71.3379C133.593 71.0212 133.696 70.6894 133.795 70.3576C133.928 69.9178 134.055 69.4703 134.067 69.0134C134.079 68.5564 133.966 68.0805 133.663 67.7279C133.454 67.4871 133.173 67.3164 132.884 67.1723C132.487 66.9752 132.011 66.8178 131.603 66.9922" fill="white"/>
<path d="M130.519 68.6588C130.469 68.7347 130.481 68.8352 130.433 68.9129C130.354 69.0418 130.249 69.0892 130.106 69.1518C129.876 69.2542 129.93 69.5727 129.938 69.7168C129.765 69.6068 129.738 69.3073 129.694 69.1537C129.646 68.983 129.617 68.8067 129.565 68.638C129.514 68.473 129.426 68.3175 129.411 68.1431C129.355 67.5421 129.748 66.8387 130.223 66.5012C130.57 66.2566 131.098 66.2661 131.49 66.5163C131.655 66.6206 131.779 66.7799 131.851 66.9562C131.883 67.032 131.904 67.1193 131.865 67.1913" fill="black"/>
<path d="M133.593 72.8964C133.561 72.6879 133.502 72.4433 133.298 72.3617C133.242 72.339 133.179 72.3314 133.117 72.3257C132.495 72.2594 131.867 72.2309 131.24 72.2404C130.98 72.2442 130.713 72.2575 130.481 72.3674C130.116 72.5419 129.916 72.9173 129.741 73.268" fill="url(#paint38_linear_707_5516)"/>
<path d="M128.532 76.9065C128.532 77.1018 128.647 77.3634 128.683 77.4677C128.826 77.5379 129.391 77.6535 129.716 77.5132C129.787 76.8667 130.182 75.6248 130.182 75.6248C130.182 75.6248 128.532 76.7264 128.532 76.9065Z" fill="#B03D44"/>
<path d="M129.258 76.4552C129.258 76.4552 127.387 80.7819 126.574 80.7819C125.983 80.7819 124.534 76.7889 124.534 76.7889L125.45 76.3737L126.471 78.046L127.504 74.927" fill="black"/>
<path d="M125.632 76.6713C125.632 76.6713 125.329 76.2144 125.351 75.8902C125.359 75.7669 125.436 75.1792 125.373 75.0635C125.309 74.9479 125.155 74.5687 125.067 74.4966C124.98 74.4227 124.655 74.3051 124.574 74.3582C124.494 74.4113 124.395 74.1686 124.262 74.1895C124.132 74.2103 124.021 74.3165 124.021 74.4322C124.021 74.5478 123.844 74.5687 123.822 74.6521C123.801 74.7355 123.811 74.8095 123.779 74.872C123.745 74.9346 123.648 74.9043 123.614 75.0616C123.583 75.2057 123.626 75.219 123.614 75.2929C123.604 75.3669 123.537 75.3593 123.559 75.4996C123.581 75.6399 123.682 75.8219 123.769 75.9793C123.856 76.1367 124.038 76.3339 124.28 76.4742C124.399 76.5424 124.465 76.6638 124.578 76.8666" fill="black"/>
<path d="M125.129 73.3287C125.153 73.2946 125.216 73.2377 125.291 73.287C125.367 73.3363 125.343 73.4235 125.327 73.4595L124.774 74.6578C124.774 74.6578 124.728 74.7071 124.643 74.6351C124.55 74.5573 124.58 74.5175 124.58 74.5175C124.58 74.5175 125.105 73.3628 125.129 73.3287Z" fill="white"/>
<path d="M124.546 74.4397C124.651 74.6199 124.774 74.6768 124.883 74.7753C124.968 74.8531 124.958 74.9024 125.053 74.982C124.887 74.9706 124.915 74.8758 124.7 74.7279C124.601 74.6597 124.496 74.5838 124.478 74.4663C124.47 74.4265 124.52 74.4056 124.546 74.4397Z" fill="black"/>
<path d="M128.528 77.2439C127.926 77.1378 127.458 76.7377 126.978 76.2694C127.244 75.566 127.623 73.833 128.283 73.1732C128.963 72.4925 130.112 72.576 130.729 72.5968C131.365 72.5703 131.891 72.6423 132.654 72.6746C133.161 72.6954 133.667 72.7523 134.164 72.8566C134.222 72.868 134.277 72.8812 134.333 72.8945L134.335 72.8888C134.335 72.8888 135.249 72.9817 135.713 73.3211C136.894 74.1876 135.98 77.3274 135.98 77.3274C135.98 77.3274 136.038 77.4942 135.245 77.4525C135.11 77.4449 134.979 77.4335 134.856 77.4165C134.444 78.3436 133.405 80.2529 133.706 80.6606C133.786 80.7667 133.982 80.9696 134.006 81.1004C134.093 81.5858 132.945 81.7565 132.454 81.7963C131.704 81.855 130.846 81.8152 130.097 81.7811C129.528 81.7546 128.285 81.565 128.197 80.8938C128.18 80.761 128.249 80.6549 128.316 80.5601C128.404 80.4368 128.604 80.2889 128.677 80.1543C128.85 79.8282 129.002 78.4574 128.943 78.1085C128.893 77.8355 128.695 77.6516 128.528 77.2439Z" fill="#A600A9"/>
<path d="M130.624 70.3501C130.699 69.9917 130.693 69.7889 130.57 69.55C130.529 69.4703 130.475 69.3964 130.402 69.3471C130.303 69.2807 130.17 69.2675 130.061 69.313C129.989 69.3433 129.93 69.3983 129.888 69.4665C129.757 68.9849 129.732 68.4711 129.767 67.9706C129.827 67.1762 130.328 66.5618 131.058 66.2755C132.41 65.7447 134.354 66.2699 134.904 67.5402C135.318 68.4996 135.108 69.8837 134.313 70.6876C133.609 71.4005 132.598 71.5047 131.664 71.3569C131.187 71.281 130.449 71.3265 130.201 70.7046C130.182 70.6572 130.225 70.6079 130.277 70.6117C130.475 70.625 130.61 70.4145 130.624 70.3501Z" fill="black"/>
<path d="M133.262 70.9094C133.653 70.8032 134.073 71.0137 134.333 71.3114C134.632 71.6545 134.763 72.1892 134.481 72.5476C134.376 72.6822 134.228 72.777 134.075 72.8585C133.611 73.105 133.06 73.251 132.545 73.1296C132.029 73.0083 131.575 72.5665 131.581 72.0584C131.587 71.5995 131.938 71.2147 132.293 70.9037" fill="black"/>
<path d="M130.402 69.3452C130.402 69.3452 130.798 69.349 130.281 70.6117C129.763 71.8745 129.714 74.2558 129.714 74.2558C129.714 74.2558 131.131 74.8171 133.036 74.7697C134.941 74.7223 135.138 74.7223 135.185 74.582C135.235 74.4417 136.406 67.6217 133.817 66.4538" fill="black"/>
<path opacity="0.1" d="M137.439 88.4551H153.355C154.22 88.0285 154.812 87.162 154.812 86.1628C154.812 84.8697 153.819 83.7985 152.527 83.6146C152.529 83.5728 152.531 83.5311 152.531 83.4875C152.531 81.9745 151.222 80.7478 149.609 80.7478C149.44 80.7478 149.276 80.7611 149.113 80.7876C148.417 79.6329 147.059 78.8499 145.499 78.8499C143.681 78.8499 142.139 79.9135 141.598 81.3886C141.428 81.3564 141.251 81.3374 141.073 81.3374C139.522 81.3374 138.266 82.6135 138.266 84.1872C138.266 84.3635 138.282 84.5379 138.311 84.7048C137.138 84.7768 136.21 85.6357 136.21 86.6861C136.21 87.4578 136.71 88.1252 137.439 88.4551Z" fill="white"/>
<defs>
<filter id="filter0_d_707_5516" x="0.2" y="21.3863" width="166.6" height="99.8394" filterUnits="userSpaceOnUse" color-interpolation-filters="sRGB">
<feFlood flood-opacity="0" result="BackgroundImageFix"/>
<feColorMatrix in="SourceAlpha" type="matrix" values="0 0 0 0 0 0 0 0 0 0 0 0 0 0 0 0 0 0 127 0" result="hardAlpha"/>
<feOffset dx="1" dy="4"/>
<feGaussianBlur stdDeviation="4.4"/>
<feComposite in2="hardAlpha" operator="out"/>
<feColorMatrix type="matrix" values="0 0 0 0 0.45 0 0 0 0 0.45 0 0 0 0 0.45 0 0 0 0.25 0"/>
<feBlend mode="normal" in2="BackgroundImageFix" result="effect1_dropShadow_707_5516"/>
<feBlend mode="normal" in="SourceGraphic" in2="effect1_dropShadow_707_5516" result="shape"/>
</filter>
<filter id="filter1_d_707_5516" x="30.9434" y="0.2" width="110.93" height="106.861" filterUnits="userSpaceOnUse" color-interpolation-filters="sRGB">
<feFlood flood-opacity="0" result="BackgroundImageFix"/>
<feColorMatrix in="SourceAlpha" type="matrix" values="0 0 0 0 0 0 0 0 0 0 0 0 0 0 0 0 0 0 127 0" result="hardAlpha"/>
<feOffset dy="4"/>
<feGaussianBlur stdDeviation="3.4"/>
<feComposite in2="hardAlpha" operator="out"/>
<feColorMatrix type="matrix" values="0 0 0 0 0.56 0 0 0 0 0.56 0 0 0 0 0.56 0 0 0 0.25 0"/>
<feBlend mode="normal" in2="BackgroundImageFix" result="effect1_dropShadow_707_5516"/>
<feBlend mode="normal" in="SourceGraphic" in2="effect1_dropShadow_707_5516" result="shape"/>
</filter>
<linearGradient id="paint0_linear_707_5516" x1="6235.75" y1="5655.81" x2="7856.49" y2="1519.07" gradientUnits="userSpaceOnUse">
<stop stop-color="#7700BB"/>
<stop offset="1"/>
</linearGradient>
<linearGradient id="paint1_linear_707_5516" x1="862.626" y1="31.6547" x2="829.848" y2="1767.88" gradientUnits="userSpaceOnUse">
<stop stop-color="#88CFDA"/>
<stop offset="0.00834" stop-color="#89CFD9"/>
<stop offset="0.4784" stop-color="#C8D9BB"/>
<stop offset="0.8218" stop-color="#F0DFA7"/>
<stop offset="1" stop-color="#FFE1A0"/>
</linearGradient>
<linearGradient id="paint2_linear_707_5516" x1="6519.08" y1="1494.57" x2="6519.08" y2="61.7846" gradientUnits="userSpaceOnUse">
<stop stop-color="#7700BB"/>
<stop offset="0.1178" stop-color="#6300B3"/>
<stop offset="0.3928" stop-color="#3800A2"/>
<stop offset="0.6413" stop-color="#190095"/>
<stop offset="0.852" stop-color="#07008E"/>
<stop offset="1"/>
</linearGradient>
<linearGradient id="paint3_linear_707_5516" x1="4904.15" y1="37.1236" x2="4904.15" y2="5108.52" gradientUnits="userSpaceOnUse">
<stop stop-color="#7633FF"/>
<stop offset="0.1585" stop-color="#7137FF"/>
<stop offset="0.3535" stop-color="#6243FF"/>
<stop offset="0.5676" stop-color="#4957FF"/>
<stop offset="0.7937" stop-color="#2672FF"/>
<stop offset="1" stop-color="#0090FF"/>
</linearGradient>
<linearGradient id="paint4_linear_707_5516" x1="75.4893" y1="916.963" x2="1838.71" y2="916.963" gradientUnits="userSpaceOnUse">
<stop stop-color="#E19000"/>
<stop offset="0.2072" stop-color="#E39504"/>
<stop offset="0.462" stop-color="#E9A410"/>
<stop offset="0.7405" stop-color="#F3BD23"/>
<stop offset="1" stop-color="#FFDB3B"/>
</linearGradient>
<linearGradient id="paint5_linear_707_5516" x1="381.625" y1="671.67" x2="444.47" y2="24.3935" gradientUnits="userSpaceOnUse">
<stop stop-color="#E19000"/>
<stop offset="0.2072" stop-color="#E39504"/>
<stop offset="0.462" stop-color="#E9A410"/>
<stop offset="0.7405" stop-color="#F3BD23"/>
<stop offset="1" stop-color="#FFDB3B"/>
</linearGradient>
<linearGradient id="paint6_linear_707_5516" x1="717.662" y1="1242.55" x2="831.869" y2="66.2739" gradientUnits="userSpaceOnUse">
<stop stop-color="#E19000"/>
<stop offset="0.2072" stop-color="#E39504"/>
<stop offset="0.462" stop-color="#E9A410"/>
<stop offset="0.7405" stop-color="#F3BD23"/>
<stop offset="1" stop-color="#FFDB3B"/>
</linearGradient>
<linearGradient id="paint7_linear_707_5516" x1="636.714" y1="902.474" x2="636.714" y2="124.424" gradientUnits="userSpaceOnUse">
<stop stop-color="#A1BAFF"/>
<stop offset="0.8221" stop-color="white"/>
</linearGradient>
<linearGradient id="paint8_linear_707_5516" x1="224.157" y1="211.948" x2="519.114" y2="-73.1369" gradientUnits="userSpaceOnUse">
<stop stop-color="#E19000"/>
<stop offset="0.2072" stop-color="#E39504"/>
<stop offset="0.462" stop-color="#E9A410"/>
<stop offset="0.7405" stop-color="#F3BD23"/>
<stop offset="1" stop-color="#FFDB3B"/>
</linearGradient>
<linearGradient id="paint9_linear_707_5516" x1="160.97" y1="651.376" x2="890.556" y2="-53.7737" gradientUnits="userSpaceOnUse">
<stop stop-color="#E19000"/>
<stop offset="0.2072" stop-color="#E39504"/>
<stop offset="0.462" stop-color="#E9A410"/>
<stop offset="0.7405" stop-color="#F3BD23"/>
<stop offset="1" stop-color="#FFDB3B"/>
</linearGradient>
<linearGradient id="paint10_linear_707_5516" x1="63.435" y1="428.079" x2="1314.18" y2="428.079" gradientUnits="userSpaceOnUse">
<stop stop-color="#7633FF"/>
<stop offset="0.1585" stop-color="#7137FF"/>
<stop offset="0.3535" stop-color="#6243FF"/>
<stop offset="0.5676" stop-color="#4957FF"/>
<stop offset="0.7937" stop-color="#2672FF"/>
<stop offset="1" stop-color="#0090FF"/>
</linearGradient>
<linearGradient id="paint11_linear_707_5516" x1="64.3668" y1="331.687" x2="1144.07" y2="331.687" gradientUnits="userSpaceOnUse">
<stop stop-color="#88CFDA"/>
<stop offset="0.00834" stop-color="#89CFD9"/>
<stop offset="0.4784" stop-color="#C8D9BB"/>
<stop offset="0.8218" stop-color="#F0DFA7"/>
<stop offset="1" stop-color="#FFE1A0"/>
</linearGradient>
<linearGradient id="paint12_linear_707_5516" x1="69.3283" y1="115.93" x2="260.735" y2="115.93" gradientUnits="userSpaceOnUse">
<stop stop-color="#88CFDA"/>
<stop offset="0.00834" stop-color="#89CFD9"/>
<stop offset="0.4784" stop-color="#C8D9BB"/>
<stop offset="0.8218" stop-color="#F0DFA7"/>
<stop offset="1" stop-color="#FFE1A0"/>
</linearGradient>
<linearGradient id="paint13_linear_707_5516" x1="1055.24" y1="316.686" x2="721.601" y2="746.757" gradientUnits="userSpaceOnUse">
<stop stop-color="#A1BAFF"/>
<stop offset="0.8221" stop-color="white"/>
</linearGradient>
<linearGradient id="paint14_linear_707_5516" x1="49.4943" y1="375.898" x2="872.819" y2="375.898" gradientUnits="userSpaceOnUse">
<stop stop-color="#E19000"/>
<stop offset="0.2072" stop-color="#E39504"/>
<stop offset="0.462" stop-color="#E9A410"/>
<stop offset="0.7405" stop-color="#F3BD23"/>
<stop offset="1" stop-color="#FFDB3B"/>
</linearGradient>
<linearGradient id="paint15_linear_707_5516" x1="40.6271" y1="804.221" x2="1646.56" y2="804.221" gradientUnits="userSpaceOnUse">
<stop stop-color="#E19000"/>
<stop offset="0.2072" stop-color="#E39504"/>
<stop offset="0.462" stop-color="#E9A410"/>
<stop offset="0.7405" stop-color="#F3BD23"/>
<stop offset="1" stop-color="#FFDB3B"/>
</linearGradient>
<linearGradient id="paint16_linear_707_5516" x1="643.282" y1="-58.5425" x2="971.255" y2="1333.21" gradientUnits="userSpaceOnUse">
<stop stop-color="#88CFDA"/>
<stop offset="0.00834" stop-color="#89CFD9"/>
<stop offset="0.4784" stop-color="#C8D9BB"/>
<stop offset="0.8218" stop-color="#F0DFA7"/>
<stop offset="1" stop-color="#FFE1A0"/>
</linearGradient>
<linearGradient id="paint17_linear_707_5516" x1="79.9039" y1="676.22" x2="1095.99" y2="676.22" gradientUnits="userSpaceOnUse">
<stop stop-color="#7633FF"/>
<stop offset="0.1585" stop-color="#7137FF"/>
<stop offset="0.3535" stop-color="#6243FF"/>
<stop offset="0.5676" stop-color="#4957FF"/>
<stop offset="0.7937" stop-color="#2672FF"/>
<stop offset="1" stop-color="#0090FF"/>
</linearGradient>
<linearGradient id="paint18_linear_707_5516" x1="81.2095" y1="180.101" x2="290.661" y2="180.101" gradientUnits="userSpaceOnUse">
<stop stop-color="#7633FF"/>
<stop offset="0.1585" stop-color="#7137FF"/>
<stop offset="0.3535" stop-color="#6243FF"/>
<stop offset="0.5676" stop-color="#4957FF"/>
<stop offset="0.7937" stop-color="#2672FF"/>
<stop offset="1" stop-color="#0090FF"/>
</linearGradient>
<linearGradient id="paint19_linear_707_5516" x1="96.6797" y1="499.077" x2="1679.28" y2="499.077" gradientUnits="userSpaceOnUse">
<stop stop-color="#88CFDA"/>
<stop offset="0.00834" stop-color="#89CFD9"/>
<stop offset="0.4784" stop-color="#C8D9BB"/>
<stop offset="0.8218" stop-color="#F0DFA7"/>
<stop offset="1" stop-color="#FFE1A0"/>
</linearGradient>
<linearGradient id="paint20_linear_707_5516" x1="105.139" y1="136.046" x2="346.248" y2="136.046" gradientUnits="userSpaceOnUse">
<stop stop-color="#88CFDA"/>
<stop offset="0.00834" stop-color="#89CFD9"/>
<stop offset="0.4784" stop-color="#C8D9BB"/>
<stop offset="0.8218" stop-color="#F0DFA7"/>
<stop offset="1" stop-color="#FFE1A0"/>
</linearGradient>
<linearGradient id="paint21_linear_707_5516" x1="2476.81" y1="2919.38" x2="2476.81" y2="69.8863" gradientUnits="userSpaceOnUse">
<stop stop-color="#A1BAFF"/>
<stop offset="0.4332" stop-color="white"/>
</linearGradient>
<linearGradient id="paint22_linear_707_5516" x1="3355.77" y1="166.939" x2="3355.77" y2="167.03" gradientUnits="userSpaceOnUse">
<stop stop-color="#7633FF"/>
<stop offset="0.1585" stop-color="#7137FF"/>
<stop offset="0.3535" stop-color="#6243FF"/>
<stop offset="0.5676" stop-color="#4957FF"/>
<stop offset="0.7937" stop-color="#2672FF"/>
<stop offset="1" stop-color="#0090FF"/>
</linearGradient>
<linearGradient id="paint23_linear_707_5516" x1="61.9952" y1="255.392" x2="4899.95" y2="255.392" gradientUnits="userSpaceOnUse">
<stop stop-color="#7633FF"/>
<stop offset="0.1585" stop-color="#7137FF"/>
<stop offset="0.3535" stop-color="#6243FF"/>
<stop offset="0.5676" stop-color="#4957FF"/>
<stop offset="0.7937" stop-color="#2672FF"/>
<stop offset="1" stop-color="#0090FF"/>
</linearGradient>
<linearGradient id="paint24_linear_707_5516" x1="61.9951" y1="147.745" x2="4891.33" y2="147.745" gradientUnits="userSpaceOnUse">
<stop stop-color="#A1BAFF"/>
<stop offset="0.4332" stop-color="white"/>
</linearGradient>
<linearGradient id="paint25_linear_707_5516" x1="30.3472" y1="261.083" x2="3238.65" y2="261.083" gradientUnits="userSpaceOnUse">
<stop stop-color="#A1BAFF"/>
<stop offset="0.7431" stop-color="white"/>
</linearGradient>
<linearGradient id="paint26_linear_707_5516" x1="43.6893" y1="399.138" x2="636.049" y2="399.138" gradientUnits="userSpaceOnUse">
<stop stop-color="#7633FF"/>
<stop offset="0.1585" stop-color="#7137FF"/>
<stop offset="0.3535" stop-color="#6243FF"/>
<stop offset="0.5676" stop-color="#4957FF"/>
<stop offset="0.7937" stop-color="#2672FF"/>
<stop offset="1" stop-color="#0090FF"/>
</linearGradient>
<linearGradient id="paint27_linear_707_5516" x1="207.145" y1="170.828" x2="-41.8961" y2="336.15" gradientUnits="userSpaceOnUse">
<stop stop-color="#A1BAFF"/>
<stop offset="0.4332" stop-color="white"/>
</linearGradient>
<linearGradient id="paint28_linear_707_5516" x1="260.348" y1="2577.88" x2="184.015" y2="670.177" gradientUnits="userSpaceOnUse">
<stop stop-color="#A1BAFF"/>
<stop offset="0.4332" stop-color="white"/>
<stop offset="0.5794" stop-color="#FBFCFF"/>
<stop offset="0.7123" stop-color="#F0F4FF"/>
<stop offset="0.84" stop-color="#DEE7FF"/>
<stop offset="0.9637" stop-color="#C4D4FF"/>
<stop offset="1" stop-color="#BBCDFF"/>
</linearGradient>
<linearGradient id="paint29_linear_707_5516" x1="428.327" y1="2597.3" x2="351.903" y2="689.415" gradientUnits="userSpaceOnUse">
<stop stop-color="#A1BAFF"/>
<stop offset="0.4332" stop-color="white"/>
<stop offset="0.5794" stop-color="#FBFCFF"/>
<stop offset="0.7123" stop-color="#F0F4FF"/>
<stop offset="0.84" stop-color="#DEE7FF"/>
<stop offset="0.9637" stop-color="#C4D4FF"/>
<stop offset="1" stop-color="#BBCDFF"/>
</linearGradient>
<linearGradient id="paint30_linear_707_5516" x1="389.75" y1="187.012" x2="591.746" y2="1242.95" gradientUnits="userSpaceOnUse">
<stop stop-color="#311341"/>
<stop offset="0.6346" stop-color="#3113C2"/>
<stop offset="0.6906" stop-color="#2F18C5"/>
<stop offset="0.7595" stop-color="#2927CC"/>
<stop offset="0.8351" stop-color="#1F40D8"/>
<stop offset="0.9155" stop-color="#1263E9"/>
<stop offset="0.999" stop-color="#008FFF"/>
<stop offset="1" stop-color="#0090FF"/>
</linearGradient>
<linearGradient id="paint31_linear_707_5516" x1="37.0492" y1="219.203" x2="339.827" y2="219.203" gradientUnits="userSpaceOnUse">
<stop stop-color="#A1BAFF"/>
<stop offset="0.4332" stop-color="white"/>
</linearGradient>
<linearGradient id="paint32_linear_707_5516" x1="38.5778" y1="124.432" x2="424.744" y2="124.432" gradientUnits="userSpaceOnUse">
<stop stop-color="#88CFDA"/>
<stop offset="0.0506" stop-color="#93D1D5"/>
<stop offset="0.2502" stop-color="#BAD7C2"/>
<stop offset="0.4481" stop-color="#D8DBB3"/>
<stop offset="0.6414" stop-color="#EEDEA8"/>
<stop offset="0.8279" stop-color="#FBE0A2"/>
<stop offset="1" stop-color="#FFE1A0"/>
</linearGradient>
<linearGradient id="paint33_linear_707_5516" x1="35.9276" y1="536.872" x2="972.317" y2="536.872" gradientUnits="userSpaceOnUse">
<stop stop-color="#88CFDA"/>
<stop offset="0.0506" stop-color="#93D1D5"/>
<stop offset="0.2502" stop-color="#BAD7C2"/>
<stop offset="0.4481" stop-color="#D8DBB3"/>
<stop offset="0.6414" stop-color="#EEDEA8"/>
<stop offset="0.8279" stop-color="#FBE0A2"/>
<stop offset="1" stop-color="#FFE1A0"/>
</linearGradient>
<linearGradient id="paint34_linear_707_5516" x1="145.783" y1="116.541" x2="465.919" y2="760.214" gradientUnits="userSpaceOnUse">
<stop stop-color="#311341"/>
<stop offset="0.6346" stop-color="#3113C2"/>
<stop offset="0.6906" stop-color="#2F18C5"/>
<stop offset="0.7595" stop-color="#2927CC"/>
<stop offset="0.8351" stop-color="#1F40D8"/>
<stop offset="0.9155" stop-color="#1263E9"/>
<stop offset="0.999" stop-color="#008FFF"/>
<stop offset="1" stop-color="#0090FF"/>
</linearGradient>
<linearGradient id="paint35_linear_707_5516" x1="120.021" y1="316.19" x2="3335.57" y2="316.19" gradientUnits="userSpaceOnUse">
<stop stop-color="#A1BAFF"/>
<stop offset="0.7431" stop-color="white"/>
</linearGradient>
<linearGradient id="paint36_linear_707_5516" x1="713.39" y1="397.6" x2="122.628" y2="397.6" gradientUnits="userSpaceOnUse">
<stop stop-color="#7633FF"/>
<stop offset="0.1585" stop-color="#7137FF"/>
<stop offset="0.3535" stop-color="#6243FF"/>
<stop offset="0.5676" stop-color="#4957FF"/>
<stop offset="0.7937" stop-color="#2672FF"/>
<stop offset="1" stop-color="#0090FF"/>
</linearGradient>
<linearGradient id="paint37_linear_707_5516" x1="684.397" y1="293.719" x2="335.842" y2="2116.02" gradientUnits="userSpaceOnUse">
<stop stop-color="#3822D1"/>
<stop offset="0.1652" stop-color="#3527D3"/>
<stop offset="0.3684" stop-color="#2E36DA"/>
<stop offset="0.5916" stop-color="#214FE4"/>
<stop offset="0.8272" stop-color="#0F72F2"/>
<stop offset="1" stop-color="#0090FF"/>
</linearGradient>
<linearGradient id="paint38_linear_707_5516" x1="514.984" y1="123.673" x2="129.869" y2="123.673" gradientUnits="userSpaceOnUse">
<stop stop-color="#88CFDA"/>
<stop offset="0.0506" stop-color="#93D1D5"/>
<stop offset="0.2502" stop-color="#BAD7C2"/>
<stop offset="0.4481" stop-color="#D8DBB3"/>
<stop offset="0.6414" stop-color="#EEDEA8"/>
<stop offset="0.8279" stop-color="#FBE0A2"/>
<stop offset="1" stop-color="#FFE1A0"/>
</linearGradient>
</defs>
</svg>
