<svg width="375" height="816" viewBox="0 0 375 816" fill="none" xmlns="http://www.w3.org/2000/svg">
<path d="M87.1577 411.898H91.8622L94.2273 414.94L96.554 417.651L100.939 423.148H95.7741L92.7571 419.44L91.2102 417.241L87.1577 411.898ZM101.335 407.909C101.335 410.764 100.794 413.193 99.7116 415.196C98.6378 417.199 97.1719 418.729 95.3139 419.786C93.4645 420.834 91.3849 421.358 89.0753 421.358C86.7486 421.358 84.6605 420.83 82.8111 419.773C80.9616 418.716 79.5 417.186 78.4261 415.183C77.3523 413.18 76.8153 410.756 76.8153 407.909C76.8153 405.054 77.3523 402.625 78.4261 400.622C79.5 398.619 80.9616 397.094 82.8111 396.045C84.6605 394.989 86.7486 394.46 89.0753 394.46C91.3849 394.46 93.4645 394.989 95.3139 396.045C97.1719 397.094 98.6378 398.619 99.7116 400.622C100.794 402.625 101.335 405.054 101.335 407.909ZM95.723 407.909C95.723 406.06 95.446 404.5 94.892 403.23C94.3466 401.96 93.5753 400.997 92.5781 400.341C91.581 399.685 90.4134 399.357 89.0753 399.357C87.7372 399.357 86.5696 399.685 85.5724 400.341C84.5753 400.997 83.7997 401.96 83.2457 403.23C82.7003 404.5 82.4276 406.06 82.4276 407.909C82.4276 409.759 82.7003 411.318 83.2457 412.588C83.7997 413.858 84.5753 414.821 85.5724 415.477C86.5696 416.134 87.7372 416.462 89.0753 416.462C90.4134 416.462 91.581 416.134 92.5781 415.477C93.5753 414.821 94.3466 413.858 94.892 412.588C95.446 411.318 95.723 409.759 95.723 407.909ZM117.761 412.639V401.364H123.207V421H117.978V417.433H117.774C117.33 418.584 116.593 419.509 115.562 420.207C114.539 420.906 113.291 421.256 111.816 421.256C110.504 421.256 109.349 420.957 108.352 420.361C107.355 419.764 106.575 418.916 106.012 417.817C105.458 416.717 105.177 415.401 105.168 413.866V401.364H110.614V412.895C110.623 414.054 110.934 414.97 111.548 415.643C112.161 416.317 112.984 416.653 114.015 416.653C114.671 416.653 115.285 416.504 115.856 416.206C116.427 415.899 116.887 415.447 117.237 414.851C117.595 414.254 117.769 413.517 117.761 412.639ZM127.398 421V401.364H132.844V421H127.398ZM130.134 398.832C129.324 398.832 128.63 398.564 128.05 398.027C127.479 397.482 127.193 396.83 127.193 396.071C127.193 395.321 127.479 394.678 128.05 394.141C128.63 393.595 129.324 393.322 130.134 393.322C130.943 393.322 131.634 393.595 132.205 394.141C132.784 394.678 133.074 395.321 133.074 396.071C133.074 396.83 132.784 397.482 132.205 398.027C131.634 398.564 130.943 398.832 130.134 398.832ZM136.939 421V417.753L146.553 405.851V405.71H137.272V401.364H153.111V404.905L144.086 416.513V416.653H153.444V421H136.939ZM174.482 421.384C172.471 421.384 170.741 420.957 169.292 420.105C167.851 419.244 166.744 418.051 165.968 416.526C165.201 415 164.817 413.244 164.817 411.259C164.817 409.247 165.205 407.483 165.981 405.966C166.765 404.44 167.877 403.251 169.317 402.399C170.758 401.538 172.471 401.108 174.457 401.108C176.17 401.108 177.67 401.419 178.957 402.041C180.244 402.663 181.262 403.537 182.012 404.662C182.762 405.787 183.175 407.108 183.252 408.625H178.113C177.968 407.645 177.584 406.857 176.962 406.26C176.349 405.655 175.543 405.352 174.546 405.352C173.702 405.352 172.965 405.582 172.334 406.043C171.712 406.494 171.226 407.155 170.877 408.024C170.528 408.893 170.353 409.946 170.353 411.182C170.353 412.435 170.523 413.5 170.864 414.378C171.214 415.256 171.704 415.925 172.334 416.385C172.965 416.845 173.702 417.075 174.546 417.075C175.168 417.075 175.726 416.947 176.221 416.692C176.724 416.436 177.137 416.065 177.461 415.58C177.793 415.085 178.011 414.493 178.113 413.803H183.252C183.167 415.303 182.758 416.624 182.025 417.766C181.3 418.899 180.299 419.786 179.021 420.425C177.742 421.064 176.229 421.384 174.482 421.384ZM195.446 421.384C193.46 421.384 191.743 420.962 190.294 420.118C188.854 419.266 187.742 418.081 186.957 416.564C186.173 415.038 185.781 413.27 185.781 411.259C185.781 409.23 186.173 407.457 186.957 405.94C187.742 404.415 188.854 403.23 190.294 402.386C191.743 401.534 193.46 401.108 195.446 401.108C197.432 401.108 199.145 401.534 200.585 402.386C202.034 403.23 203.151 404.415 203.935 405.94C204.719 407.457 205.111 409.23 205.111 411.259C205.111 413.27 204.719 415.038 203.935 416.564C203.151 418.081 202.034 419.266 200.585 420.118C199.145 420.962 197.432 421.384 195.446 421.384ZM195.472 417.165C196.375 417.165 197.129 416.909 197.734 416.398C198.34 415.878 198.796 415.17 199.102 414.276C199.418 413.381 199.575 412.362 199.575 411.22C199.575 410.078 199.418 409.06 199.102 408.165C198.796 407.27 198.34 406.562 197.734 406.043C197.129 405.523 196.375 405.263 195.472 405.263C194.56 405.263 193.793 405.523 193.171 406.043C192.557 406.562 192.092 407.27 191.777 408.165C191.47 409.06 191.317 410.078 191.317 411.22C191.317 412.362 191.47 413.381 191.777 414.276C192.092 415.17 192.557 415.878 193.171 416.398C193.793 416.909 194.56 417.165 195.472 417.165ZM213.933 409.648V421H208.487V401.364H213.677V404.828H213.908C214.342 403.686 215.071 402.783 216.094 402.118C217.116 401.445 218.356 401.108 219.814 401.108C221.177 401.108 222.366 401.406 223.381 402.003C224.395 402.599 225.183 403.452 225.746 404.56C226.308 405.659 226.589 406.972 226.589 408.497V421H221.143V409.469C221.152 408.267 220.845 407.33 220.223 406.656C219.601 405.974 218.744 405.634 217.653 405.634C216.92 405.634 216.273 405.791 215.71 406.107C215.156 406.422 214.721 406.882 214.406 407.487C214.099 408.084 213.942 408.804 213.933 409.648ZM241.161 401.364V405.455H229.336V401.364H241.161ZM232.021 396.659H237.467V414.966C237.467 415.469 237.543 415.861 237.697 416.142C237.85 416.415 238.063 416.607 238.336 416.717C238.617 416.828 238.941 416.884 239.307 416.884C239.563 416.884 239.819 416.862 240.075 416.82C240.33 416.768 240.526 416.73 240.663 416.705L241.519 420.757C241.246 420.842 240.863 420.94 240.369 421.051C239.874 421.17 239.273 421.243 238.566 421.268C237.254 421.32 236.103 421.145 235.114 420.744C234.134 420.344 233.371 419.722 232.826 418.878C232.28 418.034 232.012 416.969 232.021 415.682V396.659ZM253.282 421.384C251.262 421.384 249.523 420.974 248.066 420.156C246.617 419.33 245.5 418.162 244.716 416.653C243.932 415.136 243.54 413.342 243.54 411.271C243.54 409.251 243.932 407.479 244.716 405.953C245.5 404.428 246.604 403.239 248.027 402.386C249.459 401.534 251.138 401.108 253.064 401.108C254.36 401.108 255.566 401.317 256.682 401.734C257.807 402.143 258.787 402.761 259.623 403.588C260.466 404.415 261.123 405.455 261.591 406.707C262.06 407.952 262.294 409.409 262.294 411.08V412.575H245.714V409.2H257.168C257.168 408.416 256.998 407.722 256.657 407.116C256.316 406.511 255.843 406.038 255.238 405.697C254.641 405.348 253.946 405.173 253.154 405.173C252.327 405.173 251.594 405.365 250.955 405.749C250.324 406.124 249.83 406.631 249.472 407.27C249.114 407.901 248.931 408.604 248.922 409.379V412.588C248.922 413.56 249.101 414.399 249.459 415.107C249.826 415.814 250.341 416.359 251.006 416.743C251.671 417.126 252.459 417.318 253.371 417.318C253.976 417.318 254.53 417.233 255.033 417.062C255.536 416.892 255.966 416.636 256.324 416.295C256.682 415.955 256.955 415.537 257.142 415.043L262.179 415.375C261.924 416.585 261.4 417.642 260.607 418.545C259.823 419.44 258.809 420.139 257.564 420.642C256.329 421.136 254.901 421.384 253.282 421.384ZM271.129 409.648V421H265.683V401.364H270.874V404.828H271.104C271.539 403.686 272.267 402.783 273.29 402.118C274.313 401.445 275.553 401.108 277.01 401.108C278.374 401.108 279.563 401.406 280.577 402.003C281.591 402.599 282.379 403.452 282.942 404.56C283.504 405.659 283.786 406.972 283.786 408.497V421H278.34V409.469C278.348 408.267 278.041 407.33 277.419 406.656C276.797 405.974 275.941 405.634 274.85 405.634C274.117 405.634 273.469 405.791 272.906 406.107C272.352 406.422 271.918 406.882 271.602 407.487C271.296 408.084 271.138 408.804 271.129 409.648ZM298.358 401.364V405.455H286.532V401.364H298.358ZM289.217 396.659H294.663V414.966C294.663 415.469 294.74 415.861 294.893 416.142C295.047 416.415 295.26 416.607 295.532 416.717C295.814 416.828 296.137 416.884 296.504 416.884C296.76 416.884 297.015 416.862 297.271 416.82C297.527 416.768 297.723 416.73 297.859 416.705L298.716 420.757C298.443 420.842 298.059 420.94 297.565 421.051C297.071 421.17 296.47 421.243 295.762 421.268C294.45 421.32 293.299 421.145 292.311 420.744C291.331 420.344 290.568 419.722 290.022 418.878C289.477 418.034 289.208 416.969 289.217 415.682V396.659Z" fill="white"/>
<g clip-path="url(#clip0_52_2797)">
<rect x="189.5" y="284.5" width="47" height="47" rx="3.5" stroke="white" stroke-width="3"/>
<path d="M203.203 321V318.366L216.971 298.219H203.088V294.818H221.804V297.452L208.035 317.599H221.919V321H203.203Z" fill="white"/>
<rect x="139.5" y="234.5" width="47" height="47" rx="3.5" stroke="white" stroke-width="3"/>
<path d="M160.669 262.511H164.555L167.291 266.078L168.582 267.663L172.942 273.352H168.902L165.987 269.555L164.99 268.175L160.669 262.511ZM173.785 257.909C173.785 260.705 173.274 263.108 172.251 265.119C171.229 267.122 169.827 268.665 168.045 269.747C166.273 270.821 164.257 271.358 161.998 271.358C159.731 271.358 157.707 270.821 155.926 269.747C154.153 268.665 152.756 267.118 151.733 265.107C150.71 263.095 150.199 260.696 150.199 257.909C150.199 255.114 150.71 252.714 151.733 250.712C152.756 248.7 154.153 247.158 155.926 246.084C157.707 245.001 159.731 244.46 161.998 244.46C164.257 244.46 166.273 245.001 168.045 246.084C169.827 247.158 171.229 248.7 172.251 250.712C173.274 252.714 173.785 255.114 173.785 257.909ZM169.873 257.909C169.873 255.778 169.528 253.984 168.838 252.527C168.156 251.061 167.219 249.953 166.025 249.203C164.841 248.445 163.498 248.065 161.998 248.065C160.49 248.065 159.143 248.445 157.959 249.203C156.774 249.953 155.836 251.061 155.146 252.527C154.464 253.984 154.123 255.778 154.123 257.909C154.123 260.04 154.464 261.838 155.146 263.304C155.836 264.761 156.774 265.869 157.959 266.628C159.143 267.378 160.49 267.753 161.998 267.753C163.498 267.753 164.841 267.378 166.025 266.628C167.219 265.869 168.156 264.761 168.838 263.304C169.528 261.838 169.873 260.04 169.873 257.909Z" fill="white"/>
<rect x="139.5" y="284.5" width="47" height="47" rx="3.5" stroke="white" stroke-width="3"/>
<path d="M164.975 294.818V321H161.025V294.818H164.975Z" fill="white"/>
<rect x="189.5" y="234.5" width="47" height="47" rx="3.5" stroke="white" stroke-width="3"/>
<path d="M218.942 244.818H222.905V262.038C222.905 263.871 222.474 265.494 221.613 266.909C220.753 268.315 219.542 269.423 217.983 270.233C216.423 271.034 214.595 271.435 212.498 271.435C210.41 271.435 208.586 271.034 207.027 270.233C205.467 269.423 204.257 268.315 203.396 266.909C202.535 265.494 202.105 263.871 202.105 262.038V244.818H206.055V261.719C206.055 262.903 206.315 263.956 206.835 264.876C207.363 265.797 208.109 266.521 209.072 267.05C210.035 267.57 211.177 267.83 212.498 267.83C213.828 267.83 214.974 267.57 215.937 267.05C216.909 266.521 217.65 265.797 218.162 264.876C218.682 263.956 218.942 262.903 218.942 261.719V244.818Z" fill="white"/>
</g>
<defs>
<clipPath id="clip0_52_2797">
<rect width="100" height="100" fill="white" transform="translate(138 233)"/>
</clipPath>
</defs>
</svg>
