<svg width="412" height="917" viewBox="0 0 412 917" fill="none" xmlns="http://www.w3.org/2000/svg">
<rect width="412" height="917" fill="#131417"/>
<path d="M106.158 461.898H110.862L113.227 464.94L115.554 467.651L119.939 473.148H114.774L111.757 469.44L110.21 467.241L106.158 461.898ZM120.335 457.909C120.335 460.764 119.794 463.193 118.712 465.196C117.638 467.199 116.172 468.729 114.314 469.786C112.464 470.834 110.385 471.358 108.075 471.358C105.749 471.358 103.661 470.83 101.811 469.773C99.9616 468.716 98.5 467.186 97.4261 465.183C96.3523 463.18 95.8153 460.756 95.8153 457.909C95.8153 455.054 96.3523 452.625 97.4261 450.622C98.5 448.619 99.9616 447.094 101.811 446.045C103.661 444.989 105.749 444.46 108.075 444.46C110.385 444.46 112.464 444.989 114.314 446.045C116.172 447.094 117.638 448.619 118.712 450.622C119.794 452.625 120.335 455.054 120.335 457.909ZM114.723 457.909C114.723 456.06 114.446 454.5 113.892 453.23C113.347 451.96 112.575 450.997 111.578 450.341C110.581 449.685 109.413 449.357 108.075 449.357C106.737 449.357 105.57 449.685 104.572 450.341C103.575 450.997 102.8 451.96 102.246 453.23C101.7 454.5 101.428 456.06 101.428 457.909C101.428 459.759 101.7 461.318 102.246 462.588C102.8 463.858 103.575 464.821 104.572 465.477C105.57 466.134 106.737 466.462 108.075 466.462C109.413 466.462 110.581 466.134 111.578 465.477C112.575 464.821 113.347 463.858 113.892 462.588C114.446 461.318 114.723 459.759 114.723 457.909ZM136.761 462.639V451.364H142.207V471H136.978V467.433H136.774C136.33 468.584 135.593 469.509 134.562 470.207C133.539 470.906 132.291 471.256 130.816 471.256C129.504 471.256 128.349 470.957 127.352 470.361C126.355 469.764 125.575 468.916 125.012 467.817C124.458 466.717 124.177 465.401 124.168 463.866V451.364H129.614V462.895C129.623 464.054 129.934 464.97 130.548 465.643C131.161 466.317 131.984 466.653 133.015 466.653C133.671 466.653 134.285 466.504 134.856 466.206C135.427 465.899 135.887 465.447 136.237 464.851C136.595 464.254 136.769 463.517 136.761 462.639ZM146.398 471V451.364H151.844V471H146.398ZM149.134 448.832C148.324 448.832 147.63 448.564 147.05 448.027C146.479 447.482 146.193 446.83 146.193 446.071C146.193 445.321 146.479 444.678 147.05 444.141C147.63 443.595 148.324 443.322 149.134 443.322C149.943 443.322 150.634 443.595 151.205 444.141C151.784 444.678 152.074 445.321 152.074 446.071C152.074 446.83 151.784 447.482 151.205 448.027C150.634 448.564 149.943 448.832 149.134 448.832ZM155.939 471V467.753L165.553 455.851V455.71H156.272V451.364H172.111V454.905L163.086 466.513V466.653H172.444V471H155.939ZM193.482 471.384C191.471 471.384 189.741 470.957 188.292 470.105C186.851 469.244 185.744 468.051 184.968 466.526C184.201 465 183.817 463.244 183.817 461.259C183.817 459.247 184.205 457.483 184.981 455.966C185.765 454.44 186.877 453.251 188.317 452.399C189.758 451.538 191.471 451.108 193.457 451.108C195.17 451.108 196.67 451.419 197.957 452.041C199.244 452.663 200.262 453.537 201.012 454.662C201.762 455.787 202.175 457.108 202.252 458.625H197.113C196.968 457.645 196.584 456.857 195.962 456.26C195.349 455.655 194.543 455.352 193.546 455.352C192.702 455.352 191.965 455.582 191.334 456.043C190.712 456.494 190.226 457.155 189.877 458.024C189.528 458.893 189.353 459.946 189.353 461.182C189.353 462.435 189.523 463.5 189.864 464.378C190.214 465.256 190.704 465.925 191.334 466.385C191.965 466.845 192.702 467.075 193.546 467.075C194.168 467.075 194.726 466.947 195.221 466.692C195.724 466.436 196.137 466.065 196.461 465.58C196.793 465.085 197.011 464.493 197.113 463.803H202.252C202.167 465.303 201.758 466.624 201.025 467.766C200.3 468.899 199.299 469.786 198.021 470.425C196.742 471.064 195.229 471.384 193.482 471.384ZM214.446 471.384C212.46 471.384 210.743 470.962 209.294 470.118C207.854 469.266 206.742 468.081 205.957 466.564C205.173 465.038 204.781 463.27 204.781 461.259C204.781 459.23 205.173 457.457 205.957 455.94C206.742 454.415 207.854 453.23 209.294 452.386C210.743 451.534 212.46 451.108 214.446 451.108C216.432 451.108 218.145 451.534 219.585 452.386C221.034 453.23 222.151 454.415 222.935 455.94C223.719 457.457 224.111 459.23 224.111 461.259C224.111 463.27 223.719 465.038 222.935 466.564C222.151 468.081 221.034 469.266 219.585 470.118C218.145 470.962 216.432 471.384 214.446 471.384ZM214.472 467.165C215.375 467.165 216.129 466.909 216.734 466.398C217.34 465.878 217.796 465.17 218.102 464.276C218.418 463.381 218.575 462.362 218.575 461.22C218.575 460.078 218.418 459.06 218.102 458.165C217.796 457.27 217.34 456.562 216.734 456.043C216.129 455.523 215.375 455.263 214.472 455.263C213.56 455.263 212.793 455.523 212.171 456.043C211.557 456.562 211.092 457.27 210.777 458.165C210.47 459.06 210.317 460.078 210.317 461.22C210.317 462.362 210.47 463.381 210.777 464.276C211.092 465.17 211.557 465.878 212.171 466.398C212.793 466.909 213.56 467.165 214.472 467.165ZM232.933 459.648V471H227.487V451.364H232.677V454.828H232.908C233.342 453.686 234.071 452.783 235.094 452.118C236.116 451.445 237.356 451.108 238.814 451.108C240.177 451.108 241.366 451.406 242.381 452.003C243.395 452.599 244.183 453.452 244.746 454.56C245.308 455.659 245.589 456.972 245.589 458.497V471H240.143V459.469C240.152 458.267 239.845 457.33 239.223 456.656C238.601 455.974 237.744 455.634 236.653 455.634C235.92 455.634 235.273 455.791 234.71 456.107C234.156 456.422 233.721 456.882 233.406 457.487C233.099 458.084 232.942 458.804 232.933 459.648ZM260.161 451.364V455.455H248.336V451.364H260.161ZM251.021 446.659H256.467V464.966C256.467 465.469 256.543 465.861 256.697 466.142C256.85 466.415 257.063 466.607 257.336 466.717C257.617 466.828 257.941 466.884 258.307 466.884C258.563 466.884 258.819 466.862 259.075 466.82C259.33 466.768 259.526 466.73 259.663 466.705L260.519 470.757C260.246 470.842 259.863 470.94 259.369 471.051C258.874 471.17 258.273 471.243 257.566 471.268C256.254 471.32 255.103 471.145 254.114 470.744C253.134 470.344 252.371 469.722 251.826 468.878C251.28 468.034 251.012 466.969 251.021 465.682V446.659ZM272.282 471.384C270.262 471.384 268.523 470.974 267.066 470.156C265.617 469.33 264.5 468.162 263.716 466.653C262.932 465.136 262.54 463.342 262.54 461.271C262.54 459.251 262.932 457.479 263.716 455.953C264.5 454.428 265.604 453.239 267.027 452.386C268.459 451.534 270.138 451.108 272.064 451.108C273.36 451.108 274.566 451.317 275.682 451.734C276.807 452.143 277.787 452.761 278.623 453.588C279.466 454.415 280.123 455.455 280.591 456.707C281.06 457.952 281.294 459.409 281.294 461.08V462.575H264.714V459.2H276.168C276.168 458.416 275.998 457.722 275.657 457.116C275.316 456.511 274.843 456.038 274.238 455.697C273.641 455.348 272.946 455.173 272.154 455.173C271.327 455.173 270.594 455.365 269.955 455.749C269.324 456.124 268.83 456.631 268.472 457.27C268.114 457.901 267.931 458.604 267.922 459.379V462.588C267.922 463.56 268.101 464.399 268.459 465.107C268.826 465.814 269.341 466.359 270.006 466.743C270.671 467.126 271.459 467.318 272.371 467.318C272.976 467.318 273.53 467.233 274.033 467.062C274.536 466.892 274.966 466.636 275.324 466.295C275.682 465.955 275.955 465.537 276.142 465.043L281.179 465.375C280.924 466.585 280.4 467.642 279.607 468.545C278.823 469.44 277.809 470.139 276.564 470.642C275.329 471.136 273.901 471.384 272.282 471.384ZM290.129 459.648V471H284.683V451.364H289.874V454.828H290.104C290.539 453.686 291.267 452.783 292.29 452.118C293.313 451.445 294.553 451.108 296.01 451.108C297.374 451.108 298.563 451.406 299.577 452.003C300.591 452.599 301.379 453.452 301.942 454.56C302.504 455.659 302.786 456.972 302.786 458.497V471H297.34V459.469C297.348 458.267 297.041 457.33 296.419 456.656C295.797 455.974 294.941 455.634 293.85 455.634C293.117 455.634 292.469 455.791 291.906 456.107C291.352 456.422 290.918 456.882 290.602 457.487C290.296 458.084 290.138 458.804 290.129 459.648ZM317.358 451.364V455.455H305.532V451.364H317.358ZM308.217 446.659H313.663V464.966C313.663 465.469 313.74 465.861 313.893 466.142C314.047 466.415 314.26 466.607 314.532 466.717C314.814 466.828 315.137 466.884 315.504 466.884C315.76 466.884 316.015 466.862 316.271 466.82C316.527 466.768 316.723 466.73 316.859 466.705L317.716 470.757C317.443 470.842 317.059 470.94 316.565 471.051C316.071 471.17 315.47 471.243 314.762 471.268C313.45 471.32 312.299 471.145 311.311 470.744C310.331 470.344 309.568 469.722 309.022 468.878C308.477 468.034 308.208 466.969 308.217 465.682V446.659Z" fill="white"/>
<g clip-path="url(#clip0_52_2795)">
<rect x="208.5" y="334.5" width="47" height="47" rx="3.5" stroke="white" stroke-width="3"/>
<path d="M222.203 371V368.366L235.971 348.219H222.088V344.818H240.804V347.452L227.035 367.599H240.919V371H222.203Z" fill="white"/>
<rect x="158.5" y="284.5" width="47" height="47" rx="3.5" stroke="white" stroke-width="3"/>
<path d="M179.669 312.511H183.555L186.291 316.078L187.582 317.663L191.942 323.352H187.902L184.987 319.555L183.99 318.175L179.669 312.511ZM192.785 307.909C192.785 310.705 192.274 313.108 191.251 315.119C190.229 317.122 188.827 318.665 187.045 319.747C185.273 320.821 183.257 321.358 180.998 321.358C178.731 321.358 176.707 320.821 174.926 319.747C173.153 318.665 171.756 317.118 170.733 315.107C169.71 313.095 169.199 310.696 169.199 307.909C169.199 305.114 169.71 302.714 170.733 300.712C171.756 298.7 173.153 297.158 174.926 296.084C176.707 295.001 178.731 294.46 180.998 294.46C183.257 294.46 185.273 295.001 187.045 296.084C188.827 297.158 190.229 298.7 191.251 300.712C192.274 302.714 192.785 305.114 192.785 307.909ZM188.873 307.909C188.873 305.778 188.528 303.984 187.838 302.527C187.156 301.061 186.219 299.953 185.025 299.203C183.841 298.445 182.498 298.065 180.998 298.065C179.49 298.065 178.143 298.445 176.959 299.203C175.774 299.953 174.836 301.061 174.146 302.527C173.464 303.984 173.123 305.778 173.123 307.909C173.123 310.04 173.464 311.838 174.146 313.304C174.836 314.761 175.774 315.869 176.959 316.628C178.143 317.378 179.49 317.753 180.998 317.753C182.498 317.753 183.841 317.378 185.025 316.628C186.219 315.869 187.156 314.761 187.838 313.304C188.528 311.838 188.873 310.04 188.873 307.909Z" fill="white"/>
<rect x="158.5" y="334.5" width="47" height="47" rx="3.5" stroke="white" stroke-width="3"/>
<path d="M183.975 344.818V371H180.025V344.818H183.975Z" fill="white"/>
<rect x="208.5" y="284.5" width="47" height="47" rx="3.5" stroke="white" stroke-width="3"/>
<path d="M237.942 294.818H241.905V312.038C241.905 313.871 241.474 315.494 240.613 316.909C239.753 318.315 238.542 319.423 236.983 320.233C235.423 321.034 233.595 321.435 231.498 321.435C229.41 321.435 227.586 321.034 226.027 320.233C224.467 319.423 223.257 318.315 222.396 316.909C221.535 315.494 221.105 313.871 221.105 312.038V294.818H225.055V311.719C225.055 312.903 225.315 313.956 225.835 314.876C226.363 315.797 227.109 316.521 228.072 317.05C229.035 317.57 230.177 317.83 231.498 317.83C232.828 317.83 233.974 317.57 234.937 317.05C235.909 316.521 236.65 315.797 237.162 314.876C237.682 313.956 237.942 312.903 237.942 311.719V294.818Z" fill="white"/>
</g>
<defs>
<clipPath id="clip0_52_2795">
<rect width="100" height="100" fill="white" transform="translate(157 283)"/>
</clipPath>
</defs>
</svg>
