<svg width="21" height="22" viewBox="0 0 21 22" fill="none" xmlns="http://www.w3.org/2000/svg">
<path d="M10 17V12.75C10 11.5074 11.0074 10.5 12.25 10.5V10.5C13.4926 10.5 14.5 11.5074 14.5 12.75V17M19.5 14.2348V7.6825C19.5 6.6374 18.9561 5.66763 18.0644 5.12266L12.0643 1.45599C11.104 0.869119 9.89599 0.869118 8.93565 1.45599L2.93565 5.12266C2.04389 5.66763 1.5 6.6374 1.5 7.6825V14.2348C1.5 15.3243 2.09068 16.3282 3.04307 16.8573L9.04307 20.1906C9.94914 20.694 11.0509 20.694 11.9569 20.1906L17.9569 16.8573C18.9093 16.3282 19.5 15.3243 19.5 14.2348Z" stroke="#747B83" stroke-width="2"/>
<path d="M5 15.5V11.75C5 11.0596 5.55964 10.5 6.25 10.5V10.5C6.94036 10.5 7.5 11.0596 7.5 11.75V15.5" stroke="#747B83"/>
<path fill-rule="evenodd" clip-rule="evenodd" d="M11.75 8.5C12.9926 8.5 14 7.49264 14 6.25C14 5.00736 12.9926 4 11.75 4C10.5074 4 9.5 5.00736 9.5 6.25C9.5 7.49264 10.5074 8.5 11.75 8.5ZM11.75 7.5C12.4404 7.5 13 6.94036 13 6.25C13 5.55964 12.4404 5 11.75 5C11.0596 5 10.5 5.55964 10.5 6.25C10.5 6.94036 11.0596 7.5 11.75 7.5Z" fill="#747B83"/>
<path fill-rule="evenodd" clip-rule="evenodd" d="M6.25 9.5C7.07843 9.5 7.75 8.82843 7.75 8C7.75 7.17157 7.07843 6.5 6.25 6.5C5.42157 6.5 4.75 7.17157 4.75 8C4.75 8.82843 5.42157 9.5 6.25 9.5ZM6.24998 8.9C6.74703 8.9 7.14998 8.49706 7.14998 8C7.14998 7.50294 6.74703 7.1 6.24998 7.1C5.75292 7.1 5.34998 7.50294 5.34998 8C5.34998 8.49706 5.75292 8.9 6.24998 8.9Z" fill="#747B83"/>
</svg>
