<svg width="118" height="121" viewBox="0 0 118 121" fill="none" xmlns="http://www.w3.org/2000/svg">
<g filter="url(#filter0_bdi_49_2836)">
<g filter="url(#filter1_bdi_49_2836)">
<g filter="url(#filter2_dd_49_2836)">
<ellipse cx="58.92" cy="56.5" rx="54.92" ry="56.5" fill="#C4EAE8"/>
<path d="M112.84 56.5C112.84 87.1787 88.6726 112 58.92 112C29.1674 112 5 87.1787 5 56.5C5 25.8213 29.1674 1 58.92 1C88.6726 1 112.84 25.8213 112.84 56.5Z" stroke="#272A5F" stroke-width="2"/>
</g>
<path d="M36.504 93.5283V84.8403H33.064V82.3283H43.096V84.8403H39.672V93.5283H36.504ZM51.7643 82.3283H54.9323V93.5283H51.7643V82.3283ZM47.4443 93.5283H44.2763V82.3283H47.4443V93.5283ZM51.9883 89.1603H47.2203V86.5363H51.9883V89.1603ZM57.1669 93.5283V82.3283H60.3349V93.5283H57.1669ZM62.5888 93.5283V82.3283H65.1968L71.3728 89.7843H70.1408V82.3283H73.2448V93.5283H70.6368L64.4608 86.0723H65.6927V93.5283H62.5888ZM78.3114 91.0483L78.1354 87.4963L82.9514 82.3283H86.4394L81.6394 87.5283L79.8794 89.3683L78.3114 91.0483ZM75.4794 93.5283V82.3283H78.6154V93.5283H75.4794ZM82.9994 93.5283L79.3514 88.9043L81.4154 86.6963L86.6794 93.5283H82.9994Z" fill="#272A5F"/>
<path d="M54.036 68.9787C53.0561 65.36 51.5778 62.6623 49.6011 60.8855C46.636 58.2204 41.9248 59.8768 40.1846 57.1279C38.4443 54.3789 41.4038 49.3237 42.4423 46.3408C43.4809 43.3581 38.4618 42.3034 39.0478 41.4566C39.4384 40.8921 41.9747 39.263 46.6567 36.5695C47.987 27.9784 52.9008 23.6829 61.3982 23.6829C74.1441 23.6829 79 35.9195 79 43.7023C79 51.4853 73.1201 59.8699 64.7441 61.6778C63.9951 62.913 65.0754 65.3466 67.9848 68.9787" stroke="#272A5F" stroke-width="4" stroke-linecap="round" stroke-linejoin="round"/>
<path fill-rule="evenodd" clip-rule="evenodd" d="M54.5004 35.573C53.8471 38.4428 54.0415 40.4579 55.0836 41.6183C56.1257 42.7788 57.9018 43.5376 60.4119 43.8949C59.8424 47.5963 60.5368 49.3329 62.4949 49.1043C64.4531 48.8758 65.6296 47.9545 66.0246 46.3402C69.0849 47.3141 70.7435 46.499 71.0004 43.8949C71.3859 39.9886 69.5257 36.8724 68.7631 36.8724C68.0004 36.8724 66.0246 36.7673 66.0246 35.573C66.0246 34.3785 63.7166 33.7038 61.6336 33.7038C59.5506 33.7038 60.8042 32.1138 57.9439 32.742C56.037 33.1608 54.8892 34.1044 54.5004 35.573Z" fill="#272A5F" stroke="#272A5F" stroke-width="4" stroke-linejoin="round"/>
</g>
</g>
<defs>
<filter id="filter0_bdi_49_2836" x="0" y="-4" width="117.84" height="125" filterUnits="userSpaceOnUse" color-interpolation-filters="sRGB">
<feFlood flood-opacity="0" result="BackgroundImageFix"/>
<feGaussianBlur in="BackgroundImageFix" stdDeviation="2"/>
<feComposite in2="SourceAlpha" operator="in" result="effect1_backgroundBlur_49_2836"/>
<feColorMatrix in="SourceAlpha" type="matrix" values="0 0 0 0 0 0 0 0 0 0 0 0 0 0 0 0 0 0 127 0" result="hardAlpha"/>
<feOffset dy="4"/>
<feGaussianBlur stdDeviation="2"/>
<feComposite in2="hardAlpha" operator="out"/>
<feColorMatrix type="matrix" values="0 0 0 0 0 0 0 0 0 0 0 0 0 0 0 0 0 0 0.25 0"/>
<feBlend mode="normal" in2="effect1_backgroundBlur_49_2836" result="effect2_dropShadow_49_2836"/>
<feBlend mode="normal" in="SourceGraphic" in2="effect2_dropShadow_49_2836" result="shape"/>
<feColorMatrix in="SourceAlpha" type="matrix" values="0 0 0 0 0 0 0 0 0 0 0 0 0 0 0 0 0 0 127 0" result="hardAlpha"/>
<feOffset dy="4"/>
<feGaussianBlur stdDeviation="2"/>
<feComposite in2="hardAlpha" operator="arithmetic" k2="-1" k3="1"/>
<feColorMatrix type="matrix" values="0 0 0 0 0 0 0 0 0 0 0 0 0 0 0 0 0 0 0.25 0"/>
<feBlend mode="normal" in2="shape" result="effect3_innerShadow_49_2836"/>
</filter>
<filter id="filter1_bdi_49_2836" x="0" y="-4" width="117.84" height="125" filterUnits="userSpaceOnUse" color-interpolation-filters="sRGB">
<feFlood flood-opacity="0" result="BackgroundImageFix"/>
<feGaussianBlur in="BackgroundImageFix" stdDeviation="2"/>
<feComposite in2="SourceAlpha" operator="in" result="effect1_backgroundBlur_49_2836"/>
<feColorMatrix in="SourceAlpha" type="matrix" values="0 0 0 0 0 0 0 0 0 0 0 0 0 0 0 0 0 0 127 0" result="hardAlpha"/>
<feOffset dy="4"/>
<feGaussianBlur stdDeviation="2"/>
<feComposite in2="hardAlpha" operator="out"/>
<feColorMatrix type="matrix" values="0 0 0 0 0 0 0 0 0 0 0 0 0 0 0 0 0 0 0.25 0"/>
<feBlend mode="normal" in2="effect1_backgroundBlur_49_2836" result="effect2_dropShadow_49_2836"/>
<feBlend mode="normal" in="SourceGraphic" in2="effect2_dropShadow_49_2836" result="shape"/>
<feColorMatrix in="SourceAlpha" type="matrix" values="0 0 0 0 0 0 0 0 0 0 0 0 0 0 0 0 0 0 127 0" result="hardAlpha"/>
<feOffset dy="4"/>
<feGaussianBlur stdDeviation="2"/>
<feComposite in2="hardAlpha" operator="arithmetic" k2="-1" k3="1"/>
<feColorMatrix type="matrix" values="0 0 0 0 0 0 0 0 0 0 0 0 0 0 0 0 0 0 0.25 0"/>
<feBlend mode="normal" in2="shape" result="effect3_innerShadow_49_2836"/>
</filter>
<filter id="filter2_dd_49_2836" x="0" y="0" width="117.84" height="121" filterUnits="userSpaceOnUse" color-interpolation-filters="sRGB">
<feFlood flood-opacity="0" result="BackgroundImageFix"/>
<feColorMatrix in="SourceAlpha" type="matrix" values="0 0 0 0 0 0 0 0 0 0 0 0 0 0 0 0 0 0 127 0" result="hardAlpha"/>
<feOffset dy="4"/>
<feGaussianBlur stdDeviation="2"/>
<feComposite in2="hardAlpha" operator="out"/>
<feColorMatrix type="matrix" values="0 0 0 0 0 0 0 0 0 0 0 0 0 0 0 0 0 0 0.25 0"/>
<feBlend mode="normal" in2="BackgroundImageFix" result="effect1_dropShadow_49_2836"/>
<feColorMatrix in="SourceAlpha" type="matrix" values="0 0 0 0 0 0 0 0 0 0 0 0 0 0 0 0 0 0 127 0" result="hardAlpha"/>
<feOffset dy="4"/>
<feGaussianBlur stdDeviation="2"/>
<feComposite in2="hardAlpha" operator="out"/>
<feColorMatrix type="matrix" values="0 0 0 0 0 0 0 0 0 0 0 0 0 0 0 0 0 0 0.25 0"/>
<feBlend mode="normal" in2="effect1_dropShadow_49_2836" result="effect2_dropShadow_49_2836"/>
<feBlend mode="normal" in="SourceGraphic" in2="effect2_dropShadow_49_2836" result="shape"/>
</filter>
</defs>
</svg>
